<svg id="Layer_1" data-name="Layer 1" xmlns="http://www.w3.org/2000/svg" viewBox="0 0 171.28 115.94"><defs><style>.cls-1{fill:#fff;}</style></defs><title>BRAZOS_BLD_WHT</title><path class="cls-1" d="M170.65,77.71h-3.6V97.48c0,3.53,1.87,5.36,5.68,5.36h.74V99.59h-.7c-1.41,0-2.12-.92-2.12-2.47Zm-9.31,0h-3.6V97.48c0,3.53,1.87,5.36,5.68,5.36h.74V99.59h-.71c-1.41,0-2.12-.92-2.12-2.47ZM145.87,100c-2.12,0-3-1-3-2.12v-.18c0-1.41,1.27-2.36,2.86-2.36h4.52v2.43a4.9,4.9,0,0,1-4.34,2.22m-6.64-1.76c0,2.79,2.26,5,6,5a5.94,5.94,0,0,0,5-2.26v1.83h3.6V91.48c0-4-2.58-6.71-6.85-6.71a7.78,7.78,0,0,0-7.2,4.55l3.56,1A3.74,3.74,0,0,1,146.82,88c2.08,0,3.39,1.38,3.39,4v.46h-3.42c-5.58,0-7.55,2.58-7.55,5.26Zm-15.94-1.91h3.18L132,86.15v16.69h3.81V78.14h-3.28l-7.66,14-7.66-14h-3.28v24.7h3.81V86.15Zm-22.41,1.48c0-2.79-1.27-4.59-5.65-5.33l-1.66-.28c-1.69-.28-2.75-1-2.75-2.19s1.06-2,2.72-2a3.24,3.24,0,0,1,3.35,2.51l3.67-.64a6.93,6.93,0,0,0-7.06-5.12c-3.92,0-6.28,2.19-6.28,5.19,0,2.82,1.8,4.59,5.79,5.22l1.59.25c1.9.28,2.68,1.13,2.68,2.4S96.19,100,94.36,100a3.84,3.84,0,0,1-4-3l-3.67.64c1,3.56,3.78,5.57,7.69,5.57s6.46-2.29,6.46-5.43m-28.35-5c0-3.21,1.83-4.76,3.92-4.76s3.92,1.55,3.92,4.76v2.47c0,3.21-1.84,4.76-3.92,4.76s-3.92-1.55-3.92-4.76ZM68.93,96a7.52,7.52,0,0,0,15,0V92.08a7.52,7.52,0,0,0-15,0ZM66.17,85.2H52.65v3.25h8.82l-9.21,11.5v2.89H66.52V99.59H57l9.21-11.5ZM41.38,100c-2.12,0-3-1-3-2.12v-.18c0-1.41,1.27-2.36,2.86-2.36h4.52v2.43A4.9,4.9,0,0,1,41.38,100m-6.63-1.76c0,2.79,2.26,5,6,5a5.94,5.94,0,0,0,5-2.26v1.83h3.6V91.48c0-4-2.58-6.71-6.85-6.71a7.78,7.78,0,0,0-7.2,4.55l3.56,1A3.74,3.74,0,0,1,42.33,88c2.08,0,3.39,1.38,3.39,4v.46H42.29c-5.58,0-7.55,2.58-7.55,5.26Zm-12.57,4.59h3.6V90.42A5.13,5.13,0,0,1,30.11,88a7.45,7.45,0,0,1,2.65.46V85.2a5.71,5.71,0,0,0-2.15-.42A6.11,6.11,0,0,0,25.77,87V85.2h-3.6ZM6,88.41V81.56H9.78c2.65,0,4.59.85,4.59,3.42s-1.94,3.42-4.59,3.42Zm4.59,3.42c2.58,0,4.48,1.27,4.48,3.81s-1.59,3.78-4.59,3.78H6V91.83Zm.42,11c4.16,0,7.87-2.22,7.87-7.2A6,6,0,0,0,15,90a5.11,5.11,0,0,0,3.18-5c0-4.94-4.06-6.85-7.87-6.85H2.19v24.7Z" transform="translate(-2.19 -7.23)"/><path class="cls-1" d="M158,123.14V116h-1.63v3.65l-4.19-3.78-.22,0V123h1.63v-3.68l4.24,3.81Zm-9.82-3.62a1.89,1.89,0,1,1-1.86-2.18,2,2,0,0,1,1.86,2.18m1.75,0a3.45,3.45,0,0,0-3.57-3.64,3.5,3.5,0,0,0-3.64,3.64,3.44,3.44,0,0,0,3.57,3.63,3.5,3.5,0,0,0,3.64-3.63M140.71,116h-1.63v7h1.63Zm-3.34,1.5V116h-5.85v1.5h2.11V123h1.63V117.5Zm-7.26,5-.49-1.38a3.48,3.48,0,0,1-1.76.52,2.11,2.11,0,1,1,0-4.23,3.52,3.52,0,0,1,1.68.47l.5-1.38a4.32,4.32,0,0,0-2.2-.61,3.64,3.64,0,1,0,0,7.27,4.29,4.29,0,0,0,2.27-.65m-7.92.54v-1.49h-2.82v-1.37h2.57v-1.42h-2.57V117.5h2.82V116h-4.45v7Zm-6.1,0v-1.49h-2.82V116h-1.63v7Zm-6.1,0v-1.49h-2.82V116h-1.63v7Zm-8.23-3.51a1.89,1.89,0,1,1-1.86-2.18,2,2,0,0,1,1.86,2.18m1.75,0a3.45,3.45,0,0,0-3.57-3.64,3.5,3.5,0,0,0-3.64,3.64,3.44,3.44,0,0,0,3.57,3.63,3.5,3.5,0,0,0,3.64-3.63m-8.6,3-.49-1.38a3.48,3.48,0,0,1-1.76.52,2.11,2.11,0,1,1,0-4.23,3.52,3.52,0,0,1,1.68.47l.5-1.38a4.31,4.31,0,0,0-2.2-.61,3.64,3.64,0,1,0,0,7.27,4.29,4.29,0,0,0,2.27-.65M85,123v-1.49H82.21V116H80.58v7Zm-8.71-2.52H74.94l.7-1.69ZM79.07,123l-3.31-7.09h-.22L72.23,123h1.66l.53-1.28h2.43l.53,1.28Zm-8.37-7H69.08v7h1.63Zm-4,7.14V116H65.1v3.65l-4.18-3.78-.22,0V123h1.63v-3.68l4.24,3.81Zm-8.36,0V116H56.74v3.65l-4.19-3.78-.22,0V123H54v-3.68l4.24,3.81ZM50.13,123v-1.49H47.31v-1.37h2.57v-1.42H47.31V117.5h2.82V116H45.67v7ZM44,117.5V116H38.14v1.5h2.11V123h1.63V117.5Zm-7.54,5.64V116H34.82v3.65l-4.19-3.78-.22,0V123H32v-3.68l4.24,3.81ZM28.21,123v-1.49H25.38v-1.37H28v-1.42H25.38V117.5h2.82V116H23.75v7Zm-6.27-.54-.49-1.38a3.48,3.48,0,0,1-1.76.52,2.11,2.11,0,1,1,0-4.23,3.52,3.52,0,0,1,1.68.47l.5-1.38a4.32,4.32,0,0,0-2.2-.61,3.64,3.64,0,1,0,0,7.27,4.29,4.29,0,0,0,2.27-.65" transform="translate(-2.19 -7.23)"/><path class="cls-1" d="M145.63,67.88h-117a.38.38,0,0,1,0-.75h117a.38.38,0,0,1,0,.75Z" transform="translate(-2.19 -7.23)"/><path class="cls-1" d="M102.44,9.39a.37.37,0,0,1-.26-.1.35.35,0,0,1-.11-.25.58.58,0,0,1,.15-.38.3.3,0,0,1,.21-.1h0c.21,0,.37.27.38.46a.34.34,0,0,1-.1.25.38.38,0,0,1-.27.12Z" transform="translate(-2.19 -7.23)"/><path class="cls-1" d="M102.65,45.17h-46a.34.34,0,0,1,0-.68h46a.34.34,0,1,1,0,.68Z" transform="translate(-2.19 -7.23)"/><path class="cls-1" d="M88.46,57.83h0l-3.69,0a.34.34,0,0,1,0-.68h0l3.69,0a.34.34,0,0,1,0,.68Z" transform="translate(-2.19 -7.23)"/><path class="cls-1" d="M82,56.25H78.64a.34.34,0,0,1,0-.68H82a.34.34,0,0,1,0,.68Z" transform="translate(-2.19 -7.23)"/><path class="cls-1" d="M98.21,51.25H92.68a.34.34,0,1,1,0-.68h5.52a.34.34,0,1,1,0,.68Z" transform="translate(-2.19 -7.23)"/><path class="cls-1" d="M91,49H88.63a.34.34,0,0,1,0-.68H91A.34.34,0,1,1,91,49Z" transform="translate(-2.19 -7.23)"/><path class="cls-1" d="M96.35,53.84H88.24a.34.34,0,0,1,0-.68h8.12a.34.34,0,1,1,0,.68Z" transform="translate(-2.19 -7.23)"/><path class="cls-1" d="M89.09,51.29H87.21a.34.34,0,0,1,0-.68h1.87a.34.34,0,1,1,0,.68Z" transform="translate(-2.19 -7.23)"/><path class="cls-1" d="M100.78,47.54H93.34a.34.34,0,1,1,0-.68h7.43a.34.34,0,1,1,0,.68Z" transform="translate(-2.19 -7.23)"/><path class="cls-1" d="M99.53,56.06H92.15a.34.34,0,1,1,0-.68h7.38a.34.34,0,1,1,0,.68Z" transform="translate(-2.19 -7.23)"/><path class="cls-1" d="M82.56,53.73H78A.34.34,0,0,1,78,53h4.54a.34.34,0,0,1,0,.68Z" transform="translate(-2.19 -7.23)"/><path class="cls-1" d="M79.89,50.44H78.36a.34.34,0,0,1,0-.68h1.53a.34.34,0,0,1,0,.68Z" transform="translate(-2.19 -7.23)"/><path class="cls-1" d="M74.37,48.39H72.84a.34.34,0,0,1,0-.68h1.53a.34.34,0,0,1,0,.68Z" transform="translate(-2.19 -7.23)"/><path class="cls-1" d="M71.15,51.74h-7a.34.34,0,0,1,0-.68h7a.34.34,0,0,1,0,.68Z" transform="translate(-2.19 -7.23)"/><path class="cls-1" d="M73.71,54.3H69.45a.34.34,0,0,1,0-.68h4.26a.34.34,0,1,1,0,.68Z" transform="translate(-2.19 -7.23)"/><path class="cls-1" d="M79,58.44H70.45a.34.34,0,1,1,0-.68H79a.34.34,0,0,1,0,.68Z" transform="translate(-2.19 -7.23)"/><path class="cls-1" d="M83.52,47.6H80.23a.34.34,0,1,1,0-.68h3.29a.34.34,0,0,1,0,.68Z" transform="translate(-2.19 -7.23)"/><path class="cls-1" d="M64.68,47.9H61.39a.34.34,0,1,1,0-.68h3.29a.34.34,0,0,1,0,.68Z" transform="translate(-2.19 -7.23)"/><path class="cls-1" d="M68.54,56.17H64.68a.34.34,0,0,1,0-.68h3.86a.34.34,0,1,1,0,.68Z" transform="translate(-2.19 -7.23)"/><path class="cls-1" d="M114.16,8.21c-3.15-1.32-8-.9-10.56-.53l-.15,0a1.82,1.82,0,0,0-.55-.35,2.16,2.16,0,0,0-.72-.12,4.44,4.44,0,0,0-1.2.21,4,4,0,0,1-1.06.2h0l-.23,0a2,2,0,0,0-1.47.75c-1.35,1.49-2.11,5.12-2,6.36A9.72,9.72,0,0,0,98,18.88a11.58,11.58,0,0,1,1.44,2.89,3.05,3.05,0,0,1-.4,2.7,2.07,2.07,0,0,1-1.67.86,2.75,2.75,0,0,1-1.45-.46c-.56-.35-1-.68-1.48-1a7.52,7.52,0,0,0-5-1.85,13.72,13.72,0,0,0-1.87.14,29.77,29.77,0,0,0-6.16,1.54,21,21,0,0,0-5.6,3,18.65,18.65,0,0,0-2.61,2.66,23.73,23.73,0,0,1-1.78,1.93,17.54,17.54,0,0,0-2.75,3.84c-.56,1-1.49,2.78-1.35,3.43a.45.45,0,0,0,.44.36h.08l.16,0c-.35,1.53-.69,3.56-.81,4.33-.19,1.18-.36,2.32-.47,3.21-.2,1.58-.14,1.67,0,1.82a.47.47,0,0,0,.39.21h0a.46.46,0,0,0,.33-.16,6.16,6.16,0,0,0,.49-.76,11,11,0,0,1,.6-.94,1.63,1.63,0,0,1,.38-.4,4.49,4.49,0,0,1,.32,1.72c.06.9.1,1.49.54,1.71a.44.44,0,0,0,.2,0,.46.46,0,0,0,.32-.14,12,12,0,0,0,2-3.26c1-2,1.9-3.94,4.22-4.14h.12c.36,0,.46.13.49.17.35.44,0,1.77-.11,2.49v0a1.88,1.88,0,0,0,0,.38,5.68,5.68,0,0,0-.17.57A52.14,52.14,0,0,1,75,52a9.44,9.44,0,0,0-.44,2.76v.06c0,.87,0,.89.06,1s.17.27.83.27a5.6,5.6,0,0,0,.79-.07h.1l.06-.09A9.66,9.66,0,0,0,77,52.37a15.2,15.2,0,0,1,.19-2A11.59,11.59,0,0,1,78.87,47l.09-.14.5-.82c.33-.55.68-1.13,1-1.56h0a7,7,0,0,0,.56-1,4,4,0,0,1,.8-1.28,2.9,2.9,0,0,1,1.63-.84c.68,0,1.06.85,1.28,2,.08,1.61.09,3.42.06,4.57,0,.29,0,.59,0,.89a18,18,0,0,1-.35,4.08,11.21,11.21,0,0,0-.17,1.89c0,.2,0,.37,0,.52l0,.16.09.07a1.84,1.84,0,0,0,.92.17,2.22,2.22,0,0,0,.4,0c.63-.16.86-.22.79-.68a1.42,1.42,0,0,1,0-.44,3.92,3.92,0,0,0-.1-1.09,4.7,4.7,0,0,1-.1-.86,15.09,15.09,0,0,1,.21-1.9c0-.29.09-.59.12-.87a19.85,19.85,0,0,1,1-4.16c.37-.82.72-1.81,1.09-2.87a19.58,19.58,0,0,1,2.29-5.11l.38-.48A8.73,8.73,0,0,1,95,33.91c3.33-1.28,7.61-3.58,9.12-7.19a7.63,7.63,0,0,0-.22-6.18,13.34,13.34,0,0,0-1.06-1.81c-.76-1.17-1.63-2.49-1.5-3.49.17-1.29,1.56-2,2.9-2.75a8.53,8.53,0,0,0,2.09-1.37.44.44,0,0,0,.06-.11c.61-.13,1.22-.28,1.81-.44s1.4-.36,2.11-.51l.8-.14a6.2,6.2,0,0,0,3.18-1.11l.4-.38ZM71.6,40.12h0a.4.4,0,0,1-.4-.42l0-.38c.08-1.66.2-4.44,1.21-6,1.46-2.25,2.77-3.63,4-4.25l0,.05-.63,1.3a15.06,15.06,0,0,0-2.73,3.32c-.88,1.36-1,4-1.08,5.54,4.76-.3,9.06-3.69,12.49-6.76l2.09-1,.09.09C82.85,35.16,77.62,40,71.6,40.12Zm30.3-31.59a.91.91,0,0,1,.55-.24.59.59,0,0,1,.33.11.67.67,0,0,1,.2.94.79.79,0,0,1-.55.19.82.82,0,0,1-.25,0A.66.66,0,0,1,101.91,8.53Zm-3.23,1c-.36-.36,2-1.14,2.41-1.19a2.87,2.87,0,0,0,.53-.14h0a1,1,0,0,0-.21,1,1.13,1.13,0,0,0,.15.34,4.36,4.36,0,0,0-.56.2C100.28,10,99.65,10.5,98.68,9.51Zm6,1.67c-.6.3-1.12.54-1.57.74-.79.34-2.32,1.73-3.1.84,1-.73,2.35-1.66,1.92-2.9l.12.06a1.27,1.27,0,0,0,.39.06,1.22,1.22,0,0,0,.88-.34,1,1,0,0,0,.23-.79,1.14,1.14,0,0,0-.2-.51,1.57,1.57,0,0,1,.55.36,4,4,0,0,1,.5,1.28c.11.24.75.47,1,.61C105.45,10.81,105,11,104.68,11.18Zm6.28-2-.82.15c-.72.15-1.44.33-2.15.52s-1.3.33-2,.47a4.08,4.08,0,0,1-1.24-1.14,4.14,4.14,0,0,0-.42-.9c2.15-.26,6.07-.56,8.86.33A9.08,9.08,0,0,1,111,9.21Z" transform="translate(-2.19 -7.23)"/></svg>