<svg id="Layer_1" data-name="Layer 1" xmlns="http://www.w3.org/2000/svg" viewBox="0 0 167.65 115.77"><defs><style>.cls-1{fill:#fff;}</style></defs><title>BRAZOS_WHT</title><path class="cls-1" d="M171.65,100.3H171c-1.69,0-2.44-1.09-2.44-3V77.54h-2.65v20c0,3.28,1.55,5.08,5,5.08h.71Zm-8.72,0h-.63c-1.69,0-2.43-1.09-2.43-3V77.54h-2.65v20c0,3.28,1.55,5.08,5,5.08h.71ZM146.34,87c2.54,0,4.09,1.52,4.09,4.69v.88h-4.2c-5.43,0-7.34,2.54-7.34,5.19v.46c0,2.79,2.29,4.9,6,4.9a6.53,6.53,0,0,0,5.57-2.58v2.15h2.65V91.34c0-4-2.51-6.74-6.63-6.74a7.58,7.58,0,0,0-7,4.31l2.61.71A4.69,4.69,0,0,1,146.34,87m-1.09,13.76c-2.43,0-3.71-1.2-3.71-2.79v-.18c0-1.73,1.38-3.07,3.88-3.07h5v3.18a5.66,5.66,0,0,1-5.19,2.86m-19.41-4.83,6.7-12.18v19h2.79V78h-2.47l-8.19,14.86L116.49,78H114v24.7h2.79v-19l6.7,12.18ZM87.41,89.54c0,2.65,1.34,4.48,5.43,5.15l1.73.28c2.26.35,3.49,1.16,3.49,2.89s-1.38,2.86-3.7,2.86a4.67,4.67,0,0,1-4.73-3.46L87,97.76c1,3.46,3.67,5.33,7.41,5.33,4,0,6.35-2.15,6.35-5.22,0-2.79-1.45-4.55-5.43-5.19l-1.73-.28c-2.26-.35-3.49-1.2-3.49-2.82S91.29,87,93.48,87a3.93,3.93,0,0,1,4.13,3l2.72-.46a6.7,6.7,0,0,0-6.88-4.91c-3.6,0-6,2-6,4.94m-6.08,5.65c0,3.49-2,5.54-4.66,5.54S72,98.68,72,95.19V92.5C72,89,74,87,76.67,87s4.66,2,4.66,5.54Zm-12,.49a7.31,7.31,0,1,0,14.61,0V92a7.31,7.31,0,1,0-14.61,0ZM66.65,85H53.42v2.36h9.81L53,100.55v2.12H67V100.3H56.42L66.65,87.14ZM43.08,87c2.54,0,4.09,1.52,4.09,4.69v.88H43c-5.44,0-7.34,2.54-7.34,5.19v.46c0,2.79,2.29,4.9,6,4.9a6.53,6.53,0,0,0,5.58-2.58v2.15h2.65V91.34c0-4-2.51-6.74-6.64-6.74a7.58,7.58,0,0,0-7,4.31l2.61.71A4.69,4.69,0,0,1,43.08,87M42,100.73c-2.43,0-3.7-1.2-3.7-2.79v-.18c0-1.73,1.38-3.07,3.88-3.07h5v3.18A5.66,5.66,0,0,1,42,100.73M33.77,85a5.5,5.5,0,0,0-2.19-.42,6.27,6.27,0,0,0-5.22,2.65V85H23.71v17.65h2.65V90a5.66,5.66,0,0,1,4.91-3,7.19,7.19,0,0,1,2.51.42Zm-27,3.67V80.47h4.59c3.07,0,5.33,1.06,5.33,4.13,0,2.82-2,4.09-5.08,4.09Zm10.66,7c0,3-1.9,4.48-5.26,4.48H6.79v-9h5.47c3.14,0,5.19,1.52,5.19,4.48m-4.8,7c4.06,0,7.59-2.12,7.59-7a5.82,5.82,0,0,0-4.16-5.89,5.15,5.15,0,0,0,3.42-5.22c0-4.76-3.81-6.63-7.66-6.63H4v24.7Z" transform="translate(-4 -7.23)"/><path class="cls-1" d="M155.87,123v-7.14h-1.2v4.44l-4.35-4.58-.19,0v7.13h1.2v-4.51l4.41,4.65Zm-9-3.62a2.29,2.29,0,1,1-2.27-2.56,2.35,2.35,0,0,1,2.27,2.56m1.29,0a3.48,3.48,0,0,0-3.52-3.64,3.53,3.53,0,0,0-3.59,3.64,3.47,3.47,0,0,0,3.52,3.63,3.53,3.53,0,0,0,3.59-3.63M139,115.83h-1.2v7H139Zm-2.91,1.09v-1.09H130.4v1.09h2.24v5.94h1.2v-5.94Zm-7.08,5.4-.36-1a4,4,0,0,1-1.92.56,2.51,2.51,0,0,1,0-5,4,4,0,0,1,1.87.54l.41-1a4.41,4.41,0,0,0-2.27-.64,3.64,3.64,0,1,0,0,7.27,4.4,4.4,0,0,0,2.29-.66m-7.77.55v-1.09h-3.09v-2h2.79v-1.06h-2.79v-1.83h3.09v-1.09h-4.29v7Zm-5.93,0v-1.09h-3.09v-5.94H111v7Zm-5.93,0v-1.09h-3.09v-5.94h-1.2v7Zm-7.59-3.51a2.29,2.29,0,1,1-2.27-2.56,2.35,2.35,0,0,1,2.27,2.56m1.28,0a3.48,3.48,0,0,0-3.52-3.64,3.53,3.53,0,0,0-3.59,3.64A3.47,3.47,0,0,0,99.46,123a3.53,3.53,0,0,0,3.59-3.63m-8.43,3-.36-1a4,4,0,0,1-1.92.56,2.51,2.51,0,0,1,0-5,4,4,0,0,1,1.87.54l.41-1a4.41,4.41,0,0,0-2.27-.64,3.64,3.64,0,1,0,0,7.27,4.39,4.39,0,0,0,2.29-.66m-9.94.55v-1.09H81.59v-5.94h-1.2v7ZM76.5,120.3h-2l1-2.35Zm2.34,2.56-3.24-7.13h-.17l-3.24,7.13h1.24l.68-1.61H76.9l.68,1.61Zm-8.21-7h-1.2v7h1.2ZM67.1,123v-7.14H65.9v4.44l-4.35-4.58-.19,0v7.13h1.2v-4.51L67,123ZM59,123v-7.14h-1.2v4.44l-4.35-4.58-.19,0v7.13h1.2v-4.51L58.9,123Zm-7.86-.11v-1.09H48.09v-2h2.79v-1.06H48.09v-1.83h3.09v-1.09H46.89v7Zm-6-5.94v-1.09H39.55v1.09h2.24v5.94H43v-5.94Zm-7.34,6v-7.14h-1.2v4.44l-4.35-4.58-.19,0v7.13h1.2v-4.51L37.73,123ZM30,122.87v-1.09H26.92v-2h2.79v-1.06H26.92v-1.83H30v-1.09H25.72v7Zm-6-.55-.37-1a4,4,0,0,1-1.92.56,2.51,2.51,0,0,1,0-5,4,4,0,0,1,1.87.54l.41-1a4.4,4.4,0,0,0-2.26-.64,3.64,3.64,0,1,0,0,7.27,4.4,4.4,0,0,0,2.29-.66" transform="translate(-4 -7.23)"/><path class="cls-1" d="M145.63,67.88h-117a.38.38,0,0,1,0-.75h117a.38.38,0,0,1,0,.75Z" transform="translate(-4 -7.23)"/><path class="cls-1" d="M102.44,9.39a.37.37,0,0,1-.26-.1.35.35,0,0,1-.11-.25.58.58,0,0,1,.15-.38.3.3,0,0,1,.21-.1h0c.21,0,.37.27.38.46a.34.34,0,0,1-.1.25.38.38,0,0,1-.27.12Z" transform="translate(-4 -7.23)"/><path class="cls-1" d="M102.65,45.17h-46a.34.34,0,0,1,0-.68h46a.34.34,0,1,1,0,.68Z" transform="translate(-4 -7.23)"/><path class="cls-1" d="M88.46,57.83h0l-3.69,0a.34.34,0,0,1,0-.68h0l3.69,0a.34.34,0,0,1,0,.68Z" transform="translate(-4 -7.23)"/><path class="cls-1" d="M82,56.25H78.64a.34.34,0,0,1,0-.68H82a.34.34,0,0,1,0,.68Z" transform="translate(-4 -7.23)"/><path class="cls-1" d="M98.21,51.25H92.68a.34.34,0,1,1,0-.68h5.52a.34.34,0,1,1,0,.68Z" transform="translate(-4 -7.23)"/><path class="cls-1" d="M91,49H88.63a.34.34,0,0,1,0-.68H91A.34.34,0,1,1,91,49Z" transform="translate(-4 -7.23)"/><path class="cls-1" d="M96.35,53.84H88.24a.34.34,0,0,1,0-.68h8.12a.34.34,0,1,1,0,.68Z" transform="translate(-4 -7.23)"/><path class="cls-1" d="M89.09,51.29H87.21a.34.34,0,0,1,0-.68h1.87a.34.34,0,1,1,0,.68Z" transform="translate(-4 -7.23)"/><path class="cls-1" d="M100.78,47.54H93.34a.34.34,0,1,1,0-.68h7.43a.34.34,0,1,1,0,.68Z" transform="translate(-4 -7.23)"/><path class="cls-1" d="M99.53,56.06H92.15a.34.34,0,1,1,0-.68h7.38a.34.34,0,1,1,0,.68Z" transform="translate(-4 -7.23)"/><path class="cls-1" d="M82.56,53.73H78A.34.34,0,0,1,78,53h4.54a.34.34,0,0,1,0,.68Z" transform="translate(-4 -7.23)"/><path class="cls-1" d="M79.89,50.44H78.36a.34.34,0,0,1,0-.68h1.53a.34.34,0,0,1,0,.68Z" transform="translate(-4 -7.23)"/><path class="cls-1" d="M74.37,48.39H72.84a.34.34,0,0,1,0-.68h1.53a.34.34,0,0,1,0,.68Z" transform="translate(-4 -7.23)"/><path class="cls-1" d="M71.15,51.74h-7a.34.34,0,0,1,0-.68h7a.34.34,0,0,1,0,.68Z" transform="translate(-4 -7.23)"/><path class="cls-1" d="M73.71,54.3H69.45a.34.34,0,0,1,0-.68h4.26a.34.34,0,1,1,0,.68Z" transform="translate(-4 -7.23)"/><path class="cls-1" d="M79,58.44H70.45a.34.34,0,1,1,0-.68H79a.34.34,0,0,1,0,.68Z" transform="translate(-4 -7.23)"/><path class="cls-1" d="M83.52,47.6H80.23a.34.34,0,1,1,0-.68h3.29a.34.34,0,0,1,0,.68Z" transform="translate(-4 -7.23)"/><path class="cls-1" d="M64.68,47.9H61.39a.34.34,0,1,1,0-.68h3.29a.34.34,0,0,1,0,.68Z" transform="translate(-4 -7.23)"/><path class="cls-1" d="M68.54,56.17H64.68a.34.34,0,0,1,0-.68h3.86a.34.34,0,1,1,0,.68Z" transform="translate(-4 -7.23)"/><path class="cls-1" d="M114.16,8.21c-3.15-1.32-8-.9-10.56-.53l-.15,0a1.82,1.82,0,0,0-.55-.35,2.16,2.16,0,0,0-.72-.12,4.44,4.44,0,0,0-1.2.21,4,4,0,0,1-1.06.2h0l-.23,0a2,2,0,0,0-1.47.75c-1.35,1.49-2.11,5.12-2,6.36A9.72,9.72,0,0,0,98,18.88a11.58,11.58,0,0,1,1.44,2.89,3.05,3.05,0,0,1-.4,2.7,2.07,2.07,0,0,1-1.67.86,2.75,2.75,0,0,1-1.45-.46c-.56-.35-1-.68-1.48-1a7.52,7.52,0,0,0-5-1.85,13.72,13.72,0,0,0-1.87.14,29.77,29.77,0,0,0-6.16,1.54,21,21,0,0,0-5.6,3,18.65,18.65,0,0,0-2.61,2.66,23.73,23.73,0,0,1-1.78,1.93,17.54,17.54,0,0,0-2.75,3.84c-.56,1-1.49,2.78-1.35,3.43a.45.45,0,0,0,.44.36h.08l.16,0c-.35,1.53-.69,3.56-.81,4.33-.19,1.18-.36,2.32-.47,3.21-.2,1.58-.14,1.67,0,1.82a.47.47,0,0,0,.39.21h0a.46.46,0,0,0,.33-.16,6.16,6.16,0,0,0,.49-.76,11,11,0,0,1,.6-.94,1.63,1.63,0,0,1,.38-.4,4.49,4.49,0,0,1,.32,1.72c.06.9.1,1.49.54,1.71a.44.44,0,0,0,.2,0,.46.46,0,0,0,.32-.14,12,12,0,0,0,2-3.26c1-2,1.9-3.94,4.22-4.14h.12c.36,0,.46.13.49.17.35.44,0,1.77-.11,2.49v0a1.88,1.88,0,0,0,0,.38,5.68,5.68,0,0,0-.17.57A52.14,52.14,0,0,1,75,52a9.44,9.44,0,0,0-.44,2.76v.06c0,.87,0,.89.06,1s.17.27.83.27a5.6,5.6,0,0,0,.79-.07h.1l.06-.09A9.66,9.66,0,0,0,77,52.37a15.2,15.2,0,0,1,.19-2A11.59,11.59,0,0,1,78.87,47l.09-.14.5-.82c.33-.55.68-1.13,1-1.56h0a7,7,0,0,0,.56-1,4,4,0,0,1,.8-1.28,2.9,2.9,0,0,1,1.63-.84c.68,0,1.06.85,1.28,2,.08,1.61.09,3.42.06,4.57,0,.29,0,.59,0,.89a18,18,0,0,1-.35,4.08,11.21,11.21,0,0,0-.17,1.89c0,.2,0,.37,0,.52l0,.16.09.07a1.84,1.84,0,0,0,.92.17,2.22,2.22,0,0,0,.4,0c.63-.16.86-.22.79-.68a1.42,1.42,0,0,1,0-.44,3.92,3.92,0,0,0-.1-1.09,4.7,4.7,0,0,1-.1-.86,15.09,15.09,0,0,1,.21-1.9c0-.29.09-.59.12-.87a19.85,19.85,0,0,1,1-4.16c.37-.82.72-1.81,1.09-2.87a19.58,19.58,0,0,1,2.29-5.11l.38-.48A8.73,8.73,0,0,1,95,33.91c3.33-1.28,7.61-3.58,9.12-7.19a7.63,7.63,0,0,0-.22-6.18,13.34,13.34,0,0,0-1.06-1.81c-.76-1.17-1.63-2.49-1.5-3.49.17-1.29,1.56-2,2.9-2.75a8.53,8.53,0,0,0,2.09-1.37.44.44,0,0,0,.06-.11c.61-.13,1.22-.28,1.81-.44s1.4-.36,2.11-.51l.8-.14a6.2,6.2,0,0,0,3.18-1.11l.4-.38ZM71.6,40.12h0a.4.4,0,0,1-.4-.42l0-.38c.08-1.66.2-4.44,1.21-6,1.46-2.25,2.77-3.63,4-4.25l0,.05-.63,1.3a15.06,15.06,0,0,0-2.73,3.32c-.88,1.36-1,4-1.08,5.54,4.76-.3,9.06-3.69,12.49-6.76l2.09-1,.09.09C82.85,35.16,77.62,40,71.6,40.12Zm30.3-31.59a.91.91,0,0,1,.55-.24.59.59,0,0,1,.33.11.67.67,0,0,1,.2.94.79.79,0,0,1-.55.19.82.82,0,0,1-.25,0A.66.66,0,0,1,101.91,8.53Zm-3.23,1c-.36-.36,2-1.14,2.41-1.19a2.87,2.87,0,0,0,.53-.14h0a1,1,0,0,0-.21,1,1.13,1.13,0,0,0,.15.34,4.36,4.36,0,0,0-.56.2C100.28,10,99.65,10.5,98.68,9.51Zm6,1.67c-.6.3-1.12.54-1.57.74-.79.34-2.32,1.73-3.1.84,1-.73,2.35-1.66,1.92-2.9l.12.06a1.27,1.27,0,0,0,.39.06,1.22,1.22,0,0,0,.88-.34,1,1,0,0,0,.23-.79,1.14,1.14,0,0,0-.2-.51,1.57,1.57,0,0,1,.55.36,4,4,0,0,1,.5,1.28c.11.24.75.47,1,.61C105.45,10.81,105,11,104.68,11.18Zm6.28-2-.82.15c-.72.15-1.44.33-2.15.52s-1.3.33-2,.47a4.08,4.08,0,0,1-1.24-1.14,4.14,4.14,0,0,0-.42-.9c2.15-.26,6.07-.56,8.86.33A9.08,9.08,0,0,1,111,9.21Z" transform="translate(-4 -7.23)"/></svg>