<?xml version="1.0" encoding="utf-8"?>
<!-- Generator: Adobe Illustrator 21.1.0, SVG Export Plug-In . SVG Version: 6.00 Build 0)  -->
<svg version="1.1" id="Layer_1" xmlns="http://www.w3.org/2000/svg" xmlns:xlink="http://www.w3.org/1999/xlink" x="0px" y="0px"
	 viewBox="0 0 171.281 116.627" enable-background="new 0 0 171.281 116.627" xml:space="preserve">
   <title>Brazos Mall logo</title>
<path fill="#005E62" d="M168.458,71.169h-3.599v19.762c0,3.529,1.87,5.364,5.681,5.364h0.741v-3.247h-0.705
	c-1.412,0-2.118-0.917-2.118-2.47V71.169z M159.149,71.169h-3.6v19.762c0,3.529,1.871,5.364,5.682,5.364h0.741v-3.247h-0.706
	c-1.411,0-2.117-0.917-2.117-2.47V71.169z M143.675,93.472c-2.118,0-3.035-0.953-3.035-2.118v-0.176c0-1.412,1.27-2.364,2.858-2.364
	h4.517v2.435C147.274,92.59,145.58,93.472,143.675,93.472 M137.04,91.707c0,2.788,2.259,5.011,5.999,5.011
	c2.259,0,3.953-0.882,4.976-2.258v1.835h3.6V84.932c0-3.953-2.576-6.705-6.846-6.705c-3.318,0-5.858,1.799-7.199,4.552l3.564,0.988
	c0.706-1.412,1.835-2.294,3.494-2.294c2.082,0,3.387,1.377,3.387,3.988v0.459h-3.423c-5.576,0-7.552,2.576-7.552,5.258V91.707z
	 M121.1,89.802h3.176l5.541-10.199v16.692h3.811V71.592h-3.282l-7.658,14.045l-7.658-14.045h-3.282v24.703h3.811V79.603
	L121.1,89.802z M98.691,91.284c0-2.788-1.27-4.588-5.646-5.329l-1.659-0.282c-1.694-0.283-2.752-0.953-2.752-2.188
	c0-1.165,1.058-2.012,2.717-2.012c1.694,0,3.035,0.988,3.353,2.506l3.67-0.635c-0.918-3.212-3.565-5.117-7.058-5.117
	c-3.917,0-6.282,2.187-6.282,5.187c0,2.823,1.8,4.588,5.788,5.223l1.588,0.247c1.905,0.282,2.682,1.129,2.682,2.4
	c0,1.27-1.094,2.188-2.929,2.188c-1.906,0-3.318-0.918-3.953-2.965l-3.67,0.636c0.953,3.564,3.776,5.575,7.693,5.575
	C96.221,96.718,98.691,94.425,98.691,91.284 M70.336,86.237c0-3.211,1.835-4.764,3.917-4.764s3.918,1.553,3.918,4.764v2.471
	c0,3.211-1.836,4.764-3.918,4.764s-3.917-1.553-3.917-4.764V86.237z M66.737,89.413c0,3.882,3.14,7.305,7.516,7.305
	c4.376,0,7.517-3.423,7.517-7.305v-3.881c0-3.882-3.141-7.305-7.517-7.305c-4.376,0-7.516,3.423-7.516,7.305V89.413z M63.973,78.65
	H50.457v3.247h8.823l-9.211,11.504v2.894h14.257v-3.247h-9.563l9.21-11.504V78.65z M39.183,93.472c-2.118,0-3.035-0.953-3.035-2.118
	v-0.176c0-1.412,1.27-2.364,2.858-2.364h4.517v2.435C42.782,92.59,41.088,93.472,39.183,93.472 M32.548,91.707
	c0,2.788,2.259,5.011,5.999,5.011c2.259,0,3.953-0.882,4.976-2.258v1.835h3.6V84.932c0-3.953-2.576-6.705-6.846-6.705
	c-3.318,0-5.858,1.799-7.199,4.552l3.564,0.988c0.706-1.412,1.835-2.294,3.494-2.294c2.082,0,3.387,1.377,3.387,3.988v0.459H40.1
	c-5.576,0-7.552,2.576-7.552,5.258V91.707z M19.974,96.295h3.6V83.873c0.953-1.518,2.611-2.4,4.341-2.4
	c0.988,0,1.729,0.141,2.646,0.459V78.65c-0.67-0.282-1.447-0.423-2.152-0.423c-2.118,0-3.847,0.988-4.835,2.258V78.65h-3.6V96.295z
	 M3.812,81.861v-6.846h3.776c2.647,0,4.588,0.847,4.588,3.423c0,2.541-1.941,3.423-4.588,3.423H3.812z M8.4,85.285
	c2.576,0,4.481,1.27,4.481,3.811s-1.588,3.776-4.587,3.776H3.812v-7.587H8.4z M8.823,96.295c4.164,0,7.87-2.223,7.87-7.199
	c0-2.717-1.624-4.835-3.882-5.682c1.905-0.776,3.176-2.541,3.176-4.976c0-4.94-4.058-6.846-7.87-6.846H0v24.703H8.823z"/>
<path fill="#636466" d="M155.823,116.599v-7.142h-1.631v3.648l-4.186-3.782l-0.22,0.038v7.132h1.63v-3.676l4.244,3.81
	L155.823,116.599z M146.008,112.98c0,1.258-0.749,2.18-1.863,2.18s-1.863-0.922-1.863-2.18c0-1.267,0.749-2.18,1.863-2.18
	S146.008,111.713,146.008,112.98 M147.754,112.98c0-2.074-1.401-3.638-3.571-3.638c-2.179,0-3.637,1.564-3.637,3.638
	c0,2.065,1.391,3.628,3.57,3.628C146.286,116.608,147.754,115.045,147.754,112.98 M138.512,109.457h-1.631v7.036h1.631V109.457z
	 M135.174,110.954v-1.497h-5.854v1.497h2.112v5.539h1.63v-5.539H135.174z M127.909,115.956l-0.49-1.382
	c-0.528,0.327-1.18,0.519-1.756,0.519c-1.316,0-2.132-0.807-2.132-2.113s0.816-2.113,2.132-2.113c0.576,0,1.161,0.183,1.68,0.471
	l0.499-1.382c-0.634-0.374-1.383-0.614-2.199-0.614c-2.294,0-3.848,1.545-3.848,3.638c0,2.084,1.554,3.628,3.848,3.628
	C126.45,116.608,127.295,116.359,127.909,115.956 M119.993,116.493v-1.487h-2.822v-1.374h2.572v-1.419h-2.572v-1.259h2.822v-1.497
	h-4.453v7.036H119.993z M113.897,116.493v-1.487h-2.822v-5.549h-1.631v7.036H113.897z M107.801,116.493v-1.487h-2.822v-5.549h-1.631
	v7.036H107.801z M99.57,112.98c0,1.258-0.749,2.18-1.863,2.18s-1.863-0.922-1.863-2.18c0-1.267,0.749-2.18,1.863-2.18
	S99.57,111.713,99.57,112.98 M101.316,112.98c0-2.074-1.4-3.638-3.57-3.638c-2.18,0-3.638,1.564-3.638,3.638
	c0,2.065,1.391,3.628,3.57,3.628C99.849,116.608,101.316,115.045,101.316,112.98 M92.719,115.956l-0.49-1.382
	c-0.528,0.327-1.181,0.519-1.757,0.519c-1.315,0-2.131-0.807-2.131-2.113s0.816-2.113,2.131-2.113c0.576,0,1.162,0.183,1.68,0.471
	l0.499-1.382c-0.633-0.374-1.382-0.614-2.198-0.614c-2.294,0-3.848,1.545-3.848,3.638c0,2.084,1.554,3.628,3.848,3.628
	C91.259,116.608,92.104,116.359,92.719,115.956 M82.84,116.493v-1.487h-2.822v-5.549h-1.631v7.036H82.84z M74.135,113.969h-1.392
	l0.701-1.689L74.135,113.969z M76.88,116.493l-3.312-7.093h-0.22l-3.312,7.093h1.66l0.528-1.277h2.429l0.528,1.277H76.88z
	 M68.512,109.457h-1.631v7.036h1.631V109.457z M64.537,116.599v-7.142h-1.631v3.648l-4.185-3.782l-0.221,0.038v7.132h1.631v-3.676
	l4.243,3.81L64.537,116.599z M56.178,116.599v-7.142h-1.631v3.648l-4.186-3.782l-0.221,0.038v7.132h1.631v-3.676l4.244,3.81
	L56.178,116.599z M47.933,116.493v-1.487h-2.822v-1.374h2.573v-1.419h-2.573v-1.259h2.822v-1.497H43.48v7.036H47.933z
	 M41.798,110.954v-1.497h-5.855v1.497h2.112v5.539h1.631v-5.539H41.798z M34.256,116.599v-7.142h-1.63v3.648l-4.186-3.782
	l-0.221,0.038v7.132h1.631v-3.676l4.243,3.81L34.256,116.599z M26.012,116.493v-1.487h-2.823v-1.374h2.573v-1.419h-2.573v-1.259
	h2.823v-1.497h-4.453v7.036H26.012z M19.745,115.956l-0.49-1.382c-0.528,0.327-1.18,0.519-1.756,0.519
	c-1.316,0-2.132-0.807-2.132-2.113s0.816-2.113,2.132-2.113c0.576,0,1.161,0.183,1.68,0.471l0.499-1.382
	c-0.634-0.374-1.383-0.614-2.199-0.614c-2.294,0-3.848,1.545-3.848,3.638c0,2.084,1.554,3.628,3.848,3.628
	C18.286,116.608,19.131,116.359,19.745,115.956"/>
<path fill="#005E62" d="M143.298,60.385c0.207,0,0.375,0.168,0.375,0.375s-0.168,0.375-0.375,0.375h-117
	c-0.207,0-0.375-0.168-0.375-0.375s0.168-0.375,0.375-0.375"/>
<g>
	<defs>
		<rect id="SVGID_1_" x="53.835" width="58.611" height="51.755"/>
	</defs>
	<clipPath id="SVGID_2_">
		<use xlink:href="#SVGID_1_"  overflow="visible"/>
	</clipPath>
	<path clip-path="url(#SVGID_2_)" fill="#005E62" d="M100.17,2.518c-0.099,0-0.191-0.037-0.262-0.104
		c-0.068-0.065-0.108-0.153-0.11-0.246c-0.002-0.125,0.06-0.281,0.153-0.379c0.064-0.066,0.136-0.101,0.21-0.103h0.005
		c0.215,0,0.376,0.276,0.379,0.464c0.003,0.094-0.032,0.183-0.098,0.251c-0.069,0.073-0.164,0.115-0.267,0.117H100.17z"/>
	<path clip-path="url(#SVGID_2_)" fill="#005E62" d="M100.386,38.437H54.177c-0.189,0-0.342-0.153-0.342-0.342
		c0-0.188,0.153-0.341,0.342-0.341h46.209c0.189,0,0.342,0.153,0.342,0.341C100.728,38.284,100.575,38.437,100.386,38.437"/>
	<path clip-path="url(#SVGID_2_)" fill="#005E62" d="M86.141,51.147h-0.003l-3.704-0.037c-0.188-0.002-0.34-0.157-0.338-0.345
		s0.154-0.339,0.342-0.339h0.003l3.703,0.038c0.189,0.002,0.341,0.156,0.339,0.345C86.481,50.997,86.328,51.147,86.141,51.147"/>
	<path clip-path="url(#SVGID_2_)" fill="#005E62" d="M79.646,49.552h-3.362c-0.188,0-0.341-0.153-0.341-0.342
		c0-0.188,0.153-0.341,0.341-0.341h3.362c0.189,0,0.342,0.153,0.342,0.341C79.988,49.399,79.835,49.552,79.646,49.552"/>
	<path clip-path="url(#SVGID_2_)" fill="#005E62" d="M95.922,44.538h-5.545c-0.189,0-0.342-0.153-0.342-0.342
		c0-0.188,0.153-0.341,0.342-0.341h5.545c0.189,0,0.342,0.153,0.342,0.341C96.264,44.385,96.111,44.538,95.922,44.538"/>
	<path clip-path="url(#SVGID_2_)" fill="#005E62" d="M88.649,42.259h-2.337c-0.188,0-0.341-0.153-0.341-0.342
		c0-0.188,0.153-0.341,0.341-0.341h2.337c0.189,0,0.342,0.153,0.342,0.341C88.991,42.106,88.838,42.259,88.649,42.259"/>
	<path clip-path="url(#SVGID_2_)" fill="#005E62" d="M94.061,47.14h-8.148c-0.188,0-0.341-0.153-0.341-0.342
		c0-0.188,0.153-0.341,0.341-0.341h8.148c0.189,0,0.342,0.153,0.342,0.341C94.403,46.987,94.25,47.14,94.061,47.14"/>
	<path clip-path="url(#SVGID_2_)" fill="#005E62" d="M86.769,44.576h-1.881c-0.189,0-0.342-0.153-0.342-0.342
		c0-0.188,0.153-0.341,0.342-0.341h1.881c0.189,0,0.342,0.153,0.342,0.341C87.111,44.423,86.958,44.576,86.769,44.576"/>
	<path clip-path="url(#SVGID_2_)" fill="#005E62" d="M98.505,40.815h-7.463c-0.19,0-0.343-0.153-0.343-0.342
		c0-0.188,0.153-0.341,0.343-0.341h7.463c0.189,0,0.342,0.153,0.342,0.341C98.847,40.662,98.694,40.815,98.505,40.815"/>
	<path clip-path="url(#SVGID_2_)" fill="#005E62" d="M97.251,49.362h-7.407c-0.189,0-0.342-0.153-0.342-0.342
		c0-0.188,0.153-0.341,0.342-0.341h7.407c0.189,0,0.342,0.153,0.342,0.341C97.593,49.209,97.44,49.362,97.251,49.362"/>
	<path clip-path="url(#SVGID_2_)" fill="#005E62" d="M80.216,47.026h-4.559c-0.188,0-0.341-0.153-0.341-0.342
		c0-0.188,0.153-0.341,0.341-0.341h4.559c0.189,0,0.342,0.153,0.342,0.341C80.558,46.873,80.405,47.026,80.216,47.026"/>
	<path clip-path="url(#SVGID_2_)" fill="#005E62" d="M77.537,43.721h-1.538c-0.188,0-0.341-0.153-0.341-0.342
		c0-0.188,0.153-0.341,0.341-0.341h1.538c0.189,0,0.342,0.153,0.342,0.341C77.879,43.568,77.726,43.721,77.537,43.721"/>
	<path clip-path="url(#SVGID_2_)" fill="#005E62" d="M71.992,41.67h-1.538c-0.188,0-0.341-0.153-0.341-0.342
		c0-0.188,0.153-0.341,0.341-0.341h1.538c0.189,0,0.342,0.153,0.342,0.341C72.334,41.517,72.181,41.67,71.992,41.67"/>
	<path clip-path="url(#SVGID_2_)" fill="#005E62" d="M68.763,45.032h-7.065c-0.189,0-0.342-0.153-0.342-0.342
		c0-0.188,0.153-0.341,0.342-0.341h7.065c0.189,0,0.342,0.153,0.342,0.341C69.105,44.879,68.952,45.032,68.763,45.032"/>
	<path clip-path="url(#SVGID_2_)" fill="#005E62" d="M71.327,47.596h-4.273c-0.189,0-0.342-0.153-0.342-0.342
		c0-0.188,0.153-0.341,0.342-0.341h4.273c0.189,0,0.342,0.153,0.342,0.341C71.669,47.443,71.516,47.596,71.327,47.596"/>
	<path clip-path="url(#SVGID_2_)" fill="#005E62" d="M76.608,51.755h-8.547c-0.189,0-0.342-0.153-0.342-0.342
		c0-0.188,0.153-0.341,0.342-0.341h8.547c0.189,0,0.342,0.153,0.342,0.341C76.95,51.602,76.797,51.755,76.608,51.755"/>
	<path clip-path="url(#SVGID_2_)" fill="#005E62" d="M81.184,40.872h-3.305c-0.189,0-0.341-0.153-0.341-0.342
		c0-0.188,0.152-0.341,0.341-0.341h3.305c0.189,0,0.342,0.153,0.342,0.341C81.526,40.719,81.373,40.872,81.184,40.872"/>
	<path clip-path="url(#SVGID_2_)" fill="#005E62" d="M62.267,41.176h-3.305c-0.189,0-0.341-0.153-0.341-0.342
		c0-0.188,0.152-0.341,0.341-0.341h3.305c0.189,0,0.342,0.153,0.342,0.341C62.609,41.023,62.456,41.176,62.267,41.176"/>
	<path clip-path="url(#SVGID_2_)" fill="#005E62" d="M66.142,49.476h-3.875c-0.189,0-0.342-0.153-0.342-0.342
		c0-0.188,0.153-0.341,0.342-0.341h3.875c0.189,0,0.342,0.153,0.342,0.341C66.484,49.323,66.331,49.476,66.142,49.476"/>
	<path clip-path="url(#SVGID_2_)" fill="#005E62" d="M111.937,1.33c-3.167-1.33-8.002-0.905-10.601-0.534l-0.155,0.022
		c-0.184-0.156-0.368-0.287-0.555-0.35c-0.23-0.08-0.465-0.118-0.718-0.118c-0.425,0-0.82,0.11-1.203,0.216
		c-0.365,0.101-0.71,0.198-1.066,0.198h-0.021c-0.076-0.011-0.154-0.017-0.231-0.017c-0.524,0-1.02,0.255-1.471,0.757
		c-1.352,1.497-2.121,5.138-1.991,6.388c0.169,1.618,0.968,2.907,1.742,4.152c0.593,0.956,1.153,1.86,1.45,2.901
		c0.286,1.005,0.141,1.991-0.399,2.708c-0.419,0.554-1.016,0.86-1.681,0.86c-0.477,0-0.966-0.154-1.455-0.458
		c-0.56-0.348-1.031-0.683-1.488-1.007c-1.465-1.038-2.621-1.859-4.995-1.859c-0.568,0-1.182,0.046-1.877,0.141
		c-2.093,0.288-4.231,0.821-6.185,1.543c-2.199,0.814-4.092,1.829-5.622,3.018c-0.988,0.768-1.818,1.735-2.621,2.671
		c-0.597,0.698-1.162,1.356-1.789,1.942c-0.78,0.728-1.812,2.17-2.76,3.855c-0.565,1.003-1.493,2.787-1.355,3.448
		c0.045,0.214,0.233,0.362,0.445,0.362c0.025,0,0.05-0.002,0.075-0.006c0.054-0.009,0.108-0.023,0.163-0.043
		c-0.349,1.531-0.693,3.578-0.818,4.35c-0.193,1.186-0.36,2.329-0.471,3.217c-0.197,1.59-0.139,1.674-0.036,1.827
		c0.087,0.13,0.233,0.207,0.388,0.207h0.019c0.126-0.005,0.245-0.063,0.327-0.158c0.143-0.168,0.306-0.443,0.495-0.76
		c0.183-0.31,0.391-0.662,0.598-0.939c0.196-0.262,0.318-0.362,0.376-0.399c0.217,0.266,0.28,1.174,0.318,1.726
		c0.062,0.904,0.102,1.501,0.543,1.717c0.064,0.032,0.132,0.047,0.201,0.047c0.119,0,0.238-0.047,0.325-0.136
		c0.875-0.889,1.46-2.099,2.024-3.267c0.981-2.033,1.907-3.953,4.238-4.159c0.042-0.003,0.083-0.005,0.123-0.005
		c0.357,0,0.462,0.131,0.497,0.174c0.353,0.443,0.049,1.781-0.115,2.501c-0.002,0.007-0.003,0.014-0.004,0.022
		c-0.023,0.132-0.031,0.261-0.028,0.386c-0.066,0.195-0.127,0.386-0.169,0.569c-0.478,2.103-1.019,4.319-1.737,6.277
		c-0.223,0.607-0.46,1.895-0.444,2.775v0.063c0.004,0.873,0.016,0.892,0.061,0.959c0.048,0.075,0.171,0.269,0.835,0.269
		c0.207,0,0.465-0.019,0.791-0.066l0.102-0.015l0.056-0.085c0.393-0.598,0.484-2.103,0.572-3.557
		c0.049-0.801,0.095-1.557,0.189-1.963c0.286-1.235,0.995-2.358,1.681-3.444l0.085-0.136c0.154-0.243,0.325-0.526,0.501-0.82
		c0.335-0.556,0.681-1.131,0.991-1.568l-0.013-0.009c0.214-0.304,0.389-0.674,0.559-1.033c0.237-0.503,0.482-1.023,0.799-1.29
		c0.649-0.548,1.214-0.838,1.634-0.838c0.68,0,1.068,0.853,1.285,1.984c0.081,1.616,0.092,3.436,0.064,4.585
		c-0.007,0.29-0.011,0.589-0.015,0.892c-0.019,1.395-0.037,2.838-0.356,4.093c-0.117,0.461-0.149,1.256-0.175,1.895
		c-0.008,0.196-0.015,0.376-0.024,0.523l0.019,0.163l0.09,0.074c0.159,0.13,0.59,0.166,0.92,0.166c0.192,0,0.349-0.012,0.398-0.025
		c0.629-0.161,0.864-0.221,0.789-0.682c-0.016-0.104-0.037-0.233-0.013-0.437c0.039-0.337-0.03-0.722-0.097-1.095
		c-0.053-0.296-0.108-0.602-0.103-0.861c0.012-0.621,0.111-1.278,0.206-1.912c0.045-0.296,0.089-0.589,0.125-0.877
		c0.161-1.304,0.509-2.685,1.035-4.174c0.373-0.822,0.725-1.818,1.093-2.878c0.645-1.853,1.375-3.954,2.3-5.126
		c0.13-0.162,0.256-0.324,0.381-0.484c1.098-1.408,2.048-2.624,3.685-3.256c3.339-1.29,7.637-3.59,9.151-7.217
		c0.806-1.927,0.73-4.014-0.224-6.202c-0.243-0.561-0.643-1.173-1.066-1.82c-0.766-1.173-1.633-2.501-1.503-3.507
		c0.165-1.29,1.563-2.036,2.914-2.756c0.814-0.434,1.584-0.845,2.102-1.379c0.031-0.032,0.043-0.074,0.063-0.113
		c0.615-0.135,1.224-0.284,1.819-0.437c0.704-0.182,1.41-0.364,2.123-0.51c0.245-0.051,0.517-0.096,0.801-0.143
		c1.147-0.19,2.447-0.407,3.193-1.118l0.4-0.381L111.937,1.33z M69.218,33.362h-0.009c-0.107,0-0.211-0.044-0.286-0.121
		c-0.077-0.079-0.118-0.188-0.112-0.298l0.018-0.381c0.077-1.668,0.205-4.459,1.218-6.017c1.466-2.254,2.779-3.648,4.012-4.261
		l0.028,0.055l-0.628,1.307c-0.841,0.703-1.746,1.801-2.743,3.335c-0.885,1.36-1.014,3.972-1.088,5.565
		c4.774-0.301,9.099-3.706,12.535-6.79l2.093-1.006l0.088,0.095C80.511,28.381,75.261,33.221,69.218,33.362 M99.64,1.651
		c0.113-0.093,0.315-0.242,0.553-0.242c0.106,0,0.219,0.029,0.335,0.106c0.385,0.255,0.372,0.759,0.198,0.941
		c-0.122,0.128-0.344,0.195-0.553,0.195c-0.087,0-0.172-0.012-0.248-0.036C99.477,2.47,99.464,1.82,99.64,1.651 M96.394,2.638
		c-0.363-0.366,2.041-1.143,2.417-1.197c0.206-0.03,0.374-0.083,0.532-0.136L99.336,1.31l-0.012,0.012
		c-0.262,0.252-0.278,0.673-0.213,0.957c0.03,0.129,0.083,0.241,0.147,0.344c-0.131,0.027-0.301,0.099-0.566,0.203
		C98.006,3.094,97.37,3.626,96.394,2.638 M102.426,4.317c-0.605,0.297-1.121,0.547-1.574,0.745
		c-0.788,0.344-2.329,1.739-3.108,0.845c0.971-0.732,2.356-1.671,1.923-2.915c0.04,0.019,0.076,0.043,0.119,0.057
		c0.119,0.038,0.25,0.058,0.387,0.058c0.353,0,0.682-0.125,0.883-0.336c0.181-0.191,0.27-0.489,0.235-0.798
		c-0.022-0.19-0.097-0.362-0.201-0.516c0.241,0.109,0.465,0.236,0.556,0.357c0.371,0.498,0.399,1.042,0.504,1.281
		c0.105,0.239,0.754,0.469,1.019,0.611C103.19,3.938,102.706,4.179,102.426,4.317 M108.734,2.33
		c-0.293,0.049-0.574,0.096-0.827,0.148c-0.726,0.149-1.443,0.333-2.158,0.518c-0.645,0.166-1.306,0.327-1.97,0.468
		c-0.355-0.13-0.819-0.636-1.244-1.143c-0.107-0.298-0.231-0.609-0.422-0.899c2.155-0.266,6.089-0.561,8.894,0.336
		C110.378,2.057,109.517,2.2,108.734,2.33"/>
</g>
</svg>
