<svg id="Layer_1" data-name="Layer 1" xmlns="http://www.w3.org/2000/svg" viewBox="0 0 2340.49 1648.38"><defs><style>.cls-1{fill:#fff;}</style></defs><title>airPollution</title><path id="_Compound_Path_" data-name="&lt;Compound Path&gt;" class="cls-1" d="M1612.24,1679.19a422,422,0,0,1-79.24-7.59c-73.23-14-143.36-46.85-203.83-95.35-48.38,30.78-175.56,100-340.35,100A590.32,590.32,0,0,1,655.3,1572.44,625.3,625.3,0,0,1,541.89,1471.8c-48.06-54.22-77.56-105.45-93-136.43A534.06,534.06,0,0,1,325,1298.25c-80.85-35.28-147.48-87.64-198-155.6C44.11,1031.35,29.59,923.3,32,852.26A426.56,426.56,0,0,1,63.23,706a481.22,481.22,0,0,1,63.29-110.15A557.91,557.91,0,0,1,236.23,487.4c54.32-40.71,116.09-70.09,183.58-87.3a557.09,557.09,0,0,1,115-16.79,601.83,601.83,0,0,1,181.9-230.8,585.88,585.88,0,0,1,282.57-117c110.67-14.12,223.08,4,325.09,52.34a601,601,0,0,1,239,204.55c70.17-24.65,144.12-32.54,215-22.82,77.56,10.64,148.47,42,205,90.66,88.58,76.18,119.85,174.91,130.87,233.58,76.2,40.44,140.31,98.87,185.9,169.54,47.95,74.33,72.85,158.27,72,242.73-1.06,107.11-43.67,212.27-120,296.1-74.6,82-176.35,137.4-287.6,156.94-28.76,55-90,143.44-201.89,190.31A388.9,388.9,0,0,1,1612.24,1679.19Zm-280.1-159.35,13.21,11.36c116,99.77,273,129.88,400,76.68,105.75-44.28,160.76-131.17,184.14-179l5.17-10.59,11.65-1.78c215.14-32.8,378.89-209.44,380.89-410.89,1.53-153.87-94-301.79-243.28-376.86l-10.3-5.18-1.82-11.38c-8.05-50.47-34.06-145.9-117.74-217.87-102.26-88-252.23-108.53-391.37-53.7l-17.23,6.79-10-15.6c-114.71-179.4-323-278.19-530.58-251.71C813,104.59,646.55,232.57,570.48,414.1l-5.7,13.59L550,427.9c-60.69.87-178.66,14.43-286.83,95.51C209.22,563.89,83,677.1,77,853.79L54.49,853l22.49.76c-2.16,63.86,11,161.15,86,262C263.59,1251,409.21,1284.5,467.15,1292.65l12.09,1.7,5.16,11.07c25.19,54,124.73,235.39,348,302.68a541.33,541.33,0,0,0,156.77,23.21c171.73,0,299.38-81.18,328.66-101.53Z" transform="translate(-31.76 -30.81)"/><g id="_Group_" data-name="&lt;Group&gt;"><g id="_Group_2" data-name="&lt;Group&gt;"><path class="cls-1" d="M967.08,974.13l115.8,36.72q-26.63,96.83-88.56,143.84t-157.15,47q-117.81,0-193.67-80.49T567.65,901.11q0-147.67,76.26-229.37T844.43,590q108.53,0,176.32,64.15,40.34,37.93,60.52,108.94L963,791.36q-10.5-46-43.78-72.62t-80.9-26.63q-65.77,0-106.72,47.21t-41,152.92q0,112.17,40.35,159.77T836,1099.61q47.6,0,81.9-30.26T967.08,974.13Z" transform="translate(-31.76 -30.81)"/></g><g id="_Group_3" data-name="&lt;Group&gt;"><path class="cls-1" d="M1151.53,899.49q0-90.38,27-151.71a278.53,278.53,0,0,1,55.07-81.1q34.89-35.91,76.46-53.26,55.28-23.39,127.5-23.4,130.72,0,209.2,81.1t78.48,225.54q0,143.23-77.87,224.13t-208.19,80.9q-131.93,0-209.8-80.49T1151.53,899.49Zm123.06-4q0,100.46,46.4,152.31t117.81,51.85q71.41,0,117.21-51.44t45.79-154.33q0-101.67-44.58-151.71t-118.42-50q-73.84,0-119,50.64T1274.59,895.46Z" transform="translate(-31.76 -30.81)"/></g><g id="_Group_4" data-name="&lt;Group&gt;"><path class="cls-1" d="M1966.3,1281.75v58.89H1744a153.07,153.07,0,0,1,21.66-63.29q18.05-29.9,71.3-79.31,42.87-39.94,52.58-54.15,13.09-19.63,13.09-38.81,0-21.21-11.39-32.61t-31.48-11.39q-19.86,0-31.59,12t-13.54,39.71l-63.18-6.32q5.64-52.35,35.43-75.14t74.46-22.79q49,0,76.94,26.4t28,65.66a114.3,114.3,0,0,1-8,42.53q-8,20.2-25.38,42.31-11.51,14.67-41.52,42.2t-38,36.55a109.45,109.45,0,0,0-13,17.6Z" transform="translate(-31.76 -30.81)"/></g></g></svg>