<svg id="Layer_1" data-name="Layer 1" xmlns="http://www.w3.org/2000/svg" viewBox="0 0 47.1 85.05"><defs><style>.cls-1{fill:#fff;}</style></defs><title>automatedSystems</title><path class="cls-1" d="M34,48.43V9.23A9.23,9.23,0,0,0,24.79,0H22.31a9.23,9.23,0,0,0-9.23,9.23v39.2a19.45,19.45,0,0,0-10.47,17c0,10.82,9.39,19.62,20.93,19.62s20.93-8.8,20.93-19.62A19.45,19.45,0,0,0,34,48.43ZM23.55,79.8c-8.67,0-15.7-6.44-15.7-14.39,0-6.26,4.37-11.58,10.47-13.56v-42a4.62,4.62,0,0,1,4.62-4.62h1.24a4.61,4.61,0,0,1,4.62,4.6s0,0,0,0v42c6.08,2,10.42,7.3,10.42,13.56C39.22,73.36,32.22,79.8,23.55,79.8Z" transform="translate(0 0)"/><path class="cls-1" d="M23.55,77.19c-7.21,0-13.08-5.28-13.08-11.77,0-4.94,3.48-9.39,8.66-11.07l1.81-.59V36a2,2,0,0,1,2-2h1.24a2,2,0,0,1,2,2V53.76l1.81.59c5.18,1.68,8.66,6.13,8.66,11.07C36.63,71.91,30.76,77.19,23.55,77.19Z" transform="translate(0 0)"/><rect class="cls-1" y="9.65" width="10.47" height="3.92" rx="1.85" ry="1.85"/><rect class="cls-1" y="17.5" width="10.47" height="3.92" rx="1.85" ry="1.85"/><rect class="cls-1" y="25.35" width="10.47" height="3.93" rx="1.85" ry="1.85"/><rect class="cls-1" y="33.2" width="10.47" height="3.93" rx="1.85" ry="1.85"/><rect class="cls-1" x="36.63" y="9.65" width="10.47" height="3.92" rx="1.85" ry="1.85"/><rect class="cls-1" x="36.63" y="17.5" width="10.47" height="3.92" rx="1.85" ry="1.85"/><rect class="cls-1" x="36.63" y="25.35" width="10.47" height="3.93" rx="1.85" ry="1.85"/><rect class="cls-1" x="36.63" y="33.2" width="10.47" height="3.93" rx="1.85" ry="1.85"/></svg>