<svg id="Layer_1" data-name="Layer 1" xmlns="http://www.w3.org/2000/svg" xmlns:xlink="http://www.w3.org/1999/xlink" viewBox="0 0 183.32 211.98"><defs><style>.cls-1,.cls-4,.cls-5{fill:none;}.cls-2{fill:#00a99d;}.cls-3{clip-path:url(#clip-path);}.cls-4{stroke:#00a99d;stroke-miterlimit:10;}.cls-4,.cls-5{stroke-width:6px;}.cls-5{stroke:#07bab0;stroke-linecap:round;}.cls-6{fill:#fff;}</style><clipPath id="clip-path" transform="translate(0 -0.02)"><rect class="cls-1" x="0.06" y="0.02" width="183.26" height="211.98"/></clipPath></defs><title>chargingStations</title><path class="cls-2" d="M172.14,145.42a105,105,0,0,1-2.72-21.54l.05-81.08h-9.23l-.05,81.09a114.27,114.27,0,0,0,3,23.85l10.87,19.61a9.21,9.21,0,0,1-18.41-.53V123.69c0-8.9-6.27-16.14-14-16.14h-10v9.22h10c2.53,0,4.75,3.23,4.75,6.92v43.12a18.44,18.44,0,1,0,36.88,0v-.59l-11.18-20.8" transform="translate(0 -0.02)"/><g class="cls-3"><path class="cls-4" d="M131.68,193.78V28.35A11.88,11.88,0,0,0,119.83,16.5H32.14A11.88,11.88,0,0,0,20.3,28.35V193.78H3V209H148.28V193.78ZM36.39,39.33h78.5v56H36.39Z" transform="translate(0 -0.02)"/><path class="cls-5" d="M172.31,3V19.13M157.69,3V19.13" transform="translate(0 -0.02)"/><path class="cls-6" d="M152.32,16.5V38.74h0a12.68,12.68,0,0,0,25.35,0V16.5H152.32" transform="translate(0 -0.02)"/><path class="cls-4" d="M152.32,16.5V38.74h0a12.68,12.68,0,0,0,25.35,0V16.5Z" transform="translate(0 -0.02)"/></g><polygon class="cls-5" points="57.87 151.83 74.29 151.83 69.89 181.86 99.12 144.22 83.51 144.22 87.31 114.18 57.87 151.83"/></svg>