<svg id="Layer_1" data-name="Layer 1" xmlns="http://www.w3.org/2000/svg" viewBox="0 0 43.8 45.28"><defs><style>.cls-1{fill:#fff;}</style></defs><title>communityGardens</title><path class="cls-1" d="M43.52,28.63A6.27,6.27,0,0,0,40.66,25c1.74-3.34-.55-6.9-4.33-7.4a4.5,4.5,0,0,0-4.41-5.37,4.45,4.45,0,0,0-2.85,1,7.48,7.48,0,0,0-6.66-5.92,6.17,6.17,0,1,0-12.11,0,7.87,7.87,0,0,0-5.93,3.83,6.58,6.58,0,0,0,0,6.35,8.8,8.8,0,0,0-4.1,9.62A8.8,8.8,0,0,0,9,34.22h6.38v10a.95.95,0,1,0,1.89,0v-10h3.8a6.37,6.37,0,0,0,5.49,3H31.2v7.27a.69.69,0,0,0,1.38,0v-7.3h4.64A6.41,6.41,0,0,0,43.61,32,6.74,6.74,0,0,0,43.52,28.63ZM17.3,32.33V27.58l6.22-6.17a.94.94,0,0,0-1.32-1.35h0l-4.92,4.86V16.31l3.1-3.06a.94.94,0,0,0-1.32-1.35h0l-2.72,2.69L13.62,11.9a.94.94,0,1,0-1.32,1.35l3.1,3.06v8.62l-4.92-4.86a.94.94,0,0,0-1.32,1.35l6.24,6.17v4.75H9a6.91,6.91,0,0,1-6.92-5.59,6.91,6.91,0,0,1,4-8,1,1,0,0,0,.4-1.36l0-.07A4.86,4.86,0,0,1,6,12.11a6.21,6.21,0,0,1,5.51-2.93,1,1,0,0,0,.85-1.36,4.28,4.28,0,1,1,7.88,0,.93.93,0,0,0,.87,1.32c4.75,0,7.81,4.27,5.09,8.18a1,1,0,0,0,.35,1.37l0,0A6.88,6.88,0,0,1,30.42,23a7.39,7.39,0,0,1,.1,3.73,6.91,6.91,0,0,1-6.92,5.59Zm13.93,3.48H26.52a5,5,0,0,1-3.75-1.59h.84a8.81,8.81,0,0,0,6.59-2.83l1,1Zm0-5.39-.12-.12.12-.18Zm11.06,1.32a5,5,0,0,1-5,4.07H32.57V32.35l4.55-4.49a.71.71,0,0,0-1-1l-3.55,3.56V26.06a9.33,9.33,0,0,0,0-1.7v-.22l2.26-2.23a.71.71,0,0,0-1-1l-1.59,1.61h0A8.56,8.56,0,0,0,29,18h0a3,3,0,0,1-.14-1.89,2,2,0,0,1,.1-.4,3.11,3.11,0,1,1,5.78,2.32.68.68,0,0,0,.63,1c3.46,0,5.69,3.11,3.71,6a.71.71,0,0,0,.24,1l0,0a5,5,0,0,1,2.8,3.1,5.38,5.38,0,0,1,.08,2.57Z" transform="translate(0.02 0.02)"/></svg>