<svg id="Layer_1" data-name="Layer 1" xmlns="http://www.w3.org/2000/svg" viewBox="0 0 353.31 384"><defs><style>.cls-1{fill:#fff;}</style></defs><title>EnergyAudits</title><polygon class="cls-1" points="276.48 15.36 15.36 15.36 15.36 330.24 276.48 330.24 276.48 250.45 291.84 262.24 291.84 337.92 291.84 345.6 284.16 345.6 7.68 345.6 0 345.6 0 337.92 0 7.68 0 0 7.68 0 284.16 0 291.84 0 291.84 7.68 291.84 223.56 276.48 211.77 276.48 15.36 276.48 15.36"/><polygon class="cls-1" points="46.08 245.76 238.08 245.76 238.08 261.12 46.08 261.12 46.08 245.76 46.08 245.76"/><path class="cls-1" d="M61.44,353.23v15.41H322.56V285.82l13.71,10.53a15.41,15.41,0,0,0,1.65,1.1V384H46.08V353.23Zm261.12-106.1V53.76H297.79V38.4h40.13V258.93l-15.36-11.79Z"/><polygon class="cls-1" points="46.08 291.84 238.08 291.84 238.08 307.2 46.08 307.2 46.08 291.84 46.08 291.84"/><path class="cls-1" d="M166.21,46.08a86.07,86.07,0,1,1-60.86,25.21A86.07,86.07,0,0,1,166.21,46.08Zm50,36.07a70.71,70.71,0,1,0,20.71,50,70.71,70.71,0,0,0-20.71-50Z"/><path class="cls-1" d="M225.46,182.3a7.66,7.66,0,1,0-9.3,12.18h0L341,290.25a7.66,7.66,0,0,0,9.3-12.18Z"/><polygon class="cls-1" points="192 92.16 192 168.96 176.64 168.96 176.64 92.16 192 92.16 192 92.16"/><polygon class="cls-1" points="153.6 115.2 153.6 168.96 138.24 168.96 138.24 115.2 153.6 115.2 153.6 115.2"/></svg>