<svg id="Layer_1" data-name="Layer 1" xmlns="http://www.w3.org/2000/svg" viewBox="0 0 464.11 551.4"><defs><style>.cls-1{fill:#fff;}</style></defs><title>futureAquisitions</title><path class="cls-1" d="M65.88,551.4C31.76,309.18,398.85,376.16,450.66,267,443.25,543.16,116.61,433,65.88,551.4Z" transform="translate(0)"/><path class="cls-1" d="M51.65,538.08C-29.71,441.24-12.83,290.28,87.32,211V93.16H308.05C346.26,69.54,373.67,41.39,377.9,0c107.15,76,127.26,228.13-13.66,281-29.89,11.21-63,19-93.87,28.18-59.7,17.75-119.65,39-162.9,69.34C57.05,414,26,478.61,51.65,538.08ZM106.7,313.2v42.52c20.7-13.32,43.66-24.49,66.85-34V313.2Zm0-200.66v64.65h66.85V112.54Zm89.65,64.65h70.23V112.54H196.35Zm93,0H356.2V112.54H289.37v64.65ZM106.7,213.14v64.12h66.85V213.14Zm89.65,64.12h70.23V213.14H196.35Zm93,0h23.56c14.36-4.06,29.14-8.58,43.29-13.93V213.14H289.37Z" transform="translate(0)"/></svg>