<svg id="Layer_1" data-name="Layer 1" xmlns="http://www.w3.org/2000/svg" viewBox="0 0 262.57 378"><defs><style>.cls-1{fill:#fff;}.cls-2{fill:none;stroke:#fff;stroke-miterlimit:10;stroke-width:2px;}</style></defs><title>GalofOil</title><path class="cls-1" d="M71,35.51c-12.85,0-23.22-2.71-23.22-6s10.37-6,23.22-6,23.34,2.59,23.34,6S83.88,35.51,71,35.51Z" transform="translate(-1.69)"/><path class="cls-1" d="M194.92,35.51c-12.85,0-23.34-2.71-23.34-6s10.48-6,23.34-6,23.34,2.59,23.34,6S207.78,35.51,194.92,35.51Z" transform="translate(-1.69)"/><path class="cls-2" d="M22.88,119.28c7,3.49,15.67,6,23.22,7.89,27.4,6.76,58.74,8.91,86.92,8.91s59.41-2.14,86.81-8.91c7.67-1.92,16.35-4.4,23.34-7.89,1.47-.79,6.88-3.83,6.88-5.86A8.63,8.63,0,0,1,253,107V32.92c0,17.25-53.78,31.23-120,31.23S13,50.17,13,32.92V107a8.63,8.63,0,0,1,2.93,6.43C15.89,115.44,21.42,118.49,22.88,119.28Z" transform="translate(-1.69)"/><path class="cls-1" d="M133,0C69.11,0,17.25,13.19,17.25,29.54S69.11,59.08,133,59.08s115.78-13.3,115.78-29.54S197,0,133,0Zm0,52.54c-60,0-108.46-10.26-108.46-23s48.48-23,108.46-23,108.46,10.26,108.46,23S192.9,52.54,133,52.54Z" transform="translate(-1.69)"/><path class="cls-1" d="M113.08,227.17c0,25.7,39.91,25.7,39.91,0,0-9.7-11.27-20.18-20-38.56C123.45,208.23,113.08,217.47,113.08,227.17Z" transform="translate(-1.69)"/><path class="cls-2" d="M133,305.19c-29.65,0-62.34-2.25-91.21-9.47-7.33-1.8-19.28-5.19-28.86-10.82v60.77C13,363,66.74,377,133,377s120-14,120-31.34V284.89c-9.58,5.64-21.53,9-28.86,10.82C195.38,302.93,162.57,305.19,133,305.19Z" transform="translate(-1.69)"/><path class="cls-1" d="M43,140.1c14.49,3.79,51.15,9,90,9.12a431.88,431.88,0,0,0,89.58-9.36c25.25-5.37,41.7-15.41,41.7-25.09,0-2.49-2.37-4.5-5.41-4.5s-5.41,2-5.41,4.5c0,5.08-13.29,12.06-33.47,16.37a429.36,429.36,0,0,1-87,9.08c-34.39,0-71.59-4.58-87.41-8.83-20-5.39-33.05-11.53-33.05-16.61,0-2.49-2.37-4.5-5.41-4.5s-5.41,2-5.41,4.5C1.69,124.45,17.89,133.54,43,140.1Z" transform="translate(-1.69)"/><path class="cls-2" d="M41.82,144c-7.33-1.8-19.28-5.3-28.86-10.82v125.7a8.45,8.45,0,0,1,2.93,6.43c0,2,5.52,5.07,7,5.75,7,3.61,15.67,6.09,23.22,7.89,27.4,6.88,58.74,8.91,86.92,8.91s59.41-2,86.81-8.91c7.67-1.8,16.35-4.28,23.34-7.89,1.47-.68,6.88-3.72,6.88-5.75a8.45,8.45,0,0,1,2.93-6.43V133.15c-9.58,5.52-21.53,9-28.86,10.82-28.75,7.22-61.56,9.47-91.09,9.47S70.69,151.18,41.82,144Zm140.25,73.51a49,49,0,1,1-49-48.93A49,49,0,0,1,182.07,217.47Z" transform="translate(-1.69)"/><path class="cls-1" d="M43,292.25c14.49,3.79,51.15,9,90,9.12A431.88,431.88,0,0,0,222.56,292c25.25-5.37,41.7-15.41,41.7-25.09,0-2.49-2.37-4.5-5.41-4.5s-5.41,2-5.41,4.5c0,5.08-13.29,12.06-33.47,16.37a429.36,429.36,0,0,1-87,9.08c-34.39,0-71.59-4.58-87.41-8.83-20-5.39-33.05-11.53-33.05-16.61,0-2.49-2.37-4.5-5.41-4.5s-5.41,2-5.41,4.5C1.69,276.59,17.89,285.69,43,292.25Z" transform="translate(-1.69)"/></svg>