<svg id="Layer_1" data-name="Layer 1" xmlns="http://www.w3.org/2000/svg" viewBox="0 0 114.8 98"><defs><style>.cls-1{fill:#fff;}</style></defs><title>greenSeal</title><path class="cls-1" d="M54.2,99c-2.9-.5-3.2-2.4-2.7-5.1l.4-2.2c.5-2.6,1.5-4.2,4.3-3.7,2.4.4,3.1,1.6,2.6,4a.56.56,0,0,1-.6.5h0l-1.3-.2a.57.57,0,0,1-.4-.7h0c0-.1.3-1.3-.6-1.5q-1.05-.15-1.2,1.2l-.8,4.1c-.1.8.1,1.3.7,1.4,1,.2,1.2-1.5,1.2-1.5a.56.56,0,0,1,.6-.5h0l1.3.2a.57.57,0,0,1,.4.7h0C57.8,98.2,56.7,99.5,54.2,99Z" transform="translate(-1.5 -1.7)"/><path class="cls-1" d="M66.1,99.6l-4.7.1a.65.65,0,0,1-.6-.6h0l-.1-9.6a.56.56,0,0,1,.5-.6h4.6a.56.56,0,0,1,.6.5h0v1a.58.58,0,0,1-.6.6H63.2v2h2.2a.56.56,0,0,1,.6.5h0v1a.58.58,0,0,1-.6.6H63.2v2.3H66a.56.56,0,0,1,.6.5h0v1A1,1,0,0,1,66.1,99.6Z" transform="translate(-1.5 -1.7)"/><path class="cls-1" d="M76,97.9l-1.3.3a.57.57,0,0,1-.7-.4l-.3-.9-.2-.9c-.2-1.1-.7-1.6-1.5-1.4l-.7.1.7,3.5a.57.57,0,0,1-.4.7h0l-1.3.3a.57.57,0,0,1-.7-.4h0l-2-9.4a.57.57,0,0,1,.4-.7h0l3.1-.7c2-.4,3.1.2,3.5,2.1l.1.4c.3,1.2.1,2.2-1,2.7,1.2.2,1.8,1.1,2.1,2.4l.2.8a3.18,3.18,0,0,0,.3.9c.2.2,0,.5-.3.6Zm-3.5-7c-.2-.8-.5-1.1-1.3-.9l-.8.2.6,2.7.7-.2c.8-.2,1-.5.8-1.3Z" transform="translate(-1.5 -1.7)"/><path class="cls-1" d="M81.2,86.7l-1.4.6L83,94.7a.52.52,0,0,1-.3.7h0l-1.2.5a.52.52,0,0,1-.7-.3h0l-3.2-7.4-1.4.6a.52.52,0,0,1-.7-.3h0l-.4-.9a.52.52,0,0,1,.3-.7h0l5-2.2a.57.57,0,0,1,.7.2h0l.4.9a.76.76,0,0,1-.3.9Z" transform="translate(-1.5 -1.7)"/><path class="cls-1" d="M89.4,91.7l-1.1.7a.54.54,0,0,1-.8-.2h0l-5.2-8.1a.61.61,0,0,1,.1-.8h0l1.2-.7a.54.54,0,0,1,.8.2h0l5.2,8.1a.54.54,0,0,1-.2.8Z" transform="translate(-1.5 -1.7)"/><path class="cls-1" d="M91,79.5l-2,1.7,1.5,1.6L92,81.4a.61.61,0,0,1,.8,0h0l.7.7a.61.61,0,0,1,0,.8h0L92,84.3l2.5,2.8a.61.61,0,0,1,0,.8h0l-1,.9a.53.53,0,0,1-.8-.1h0l-6.4-7.2a.61.61,0,0,1,0-.8h0l3.4-3a.61.61,0,0,1,.8,0h0l.7.7C91.2,78.9,91.2,79.3,91,79.5Z" transform="translate(-1.5 -1.7)"/><path class="cls-1" d="M100.4,81.7l-.9,1.1c-.1.2-.5.2-.7,0h0l-7.4-6.1a.61.61,0,0,1-.1-.8h0l.9-1.1a.62.62,0,0,1,.8-.1h0l7.4,6.1c.2.3.3.6,0,.9Z" transform="translate(-1.5 -1.7)"/><path class="cls-1" d="M105.6,73.8l-2.4,4.1a.54.54,0,0,1-.8.2h0l-8.3-4.8a.52.52,0,0,1-.2-.8h0l2.3-3.9a.54.54,0,0,1,.8-.2h0l.9.5a.54.54,0,0,1,.2.8L96.8,72l1.7,1,1.1-1.9a.54.54,0,0,1,.8-.2h0l.9.5a.54.54,0,0,1,.2.8l-1.1,1.9,2,1.1,1.4-2.4a.54.54,0,0,1,.8-.2h0l.9.5c.1,0,.3.4.1.7Z" transform="translate(-1.5 -1.7)"/><path class="cls-1" d="M108.3,67.2l-.9,2.6a.52.52,0,0,1-.7.3L97.6,67a.57.57,0,0,1-.4-.7l.9-2.7c.8-2.5,2.4-2.8,5.5-1.8l1.2.4C108.2,63.4,109.2,64.6,108.3,67.2ZM102.1,64c-1.2-.4-1.8-.3-2.1.6l-.2.5,6.3,2.2.2-.6c.3-.9-.1-1.4-1.4-1.8Z" transform="translate(-1.5 -1.7)"/><path class="cls-1" d="M-26.3,77.3" transform="translate(-1.5 -1.7)"/><path class="cls-1" d="M83.1,29.1l-.2.1C67,36.8,54.8,50.1,44.7,63.6,42,67.3,39.4,71.1,37,75.1A32.56,32.56,0,1,0,85.1,31.2a19.85,19.85,0,0,0-2-2.1m-22.4-9A32.52,32.52,0,0,0,28.1,52.6a34,34,0,0,0,.3,4.5A119.82,119.82,0,0,1,78.5,25.4a32.27,32.27,0,0,0-17.8-5.3Z" transform="translate(-1.5 -1.7)"/><path class="cls-1" d="M104,25.9a9.62,9.62,0,0,0-5.9-3.2c-6.2-.6-12.2.7-17.9,2.1l-1.8.6A119.82,119.82,0,0,0,28.3,57.1c-2.9,3.1-5.7,6.3-8.3,9.7,0,0-10.7-8.7-18.4-10.9l-.1-.1c10.4,13.3,13.2,27,15.6,39.6l2.7-5.9C25.6,77.2,34.1,65.9,43.4,56,55.1,43.8,68.9,32.2,85.5,26.5c5.4-1.4,14.1-3.9,18.1,1.4,2.5,4,.4,9-1.3,12.9l.8.2c2.3-4.3,4.1-10.7.9-15.1" transform="translate(-1.5 -1.7)"/><path class="cls-1" d="M20.3,47.2c-.4,2.9-2,3.3-4.6,2.9l-2.3-.3c-2.5-.3-4-1.3-3.7-4,.2-1.7,1-3.2,3.4-2.9a.56.56,0,0,1,.5.6h0l-.2,1.3a.56.56,0,0,1-.6.5h0a.83.83,0,0,0-1,.5V46a.94.94,0,0,0,.8,1.1h.3l4.1.5a1,1,0,0,0,1.3-.6c0-.1,0-.2.1-.2.1-1-1.5-1.1-1.5-1.1h-.2l-.1.4a.56.56,0,0,1-.6.5h0l-.8-.1a.56.56,0,0,1-.5-.6h0l.3-2.3a.56.56,0,0,1,.6-.5h0l1.5.2c2.3.4,3.5,1.4,3.2,3.9" transform="translate(-1.5 -1.7)"/><path class="cls-1" d="M23.2,35.8,22.8,37a.52.52,0,0,1-.7.3,1.88,1.88,0,0,1-.8-.2l-.8-.3c-1-.4-1.7-.2-1.9.5l-.4.7,3.2,1.2a.52.52,0,0,1,.3.7h0l-.5,1.2a.52.52,0,0,1-.7.3h0L12,38.3a.52.52,0,0,1-.3-.7h0l1.1-2.9c.7-1.9,1.8-2.5,3.5-1.9l.4.1c1.1.4,1.8,1.1,1.7,2.2a2.59,2.59,0,0,1,3-.5l.8.3a2.35,2.35,0,0,0,.8.2.48.48,0,0,1,.2.7h0m-7.5-.7a.89.89,0,0,0-1.3.3.37.37,0,0,0-.1.3l-.3.7,2.5.9.2-.7a.82.82,0,0,0-.2-1.2c-.1-.1-.3-.1-.4-.2Z" transform="translate(-1.5 -1.7)"/><path class="cls-1" d="M27.6,28.4l-2.5,3.9a.53.53,0,0,1-.7.2h0l-7.7-5a.53.53,0,0,1-.2-.7h0l2.4-3.7a.53.53,0,0,1,.7-.2h0l.8.5a.63.63,0,0,1,.2.8l-1.4,2.1,1.6,1.1L22,25.6a.44.44,0,0,1,.7-.2h0l.8.5a.63.63,0,0,1,.2.8l-1.2,1.8,1.8,1.2,1.5-2.3a.53.53,0,0,1,.7-.2h0l.8.6a.36.36,0,0,1,.3.6" transform="translate(-1.5 -1.7)"/><path class="cls-1" d="M33.4,22.1l-3.3,3.2a.61.61,0,0,1-.8,0h0l-6.5-6.5a.61.61,0,0,1,0-.8h0L26,14.9a.61.61,0,0,1,.8,0h0l.7.7a.61.61,0,0,1,0,.8l-1.8,1.8,1.4,1.4,1.5-1.5a.61.61,0,0,1,.8,0h0l.7.7a.61.61,0,0,1,0,.8L28.5,21,30,22.6l1.9-1.9a.61.61,0,0,1,.8,0h0l.7.7c.2.1.2.4,0,.7" transform="translate(-1.5 -1.7)"/><path class="cls-1" d="M41.6,16.4l-1.5.9a.63.63,0,0,1-.8-.2L34.4,13h0l3.2,5.1a.43.43,0,0,1-.2.7h0l-.9.6a.43.43,0,0,1-.7-.2h0L31,11.4a.43.43,0,0,1,.2-.7h0l1.6-1a.78.78,0,0,1,.8.2l4.6,3.9L35.2,9a.57.57,0,0,1,.2-.7l.9-.6a.43.43,0,0,1,.7.2h0l4.8,7.9c.1.1,0,.5-.2.6h0" transform="translate(-1.5 -1.7)"/><path class="cls-1" d="M52.9,12.8c-2,.4-3.3-.3-3.7-2.4a.44.44,0,0,1,.4-.6h0l1.2-.2a.44.44,0,0,1,.6.4h0a1,1,0,0,0,1,1h.2a.82.82,0,0,0,.8-.9V10l-.1-.3c-.1-.7-.9-1-2.3-1.2a2.8,2.8,0,0,1-2.6-2.6,2.56,2.56,0,0,1,2.4-3.3c1.8-.3,3.3.1,3.7,2.1a.44.44,0,0,1-.4.6h0l-1.2.2a.44.44,0,0,1-.6-.4h0a1,1,0,0,0-.9-.7h-.2a.68.68,0,0,0-.7.7v.2l.1.3c.1.5.8.8,2,1a3.13,3.13,0,0,1,3,2.9c.6,2-.5,3-2.7,3.3" transform="translate(-1.5 -1.7)"/><path class="cls-1" d="M63.6,12.1,59,12a.56.56,0,0,1-.5-.6h0l.2-9.2a.47.47,0,0,1,.5-.5h0l4.4.1a.56.56,0,0,1,.6.5h0v1a.56.56,0,0,1-.6.5L61,3.7V5.6h2.1a.47.47,0,0,1,.5.5h0v1a.56.56,0,0,1-.6.5l-2.1-.1L61,9.9l2.7.1a.47.47,0,0,1,.5.5h0v1a.56.56,0,0,1-.6.5" transform="translate(-1.5 -1.7)"/><path class="cls-1" d="M73.2,14l-1.3-.3a.57.57,0,0,1-.4-.7l.1-1.3-1.8-.4-.5,1.2a.57.57,0,0,1-.7.4l-1.2-.3c-.3-.1-.5-.3-.4-.6v-.1l4-8.5a.57.57,0,0,1,.7-.4l2.3.6a.57.57,0,0,1,.4.7l-.5,9.4a.61.61,0,0,1-.7.3h0m-1-8.6-1.8,4,1.3.3Z" transform="translate(-1.5 -1.7)"/><path class="cls-1" d="M80.8,17.6l-3.9-2a.44.44,0,0,1-.2-.7h0l4.2-8.2a.55.55,0,0,1,.7-.3h0l1.2.6a.44.44,0,0,1,.2.7h0l-3.5,6.8,2.3,1.2a.55.55,0,0,1,.3.7h0l-.5.9c-.2.4-.5.5-.8.3h0" transform="translate(-1.5 -1.7)"/><polyline class="cls-1" points="107.5 42.3 106 42.3 106 41.8 109.5 41.8 109.5 42.3 108.1 42.3 108.1 46.5 107.5 46.5 107.5 42.3"/><path class="cls-1" d="M115.6,46.1c0-.7-.1-1.5-.1-2.1h0l-.6,1.8-.8,2.3h-.5l-.8-2.3a18.88,18.88,0,0,0-.6-1.8h0a15.48,15.48,0,0,1-.1,2.1l-.1,2h-.6l.3-4.8h.8l.8,2.3a14.24,14.24,0,0,1,.5,1.6h0a14.24,14.24,0,0,1,.5-1.6l.9-2.3h.8l.3,4.8h-.6l-.1-2" transform="translate(-1.5 -1.7)"/></svg>