<svg id="Layer_1" data-name="Layer 1" xmlns="http://www.w3.org/2000/svg" viewBox="0 0 345.34 355.76"><defs><style>.cls-1{fill:#fff;}</style></defs><title>HVAC</title><path class="cls-1" d="M210,130.37a57,57,0,1,0,34,73.07l0-.07A57,57,0,0,0,210,130.37Zm-5.85,16.07a79.32,79.32,0,0,0-42-3.25A56.93,56.93,0,0,1,238,170.07l.43.92a79.31,79.31,0,0,0-34.31-24.54Z" transform="translate(0 0)"/><path class="cls-1" d="M309.34,46.2C274-13,183.47-16.8,145.34,43.5c-16.91,26.78-29.66,73.37-1,90a68,68,0,0,1,81.82-7.82c2.58-2.94,5.44-6.91,9.42-12.5C252.6,89.31,338.95,95.78,309.34,46.2ZM229.42,18.67c-30.83,0-58.63,10.86-78.35,28.27C185,3.82,248.65.76,288.52,33.45A122.78,122.78,0,0,0,229.42,18.67Z" transform="translate(0 0)"/><path class="cls-1" d="M122.1,183.93c0-.61.08-1.21.09-1.82-3.84-.77-8.7-1.26-15.53-1.9-29.18-2.75-66.75-80.77-94.89-30.34-33.6,60.21,8.37,140.5,79.65,143.34,31.62,1.25,78.29-11,78.45-44.06A68.4,68.4,0,0,1,122.1,183.93Zm-111-9.67a122.78,122.78,0,0,0,16.74,58.58c15.42,26.7,38.72,45.35,63.66,53.72-54.24-7.79-88.73-61.41-80.36-112.29Z" transform="translate(0 0)"/><path class="cls-1" d="M334.65,215.1c-14.73-28-48.67-62.34-77.42-45.89a68.21,68.21,0,0,1-34.15,74.86c1.25,3.7,3.25,8.14,6.09,14.33,12.2,26.64-36.57,98.19,21.17,97.35C319.29,354.73,367.84,278.24,334.65,215.1Zm-62.87,129a122.78,122.78,0,0,0,42.36-43.79c15.42-26.7,19.91-56.21,14.69-82,20.39,50.91-8.8,107.59-57,125.77Z" transform="translate(0 0)"/></svg>