<svg id="Layer_2" data-name="Layer 2" xmlns="http://www.w3.org/2000/svg" viewBox="0 0 325.35 373.07"><defs><style>.cls-1{fill:none;stroke:#07bab0;stroke-miterlimit:10;stroke-width:6.35px;}.cls-2{fill:#07bab0;}</style></defs><title>KWSaved</title><rect class="cls-1" x="101.47" y="3.17" width="123.24" height="232.8"/><polyline class="cls-1" points="101.47 32.55 48.1 96.07 276.41 96.07 224.72 32.51"/><line class="cls-1" x1="45" y1="98.76" x2="45" y2="118.31"/><line class="cls-1" x1="279.38" y1="98.76" x2="279.38" y2="118.31"/><line class="cls-1" x1="101.47" y1="96.07" x2="224.71" y2="3.17"/><line class="cls-1" x1="224.71" y1="96.07" x2="101.47" y2="3.17"/><line class="cls-1" x1="101.47" y1="235.55" x2="224.71" y2="96.07"/><line class="cls-1" x1="224.29" y1="236.03" x2="101.06" y2="96.55"/><polyline class="cls-1" points="100.98 173.72 48.1 235.98 279.38 235.98 225.24 173.72"/><line class="cls-1" x1="45" y1="238.68" x2="45" y2="258.22"/><line class="cls-1" x1="282.68" y1="238.68" x2="282.68" y2="258.22"/><line class="cls-1" x1="56.44" y1="362.88" x2="101.47" y2="235.98"/><line class="cls-1" x1="269.74" y1="362.66" x2="224.71" y2="235.76"/><line class="cls-1" x1="56.66" y1="362.38" x2="224.71" y2="235.98"/><line class="cls-1" x1="269.53" y1="362.38" x2="101.47" y2="235.98"/><rect class="cls-2" y="361.34" width="325.35" height="11.73"/></svg>
