<svg id="Layer_1" data-name="Layer 1" xmlns="http://www.w3.org/2000/svg" viewBox="0 0 251.96 230.24"><defs><style>.cls-1{fill:none;}.cls-1,.cls-2{stroke:#07bab0;stroke-miterlimit:10;stroke-width:7.12px;}.cls-2{fill:transparent;}</style></defs><title>LbsCompost</title><path class="cls-1" d="M80.89,97.59c3.6,3.56-2.23,14.16-.64,31,1.22,13,6.5,26.3-6.11,39.83s-15.54,17-15.54,17l9-.71s-22.11,19.79,7,25.68c0,0-52.5,2.28-64-47.51l8.5,5.32S5.76,137,41.35,117.34a258.92,258.92,0,0,1,29.12-13.41s-35.19,38.59-33.85,75.44c.78,21.36,7.93,25,7.93,25" transform="translate(-5.2 -5.6)"/><path class="cls-2" d="M245.23,150.4l-23.78-41.19-15.82,9.13,23.78,41.19c6.34,11,7.62,20.88,3.59,27.86s-13.23,10.82-25.92,10.82H163.36V187.7L138.54,208l24.83,20.32V216.48h43.73c19.48,0,34.31-7.09,41.73-20S255,167.28,245.23,150.4Z" transform="translate(-5.2 -5.6)"/><path class="cls-2" d="M102.44,35.32,78.66,76.51l15.81,9.14,23.78-41.19c6.34-11,14.28-17,22.33-17s16,6.05,22.32,17l21.87,37.87-9.11,5.26,30,11.35,5.18-31.66L200.6,73.19,178.74,35.32C169,18.45,155.44,9.15,140.59,9.15S112.19,18.45,102.44,35.32Z" transform="translate(-5.2 -5.6)"/></svg>
