<svg id="Layer_1" data-name="Layer 1" xmlns="http://www.w3.org/2000/svg" xmlns:xlink="http://www.w3.org/1999/xlink" viewBox="0 0 124.74 226.27"><defs><style>.cls-1{fill:none;}.cls-2{fill:#07bab0;}.cls-3{clip-path:url(#clip-path);}</style><clipPath id="clip-path" transform="translate(0 -0.73)"><rect class="cls-1" y="0.73" width="124.74" height="226.21"/></clipPath></defs><title>LEDLighting</title><path class="cls-2" d="M81.9,181.91H42.21c-2.44,0-4.41,1.49-4.41,3.93s2,3.93,4.41,3.93H81.9c2.44,0,4.41-1.49,4.41-3.93s-2-3.93-4.41-3.93" transform="translate(0 -0.73)"/><path class="cls-2" d="M81.9,207.28H42.21c-2.44,0-4.41,1.49-4.41,3.92s2,3.93,4.41,3.93H81.9c2.44,0,4.41-1.49,4.41-3.93s-2-3.92-4.41-3.92" transform="translate(0 -0.73)"/><g class="cls-3"><path class="cls-2" d="M81.9,193.39H42.21c-2.44,0-4.41,2.4-4.41,4.83s2,4.83,4.41,4.83H81.9c2.44,0,4.41-2.4,4.41-4.83s-2-4.83-4.41-4.83" transform="translate(0 -0.73)"/><path class="cls-2" d="M62.16,227a16.9,16.9,0,0,0,15.43-8.85H46.72A16.9,16.9,0,0,0,62.16,227" transform="translate(0 -0.73)"/><path class="cls-2" d="M123.94,59.77a58.36,58.36,0,0,0-17.63-42A60,60,0,0,0,63.73.73h-3A60.22,60.22,0,0,0,18.09,17.81,58.64,58.64,0,0,0,.38,60L.15,65.42a3.59,3.59,0,0,0-.15,1A3.7,3.7,0,0,0,.33,68c.91,4.38,5.73,24,26.57,68.83,1.56,3.36,3.18,15.34,3.84,22.07.07,9.11,6.29,17,13.63,17H79.95c7.47,0,13.56-7.7,13.63-16.91.67-6.82,2.28-18.82,3.84-22.18C117.3,94,122.6,74.38,123.84,68.91a3.92,3.92,0,0,0,.9-2.5,3.77,3.77,0,0,0-.61-2.06l-.19-4.58M87.3,158.4v.22c0,5.61-3.43,10.6-7.33,10.6H44.37c-3.91,0-7.34-5-7.34-10.7v-.23c-.06-.64-.3-2.37-.69-6H88C87.6,155.94,87.36,157.75,87.3,158.4Zm4.42-24.16c-1.13,2.44-2.1,7.2-2.83,11.43H84l1.61-12.84L106.82,80.4a3.78,3.78,0,0,0-7-2.81L78.21,130.91l-1.85,14.77H74.58l.83-13.31L86.07,79.74a3.78,3.78,0,0,0-7.41-1.48L68,131.18l-.05.2-.9,14.3H65.82V79A3.93,3.93,0,0,0,58,79v66.66H55.84l-.9-14.3L44.18,78.23a3.78,3.78,0,0,0-7.41,1.52l10.66,52.61.84,13.31H46.49l-1.85-14.76L23,77.57a3.78,3.78,0,0,0-7,2.86l21.23,52.41,1.61,12.85H35.43c-.74-4.23-1.7-8.87-2.83-11.3C15.68,98,9.47,78.64,7.36,70.79H117C114.93,78.64,108.74,97.61,91.71,134.24ZM6.57,62.93l.11-2.74v-.28A52.42,52.42,0,0,1,22.5,22.17,54.07,54.07,0,0,1,60.74,6.77h3a53.91,53.91,0,0,1,38.16,15.36A52.86,52.86,0,0,1,117.64,60l.11,2.9Z" transform="translate(0 -0.73)"/></g></svg>