<svg id="Layer_1" data-name="Layer 1" xmlns="http://www.w3.org/2000/svg" viewBox="0 0 51.33 70.13"><defs><style>.cls-1{fill:#fff;}</style></defs><title>lighting</title><path class="cls-1" d="M17.71,62.85a1,1,0,0,1,0-1.9H33.52a1,1,0,0,1,0,1.9Z" transform="translate(0.26 0.38)"/><path class="cls-1" d="M21.71,69.75a1,1,0,0,1,0-1.9h7.81a1,1,0,0,1,0,1.9Z" transform="translate(0.26 0.38)"/><path class="cls-1" d="M17.66,55.84C17,50.47,14.35,48,11.58,45.4c-.82-.77-1.67-1.58-2.51-2.48a17.67,17.67,0,0,1-3.7-11.45A20.07,20.07,0,0,1,25.61,11.61,20.08,20.08,0,0,1,45.87,31.46c0,5-1.11,8.4-3.72,11.48-.82.88-1.66,1.67-2.48,2.44-2.78,2.61-5.4,5.08-6.1,10.46Zm14-24.5a1,1,0,0,1,.71,1.59l-5.69,5.71V53.93h5.27l.15-.6c1.14-4.52,3.75-7,6.26-9.34.8-.76,1.59-1.5,2.36-2.32C43,38.93,44,35.93,44,31.46a18.18,18.18,0,0,0-18.36-18h0a18.17,18.17,0,0,0-18.34,18h0a15.66,15.66,0,0,0,3.23,10.2c.8.86,1.59,1.6,2.35,2.32,2.54,2.4,5.13,4.84,6.27,9.35l.15.6h5.5v-15l-5.9-6a1,1,0,1,1,1.35-1.34L25.62,37,31,31.59a.94.94,0,0,1,.67-.25Z" transform="translate(0.26 0.38)"/><path class="cls-1" d="M25.53,6.39a1,1,0,0,1-1-1V.93a1,1,0,1,1,1.9,0V5.44A1,1,0,0,1,25.53,6.39Z" transform="translate(0.26 0.38)"/><path class="cls-1" d="M46.65,16.12A1,1,0,0,1,46,14.5l3.63-3.65A1,1,0,0,1,51,12.19l-3.63,3.65A.94.94,0,0,1,46.65,16.12Z" transform="translate(0.26 0.38)"/><path class="cls-1" d="M4.58,16.12a.94.94,0,0,1-.67-.28L.28,12.2a1,1,0,1,1,1.35-1.34L5.26,14.5a1,1,0,0,1-.67,1.62Z" transform="translate(0.26 0.38)"/></svg>
