<svg id="Layer_1" data-name="Layer 1" xmlns="http://www.w3.org/2000/svg" xmlns:xlink="http://www.w3.org/1999/xlink" viewBox="0 0 237.94 230.22"><defs><style>.cls-1,.cls-4{fill:none;}.cls-2{clip-path:url(#clip-path);}.cls-3{fill:#07bab0;}.cls-4{stroke:#07bab0;stroke-miterlimit:10;stroke-width:2px;}.cls-5{fill:#fff;}</style><clipPath id="clip-path" transform="translate(0 -0.78)"><rect class="cls-1" x="0.06" y="0.78" width="237.88" height="230.22"/></clipPath></defs><title>recycling</title><g class="cls-2"><path class="cls-3" d="M28.64,196.12,3.43,152.46a17.43,17.43,0,0,1-.66-16.51l18.36-31.8L5.7,95.24,65.88,79.12,82,139.3l-15.43-8.91L28.64,196.12M13.47,96.27l11.75,6.78L5.38,137.42A14.41,14.41,0,0,0,6,151l22.61,39.16,36.84-63.83,11.75,6.79L63.76,82.79Z" transform="translate(0 -0.78)"/><path class="cls-4" d="M28.64,196.12,3.43,152.46a17.43,17.43,0,0,1-.66-16.51l18.36-31.8L5.7,95.24,65.88,79.12,82,139.3l-15.43-8.91ZM13.47,96.27l11.75,6.78L5.38,137.42A14.41,14.41,0,0,0,6,151l22.61,39.16,36.84-63.83,11.75,6.79L63.76,82.79Z" transform="translate(0 -0.78)"/></g><path class="cls-3" d="M91.86,86.6,46.41,60.36,75.79,9.47a17.83,17.83,0,0,1,14.64-7.7h50.41l-49,84.83M50.51,59.26,90.77,82.51,135.64,4.78H90.43A14.94,14.94,0,0,0,78.36,11Z" transform="translate(0 -0.78)"/><g class="cls-2"><path class="cls-4" d="M91.86,86.6,46.41,60.36,75.79,9.47a17.83,17.83,0,0,1,14.64-7.7h50.41ZM50.51,59.26,90.77,82.51,135.64,4.78H90.43A14.94,14.94,0,0,0,78.36,11Z" transform="translate(0 -0.78)"/><path class="cls-3" d="M209.35,196.12l-49-84.83,45.45-26.24,29.38,50.89a17.83,17.83,0,0,1-.65,16.52l-25.21,43.66m-44.87-83.73,44.88,77.73L232,151a14.94,14.94,0,0,0,.62-13.58L204.74,89.15Z" transform="translate(0 -0.78)"/><path class="cls-4" d="M209.35,196.12l-49-84.83,45.45-26.24,29.38,50.89a17.83,17.83,0,0,1-.65,16.52Zm-44.87-83.73,44.88,77.73L232,151a14.94,14.94,0,0,0,.62-13.58L204.74,89.15Z" transform="translate(0 -0.78)"/></g><path class="cls-3" d="M179.85,92.53,119.68,76.41,135.1,67.5,103.79,13.26c-3.34-5.79-7.59-8.49-13.36-8.49v-3h57.14A17.42,17.42,0,0,1,162.2,9.46l18.36,31.8L196,32.35,179.85,92.53m-52.4-17.15,50.28,13.47,13.47-50.28-11.75,6.78L159.61,11a14.41,14.41,0,0,0-12-6.21H100.32a21.61,21.61,0,0,1,6.07,7L139.2,68.6Z" transform="translate(0 -0.78)"/><g class="cls-2"><path class="cls-4" d="M179.85,92.53,119.68,76.41,135.1,67.5,103.79,13.26c-3.34-5.79-7.59-8.49-13.36-8.49v-3h57.14A17.42,17.42,0,0,1,162.2,9.46l18.36,31.8L196,32.35Zm-52.4-17.15,50.28,13.47,13.47-50.28-11.75,6.78L159.61,11a14.41,14.41,0,0,0-12-6.21H100.32a21.61,21.61,0,0,1,6.07,7L139.2,68.6Z" transform="translate(0 -0.78)"/></g><path class="cls-5" d="M108.64,13.65,124.43,41l32-13.67,2.75-14.92c-.14-.23-2.61-6.5-10.75-6.5l-45.5-.58c2.31,1.64,4,5.31,5.75,8.33" transform="translate(0 -0.78)"/><path class="cls-3" d="M155.3,228.59l-44.05-44.06,44.05-44.05v17.81h62.63c6.68,0,11.14-2.33,14-7.33l2.6,1.5v0L206,201.95a17.43,17.43,0,0,1-14,8.83H155.3v17.81m-39.81-44.06,36.81,36.81V207.77H192a14.41,14.41,0,0,0,11.4-7.33L227,159.53a21.58,21.58,0,0,1-9.09,1.77H152.3V147.72Z" transform="translate(0 -0.78)"/><g class="cls-2"><path class="cls-4" d="M155.3,228.59l-44.05-44.06,44.05-44.05v17.81h62.63c6.68,0,11.14-2.33,14-7.33l2.6,1.5v0L206,201.95a17.43,17.43,0,0,1-14,8.83H155.3Zm-39.81-44.06,36.81,36.81V207.77H192a14.41,14.41,0,0,0,11.4-7.33L227,159.53a21.58,21.58,0,0,1-9.09,1.77H152.3V147.72Z" transform="translate(0 -0.78)"/></g><path class="cls-5" d="M203.4,200.45l21.41-38.9a40.81,40.81,0,0,1-9.25.77c-5.41,0-41.36-.08-59.92-.08l33.42,44.42c.26,0,10.27.84,14.34-6.21" transform="translate(0 -0.78)"/><path class="cls-3" d="M104.74,210.77H46a17.82,17.82,0,0,1-14-8.83L3.34,152.3l2.6-1.5c.18.3,4.48,7.49,13.25,7.49,9.93,0,84.05,0,84.05,0h1.5v52.48M10.8,159.22l23.8,41.22A14.79,14.79,0,0,0,46,207.77h55.69V161.29c-10.55,0-73.51,0-82.51,0A17.88,17.88,0,0,1,10.8,159.22Z" transform="translate(0 -0.78)"/><g class="cls-2"><path class="cls-4" d="M104.74,210.77H46a17.82,17.82,0,0,1-14-8.83L3.34,152.3l2.6-1.5c.18.3,4.48,7.49,13.25,7.49,9.93,0,84.05,0,84.05,0h1.5ZM10.8,159.22l23.8,41.22A14.79,14.79,0,0,0,46,207.77h55.69V161.29c-10.55,0-73.51,0-82.51,0A17.88,17.88,0,0,1,10.8,159.22Z" transform="translate(0 -0.78)"/></g><path class="cls-5" d="M21.64,162.24c-3.35,0-7.22-.27-8.25-.69l21.8,39.22c2.89,5.16,11.14,6.32,11.45,6.33l54.13-.36v-44.5c-10.55,0-70.12,0-79.12,0" transform="translate(0 -0.78)"/></svg>