<svg id="Layer_1" data-name="Layer 1" xmlns="http://www.w3.org/2000/svg" viewBox="0 0 325.87 302.38">
  <defs>
  <style>.cls-11,.cls-41{fill:#636466;}.cls-21{fill:#00a651;}.cls-31{fill:#fff;}.cls-31,.cls-41{fill-rule:evenodd;}</style>
</defs>
<title>SEECentennial</title>
<path class="cls-11" d="M90.17,290c0-5.19,3.21-8.84,8.07-8.84a7.81,7.81,0,0,1,8,7.08l-3.43.58c-.54-3-2.18-4.55-4.55-4.55-2.85,0-4.61,2.27-4.61,6.31V295c0,4,1.76,6.3,4.61,6.3,2.37,0,4-1.53,4.55-4.54l3.43.57a7.81,7.81,0,0,1-8,7.08c-4.86,0-8.07-3.65-8.07-8.84Z" transform="translate(-2.09 -2.02)"/><path class="cls-11" d="M112.84,297.22c0,2.85,1.57,4.22,3.66,4.22a2.94,2.94,0,0,0,3.07-2.08l3.33.55a6.32,6.32,0,0,1-6.4,4.48,6.63,6.63,0,0,1-6.92-6.63v-3.52a6.82,6.82,0,0,1,13.64,0v3Zm0-2.63H120c-.12-2.72-1.72-4-3.55-4S112.94,291.87,112.84,294.59Z" transform="translate(-2.09 -2.02)"/><path class="cls-11" d="M127.22,288h3.27v2a5.29,5.29,0,0,1,4.55-2.37c3.58,0,5.51,2.56,5.51,6.63V304h-3.27v-9.13c0-2.79-.77-4.32-3.33-4.32a3.91,3.91,0,0,0-3.46,2.33V304h-3.27Z" transform="translate(-2.09 -2.02)"/><path class="cls-11" d="M149.16,298.82c0,1.41.64,2.24,1.92,2.24h2.24V304h-2.27c-3.46,0-5.16-1.67-5.16-4.87v-8.2h-2.27V288h2.27v-4.55h3.27V288H153v2.95h-3.84Z" transform="translate(-2.09 -2.02)"/><path class="cls-11" d="M159.47,297.22c0,2.85,1.57,4.22,3.65,4.22a2.92,2.92,0,0,0,3.07-2.08l3.33.55a6.31,6.31,0,0,1-6.4,4.48,6.63,6.63,0,0,1-6.92-6.63v-3.52a6.83,6.83,0,0,1,13.65,0v3Zm0-2.63h7.11c-.13-2.72-1.73-4-3.56-4S159.56,291.87,159.47,294.59Z" transform="translate(-2.09 -2.02)"/><path class="cls-11" d="M173.85,288h3.26v2a5.29,5.29,0,0,1,4.55-2.37c3.59,0,5.51,2.56,5.51,6.63V304H183.9v-9.13c0-2.79-.77-4.32-3.33-4.32a3.92,3.92,0,0,0-3.46,2.33V304h-3.26Z" transform="translate(-2.09 -2.02)"/><path class="cls-11" d="M191.52,288h3.27v2a5.29,5.29,0,0,1,4.55-2.37c3.58,0,5.51,2.56,5.51,6.63V304h-3.27v-9.13c0-2.79-.77-4.32-3.33-4.32a3.91,3.91,0,0,0-3.46,2.33V304h-3.27Z" transform="translate(-2.09 -2.02)"/><path class="cls-11" d="M209.52,281.2h3.26v3.53h-3.26Zm0,6.79h3.26v16h-3.26Z" transform="translate(-2.09 -2.02)"/><path class="cls-11" d="M217,299.36c0-2.43,1.79-4.77,6.85-4.77h3.11v-.42c0-2.37-1.19-3.61-3.08-3.61a3.4,3.4,0,0,0-3.17,2.08l-3.23-.9a7,7,0,0,1,6.53-4.13c3.88,0,6.22,2.5,6.22,6.08V304h-3.27v-1.67a5.4,5.4,0,0,1-4.52,2.05c-3.39,0-5.44-2-5.44-4.55Zm10,.07v-2.21h-4.1a2.34,2.34,0,0,0-2.6,2.14v.16c0,1.06.84,1.92,2.76,1.92A4.46,4.46,0,0,0,226.91,299.43Z" transform="translate(-2.09 -2.02)"/><path class="cls-11" d="M238.11,298.82c0,1.41.65,2.24,1.93,2.24h.64V304H240c-3.46,0-5.15-1.67-5.15-4.87V281.2h3.26Z" transform="translate(-2.09 -2.02)"/><path class="cls-21" d="M165.18,141.42V55.32S158.66,31,153.25,24.68l-3,1.29s18.18,25.86.69,114.55Z" transform="translate(-2.09 -2.02)"/><path class="cls-21" d="M159.41,101s-1.62-17.85-22.17-22.17l.18-2.89s11.72-2.7,23.25,10.82Z" transform="translate(-2.09 -2.02)"/><path class="cls-21" d="M160.67,77.79s-14.42-33-36.77-18.93l-1.81-1.81s7.22-7.21,17.31-4.86c0,0-5.77-9-7.75-17.31l2.52-.72s4.15,16.76,26.68,28.3Z" transform="translate(-2.09 -2.02)"/><path class="cls-21" d="M141.63,76.21h0c-.14,0-14.22-5.28-22.46,16.63h0c23.36-1.49,22.46-16.48,22.45-16.63Z" transform="translate(-2.09 -2.02)"/><path class="cls-21" d="M130.09,71.17h0c-.09-.11-9.4-11.9-27.83,2.53h0C123,84.57,130,71.3,130.09,71.17Z" transform="translate(-2.09 -2.02)"/><path class="cls-21" d="M133.73,38.56h0c.07-.13,6.9-13.5-13.89-24.25h0c-1.24,23.37,13.75,24.23,13.9,24.24Z" transform="translate(-2.09 -2.02)"/><path class="cls-21" d="M153.27,28.19h0c.09-.12,9-12.22-9.83-26.16h0c-5,22.87,9.69,26.12,9.83,26.15h0Z" transform="translate(-2.09 -2.02)"/><path class="cls-21" d="M151.09,89.84h0c-.1,0-10.54-3.58-16.13,12.65h0c17.1-1.58,16.14-12.55,16.13-12.66Z" transform="translate(-2.09 -2.02)"/><path class="cls-21" d="M148.18,71.4h0c0-.1-.09-10.68-16.58-10.61h0c6.84,15,16.49,10.64,16.58,10.6Z" transform="translate(-2.09 -2.02)"/><path class="cls-21" d="M124.65,58.29h0c0-.14-3.94-14.49-26.34-8.5h0c14.67,18,26.23,8.6,26.34,8.51Z" transform="translate(-2.09 -2.02)"/><path class="cls-21" d="M150.18,46.77h0c.06-.09,5.66-9.57-9.08-18.37h0c-2,17.06,9,18.36,9.09,18.38Z" transform="translate(-2.09 -2.02)"/><path class="cls-21" d="M128.36,47h0c0-.1-.1-10.68-16.59-10.6h0c6.85,15,16.49,10.65,16.59,10.61h0Z" transform="translate(-2.09 -2.02)"/><path class="cls-21" d="M164.87,141.42V55.32S171.39,31,176.79,24.68l3,1.29s-18.17,25.86-.68,114.55Z" transform="translate(-2.09 -2.02)"/><path class="cls-21" d="M170.63,101s1.63-17.85,22.18-22.17L192.63,76s-11.72-2.7-23.26,10.82Z" transform="translate(-2.09 -2.02)"/><path class="cls-21" d="M169.37,77.79s14.42-33,36.78-18.93l1.8-1.81s-7.21-7.21-17.31-4.86c0,0,5.77-9,7.76-17.31l-2.53-.72s-4.14,16.76-26.68,28.3Z" transform="translate(-2.09 -2.02)"/><path class="cls-21" d="M188.41,76.21h0c.14,0,14.21-5.28,22.45,16.63h0c-23.36-1.49-22.46-16.48-22.46-16.63Z" transform="translate(-2.09 -2.02)"/><path class="cls-21" d="M200,71.17h0c.09-.11,9.39-11.9,27.83,2.53h0C207.06,84.57,200,71.3,200,71.17h0Z" transform="translate(-2.09 -2.02)"/><path class="cls-21" d="M196.32,38.56h0c-.07-.13-6.91-13.5,13.89-24.25h0c1.25,23.37-13.74,24.23-13.89,24.24Z" transform="translate(-2.09 -2.02)"/><path class="cls-21" d="M176.78,28.19h0c-.09-.12-9-12.22,9.83-26.16h0c5,22.87-9.69,26.12-9.83,26.15Z" transform="translate(-2.09 -2.02)"/><path class="cls-21" d="M179,89.84h0c.1,0,10.53-3.58,16.13,12.65h0C178,100.92,179,90,179,89.84Z" transform="translate(-2.09 -2.02)"/><path class="cls-21" d="M181.86,71.4h0c0-.1.1-10.68,16.58-10.61h0c-6.84,15-16.48,10.64-16.58,10.6Z" transform="translate(-2.09 -2.02)"/><path class="cls-21" d="M205.4,58.29h0c0-.14,3.94-14.49,26.33-8.5h0c-14.66,18-26.22,8.6-26.33,8.51h0Z" transform="translate(-2.09 -2.02)"/><path class="cls-21" d="M179.86,46.77h0c-.05-.09-5.66-9.57,9.09-18.37h0c2,17.06-9,18.36-9.08,18.38h0Z" transform="translate(-2.09 -2.02)"/><path class="cls-21" d="M201.69,47h0c0-.1.09-10.68,16.58-10.6h0C211.43,51.36,201.78,47,201.69,47h0Z" transform="translate(-2.09 -2.02)"/><path class="cls-21" d="M165.54,32.46h0c.09-.06,9.24-6.19-.24-20.5h0c-9.15,14.53.15,20.44.24,20.5Z" transform="translate(-2.09 -2.02)"/><path class="cls-21" d="M57.5,171.44l.13-71.51s-5.38-20.22-9.87-25.47l-2.49,1.07s13.93,28.17-.72,101.82Z" transform="translate(-2.09 -2.02)"/><path class="cls-21" d="M52.77,137.9s-1.32-14.83-18.39-18.45l.16-2.4s9.73-2.23,19.3,9Z" transform="translate(-2.09 -2.02)"/><path class="cls-21" d="M53.85,118.58S41.92,91.16,23.33,102.81l-1.49-1.5s6-6,14.38-4c0,0-4.78-7.49-6.41-14.39l2.09-.59S35.32,96.24,54,105.86Z" transform="translate(-2.09 -2.02)"/><path class="cls-21" d="M38,117.24h0c-.12,0-11.8-4.4-18.68,13.79h0c19.4-1.21,18.68-13.66,18.67-13.78h0Z" transform="translate(-2.09 -2.02)"/><path class="cls-21" d="M28.46,113h0c-.08-.1-7.79-9.9-23.12,2.06h0c17.2,9.06,23.06-1.95,23.12-2.06Z" transform="translate(-2.09 -2.02)"/><path class="cls-21" d="M31.53,86h0c0-.11,5.75-11.2-11.51-20.15h0C19,85.22,31.41,86,31.53,86Z" transform="translate(-2.09 -2.02)"/><path class="cls-21" d="M47.77,77.38h0c.07-.1,7.47-10.14-8.12-21.74h0c-4.16,19,8,21.71,8.13,21.74Z" transform="translate(-2.09 -2.02)"/><path class="cls-21" d="M45.88,128.58h0c-.08,0-8.74-3-13.41,10.49h0c14.21-1.28,13.42-10.4,13.42-10.49Z" transform="translate(-2.09 -2.02)"/><path class="cls-21" d="M43.49,113.26h0c0-.09-.07-8.87-13.76-8.83h0c5.66,12.47,13.68,8.87,13.76,8.83Z" transform="translate(-2.09 -2.02)"/><path class="cls-21" d="M24,102.34h0c0-.12-3.25-12-21.86-7.1h0c12.15,14.93,21.77,7.17,21.86,7.1Z" transform="translate(-2.09 -2.02)"/><path class="cls-21" d="M45.18,92.8h0c0-.08,4.72-7.94-7.52-15.27h0C36,91.69,45.09,92.79,45.18,92.8Z" transform="translate(-2.09 -2.02)"/><path class="cls-21" d="M27.05,92.94h0c0-.09-.06-8.87-13.75-8.84h0C19,96.57,27,93,27.05,92.94Z" transform="translate(-2.09 -2.02)"/><path class="cls-21" d="M57.24,171.44l.13-71.51s5.44-20.2,9.95-25.43l2.49,1.07S54.67,97,69.07,170.72Z" transform="translate(-2.09 -2.02)"/><path class="cls-21" d="M62.09,137.91s1.37-14.82,18.45-18.39l-.15-2.39s-9.73-2.26-19.33,9Z" transform="translate(-2.09 -2.02)"/><path class="cls-21" d="M61.08,118.59s12-27.38,30.57-15.67l1.5-1.49s-6-6-14.37-4.07c0,0,4.8-7.48,6.46-14.36l-2.09-.6S79.68,96.32,61,105.87Z" transform="translate(-2.09 -2.02)"/><path class="cls-21" d="M76.89,117.31h0c.11,0,11.81-4.36,18.62,13.85h0c-19.4-1.28-18.63-13.73-18.63-13.85Z" transform="translate(-2.09 -2.02)"/><path class="cls-21" d="M86.49,113.14h0c.07-.1,7.82-9.87,23.11,2.13h0c-17.23,9-23-2-23.11-2.14Z" transform="translate(-2.09 -2.02)"/><path class="cls-21" d="M83.51,86.05h0c-.06-.11-5.71-11.22,11.57-20.12h0c1,19.41-11.46,20.11-11.58,20.11h0Z" transform="translate(-2.09 -2.02)"/><path class="cls-21" d="M67.3,77.41h0c-.08-.1-7.44-10.16,8.2-21.71h0c4.1,19-8.08,21.68-8.2,21.71Z" transform="translate(-2.09 -2.02)"/><path class="cls-21" d="M69,128.62h0c.08,0,8.75-3,13.38,10.53h0C68.2,137.82,69,128.71,69,128.62Z" transform="translate(-2.09 -2.02)"/><path class="cls-21" d="M71.46,113.31h0c0-.09.09-8.87,13.79-8.79h0c-5.71,12.45-13.71,8.83-13.79,8.79Z" transform="translate(-2.09 -2.02)"/><path class="cls-21" d="M91,102.45h0c0-.11,3.3-12,21.89-7h0c-12.2,14.89-21.79,7.11-21.89,7Z" transform="translate(-2.09 -2.02)"/><path class="cls-21" d="M69.84,92.85h0c0-.07-4.69-8,7.57-15.25h0c1.6,14.17-7.48,15.25-7.57,15.26Z" transform="translate(-2.09 -2.02)"/><path class="cls-21" d="M88,93h0c0-.09.09-8.87,13.79-8.79h0C96,96.7,88,93.08,88,93Z" transform="translate(-2.09 -2.02)"/><path class="cls-21" d="M58,80.94h0c.07,0,7.69-5.12-.17-17h0c-7.62,12,.09,17,.16,17Z" transform="translate(-2.09 -2.02)"/><path class="cls-21" d="M272.54,171.44l-.12-71.51s5.38-20.22,9.86-25.47l2.5,1.07s-13.94,28.17.71,101.82Z" transform="translate(-2.09 -2.02)"/><path class="cls-21" d="M277.27,137.9s1.33-14.83,18.39-18.45l-.15-2.4s-9.74-2.23-19.3,9Z" transform="translate(-2.09 -2.02)"/><path class="cls-21" d="M276.19,118.58s11.94-27.42,30.52-15.77l1.5-1.5s-6-6-14.38-4c0,0,4.77-7.49,6.41-14.39l-2.1-.59S294.72,96.24,276,105.86Z" transform="translate(-2.09 -2.02)"/><path class="cls-21" d="M292,117.24h0c.12,0,11.8-4.4,18.68,13.79h0c-19.4-1.21-18.68-13.66-18.67-13.78h0Z" transform="translate(-2.09 -2.02)"/><path class="cls-21" d="M301.59,113h0c.07-.1,7.79-9.9,23.12,2.06h0c-17.21,9.06-23.06-1.95-23.12-2.06Z" transform="translate(-2.09 -2.02)"/><path class="cls-21" d="M298.52,86h0c-.06-.11-5.76-11.2,11.5-20.15h0C311.09,85.22,298.64,86,298.52,86Z" transform="translate(-2.09 -2.02)"/><path class="cls-21" d="M282.28,77.38h0c-.07-.1-7.47-10.14,8.13-21.74h0c4.17,19-8,21.71-8.12,21.74Z" transform="translate(-2.09 -2.02)"/><path class="cls-21" d="M284.17,128.58h0c.09,0,8.75-3,13.42,10.49h0c-14.2-1.28-13.42-10.4-13.41-10.49Z" transform="translate(-2.09 -2.02)"/><path class="cls-21" d="M286.56,113.26h0c0-.09.06-8.87,13.76-8.83h0c-5.66,12.47-13.67,8.87-13.75,8.83Z" transform="translate(-2.09 -2.02)"/><path class="cls-21" d="M306.09,102.34h0c0-.12,3.25-12,21.86-7.1h0c-12.16,14.93-21.77,7.17-21.86,7.1h0Z" transform="translate(-2.09 -2.02)"/><path class="cls-21" d="M284.86,92.8h0c-.05-.08-4.72-7.94,7.51-15.27h0C294,91.69,285,92.79,284.87,92.8Z" transform="translate(-2.09 -2.02)"/><path class="cls-21" d="M303,92.94h0c0-.09.07-8.87,13.76-8.84h0C311.09,96.57,303.07,93,303,92.94Z" transform="translate(-2.09 -2.02)"/><path class="cls-21" d="M272.8,171.44l-.12-71.51s-5.45-20.2-9.95-25.43l-2.49,1.07S275.37,97,261,170.72Z" transform="translate(-2.09 -2.02)"/><path class="cls-21" d="M268,137.91s-1.38-14.82-18.45-18.39l.14-2.39s9.73-2.26,19.33,9Z" transform="translate(-2.09 -2.02)"/><path class="cls-21" d="M269,118.59s-12-27.38-30.57-15.67l-1.5-1.49s6-6,14.37-4.07c0,0-4.81-7.48-6.47-14.36l2.1-.6s3.46,13.92,22.2,23.47Z" transform="translate(-2.09 -2.02)"/><path class="cls-21" d="M253.15,117.31h0c-.12,0-11.82-4.36-18.63,13.85h0c19.39-1.28,18.63-13.73,18.62-13.85Z" transform="translate(-2.09 -2.02)"/><path class="cls-21" d="M243.56,113.14h0c-.08-.1-7.83-9.87-23.12,2.13h0c17.23,9,23.05-2,23.11-2.14Z" transform="translate(-2.09 -2.02)"/><path class="cls-21" d="M246.54,86.05h0c.05-.11,5.71-11.22-11.58-20.12h0c-1,19.41,11.45,20.11,11.57,20.11h0Z" transform="translate(-2.09 -2.02)"/><path class="cls-21" d="M262.74,77.41h0c.07-.1,7.44-10.16-8.2-21.71h0c-4.1,19,8.09,21.68,8.2,21.71Z" transform="translate(-2.09 -2.02)"/><path class="cls-21" d="M261,128.62h0c-.08,0-8.75-3-13.37,10.53h0c14.2-1.33,13.39-10.44,13.38-10.53Z" transform="translate(-2.09 -2.02)"/><path class="cls-21" d="M258.59,113.31h0c0-.09-.09-8.87-13.78-8.79h0c5.7,12.45,13.71,8.83,13.79,8.79Z" transform="translate(-2.09 -2.02)"/><path class="cls-21" d="M239,102.45h0c0-.11-3.29-12-21.88-7h0c12.2,14.89,21.79,7.11,21.88,7Z" transform="translate(-2.09 -2.02)"/><path class="cls-21" d="M260.21,92.85h0c.05-.07,4.69-8-7.57-15.25h0c-1.61,14.17,7.48,15.25,7.57,15.26Z" transform="translate(-2.09 -2.02)"/><path class="cls-21" d="M242.08,93h0c0-.09-.09-8.87-13.78-8.79h0C234,96.7,242,93.08,242.08,93Z" transform="translate(-2.09 -2.02)"/><path class="cls-21" d="M272.09,80.94h0c-.08,0-7.69-5.12.17-17h0c7.62,12-.09,17-.17,17Z" transform="translate(-2.09 -2.02)"/><path class="cls-11" d="M11.06,257.33a3.55,3.55,0,0,1-3.63-2.76l1.13-.21a2.48,2.48,0,0,0,2.5,2c1.31,0,2.1-.72,2.1-1.77s-.61-1.58-1.95-1.83l-.81-.15c-1.85-.36-2.71-1.2-2.71-2.74a2.73,2.73,0,0,1,3-2.66A3.2,3.2,0,0,1,14,249.77l-1.12.21a2.15,2.15,0,0,0-2.2-1.79,1.71,1.71,0,0,0-1.92,1.66c0,.91.52,1.52,1.76,1.74l.85.15c1.9.36,2.85,1.27,2.85,2.83S13.18,257.33,11.06,257.33Z" transform="translate(-2.09 -2.02)"/><path class="cls-11" d="M18.21,250.16v4.06c0,1.46.43,2.18,1.62,2.18a2.1,2.1,0,0,0,1.87-1.27v-5h1.05v7H21.7v-.9a2.54,2.54,0,0,1-2.16,1.06c-1.54,0-2.38-1.09-2.38-2.88v-4.29Z" transform="translate(-2.09 -2.02)"/><path class="cls-11" d="M28.3,250A2.65,2.65,0,0,1,31,251.94l-1.07.18a1.57,1.57,0,0,0-1.64-1.19c-.87,0-1.36.42-1.36,1s.49,1,1.38,1.12l.69.11c1.58.25,2.16,1,2.16,2.06s-1,2.07-2.52,2.07a2.82,2.82,0,0,1-2.94-2.11l1.06-.2a1.86,1.86,0,0,0,1.88,1.38c.92,0,1.47-.48,1.47-1.14s-.49-1-1.39-1.15l-.69-.11c-1.62-.27-2.15-1-2.15-2.05S26.87,250,28.3,250Z" transform="translate(-2.09 -2.02)"/><path class="cls-11" d="M37.29,250.16v.94H35.53v4c0,.74.28,1.18.95,1.18h.94v.94h-1a1.76,1.76,0,0,1-2-2V251.1H33.4v-.94h1.08v-2h1.05v2Z" transform="translate(-2.09 -2.02)"/><path class="cls-11" d="M41.18,252l-1-.28A3,3,0,0,1,42.9,250a2.5,2.5,0,0,1,2.64,2.68v4.5h-1v-.86a2.59,2.59,0,0,1-2.22,1c-1.45,0-2.36-.84-2.36-1.94v-.19c0-1,.75-2,2.91-2h1.67v-.35c0-1.27-.62-1.87-1.63-1.87A1.88,1.88,0,0,0,41.18,252Zm3.31,3.28V254h-2c-1,0-1.54.53-1.54,1.22v.07c0,.63.5,1.11,1.47,1.11A2.26,2.26,0,0,0,44.49,255.26Z" transform="translate(-2.09 -2.02)"/><path class="cls-11" d="M48.88,247.19h1v1.29h-1Zm0,3h1v7h-1Z" transform="translate(-2.09 -2.02)"/><path class="cls-11" d="M57.86,257.17V253.1c0-1.45-.44-2.17-1.63-2.17a2.08,2.08,0,0,0-1.86,1.26v5h-1v-7h1v.9A2.53,2.53,0,0,1,56.53,250c1.54,0,2.38,1.1,2.38,2.89v4.29Z" transform="translate(-2.09 -2.02)"/><path class="cls-11" d="M63.06,252l-1-.28A3,3,0,0,1,64.79,250a2.5,2.5,0,0,1,2.63,2.68v4.5h-1v-.86a2.59,2.59,0,0,1-2.21,1c-1.46,0-2.37-.84-2.37-1.94v-.19c0-1,.75-2,2.91-2h1.67v-.35c0-1.27-.62-1.87-1.63-1.87A1.88,1.88,0,0,0,63.06,252Zm3.31,3.28V254h-2c-1,0-1.54.53-1.54,1.22v.07c0,.63.5,1.11,1.47,1.11A2.25,2.25,0,0,0,66.37,255.26Z" transform="translate(-2.09 -2.02)"/><path class="cls-11" d="M76.21,254.39c0,1.7-.9,2.94-2.55,2.94a2.32,2.32,0,0,1-2-.93v.77h-1v-10h1v3.74a2.33,2.33,0,0,1,2-.94c1.65,0,2.55,1.25,2.55,2.95Zm-1-1.26c0-1.44-.56-2.2-1.78-2.2a1.89,1.89,0,0,0-1.71,1.14v3.19a1.91,1.91,0,0,0,1.71,1.14c1.22,0,1.78-.76,1.78-2.2Z" transform="translate(-2.09 -2.02)"/><path class="cls-11" d="M79.37,247.19h1v1.29h-1Zm0,3h1v7h-1Z" transform="translate(-2.09 -2.02)"/><path class="cls-11" d="M86.22,257.17h-.28a1.77,1.77,0,0,1-2-2v-8h1V255c0,.75.29,1.19,1,1.19h.25Z" transform="translate(-2.09 -2.02)"/><path class="cls-11" d="M89.09,247.19h1v1.29h-1Zm0,3h1v7h-1Z" transform="translate(-2.09 -2.02)"/><path class="cls-11" d="M96.82,250.16v.94H95.05v4c0,.74.28,1.18,1,1.18h.93v.94H96a1.77,1.77,0,0,1-2-2V251.1H92.92v-.94H94v-2h1v2Z" transform="translate(-2.09 -2.02)"/><path class="cls-11" d="M101.8,257,99,250.16h1.12l2.21,5.48,2-5.48h1.12l-3.15,8.48a1.89,1.89,0,0,1-2.08,1.48h-.44v-.94h.4a1.08,1.08,0,0,0,1.14-.8Z" transform="translate(-2.09 -2.02)"/><path class="cls-21" d="M118.7,246.2h1v12.27h-1Z" transform="translate(-2.09 -2.02)"/><path class="cls-11" d="M133.92,257.17v-9.81h5.82v1H135v3.26h4.16v1H135v3.56h4.72v1Z" transform="translate(-2.09 -2.02)"/><path class="cls-11" d="M146.33,248.13h-.49c-1.06,0-1.31.39-1.31,1.57v.46h1.8v.94h-1.8v6.07h-1.05V251.1H142.4v-.94h1.08v-.43c0-2,.67-2.54,2.45-2.54h.4Z" transform="translate(-2.09 -2.02)"/><path class="cls-11" d="M152.77,248.13h-.49c-1.06,0-1.31.39-1.31,1.57v.46h1.8v.94H151v6.07h-1.05V251.1h-1.08v-.94h1.08v-.43c0-2,.67-2.54,2.45-2.54h.4Z" transform="translate(-2.09 -2.02)"/><path class="cls-11" d="M155.8,247.19h1v1.29h-1Zm0,3h1v7h-1Z" transform="translate(-2.09 -2.02)"/><path class="cls-11" d="M160.19,252.94a2.85,2.85,0,0,1,2.9-2.95,2.78,2.78,0,0,1,2.78,2.2l-1.05.18a1.71,1.71,0,0,0-1.73-1.44c-1.05,0-1.85.81-1.85,2.2v1.07c0,1.38.8,2.2,1.85,2.2a1.71,1.71,0,0,0,1.73-1.45l1.05.18a2.77,2.77,0,0,1-2.78,2.2,2.85,2.85,0,0,1-2.9-2.94Z" transform="translate(-2.09 -2.02)"/><path class="cls-11" d="M168.89,247.19h1.05v1.29h-1.05Zm0,3h1.05v7h-1.05Z" transform="translate(-2.09 -2.02)"/><path class="cls-11" d="M173.1,254.39v-1.45a2.9,2.9,0,1,1,5.8,0v1.12h-4.75v.14c0,1.38.8,2.2,1.85,2.2a1.66,1.66,0,0,0,1.68-1.2l1.08.17a2.74,2.74,0,0,1-2.76,2A2.84,2.84,0,0,1,173.1,254.39Zm1.05-1.19h3.7v-.07c0-1.39-.8-2.2-1.85-2.2s-1.85.81-1.85,2.2Z" transform="translate(-2.09 -2.02)"/><path class="cls-11" d="M186.46,257.17V253.1c0-1.45-.44-2.17-1.62-2.17a2.1,2.1,0,0,0-1.87,1.26v5h-1.05v-7H183v.9a2.53,2.53,0,0,1,2.16-1.07c1.54,0,2.38,1.1,2.38,2.89v4.29Z" transform="translate(-2.09 -2.02)"/><path class="cls-11" d="M190.47,252.94a2.85,2.85,0,0,1,2.9-2.95,2.78,2.78,0,0,1,2.78,2.2l-1.05.18a1.71,1.71,0,0,0-1.73-1.44c-1.05,0-1.85.81-1.85,2.2v1.07c0,1.38.8,2.2,1.85,2.2A1.71,1.71,0,0,0,195.1,255l1.05.18a2.77,2.77,0,0,1-2.78,2.2,2.85,2.85,0,0,1-2.9-2.94Z" transform="translate(-2.09 -2.02)"/><path class="cls-11" d="M201,257l-2.81-6.82h1.12l2.21,5.48,2-5.48h1.12l-3.15,8.48a1.88,1.88,0,0,1-2.07,1.48H199v-.94h.4a1.08,1.08,0,0,0,1.14-.8Z" transform="translate(-2.09 -2.02)"/><path class="cls-21" d="M217.93,246.2h1v12.27h-1Z" transform="translate(-2.09 -2.02)"/><path class="cls-11" d="M233.15,257.17v-9.81H239v1h-4.72v3.26h4.16v1h-4.16v3.56H239v1Z" transform="translate(-2.09 -2.02)"/><path class="cls-11" d="M246.55,257.17V253.1c0-1.45-.44-2.17-1.63-2.17a2.08,2.08,0,0,0-1.86,1.26v5H242v-7h1.05v.9a2.53,2.53,0,0,1,2.16-1.07c1.54,0,2.38,1.1,2.38,2.89v4.29Z" transform="translate(-2.09 -2.02)"/><path class="cls-11" d="M252.58,257.17l-2.68-7H251l2.12,5.67,2.14-5.67h1.09l-2.68,7Z" transform="translate(-2.09 -2.02)"/><path class="cls-11" d="M258.93,247.19H260v1.29h-1.05Zm0,3H260v7h-1.05Z" transform="translate(-2.09 -2.02)"/><path class="cls-11" d="M267.36,251.1a2.86,2.86,0,0,0-1-.17,2.26,2.26,0,0,0-1.95,1.21v5h-1.05v-7h1.05V251a2.5,2.5,0,0,1,2.08-1,2.2,2.2,0,0,1,.86.17Z" transform="translate(-2.09 -2.02)"/><path class="cls-11" d="M269.59,252.94a2.9,2.9,0,1,1,5.8,0v1.45a2.9,2.9,0,1,1-5.8,0Zm4.75.19c0-1.39-.8-2.2-1.85-2.2s-1.85.81-1.85,2.2v1.07c0,1.38.8,2.2,1.85,2.2s1.85-.82,1.85-2.2Z" transform="translate(-2.09 -2.02)"/><path class="cls-11" d="M282.94,257.17V253.1c0-1.45-.43-2.17-1.62-2.17a2.08,2.08,0,0,0-1.86,1.26v5h-1v-7h1v.9a2.52,2.52,0,0,1,2.15-1.07c1.55,0,2.39,1.1,2.39,2.89v4.29Z" transform="translate(-2.09 -2.02)"/><path class="cls-11" d="M291.72,257.17V253.1c0-1.45-.43-2.17-1.62-2.17a2.08,2.08,0,0,0-1.86,1.26v5h-1.05v-7h1.05v.9a2.52,2.52,0,0,1,2.15-1.07,2.14,2.14,0,0,1,2.08,1.28,3,3,0,0,1,2.47-1.28c1.55,0,2.39,1.1,2.39,2.89v4.29h-1.05v-4.05c0-1.46-.44-2.19-1.63-2.19a2.17,2.17,0,0,0-1.92,1.35,5.66,5.66,0,0,1,0,.6v4.29Z" transform="translate(-2.09 -2.02)"/><path class="cls-11" d="M300.29,254.39v-1.45a2.9,2.9,0,1,1,5.8,0v1.12h-4.75v.14c0,1.38.8,2.2,1.85,2.2a1.66,1.66,0,0,0,1.68-1.2l1.08.17a2.74,2.74,0,0,1-2.76,2A2.84,2.84,0,0,1,300.29,254.39Zm1-1.19H305v-.07c0-1.39-.8-2.2-1.85-2.2s-1.85.81-1.85,2.2Z" transform="translate(-2.09 -2.02)"/><path class="cls-11" d="M313.65,257.17V253.1c0-1.45-.44-2.17-1.63-2.17a2.08,2.08,0,0,0-1.86,1.26v5h-1.05v-7h1.05v.9a2.53,2.53,0,0,1,2.16-1.07c1.54,0,2.38,1.1,2.38,2.89v4.29Z" transform="translate(-2.09 -2.02)"/><path class="cls-11" d="M321.18,250.16v.94h-1.77v4c0,.74.28,1.18,1,1.18h.94v.94h-1a1.77,1.77,0,0,1-2-2V251.1h-1.08v-.94h1.08v-2h1.05v2Z" transform="translate(-2.09 -2.02)"/><path class="cls-31" d="M165,143.07c57,0,107.17,21.33,136.62,53.71-24.21-42.21-76.28-71.41-136.62-71.41S52.62,154.57,28.4,196.78C57.86,164.4,108.05,143.07,165,143.07Z" transform="translate(-2.09 -2.02)"/><path class="cls-41" d="M165,151.93c57,0,107.17,21.32,136.62,53.7-24.21-42.21-76.28-71.41-136.62-71.41S52.62,163.42,28.4,205.63C57.86,173.25,108.05,151.93,165,151.93Z" transform="translate(-2.09 -2.02)"/><path class="cls-21" d="M80.67,235.88v-21.4H88c1.3,8.84,8,14.35,16.87,14.35,6.24,0,9.8-2.59,9.8-6.48,0-5.36-4.78-5.76-12.16-7.54s-13.21-3.17-17.18-6.33a14.34,14.34,0,0,1-5.52-11.67c0-10.87,8-17.35,22.14-17.35,6.81,0,12.24,1.38,16.37,4.54l1.62-3.81h6.73v19.86h-7.46c-1-8.11-7-12.89-16-12.89-5.67,0-8.83,2.59-8.83,6.32,0,5.27,6,5.11,17.18,7.87,12.16,3,18,8.35,18,17.75,0,10.62-8.43,17.67-22.54,17.67-6.89,0-13.54-2-17.51-4.86l-2.19,4Z" transform="translate(-2.09 -2.02)"/><path class="cls-21" d="M133,228h3c4.46,0,4.94-.73,4.94-4.7V192.59c0-4-.48-4.7-4.94-4.7h-3v-7.13h53.75v20.75h-7.14c-.72-5.27-1.62-8.84-4-11-2.67-2.51-6.56-2.59-12.4-2.59h-7.05v15.48h1.37c6.08,0,7.54-1.78,7.54-8.59H172v24.81h-6.81c-.16-7.7-1.38-9.08-7.54-9.08h-1.37V228h7.29c11.43,0,14.92-2.59,16.13-15.32h7.14v22.45H133Z" transform="translate(-2.09 -2.02)"/><path class="cls-21" d="M193.68,228h3c4.46,0,4.95-.73,4.95-4.7V192.59c0-4-.49-4.7-4.95-4.7h-3v-7.13h53.75v20.75H240.3c-.73-5.27-1.62-8.84-4-11-2.68-2.51-6.57-2.59-12.41-2.59h-7v15.48h1.38c6.08,0,7.54-1.78,7.54-8.59h6.81v24.81h-6.81c-.17-7.7-1.38-9.08-7.54-9.08h-1.38V228h7.29c11.44,0,14.92-2.59,16.14-15.32h7.13v22.45H193.68Z" transform="translate(-2.09 -2.02)"/></svg>
