<svg id="Layer_1" data-name="Layer 1" xmlns="http://www.w3.org/2000/svg" viewBox="0 0 325.52 302.38"><defs><style>.cls-1,.cls-3{fill:#fff;}.cls-2{fill:none;}.cls-2,.cls-3{fill-rule:evenodd;}</style></defs><title>SEECENTENNIAL</title><path class="cls-1" d="M91.12,291.46c0-5.19,3.21-8.84,8.07-8.84a7.81,7.81,0,0,1,8,7.08l-3.43.58c-.54-3-2.18-4.55-4.55-4.55-2.85,0-4.61,2.27-4.61,6.31v4.35c0,4,1.76,6.31,4.61,6.31,2.37,0,4-1.53,4.55-4.54l3.43.57a7.81,7.81,0,0,1-8,7.08c-4.86,0-8.07-3.65-8.07-8.84Z" transform="translate(-3.04 -3.44)"/><path class="cls-1" d="M113.8,298.64c0,2.85,1.57,4.22,3.65,4.22a2.94,2.94,0,0,0,3.07-2.08l3.33.55a6.31,6.31,0,0,1-6.4,4.48,6.63,6.63,0,0,1-6.92-6.63v-3.52a6.82,6.82,0,0,1,13.64,0v3Zm0-2.63h7.11c-.13-2.72-1.73-4-3.56-4S113.89,293.29,113.8,296Z" transform="translate(-3.04 -3.44)"/><path class="cls-1" d="M128.17,289.41h3.27v2A5.29,5.29,0,0,1,136,289c3.59,0,5.51,2.56,5.51,6.63v9.77h-3.27V296.3c0-2.79-.77-4.33-3.33-4.33a3.92,3.92,0,0,0-3.46,2.34v11.12h-3.27Z" transform="translate(-3.04 -3.44)"/><path class="cls-1" d="M150.11,300.24c0,1.41.64,2.24,1.92,2.24h2.24v2.95H152c-3.46,0-5.16-1.67-5.16-4.87v-8.2h-2.27v-2.95h2.27v-4.55h3.27v4.55H154v2.95h-3.84Z" transform="translate(-3.04 -3.44)"/><path class="cls-1" d="M160.42,298.64c0,2.85,1.57,4.22,3.65,4.22a2.94,2.94,0,0,0,3.08-2.08l3.33.55a6.33,6.33,0,0,1-6.41,4.48,6.63,6.63,0,0,1-6.92-6.63v-3.52a6.83,6.83,0,0,1,13.65,0v3Zm0-2.63h7.11c-.13-2.72-1.73-4-3.55-4S160.52,293.29,160.42,296Z" transform="translate(-3.04 -3.44)"/><path class="cls-1" d="M174.8,289.41h3.26v2a5.31,5.31,0,0,1,4.55-2.37c3.59,0,5.51,2.56,5.51,6.63v9.77h-3.27V296.3c0-2.79-.76-4.33-3.33-4.33a3.93,3.93,0,0,0-3.46,2.34v11.12H174.8Z" transform="translate(-3.04 -3.44)"/><path class="cls-1" d="M192.47,289.41h3.27v2a5.29,5.29,0,0,1,4.55-2.37c3.59,0,5.51,2.56,5.51,6.63v9.77h-3.27V296.3c0-2.79-.77-4.33-3.33-4.33a3.92,3.92,0,0,0-3.46,2.34v11.12h-3.27Z" transform="translate(-3.04 -3.44)"/><path class="cls-1" d="M210.47,282.62h3.27v3.52h-3.27Zm0,6.79h3.27v16h-3.27Z" transform="translate(-3.04 -3.44)"/><path class="cls-1" d="M217.9,300.78c0-2.43,1.79-4.77,6.85-4.77h3.11v-.42c0-2.37-1.19-3.62-3.07-3.62a3.41,3.41,0,0,0-3.18,2.09l-3.23-.9a7.06,7.06,0,0,1,6.53-4.13c3.88,0,6.22,2.5,6.22,6.08v10.32h-3.27v-1.67a5.4,5.4,0,0,1-4.52,2.05c-3.39,0-5.44-2-5.44-4.55Zm10,.07v-2.21h-4.1a2.33,2.33,0,0,0-2.59,2.14v.16c0,1.06.83,1.92,2.75,1.92A4.46,4.46,0,0,0,227.86,300.85Z" transform="translate(-3.04 -3.44)"/><path class="cls-1" d="M239.07,300.24c0,1.41.64,2.24,1.92,2.24h.64v2.95H241c-3.46,0-5.16-1.67-5.16-4.87V282.62h3.27Z" transform="translate(-3.04 -3.44)"/><path class="cls-1" d="M12,258.75A3.56,3.56,0,0,1,8.38,256l1.13-.21a2.48,2.48,0,0,0,2.5,2c1.31,0,2.1-.72,2.1-1.77s-.6-1.58-1.95-1.83l-.81-.16c-1.85-.35-2.7-1.19-2.7-2.73a2.72,2.72,0,0,1,3-2.66A3.2,3.2,0,0,1,15,251.19l-1.12.21a2.15,2.15,0,0,0-2.2-1.79,1.71,1.71,0,0,0-1.92,1.66c0,.91.52,1.52,1.77,1.74l.84.15c1.9.35,2.85,1.26,2.85,2.83S14.14,258.75,12,258.75Z" transform="translate(-3.04 -3.44)"/><path class="cls-1" d="M19.16,251.58v4.06c0,1.46.43,2.17,1.62,2.17a2.09,2.09,0,0,0,1.87-1.26v-5H23.7v7H22.65v-.89a2.54,2.54,0,0,1-2.16,1.06c-1.54,0-2.38-1.09-2.38-2.88v-4.29Z" transform="translate(-3.04 -3.44)"/><path class="cls-1" d="M29.25,251.41a2.67,2.67,0,0,1,2.74,2l-1.08.18a1.56,1.56,0,0,0-1.64-1.19c-.87,0-1.36.42-1.36,1s.49,1,1.39,1.12l.68.11c1.59.25,2.16.95,2.16,2.06s-.95,2.07-2.52,2.07a2.82,2.82,0,0,1-2.94-2.11l1.06-.2a1.85,1.85,0,0,0,1.88,1.37c.92,0,1.47-.47,1.47-1.13s-.49-1-1.39-1.15l-.68-.11c-1.63-.27-2.16-1-2.16-2S27.83,251.41,29.25,251.41Z" transform="translate(-3.04 -3.44)"/><path class="cls-1" d="M38.24,251.58v.94H36.48v4c0,.74.28,1.18,1,1.18h.94v.93h-.95a1.76,1.76,0,0,1-2-2v-4H34.35v-.94h1.08v-2h1v2Z" transform="translate(-3.04 -3.44)"/><path class="cls-1" d="M42.13,253.4l-1-.28a3,3,0,0,1,2.76-1.71,2.5,2.5,0,0,1,2.63,2.68v4.49H45.44v-.85a2.59,2.59,0,0,1-2.21,1c-1.46,0-2.37-.84-2.37-1.94v-.19c0-1.05.75-2.06,2.91-2.06h1.67v-.35c0-1.26-.62-1.86-1.63-1.86A1.88,1.88,0,0,0,42.13,253.4Zm3.31,3.28v-1.26h-2c-1,0-1.54.53-1.54,1.22v.07c0,.63.5,1.1,1.47,1.1A2.24,2.24,0,0,0,45.44,256.68Z" transform="translate(-3.04 -3.44)"/><path class="cls-1" d="M49.83,248.61h1.05v1.29H49.83Zm0,3h1.05v7H49.83Z" transform="translate(-3.04 -3.44)"/><path class="cls-1" d="M58.81,258.58v-4.06c0-1.45-.44-2.17-1.63-2.17a2.09,2.09,0,0,0-1.86,1.26v5h-1v-7h1v.9a2.53,2.53,0,0,1,2.16-1.07c1.54,0,2.38,1.1,2.38,2.89v4.28Z" transform="translate(-3.04 -3.44)"/><path class="cls-1" d="M64,253.4l-1-.28a3,3,0,0,1,2.76-1.71,2.49,2.49,0,0,1,2.63,2.68v4.49H67.32v-.85a2.57,2.57,0,0,1-2.21,1c-1.46,0-2.37-.84-2.37-1.94v-.19c0-1.05.76-2.06,2.91-2.06h1.67v-.35c0-1.26-.62-1.86-1.62-1.86A1.89,1.89,0,0,0,64,253.4Zm3.31,3.28v-1.26h-2c-1,0-1.54.53-1.54,1.22v.07c0,.63.5,1.1,1.47,1.1A2.23,2.23,0,0,0,67.32,256.68Z" transform="translate(-3.04 -3.44)"/><path class="cls-1" d="M77.16,255.81c0,1.7-.89,2.94-2.55,2.94a2.3,2.3,0,0,1-2-.94v.77H71.57v-10h1.05v3.74a2.33,2.33,0,0,1,2-.94c1.66,0,2.55,1.25,2.55,2.94Zm-1-1.26c0-1.44-.56-2.2-1.78-2.2a1.89,1.89,0,0,0-1.71,1.14v3.19a1.9,1.9,0,0,0,1.71,1.13c1.22,0,1.78-.75,1.78-2.19Z" transform="translate(-3.04 -3.44)"/><path class="cls-1" d="M80.32,248.61h1.05v1.29H80.32Zm0,3h1.05v7H80.32Z" transform="translate(-3.04 -3.44)"/><path class="cls-1" d="M87.17,258.58h-.28a1.77,1.77,0,0,1-2-2v-8h1v7.85c0,.75.3,1.19,1,1.19h.25Z" transform="translate(-3.04 -3.44)"/><path class="cls-1" d="M90,248.61h1v1.29H90Zm0,3h1v7H90Z" transform="translate(-3.04 -3.44)"/><path class="cls-1" d="M97.77,251.58v.94H96v4c0,.74.28,1.18,1,1.18h.94v.93h-1a1.76,1.76,0,0,1-2-2v-4H93.88v-.94H95v-2h1v2Z" transform="translate(-3.04 -3.44)"/><path class="cls-1" d="M102.75,258.4l-2.81-6.82h1.12l2.21,5.48,2-5.48h1.12l-3.15,8.48a1.88,1.88,0,0,1-2.07,1.48h-.45v-.94h.4a1.08,1.08,0,0,0,1.14-.8Z" transform="translate(-3.04 -3.44)"/><path class="cls-1" d="M119.65,247.62h1v12.27h-1Z" transform="translate(-3.04 -3.44)"/><path class="cls-1" d="M134.87,258.58v-9.8h5.82v1H136V253h4.16v1H136v3.56h4.72v1Z" transform="translate(-3.04 -3.44)"/><path class="cls-1" d="M147.29,249.55h-.49c-1.07,0-1.32.39-1.32,1.57v.46h1.81v.94h-1.81v6.06h-1v-6.06h-1.08v-.94h1.08v-.43c0-2,.67-2.54,2.45-2.54h.41Z" transform="translate(-3.04 -3.44)"/><path class="cls-1" d="M153.73,249.55h-.49c-1.07,0-1.32.39-1.32,1.57v.46h1.81v.94h-1.81v6.06h-1v-6.06h-1.08v-.94h1.08v-.43c0-2,.67-2.54,2.45-2.54h.41Z" transform="translate(-3.04 -3.44)"/><path class="cls-1" d="M156.75,248.61h1.05v1.29h-1.05Zm0,3h1.05v7h-1.05Z" transform="translate(-3.04 -3.44)"/><path class="cls-1" d="M161.14,254.35a2.85,2.85,0,0,1,2.9-2.94,2.78,2.78,0,0,1,2.78,2.2l-1,.18a1.71,1.71,0,0,0-1.73-1.44c-1,0-1.85.81-1.85,2.2v1.07c0,1.38.8,2.19,1.85,2.19a1.7,1.7,0,0,0,1.73-1.44l1,.18a2.77,2.77,0,0,1-2.78,2.2,2.85,2.85,0,0,1-2.9-2.94Z" transform="translate(-3.04 -3.44)"/><path class="cls-1" d="M169.84,248.61h1v1.29h-1Zm0,3h1v7h-1Z" transform="translate(-3.04 -3.44)"/><path class="cls-1" d="M174.05,255.81v-1.46a2.9,2.9,0,1,1,5.8,0v1.13H175.1v.14c0,1.38.8,2.19,1.85,2.19a1.65,1.65,0,0,0,1.68-1.19l1.08.17a2.73,2.73,0,0,1-2.76,2A2.84,2.84,0,0,1,174.05,255.81Zm1-1.19h3.7v-.07c0-1.39-.8-2.2-1.85-2.2s-1.85.81-1.85,2.2Z" transform="translate(-3.04 -3.44)"/><path class="cls-1" d="M187.41,258.58v-4.06c0-1.45-.43-2.17-1.62-2.17a2.11,2.11,0,0,0-1.87,1.26v5h-1v-7h1v.9a2.53,2.53,0,0,1,2.16-1.07c1.54,0,2.38,1.1,2.38,2.89v4.28Z" transform="translate(-3.04 -3.44)"/><path class="cls-1" d="M191.43,254.35a2.84,2.84,0,0,1,2.9-2.94,2.77,2.77,0,0,1,2.77,2.2l-1,.18a1.7,1.7,0,0,0-1.72-1.44c-1.05,0-1.85.81-1.85,2.2v1.07c0,1.38.8,2.19,1.85,2.19a1.69,1.69,0,0,0,1.72-1.44l1,.18a2.76,2.76,0,0,1-2.77,2.2,2.84,2.84,0,0,1-2.9-2.94Z" transform="translate(-3.04 -3.44)"/><path class="cls-1" d="M202,258.4l-2.81-6.82h1.12l2.21,5.48,2-5.48h1.12l-3.15,8.48a1.88,1.88,0,0,1-2.07,1.48h-.45v-.94h.4a1.08,1.08,0,0,0,1.14-.8Z" transform="translate(-3.04 -3.44)"/><path class="cls-1" d="M218.88,247.62h1.05v12.27h-1.05Z" transform="translate(-3.04 -3.44)"/><path class="cls-1" d="M234.1,258.58v-9.8h5.82v1h-4.71V253h4.16v1h-4.16v3.56h4.71v1Z" transform="translate(-3.04 -3.44)"/><path class="cls-1" d="M247.5,258.58v-4.06c0-1.45-.44-2.17-1.63-2.17a2.09,2.09,0,0,0-1.86,1.26v5h-1v-7h1v.9a2.53,2.53,0,0,1,2.16-1.07c1.54,0,2.38,1.1,2.38,2.89v4.28Z" transform="translate(-3.04 -3.44)"/><path class="cls-1" d="M253.53,258.58l-2.67-7H252l2.13,5.67,2.13-5.67h1.09l-2.68,7Z" transform="translate(-3.04 -3.44)"/><path class="cls-1" d="M259.88,248.61h1.06v1.29h-1.06Zm0,3h1.06v7h-1.06Z" transform="translate(-3.04 -3.44)"/><path class="cls-1" d="M268.32,252.52a3,3,0,0,0-1-.17,2.23,2.23,0,0,0-1.94,1.21v5h-1.06v-7h1.06v.88a2.47,2.47,0,0,1,2.07-1.05,2.25,2.25,0,0,1,.87.17Z" transform="translate(-3.04 -3.44)"/><path class="cls-1" d="M270.54,254.35a2.9,2.9,0,1,1,5.8,0v1.46a2.9,2.9,0,1,1-5.8,0Zm4.75.2c0-1.39-.8-2.2-1.85-2.2s-1.85.81-1.85,2.2v1.07c0,1.38.8,2.19,1.85,2.19s1.85-.81,1.85-2.19Z" transform="translate(-3.04 -3.44)"/><path class="cls-1" d="M283.9,258.58v-4.06c0-1.45-.44-2.17-1.63-2.17a2.08,2.08,0,0,0-1.86,1.26v5h-1.05v-7h1.05v.9a2.53,2.53,0,0,1,2.16-1.07c1.54,0,2.38,1.1,2.38,2.89v4.28Z" transform="translate(-3.04 -3.44)"/><path class="cls-1" d="M292.68,258.58v-4.06c0-1.45-.44-2.17-1.63-2.17a2.08,2.08,0,0,0-1.86,1.26v5h-1.05v-7h1.05v.9a2.53,2.53,0,0,1,2.16-1.07,2.13,2.13,0,0,1,2.07,1.28,3,3,0,0,1,2.48-1.28c1.54,0,2.38,1.1,2.38,2.89v4.28h-1v-4c0-1.46-.44-2.19-1.63-2.19a2.17,2.17,0,0,0-1.92,1.35,5.6,5.6,0,0,1,.05.6v4.28Z" transform="translate(-3.04 -3.44)"/><path class="cls-1" d="M301.24,255.81v-1.46a2.9,2.9,0,1,1,5.8,0v1.13h-4.75v.14c0,1.38.8,2.19,1.85,2.19a1.65,1.65,0,0,0,1.68-1.19l1.08.17a2.74,2.74,0,0,1-2.76,2A2.84,2.84,0,0,1,301.24,255.81Zm1.05-1.19H306v-.07c0-1.39-.8-2.2-1.85-2.2s-1.85.81-1.85,2.2Z" transform="translate(-3.04 -3.44)"/><path class="cls-1" d="M314.6,258.58v-4.06c0-1.45-.43-2.17-1.63-2.17a2.11,2.11,0,0,0-1.86,1.26v5h-1.05v-7h1.05v.9a2.53,2.53,0,0,1,2.16-1.07c1.54,0,2.38,1.1,2.38,2.89v4.28Z" transform="translate(-3.04 -3.44)"/><path class="cls-1" d="M322.13,251.58v.94h-1.76v4c0,.74.28,1.18.95,1.18h.94v.93h-1a1.76,1.76,0,0,1-2-2v-4h-1.08v-.94h1.08v-2h1.05v2Z" transform="translate(-3.04 -3.44)"/><path class="cls-2" d="M70,172.13q-.43-2.25-.84-4.44-4.49,2.42-8.73,5Z" transform="translate(-3.04 -3.44)"/><path class="cls-3" d="M29.41,114.46h0c-.08-.1-7.79-9.9-23.12,2.06h0C23.49,125.58,29.35,114.57,29.41,114.46Z" transform="translate(-3.04 -3.44)"/><path class="cls-3" d="M33.41,140.49c14.21-1.28,13.42-10.4,13.42-10.49h0c-.08,0-8.74-3-13.41,10.49Z" transform="translate(-3.04 -3.44)"/><path class="cls-3" d="M30.68,105.85c5.66,12.46,13.68,8.87,13.76,8.83h0c0-.09-.06-8.87-13.76-8.83Z" transform="translate(-3.04 -3.44)"/><path class="cls-3" d="M46.13,94.22h0c0-.08,4.72-7.94-7.52-15.27h0C37,93.11,46,94.21,46.13,94.22Z" transform="translate(-3.04 -3.44)"/><path class="cls-3" d="M14.25,85.52C19.91,98,27.93,94.39,28,94.36h0c0-.08-.06-8.87-13.75-8.83Z" transform="translate(-3.04 -3.44)"/><path class="cls-3" d="M110.55,116.69c-15.29-12-23-2.23-23.11-2.13h0c.06.11,5.88,11.14,23.11,2.14h0Z" transform="translate(-3.04 -3.44)"/><path class="cls-3" d="M83.35,140.57h0C78.72,127.08,70.06,130,70,130h0C70,130.13,69.15,139.24,83.35,140.57Z" transform="translate(-3.04 -3.44)"/><path class="cls-3" d="M86.2,105.94c-13.7-.08-13.79,8.7-13.79,8.79h0c.08,0,8.08,3.66,13.79-8.79Z" transform="translate(-3.04 -3.44)"/><path class="cls-3" d="M114,96.76h0c-13.7-3.69-19.07,1.8-21,5A16,16,0,0,0,79.85,98.7a61.71,61.71,0,0,0,5.59-11.43c2.82-.56,11.56-3.61,10.72-20h0c-12.37,6.37-13,13.87-12.32,17.66C82.59,88.31,78,98.27,64.22,106c1-16.87,4.53-25.16,6-28l-.09,0c.13-.19.19-.24.09,0,3.26-1.62,9.45-6.66,6.35-21h0c-11.9,8.79-10.48,16.71-9.09,20,0-.08,0,0,0,.09a.36.36,0,0,1,0-.09c-3.88,6-8.12,20.87-8.91,23.72l0,.21a.21.21,0,0,1,0-.21c-.78-2.85-5-17.78-8.83-23.75a1,1,0,0,0-.07.15c0-.16,0-.23.07-.15,1.4-3.33,2.84-11.24-9-20.07h0c-3.08,14,2.76,19.18,6.07,20.92-.08-.21,0-.14.11.06l-.11-.06c1.12,2.81,4,11.5,5.14,27.54-13-7.7-17.37-17.27-18.56-20.59.68-3.79.09-11.29-12.27-17.7h0c-.9,16.39,7.84,19.46,10.65,20a62,62,0,0,0,5.55,11.45A16.37,16.37,0,0,0,24,101.69c-1.9-3.21-7.26-8.67-20.92-5h0c10.27,12.61,18.72,9,21.15,7.57h0C37.65,95.8,47.82,107.75,52.3,115c0,3,0,6.17-.07,9.55,0,.82,0,.9,0,0-6.06-5.65-11.81-6.42-14.7-6.38-3.43-.5-11.73,0-17.1,14.15h0c13.26-.83,17.11-6.91,18.23-10.71a21.83,21.83,0,0,1,13.17,11.18,338.34,338.34,0,0,1-5.6,42.67,148.09,148.09,0,0,1,12.45-11.77c2.83-2.36,5.75-4.62,8.79-6.79-1.33-8.48-2.23-16.14-2.79-23v-.08a22.2,22.2,0,0,1,13.7-12.1c1.1,3.81,4.94,9.9,18.2,10.78h0c-5.32-14.22-13.62-14.7-17-14.21-3,0-9.1.84-15.4,7q-.19-4.64-.21-8.76h0C67.7,109.93,77.21,96.81,90.32,103l1.64.87c.25.15.78.41.78.41,2.35,1.45,10.85,5.21,21.24-7.47h0Z" transform="translate(-3.04 -3.44)"/><path class="cls-3" d="M70.79,94.26h0c.09,0,9.17-1.09,7.57-15.26h0C66.1,86.3,70.74,94.19,70.79,94.26Z" transform="translate(-3.04 -3.44)"/><polygon class="cls-3" points="75.32 75.57 75.32 75.58 75.32 75.58 75.32 75.57"/><path class="cls-3" d="M102.7,85.67c-13.69-.08-13.79,8.7-13.79,8.79h0c.08,0,8.08,3.66,13.79-8.78Z" transform="translate(-3.04 -3.44)"/><path class="cls-3" d="M58.91,82.36h0c.07,0,7.69-5.12-.17-17h0C51.12,77.39,58.83,82.31,58.91,82.36Z" transform="translate(-3.04 -3.44)"/><path class="cls-2" d="M261.92,172.13l9.58.59c-2.83-1.74-5.75-3.42-8.73-5C262.5,169.15,262.22,170.63,261.92,172.13Z" transform="translate(-3.04 -3.44)"/><polygon class="cls-2" points="250.54 75.58 250.54 75.57 250.54 75.57 250.54 75.58"/><path class="cls-3" d="M325.66,116.52c-15.33-12-23-2.16-23.12-2.06h0c.06.11,5.91,11.12,23.12,2.06Z" transform="translate(-3.04 -3.44)"/><path class="cls-3" d="M298.54,140.49C293.87,127,285.21,130,285.13,130h0c0,.09-.79,9.21,13.42,10.49Z" transform="translate(-3.04 -3.44)"/><path class="cls-3" d="M287.51,114.68h0c.08,0,8.1,3.63,13.76-8.83h0C287.57,105.81,287.51,114.59,287.51,114.68Z" transform="translate(-3.04 -3.44)"/><path class="cls-3" d="M285.82,94.22h0c.09,0,9.17-1.11,7.52-15.27h0C281.1,86.28,285.77,94.14,285.82,94.22Z" transform="translate(-3.04 -3.44)"/><path class="cls-3" d="M303.94,94.35h0c.08,0,8.1,3.63,13.76-8.84h0C304,85.48,303.94,94.27,303.94,94.35Z" transform="translate(-3.04 -3.44)"/><path class="cls-3" d="M244.51,114.56h0c-.08-.1-7.82-9.87-23.11,2.13h0C238.63,125.7,244.45,114.67,244.51,114.56Z" transform="translate(-3.04 -3.44)"/><path class="cls-3" d="M262,130h0c-.09,0-8.76-3-13.38,10.53h0C262.8,139.24,262,130.13,262,130Z" transform="translate(-3.04 -3.44)"/><path class="cls-3" d="M245.75,105.94c5.71,12.45,13.71,8.83,13.79,8.79h0c0-.09-.1-8.87-13.79-8.79Z" transform="translate(-3.04 -3.44)"/><path class="cls-3" d="M328.56,96.43h0c-13.68-3.63-19,1.85-20.93,5a15.92,15.92,0,0,0-12.84-2.77,62,62,0,0,0,5.55-11.45c2.81-.56,11.55-3.64,10.65-20h0c-12.35,6.4-12.94,13.91-12.26,17.7-1.2,3.31-5.62,12.89-18.56,20.58,1.08-16,4-24.73,5.14-27.53,3.3-1.75,9.14-6.89,6.07-20.92h0c-11.86,8.83-10.42,16.74-9,20.07-3.86,6-8.05,20.9-8.83,23.75-.79-2.85-5-17.76-8.91-23.72,1.39-3.33,2.8-11.25-9.09-20h0c-3.1,14.35,3.08,19.39,6.35,21h0c1.47,2.8,5,11.1,6,28C255.29,99,248.44,85.58,248.24,85c.67-3.79,0-11.29-12.33-17.66h0c-.84,16.39,7.9,19.43,10.72,20a61.71,61.71,0,0,0,5.59,11.43,16,16,0,0,0-13.17,3.06c-1.89-3.19-7.26-8.69-21-5h0c10.39,12.68,18.88,8.92,21.23,7.48,14.35-9.07,24.82,5.3,28.82,12.26q0,4.13-.22,8.77c0,.67,0,.68,0,0-6.32-6.22-12.4-7-15.39-7-3.44-.5-11.74,0-17.06,14.21h0c13.26-.87,17.09-7,18.19-10.77A21.79,21.79,0,0,1,267.37,134c-.56,6.9-1.46,14.57-2.78,23,3.07,2.19,6.3,4.7,9.15,7.09a137.18,137.18,0,0,1,12.09,11.48,340.79,340.79,0,0,1-5.61-42.68c0-.47,0-.48,0,0a21.89,21.89,0,0,1,13.18-11.18c1.11,3.8,5,9.88,18.23,10.71h0c-5.37-14.2-13.67-14.66-17.11-14.15h0c-2.88,0-8.63.72-14.69,6.37,0,.79,0,.76,0,0-.1-3.38-.12-6.55-.07-9.54,4.47-7.29,13.8-19.72,27.26-11.29,2.36,1.44,11.18,5.31,21.52-7.4Z" transform="translate(-3.04 -3.44)"/><path class="cls-3" d="M261.16,94.27h0c0-.07,4.69-8-7.57-15.25h0C252,93.18,261.07,94.25,261.16,94.27Z" transform="translate(-3.04 -3.44)"/><path class="cls-3" d="M243,94.46h0c0-.09-.09-8.87-13.78-8.79h0C235,98.12,243,94.5,243,94.46Z" transform="translate(-3.04 -3.44)"/><path class="cls-3" d="M273,82.36h0c.08,0,7.79-5,.17-17h0C265.35,77.24,273,82.31,273,82.36Z" transform="translate(-3.04 -3.44)"/><path class="cls-2" d="M112.73,37.78c6.84,15,16.48,10.65,16.58,10.6h0c0-.1-.1-10.68-16.58-10.6h0Z" transform="translate(-3.04 -3.44)"/><path class="cls-3" d="M103.21,75.11C123.94,86,131,72.72,131,72.59h0c-.09-.11-9.4-11.9-27.83,2.53h0Z" transform="translate(-3.04 -3.44)"/><path class="cls-3" d="M152,91.26h0c-.1,0-10.53-3.58-16.13,12.65h0C153,102.34,152.05,91.37,152,91.26Z" transform="translate(-3.04 -3.44)"/><path class="cls-3" d="M132.55,62.21c6.85,15,16.49,10.65,16.58,10.61h0c0-.1-.09-10.68-16.58-10.61Z" transform="translate(-3.04 -3.44)"/><path class="cls-3" d="M151.13,48.18h0c.06-.09,5.66-9.57-9.08-18.38h0C140.09,46.87,151,48.17,151.13,48.18Z" transform="translate(-3.04 -3.44)"/><path class="cls-3" d="M228.74,75.11c-18.43-14.43-27.74-2.64-27.83-2.53h0c.07.13,7.1,13.39,27.83,2.52h0Z" transform="translate(-3.04 -3.44)"/><path class="cls-3" d="M196,103.92h0c-5.6-16.23-16-12.69-16.13-12.65h0C179.9,91.37,178.94,102.34,196,103.92Z" transform="translate(-3.04 -3.44)"/><path class="cls-3" d="M199.4,62.21c-16.49-.07-16.59,10.51-16.59,10.61h0c.1,0,9.74,4.39,16.59-10.61Z" transform="translate(-3.04 -3.44)"/><path class="cls-3" d="M177.37,127.14c-1.92-11.55-3.18-21.89-4-31.12a26.26,26.26,0,0,1,16.47-14.69c1.33,4.58,6,11.91,21.93,12.93h0c-6.43-17.1-16.41-17.67-20.55-17.07-3.6-.06-10.92.93-18.53,8.43q-.26-5.59-.27-10.56c4.79-8.38,17.33-25.66,34.63-14.78l0,0c2.84,1.74,13.07,6.25,25.56-9h0c-16.5-4.41-23,2.21-25.23,6.06a19.23,19.23,0,0,0-15.85-3.65,75.05,75.05,0,0,0,6.7-13.78c3.39-.67,13.92-4.36,12.86-24.1h0c-14.88,7.69-15.61,16.72-14.8,21.29-1.48,4.08-7.06,16.07-23.56,25.42,1.21-20.31,5.39-30.3,7.15-33.68,3.93-2,11.37-8,7.61-25.31h0C173.26,14.05,175,23.58,176.65,27.59,172,34.77,166.92,52.73,166,56.16c-.94-3.43-6-21.39-10.67-28.57,1.68-4,3.39-13.54-10.91-24.15h0c-3.76,17.27,3.67,23.35,7.61,25.31,1.76,3.38,5.94,13.37,7.15,33.68C142.64,53.09,137.07,41.1,135.59,37c.81-4.57.08-13.6-14.8-21.29h0c-1,19.74,9.48,23.43,12.87,24.1a75.05,75.05,0,0,0,6.7,13.78,19.23,19.23,0,0,0-15.85,3.65c-2.28-3.85-8.74-10.47-25.23-6.06h0c12.49,15.29,22.72,10.78,25.55,9l0,0c17.29-10.88,29.84,6.4,34.63,14.78q0,5-.27,10.56c-7.61-7.5-14.93-8.49-18.53-8.43-4.14-.6-14.13,0-20.56,17.07h0c16-1,20.6-8.35,21.93-12.93A26.26,26.26,0,0,1,158.53,96c-.77,9.23-2,19.57-3.95,31.12q5.64-.35,11.4-.35T177.37,127.14Z" transform="translate(-3.04 -3.44)"/><path class="cls-3" d="M180.82,48.18h0c.1,0,11-1.31,9.08-18.37h0C175.16,38.61,180.76,48.09,180.82,48.18Z" transform="translate(-3.04 -3.44)"/><path class="cls-3" d="M202.64,48.38h0c.1,0,9.74,4.4,16.58-10.6h0C202.74,37.7,202.64,48.28,202.64,48.38Z" transform="translate(-3.04 -3.44)"/><path class="cls-3" d="M166.49,33.88h0c.09-.06,9.25-6.19-.24-20.5h0C157.1,27.91,166.4,33.82,166.49,33.88Z" transform="translate(-3.04 -3.44)"/><path class="cls-2" d="M58.46,172.86l-13,5.91c.22-1.07.42-2.13.62-3.17a123.68,123.68,0,0,0-16.77,22.6,144.72,144.72,0,0,1,31.1-25.48l-2,.13Z" transform="translate(-3.04 -3.44)"/><path class="cls-2" d="M177.37,127.14q1.17,7.1,2.69,14.8l-13.93.88v0h-.31v0l-13.93-.88q1.52-7.71,2.69-14.8c-33.22,2-63.44,13-87.22,29.89q.81,5.13,1.82,10.66c27.15-14.58,60.6-23.2,96.8-23.2s69.64,8.62,96.79,23.2q1-5.53,1.82-10.66C240.81,140.11,210.59,129.19,177.37,127.14Z" transform="translate(-3.04 -3.44)"/><path class="cls-2" d="M273.49,172.86h0l-2-.13a144.72,144.72,0,0,1,31.1,25.48,123.68,123.68,0,0,0-16.77-22.6c.2,1,.4,2.1.61,3.17Z" transform="translate(-3.04 -3.44)"/><path class="cls-2" d="M273.49,172.85h.26v-8.74a2.75,2.75,0,0,1-.26-.22Z" transform="translate(-3.04 -3.44)"/><path class="cls-3" d="M166,153.34c57,0,107.16,21.33,136.62,53.71-24.22-42.21-76.29-71.41-136.62-71.41S53.57,164.84,29.35,207.05C58.81,174.67,109,153.34,166,153.34Z" transform="translate(-3.04 -3.44)"/><path class="cls-1" d="M81.62,237.3V215.9h7.29c1.3,8.84,8,14.35,16.87,14.35,6.24,0,9.81-2.59,9.81-6.49,0-5.35-4.79-5.75-12.16-7.54s-13.22-3.16-17.19-6.32a14.33,14.33,0,0,1-5.51-11.67c0-10.87,7.94-17.35,22.13-17.35,6.81,0,12.24,1.38,16.37,4.54l1.63-3.81h6.72v19.86h-7.45c-1-8.11-7.06-12.89-16.06-12.89-5.67,0-8.83,2.59-8.83,6.32,0,5.27,6,5.11,17.18,7.87,12.17,3,18,8.35,18,17.75,0,10.62-8.43,17.67-22.54,17.67-6.89,0-13.53-2-17.51-4.86l-2.19,4Z" transform="translate(-3.04 -3.44)"/><path class="cls-1" d="M134,229.44h3c4.46,0,4.95-.73,4.95-4.7V194c0-4-.49-4.7-4.95-4.7h-3v-7.13h53.75v20.75h-7.13c-.73-5.27-1.63-8.84-4-11-2.67-2.51-6.56-2.59-12.4-2.59h-7v15.48h1.38c6.08,0,7.53-1.78,7.53-8.59h6.81V221h-6.81c-.16-7.7-1.37-9.08-7.53-9.08h-1.38v17.51h7.29c11.43,0,14.92-2.6,16.14-15.32h7.13v22.45H134Z" transform="translate(-3.04 -3.44)"/><path class="cls-1" d="M194.63,229.44h3c4.46,0,5-.73,5-4.7V194c0-4-.49-4.7-5-4.7h-3v-7.13h53.75v20.75h-7.13c-.73-5.27-1.62-8.84-4-11-2.68-2.51-6.57-2.59-12.41-2.59h-7.05v15.48h1.38c6.08,0,7.54-1.78,7.54-8.59h6.81V221h-6.81c-.16-7.7-1.38-9.08-7.54-9.08h-1.38v17.51h7.3c11.43,0,14.91-2.6,16.13-15.32h7.13v22.45H194.63Z" transform="translate(-3.04 -3.44)"/></svg>