<svg id="Layer_1" data-name="Layer 1" xmlns="http://www.w3.org/2000/svg" viewBox="0 0 170.22 294.94"><defs><style>.cls-1{fill:#07bab0;fill-rule:evenodd;}</style></defs><title>treesSaved</title><path class="cls-1" d="M102.8,87.28A5.85,5.85,0,0,1,111,95.63L93.12,113.3v49.11l28-27.64a5.85,5.85,0,0,1,8.21,8.35L93.12,178.86v33.58a73.37,73.37,0,0,0,67.5-73.14c0-33.89-23.43-61.95-55.51-100.38C99.44,32.14,93.5,25,87.25,17.34,81,25,75.05,32.14,69.38,38.94c-32.08,38.42-55.5,66.48-55.5,100.37a73.38,73.38,0,0,0,67.5,73.14V178.86L45.18,143.12a5.85,5.85,0,1,1,8.21-8.35l28,27.64V113.3L63.49,95.63a5.85,5.85,0,0,1,8.21-8.35l15.55,15.36L102.8,87.28ZM93.12,224.22v67a5.87,5.87,0,0,1-11.74,0v-67A85.12,85.12,0,0,1,2.14,139.31c0-38.11,24.59-67.56,58.26-107.89,7.15-8.56,14.71-17.62,22.29-27.05a5.86,5.86,0,0,1,9.2.09c7.55,9.4,15.09,18.42,22.21,27,33.67,40.34,58.26,69.79,58.26,107.9A85.12,85.12,0,0,1,93.12,224.22Z" transform="translate(-2.14 -2.18)"/></svg>
