<svg id="Layer_1" data-name="Layer 1" xmlns="http://www.w3.org/2000/svg" xmlns:xlink="http://www.w3.org/1999/xlink" viewBox="0 0 122.65 208.8"><defs><style>.cls-1{fill:none;}.cls-2{clip-path:url(#clip-path);}.cls-3{fill:#07bab0;}</style><clipPath id="clip-path" transform="translate(0 -0.2)"><rect class="cls-1" x="0.06" y="0.2" width="122.59" height="208.74"/></clipPath></defs><title>Water</title><g class="cls-2"><path class="cls-3" d="M61.33,209C28.66,209,0,178,0,142.6c0-29,12.35-47.92,25.42-67.9,12.07-18.45,25.75-39,32-71.66.36-1.89,2-2.85,3.93-2.85h0c1.93,0,3.58,1,3.92,2.87,6,32.57,19.12,52.42,31.84,71.82,13.14,20,25.55,38.84,25.55,67.81,0,31.34-26.23,66.3-61.33,66.3m0-188.32c-7.34,25-18.82,42.6-29.16,58.4C19.18,98.86,8,115.94,8,142.6,8,170.22,29.9,201,61.33,201c30.52,0,53.33-30.83,53.33-58.4,0-26.59-11.23-43.71-24.24-63.53C80,63.24,68.49,45.65,61.28,20.68Z" transform="translate(0 -0.2)"/></g><path class="cls-3" d="M66.55,179.67a4,4,0,0,1-.75-7.93c14.54-2.78,21-17.48,21-30.8a4,4,0,0,1,8,0c0,16.62-8.51,35-27.53,38.65a3.94,3.94,0,0,1-.76.07" transform="translate(0 -0.2)"/></svg>