<svg id="Layer_1" data-name="Layer 1" xmlns="http://www.w3.org/2000/svg" viewBox="0 0 22.13 37.41"><defs><style>.cls-1{fill:#b6b6c2;}</style></defs><title>AL</title><path class="cls-1" d="M7.85,36l-1.33-2a.77.77,0,0,1,.57-1.19l16.29-1.62-.53-.75-.4-10.62a.77.77,0,0,0,0-.19L16.84,1.16l-1,.12L2.86,2.35a.81.81,0,0,0-.71.74l-.9,21a.76.76,0,0,0,0,.1L2,33.1l.39,4.76a.77.77,0,0,0,.81.71l4.1-.21A.76.76,0,0,0,7.9,38,.75.75,0,0,0,8,37.55l0-1.19A.77.77,0,0,0,7.85,36Z" transform="translate(-1.25 -1.16)"/></svg>