<svg id="Layer_1" data-name="Layer 1" xmlns="http://www.w3.org/2000/svg" viewBox="0 0 28.53 26.74"><defs><style>.cls-1{fill:#b6b6c2;}</style></defs><title>AR</title><path class="cls-1" d="M29.89,7.4a.77.77,0,0,0-.71-1.08H27.72a.77.77,0,0,1-.77-.77V2.83a.81.81,0,0,0-.79-.77l-5.25.15L2.17,2.74a.75.75,0,0,0-.36.12.76.76,0,0,0-.39.67L1.82,23a.77.77,0,0,0,.47.69l2.22,1a.77.77,0,0,1,.45.59.75.75,0,0,1,0,.15L4.9,28a.77.77,0,0,0,.78.8l16.54-.27a.75.75,0,0,0,.42-.15.76.76,0,0,0,.34-.7L22.62,24l.07-.15Z" transform="translate(-1.42 -2.06)"/></svg>