<svg id="Layer_1" data-name="Layer 1" xmlns="http://www.w3.org/2000/svg" viewBox="0 0 40.12 48.62"><defs><style>.cls-1{fill:#b6b6c2;}</style></defs><title>AZ</title><path class="cls-1" d="M41.48,7a.77.77,0,0,0-.59-.53L12.57,1.37a.8.8,0,0,0-.89.6L10.54,7.4l-.1.55a2.23,2.23,0,0,1-.9,0l-1.87-.6a.77.77,0,0,0-1,.57L5,15.74a.77.77,0,0,0,.06.5s2.39,5.13,2.55,5.22a.79.79,0,0,1,0,.61L2.5,28.24a.76.76,0,0,0-.12.26s0,.06,0,.1v0l-.91,5.27a.77.77,0,0,0,.35.78L22.7,48a.77.77,0,0,0,.25.09l0,0L34.4,50a.81.81,0,0,0,.89-.65l6.24-42A.76.76,0,0,0,41.48,7Z" transform="translate(-1.4 -1.36)"/></svg>