<svg id="Layer_1" data-name="Layer 1" xmlns="http://www.w3.org/2000/svg" viewBox="0 0 47.57 86.1"><defs><style>.cls-1{fill:#b6b6c2;}</style></defs><title>CA</title><path class="cls-1" d="M49.81,75.65l-2.37-4.87a.83.83,0,0,1-.06-.5l.16-.73.08-.39a.77.77,0,0,0-.11-.59L47.15,68,23.36,31.81,23,31.27a1.07,1.07,0,0,1-.1-.63l0-.16L28.69,9.35a.79.79,0,0,0-.52-.94L7.53,2a.8.8,0,0,0-1,.47L2.35,14.13l.18.15-.19-.06a.9.9,0,0,0,0,.25.41.41,0,0,0,0,.05L5.9,35.28v.06l.08.3,0,.13.08.32,5.8,22.67L12,59l.26,1a.77.77,0,0,0,.15.3L28.79,80.11l.19.23a.7.7,0,0,1,.13.24.81.81,0,0,1,0,.17.9.9,0,0,1,0,.12.75.75,0,0,1,0,.08l-.56,3.81a.77.77,0,0,0,.66.88L42.9,87.53a.92.92,0,0,1,.37.13l.59.38,1-5.63A.77.77,0,0,1,45,82l4.7-5.56a.82.82,0,0,0,.1-.84Z" transform="translate(-2.32 -1.95)"/></svg>