<svg id="Layer_1" data-name="Layer 1" xmlns="http://www.w3.org/2000/svg" viewBox="0 0 53.71 41.27"><defs><style>.cls-1{fill:#b6b6c2;}</style></defs><title>FL</title><path class="cls-1" d="M54.66,27.61a.77.77,0,0,0-.09-.35L45.2,9.21l-4-7.7a.81.81,0,0,0-.69-.42H38.14a.77.77,0,0,0-.64.34l-.81,1.22a.76.76,0,0,1-.41.29.75.75,0,0,1-.18.06L18.65,4A.84.84,0,0,1,18,3.69L17,2.27a.77.77,0,0,0-.7-.32L1.77,3.39a.77.77,0,0,0-.57,1.19l.36.55a.77.77,0,0,1,.13.39L1.75,7a.77.77,0,0,0,.81.74l6-.31A.77.77,0,0,1,9,7.55L15.79,11a.94.94,0,0,0,.73,0L22.4,7.69a.77.77,0,0,1,.81,0l11,7.42a.77.77,0,0,1,.28.34L43.3,36.25a.77.77,0,0,0,.18.26l5.9,5.64a.77.77,0,0,0,.8.17l4.1-1.52a.77.77,0,0,0,.5-.73Z" transform="translate(-1.08 -1.09)"/></svg>