<svg id="Layer_1" data-name="Layer 1" xmlns="http://www.w3.org/2000/svg" viewBox="0 0 33.24 33.55"><defs><style>.cls-1{fill:#b6b6c2;}</style></defs><title>GA</title><path class="cls-1" d="M34.05,22.22l-2.34-.6a.77.77,0,0,1-.37-.22h0l-6.11-6.51L14.63,3.59a.77.77,0,0,1-.19-.69l.1-.49a.77.77,0,0,0-.84-.93L2.08,2.81a.77.77,0,0,0-.67.62.76.76,0,0,0,0,.37L6.72,21.34a.77.77,0,0,1,0,.19l.38,10.08a.77.77,0,0,0,.14.42L9.18,34.7a.77.77,0,0,0,.65.32h0l16.09-.94a.77.77,0,0,0,.6-.34l.84-1.26a.77.77,0,0,1,.64-.34h3a.77.77,0,0,0,.73-.53l.08-.23,2.72-8.17A.77.77,0,0,0,34.05,22.22Z" transform="translate(-1.4 -1.48)"/></svg>