<svg id="Layer_1" data-name="Layer 1" xmlns="http://www.w3.org/2000/svg" viewBox="0 0 35.16 22.99"><defs><style>.cls-1{fill:#b6b6c2;}</style></defs><title>IA</title><path class="cls-1" d="M37.05,12.34a.76.76,0,0,0-.13-.2l-2.6-2.58a.77.77,0,0,1-.15-.21L30.74,2.2a.79.79,0,0,0-.7-.44l-8.7.07L2.76,2a.79.79,0,0,0-.76.9L5.47,23.2a.78.78,0,0,0,.78.64l20.93-.43a.77.77,0,0,1,.38.09l2.21,1.17a.81.81,0,0,0,1-.22l6.14-8.25a.77.77,0,0,0,.15-.43l.12-3.05A.76.76,0,0,0,37.05,12.34Z" transform="translate(-2 -1.76)"/></svg>