<svg id="Layer_1" data-name="Layer 1" xmlns="http://www.w3.org/2000/svg" viewBox="0 0 35.3 59.83"><defs><style>.cls-1{fill:#b6b6c2;}</style></defs><title>ID</title><path class="cls-1" d="M36.1,43.1l-8.88-1.82a.74.74,0,0,1-.29-.14l-.05,0h0a.76.76,0,0,1-.23-.34l-2.81-8.64a.77.77,0,0,0-.58-.52l-3-.6a.75.75,0,0,1-.54-.47l0,0h0a.75.75,0,0,1,0-.48l2.16-7a.76.76,0,0,0,0-.21l-.1,0h0l.07,0a.76.76,0,0,0-.07-.37l-5.9-11.88a.77.77,0,0,1-.06-.52l1.71-7.37a.77.77,0,0,0-.59-.93l-2.62-.56a.77.77,0,0,0-.92.59l-4.88,22a1.1,1.1,0,0,0,.09.56l1.87,3.15a.78.78,0,0,1-.05.86L4.68,35.9a.67.67,0,0,0-.11.24,1,1,0,0,0,0,.11.76.76,0,0,0,.23.69l.63.58a.77.77,0,0,1,.23.72s0,0,0,.06L1.45,53.23a.76.76,0,0,0,.05.53.8.8,0,0,0,0,.08.77.77,0,0,0,.5.36L33,61a.76.76,0,0,0,.36,0,.77.77,0,0,0,.57-.61L36.71,44A.77.77,0,0,0,36.1,43.1Z" transform="translate(-1.42 -1.17)"/></svg>