<svg id="Layer_1" data-name="Layer 1" xmlns="http://www.w3.org/2000/svg" viewBox="0 0 22.86 42.24"><defs><style>.cls-1{fill:#b6b6c2;}</style></defs><title>IL</title><path class="cls-1" d="M23.52,8.07a.77.77,0,0,1,0-.13l.2-1.87a.77.77,0,0,0,0-.34s0,0,0,0L22.1,1.79a.77.77,0,0,0-.79-.48l-.46,0L8.46,2.53A.77.77,0,0,0,8,3.85l.95.92a.77.77,0,0,1,.23.58L9,9.38a.77.77,0,0,1-.15.43L2.07,19a.77.77,0,0,0-.15.49L2,22.95a.77.77,0,0,0,.25.54l7.59,7a1.08,1.08,0,0,1,.25.62l-.28,4.3a.77.77,0,0,0,.16.53l3.17,4,2.59,3.29a.77.77,0,0,0,1.13.09l1.85-1.7,3.78-3.48a.77.77,0,0,0,.24-.43l2-11.09a.77.77,0,0,0,0-.19Z" transform="translate(-1.91 -1.31)"/></svg>