<svg id="Layer_1" data-name="Layer 1" xmlns="http://www.w3.org/2000/svg" viewBox="0 0 17.66 31.77"><defs><style>.cls-1{fill:#b6b6c2;}</style></defs><title>IN</title><path class="cls-1" d="M16.86,2.2a.75.75,0,0,0-.18-.39A.76.76,0,0,0,16,1.51L7,2.36a.77.77,0,0,1-.34,0L5.09,1.74,5,1.76l-2.87.49H2L1.82,3.71a.77.77,0,0,0,0,.13L3.08,22.26a.77.77,0,0,1,0,.16s0,0,0,0L1.29,32.37a.78.78,0,0,0,.92.89l10.23-2.17a.91.91,0,0,0,.48-.33l5.89-8.91a.77.77,0,0,0,.12-.48s0,0,0,0Z" transform="translate(-1.28 -1.51)"/></svg>