<svg id="Layer_1" data-name="Layer 1" xmlns="http://www.w3.org/2000/svg" viewBox="0 0 43.23 21.2"><defs><style>.cls-1{fill:#b6b6c2;}</style></defs><title>KY</title><path class="cls-1" d="M44.87,10.41,41.41,4.72l0,0a.77.77,0,0,0-.42-.3L28.39,1.13a.77.77,0,0,0-.84.32L21.8,10.15a.84.84,0,0,1-.48.33L9.08,13.07a.77.77,0,0,0-.36.19L2.44,19a.88.88,0,0,0-.23.4l-.44,1.93a.76.76,0,0,0,.34.81.74.74,0,0,0,.45.14l6.72-.37h.08L23,19.74l16.55-2.65a.77.77,0,0,0,.46-.26l4.74-5.52A.77.77,0,0,0,44.87,10.41Z" transform="translate(-1.75 -1.11)"/></svg>