<svg id="Layer_1" data-name="Layer 1" xmlns="http://www.w3.org/2000/svg" viewBox="0 0 32.25 28.89"><defs><style>.cls-1{fill:#b6b6c2;}</style></defs><title>LA</title><path class="cls-1" d="M33.16,24.24,28,24.45h-.12a.81.81,0,0,1-.8-.69l-.12-1.08a.77.77,0,0,1,.73-.86l2.24-.12a.77.77,0,0,0,.55-1.27L30,19.91a.77.77,0,0,1-.16-.7l.27-1a.77.77,0,0,0-.77-1l-10.55.39H18.7a.75.75,0,0,1-.71-.8.73.73,0,0,1,0-.24l2.89-7.42a.77.77,0,0,0,0-.36l-.61-6.29a.77.77,0,0,0-.44-.62.76.76,0,0,0-.34-.08l-16.9.28a.75.75,0,0,0-.35.1.76.76,0,0,0-.41.65L1.72,8.78a.77.77,0,0,0,.08.36L5.62,17a1.06,1.06,0,0,1,.06.5L3.83,26.33a.78.78,0,0,0,.75.93l12.36.12h.12a.77.77,0,0,1,.39.11l5.12,3.1a.77.77,0,0,0,.42.11l8.38-.27a.8.8,0,0,0,.69-.49l1.84-4.65A.77.77,0,0,0,33.16,24.24Z" transform="translate(-1.72 -1.81)"/></svg>