<svg id="Layer_1" data-name="Layer 1" xmlns="http://www.w3.org/2000/svg" viewBox="0 0 20.59 10.27"><defs><style>.cls-1{fill:#b6b6c2;}</style></defs><title>MA</title><path class="cls-1" d="M15.75,3.93a.76.76,0,0,0,.08.36Z" transform="translate(-2.19 -0.42)"/><path class="cls-1" d="M22.44,6.32,21.35,5.6h0A.77.77,0,0,0,21,5.46L16.4,4.73a.81.81,0,0,1-.65-.8s0,0,0,0L16,1.21a.92.92,0,0,0-.06-.4L15.75.42,12.81,1.83h0l-.11,0L2.78,4.28A.77.77,0,0,0,2.19,5V8.41a.76.76,0,0,0,.54.72.75.75,0,0,0,.43,0l10.14-2.6a1,1,0,0,1,.73.2l3,3-.32.33.84.51a.77.77,0,0,0,.86,0l4-3A.77.77,0,0,0,22.44,6.32Z" transform="translate(-2.19 -0.42)"/></svg>