<svg id="Layer_1" data-name="Layer 1" xmlns="http://www.w3.org/2000/svg" viewBox="0 0 26.3 11.11"><defs><style>.cls-1{fill:#b6b6c2;}</style></defs><title>MD</title><path class="cls-1" d="M26.38,9.41l-2.29.49a.77.77,0,0,1-.27,0h0a.77.77,0,0,1-.6-.47L21.52,5.38,19.9,1.46A.77.77,0,0,0,19.05,1L11.18,2.38a.24.24,0,0,0-.16.33l1,3.66,2.89,1.87a.77.77,0,0,1,.35.73L15,10.6a.77.77,0,0,0,.58.83l2.1.54a.77.77,0,0,0,.94-.95l-1-3.8a.77.77,0,0,1,.57-1l1.58-.38a.77.77,0,0,1,.91.51l1.63,4.89.09.28a.77.77,0,0,0,.93.5l3.25-.84a.77.77,0,0,0,.53-.47l.12-.32Z" transform="translate(-0.96 -0.99)"/><path class="cls-1" d="M1.12,5.89,1,4.78a.8.8,0,0,1,.56-.85l3.71-.72c.78-.22,1,.57.45,1.13,0,0-2.6,1.48-3.18,1.8S1.2,6.51,1.12,5.89Z" transform="translate(-0.96 -0.99)"/></svg>