<svg id="Layer_1" data-name="Layer 1" xmlns="http://www.w3.org/2000/svg" viewBox="0 0 22.03 34.22"><defs><style>.cls-1{fill:#b6b6c2;}</style></defs><title>ME</title><path class="cls-1" d="M23.56,17.6c-1.78-1.12-6-3.84-6-4.3s-1.36-6.61-2.06-9.76l-.26-1.17a.77.77,0,0,0-.81-.6l-3,.22a.77.77,0,0,0-.56.3l-1,1.33a.87.87,0,0,1-.56.3l-3.66.23a.79.79,0,0,0-.71.65L2.28,20.69a.85.85,0,0,1-.09.2.91.91,0,0,1-.09.2.85.85,0,0,0-.19.77L5.84,34.58a.77.77,0,0,0,.22.35l1,.87a.8.8,0,0,0,1.13-.11l6.08-8.07a.77.77,0,0,0,.14-.31l.49-2.46.06-.29,0,0a.77.77,0,0,1,.09-.19l.08-.11a.75.75,0,0,1,.66-.27l2.66.31a.76.76,0,0,0,.57-.19.74.74,0,0,0,.1-.07l4.63-5.24a.79.79,0,0,0-.17-1.16Z" transform="translate(-1.88 -1.77)"/></svg>