<svg id="Layer_1" data-name="Layer 1" xmlns="http://www.w3.org/2000/svg" viewBox="0 0 44.22 41.59"><defs><style>.cls-1{fill:#b6b6c2;}</style></defs><title>MI</title><path class="cls-1" d="M33.95,6.62A.77.77,0,0,0,33.47,6L29.09,4.22,29,4.2a.76.76,0,0,0-.39,0L21.65,6.28l-.1,0L17.34,7a.77.77,0,0,1-.42,0l-6-2.47a.79.79,0,0,1-.48-.71V2.59a.77.77,0,0,0-1.17-.66L2.21,6.16a.77.77,0,0,0-.28,1l.63,1.16a.83.83,0,0,0,.5.38L9.6,10.26l1.3.3,2.34.55a.77.77,0,0,1,.41.25l3.48,4.13a.77.77,0,0,0,1.29-.18l.89-1.95A.77.77,0,0,1,19.7,13L28.1,9.26a.77.77,0,0,1,.35-.07l4.87.24a.77.77,0,0,0,.81-.84Z" transform="translate(-1.83 -1.82)"/><path class="cls-1" d="M43.52,41.65l.07-.42,0,.09A.9.9,0,0,0,43.52,41.65Z" transform="translate(-1.83 -1.82)"/><path class="cls-1" d="M46,27a.76.76,0,0,0-.21-.35l-2.49-2.28a.77.77,0,0,0-1.2.19L40.74,27a.81.81,0,0,1-.95.35L39,27a.76.76,0,0,1-.24-.15.77.77,0,0,1-.14-1l2.66-4.27a.84.84,0,0,0,.09-.6l-1.41-5.51a.78.78,0,0,0-.48-.53l-6.54-2.44a.77.77,0,0,0-.82.18l-7.4,7.4a.77.77,0,0,0-.23.51l-.41,9.64a486.25,486.25,0,0,1,.08.37l1.53,3.2a1,1,0,0,1,.05.52l-1.93,8a.77.77,0,0,0,.49.91h0l.36.13a.77.77,0,0,0,.34,0l18.5-1.75h0a.91.91,0,0,1,0-.33l0-.09,2.15-6.46,0-.22.27-7.35A.76.76,0,0,0,46,27Z" transform="translate(-1.83 -1.82)"/></svg>