<svg id="Layer_1" data-name="Layer 1" xmlns="http://www.w3.org/2000/svg" viewBox="0 0 37.29 41.99"><defs><style>.cls-1{fill:#b6b6c2;}</style></defs><title>MN</title><path class="cls-1" d="M26.3,18.5l2.31-1.17a.73.73,0,0,0,.19-.15.78.78,0,0,0,.2-.32.9.9,0,0,1,.28-.42L38.4,8.63a.77.77,0,0,0,0-1.18.76.76,0,0,0-.31-.16L13.32,1.44l-.2,0c-.64,0-4.45,0-10.92-.34a.76.76,0,0,0-.7.4.74.74,0,0,0-.11.45L3.8,24.47s0,0,0,.07L4,42.31a.77.77,0,0,0,.52.71.76.76,0,0,0,.26,0l18.38-.15,8.52-.07a.77.77,0,0,0,.76-.84l-.13-1.5a.77.77,0,0,0-.36-.59l-2.31-1.47-6.13-3.89a.77.77,0,0,1-.36-.69l.47-9a.77.77,0,0,1,.4-.64l1.61-.88a.81.81,0,0,0,.4-.72l-.18-3.38a.81.81,0,0,1,.42-.73Z" transform="translate(-1.39 -1.08)"/></svg>