<svg id="Layer_1" data-name="Layer 1" xmlns="http://www.w3.org/2000/svg" viewBox="0 0 38.15 35.05"><defs><style>.cls-1{fill:#b6b6c2;}</style></defs><title>MO</title><path class="cls-1" d="M39.49,28.67a.76.76,0,0,0-.12-.25L32.77,20a1,1,0,0,1-.16-.53l.27-4.18a1.1,1.1,0,0,0-.25-.62L25.1,7.77h0A.74.74,0,0,1,25,7.42L24.84,3.7A.77.77,0,0,0,24.43,3l-2.27-1.2a.77.77,0,0,0-.38-.09h-.1l-19.55.4A.78.78,0,0,0,1.47,3.3L7,13.48v.16l.39,19a.78.78,0,0,0,.79.76l25-.71c.48.14,1,.34,1,.58V36a.77.77,0,0,0,.77.77h1.41a.77.77,0,0,0,.71-.46l1.63-3.72a.77.77,0,0,0,0-.14l0-.14.74-3.27A.76.76,0,0,0,39.49,28.67Z" transform="translate(-1.38 -1.75)"/></svg>