<svg id="Layer_1" data-name="Layer 1" xmlns="http://www.w3.org/2000/svg" viewBox="0 0 19.5 36.47"><defs><style>.cls-1{fill:#b6b6c2;}</style></defs><title>MS</title><path class="cls-1" d="M20.67,33.07,19.92,24a.8.8,0,0,1,0-.1l.27-6.4.65-15.23-1.33.11L7.73,3a.81.81,0,0,0-.67.46L2.78,13.2s0,0,0,0a.77.77,0,0,0-.06.35L3.94,26.17a.77.77,0,0,1,0,.36L1.6,32.4a.77.77,0,0,0,.75,1.05l2.18-.08,8.15-.31a.77.77,0,0,1,.77,1l-.55,2a.77.77,0,0,0,.16.7h0l1.41,1.66a.77.77,0,0,0,.63.27l5.2-.27a.77.77,0,0,0,.73-.83Z" transform="translate(-1.55 -2.26)"/></svg>