<svg id="Layer_1" data-name="Layer 1" xmlns="http://www.w3.org/2000/svg" viewBox="0 0 62.52 40.78"><defs><style>.cls-1{fill:#b6b6c2;}</style></defs><title>MT</title><path class="cls-1" d="M64,11.46a.75.75,0,0,0-.62-.49C52.65,9.71,40.47,8,27.17,5.73L27,5.7q-5.93-1-12.13-2.19V3.44l0,.07-1-.19Q9.06,2.39,4.1,1.38A.77.77,0,0,0,3.19,2l-1.62,7s0,0,0,.06a.77.77,0,0,0,.06.46L7.51,21.3l0,.09a.77.77,0,0,1,0,.57l-1.9,6.13a.77.77,0,0,0,.59,1l2.34.47a.83.83,0,0,1,.58.52L12,38.7a.91.91,0,0,0,.58.52l8.05,1.65a.77.77,0,0,0,.92-.63L22,37.76a.81.81,0,0,1,.86-.64h.06l37.46,5h.08a.76.76,0,0,0,.79-.69l2.82-29.64A.76.76,0,0,0,64,11.46Z" transform="translate(-1.56 -1.36)"/></svg>