<svg id="Layer_1" data-name="Layer 1" xmlns="http://www.w3.org/2000/svg" viewBox="0 0 50.27 24.59"><defs><style>.cls-1{fill:#b6b6c2;}</style></defs><title>NC</title><path class="cls-1" d="M51.53,2.36a.76.76,0,0,0-.34-.58l-.13-.06a.72.72,0,0,0-.43-.08L28.48,5.19,16.91,7h0a.77.77,0,0,0-.65.82L16.4,10a.77.77,0,0,1-.36.71L2.41,19.26a.85.85,0,0,0-.36.62l0,.92a.77.77,0,0,0,.86.8L8.54,21a.77.77,0,0,0,.27-.08l3.93-2.08a.77.77,0,0,1,.33-.09l-.29,0h0l.29,0,4.24-.18,4.77-.21a.77.77,0,0,1,.63.29l1.09,1.35a.77.77,0,0,0,.74.27l5.92-1.1a.77.77,0,0,1,.62.15l9,7,.06-.07.07-.08L52,14.94v0a.77.77,0,0,0,.23-.59Z" transform="translate(-2 -1.64)"/></svg>