<svg id="Layer_1" data-name="Layer 1" xmlns="http://www.w3.org/2000/svg" viewBox="0 0 49.08 24.93"><defs><style>.cls-1{fill:#b6b6c2;}</style></defs><title>NE</title><path class="cls-1" d="M50.2,25l-1.11-2A.77.77,0,0,1,49,22.7l-2.74-16A.77.77,0,0,0,45.51,6h-7l-.17,0a.76.76,0,0,1-.24-.09L33.67,3.18a.77.77,0,0,0-.17-.05.76.76,0,0,0-.18-.06L3.3,1.18a.76.76,0,0,0-.62.28.76.76,0,0,0-.19.42L1.21,15.16a.75.75,0,0,0,.12.46.76.76,0,0,0,.58.38L12,17a.76.76,0,0,1,.59.41.75.75,0,0,1,.1.41l-.38,5.8a.78.78,0,0,0,.74.82l16.14.75,20.29.94a.77.77,0,0,0,.79-.94A.79.79,0,0,0,50.2,25Z" transform="translate(-1.21 -1.18)"/></svg>