<svg id="Layer_1" data-name="Layer 1" xmlns="http://www.w3.org/2000/svg" viewBox="0 0 8.94 19.65"><defs><style>.cls-1{fill:#b6b6c2;}</style></defs><title>NH</title><path class="cls-1" d="M9.93,16.83a.92.92,0,0,1,0-.48l-2-1.82a.77.77,0,0,1-.22-.35L7.58,14,6,8.88l-.08-.26L3.69,1.38a.77.77,0,0,0-1-.51L2.3,1a.77.77,0,0,0-.55.68L1.7,2.5A.91.91,0,0,1,1.51,3L3.26,5.63l0,.07a.77.77,0,0,1,0,.79L1.51,9.94a.87.87,0,0,0-.09.4l.51,9.41a.75.75,0,0,0,.23.49.75.75,0,0,0,.72.22l4.44-1.08.15-.05,1.41-.68,1.47-.71Z" transform="translate(-1.42 -0.84)"/></svg>