<svg id="Layer_1" data-name="Layer 1" xmlns="http://www.w3.org/2000/svg" viewBox="0 0 7.79 16.36"><defs><style>.cls-1{fill:#b6b6c2;}</style></defs><title>NJ</title><path class="cls-1" d="M9.22,9h0a.76.76,0,0,0-.11-.55L7.36,5.85a.81.81,0,0,1,0-.89l.07-.1a.77.77,0,0,0,0-.84L6.64,2.55a.77.77,0,0,0-.43-.35L3.43,1.27a.77.77,0,0,0-1,.55l-1,3.92a.77.77,0,0,0,.2.72l2.7,2.77a.76.76,0,0,1,.11.16.77.77,0,0,1,0,.79L3,12.57a.77.77,0,0,0-.07.64s0,0,0,.07l1.51,3.62a.77.77,0,0,0,.42.42l.54.23a.77.77,0,0,0,1-.46l2.78-8a.75.75,0,0,0,0-.14Z" transform="translate(-1.46 -1.23)"/></svg>