<svg id="Layer_1" data-name="Layer 1" xmlns="http://www.w3.org/2000/svg" viewBox="0 0 42.37 43.98"><defs><style>.cls-1{fill:#b6b6c2;}</style></defs><title>NM</title><path class="cls-1" d="M44,4.62a.75.75,0,0,0-.42-.2L8.94,1a.76.76,0,0,0-.32,0,.77.77,0,0,0-.52.62L4,29.56l-.11.71-2,13.39a.77.77,0,0,0,.64.88L5.2,45a.77.77,0,0,0,.88-.62L6.53,42a.81.81,0,0,1,.86-.62l8.79,1.17a.77.77,0,0,0,.87-.69l.13-1.39a.81.81,0,0,1,.85-.7l21.78,2.29a.78.78,0,0,0,.85-.69L44.22,5.26A.76.76,0,0,0,44,4.62Z" transform="translate(-1.85 -1)"/></svg>