<svg id="Layer_1" data-name="Layer 1" xmlns="http://www.w3.org/2000/svg" viewBox="0 0 37.22 31.86"><defs><style>.cls-1{fill:#b6b6c2;}</style></defs><title>NY</title><path class="cls-1" d="M38.4,31.46l-.92-1.27a.77.77,0,0,1-.13-.31l0-.15-.88-4.8-.2-1.08a.77.77,0,0,1,0-.14V18.18a1.24,1.24,0,0,0,0-.17v0L33.51,7.59,32,1.7a.76.76,0,0,0-.5-.52.75.75,0,0,0-.42,0L24.28,2.66a.89.89,0,0,0-.49.36l-5,8.4a.77.77,0,0,0-.08.57s0,0,0,0l.73,2.59a.77.77,0,0,1-.5.94L5.26,20.16a.75.75,0,0,0-.32.22.76.76,0,0,0-.18.73l.52,1.79.14.48a.77.77,0,0,1-.24.81l-3.59,3a.8.8,0,0,0-.25.78l.46,1.85a.77.77,0,0,0,.9.57l5-1,16.05-3.12,2.78-.54a.77.77,0,0,1,.68.2l4.08,3.86a.77.77,0,0,0,.29.17l.1,0L36,31.46a.77.77,0,0,1,.43.35v0l.44.77a.77.77,0,0,0,1.3.07l.22-.3A.77.77,0,0,0,38.4,31.46Z" transform="translate(-1.32 -1.13)"/></svg>