<svg id="Layer_1" data-name="Layer 1" xmlns="http://www.w3.org/2000/svg" viewBox="0 0 52.32 26.43"><defs><style>.cls-1{fill:#b6b6c2;}</style></defs><title>OK</title><path class="cls-1" d="M19.87,5.63H19.8l.42.1A.75.75,0,0,0,19.87,5.63Z" transform="translate(-1.45 -1.08)"/><path class="cls-1" d="M53.3,4a.77.77,0,0,0-.74-.76H52.3L21.71,2,8.24,1.47v0L2.52,1.08a.78.78,0,0,0-.82.69L1.45,4.27a.77.77,0,0,0,.75.85l17.6.51h.08a.76.76,0,0,1,.34.1.77.77,0,0,1,.41.7l-.5,14.08a.77.77,0,0,0,.64.79l29.36,5.08.17.05,2.39,1a.77.77,0,0,0,1.08-.73Z" transform="translate(-1.45 -1.08)"/></svg>