<svg id="Layer_1" data-name="Layer 1" xmlns="http://www.w3.org/2000/svg" viewBox="0 0 47.39 39.86"><defs><style>.cls-1{fill:#b6b6c2;}</style></defs><title>OR</title><path class="cls-1" d="M48.73,15.72l-1.4-2.37a.77.77,0,0,0-.49-.36l-.85-.2-8.46-2-.44-.1-.17,0-11.7-.11h-.48a.78.78,0,0,1-.24,0L21,9.35l-1.44-.48L16.26,7.75h0a.77.77,0,0,1-.52-.7.74.74,0,0,1,0-.1l.23-2.79a.77.77,0,0,0-.45-.76L12.74,2.12a.77.77,0,0,0-1.05.44L1.49,30.75a.76.76,0,0,0,.06.64.79.79,0,0,0,.25.26.7.7,0,0,0,.18.1l21.79,6.79.06,0,15.21,3.34a.75.75,0,0,0,.37,0,.76.76,0,0,0,.54-.53L44,27a.77.77,0,0,0-.22-.78l-.92-.84a.75.75,0,0,1-.21-.73.8.8,0,0,1,0-.13.75.75,0,0,1,.09-.18l3.05-4,1.37-1.79,1.52-2A.77.77,0,0,0,48.73,15.72Z" transform="translate(-1.45 -2.05)"/></svg>