<svg id="Layer_1" data-name="Layer 1" xmlns="http://www.w3.org/2000/svg" viewBox="0 0 34.75 21.57"><defs><style>.cls-1{fill:#b6b6c2;}</style></defs><title>PA</title><path class="cls-1" d="M36.31,14.15a.76.76,0,0,0-.2-.39l-2.5-2.56a.77.77,0,0,1-.2-.72l1.29-5.3a.77.77,0,0,0-.22-.74L31.26,1.38A.69.69,0,0,0,31,1.23l-.1,0a.76.76,0,0,0-.3,0L6.17,5.93a.77.77,0,0,1-.9-.57L4.86,3.67a.77.77,0,0,0-1.25-.41L1.85,4.75a.77.77,0,0,0-.26.72l.17,1L4.42,22.1a.77.77,0,0,0,.89.63l3-.52,22.27-3.83.35-.06a.94.94,0,0,0,.5-.31l.81-1.14a1.09,1.09,0,0,1,.58-.32l1.9-.11a.77.77,0,0,0,.61-.36l.85-1.36A.76.76,0,0,0,36.31,14.15Z" transform="translate(-1.58 -1.17)"/></svg>