<svg id="Layer_1" data-name="Layer 1" xmlns="http://www.w3.org/2000/svg" viewBox="0 0 30.89 22.49"><defs><style>.cls-1{fill:#b6b6c2;}</style></defs><title>SC</title><path class="cls-1" d="M31.85,8.68,24,2.59l0,0a.77.77,0,0,0-.57-.13L17.3,3.58a.77.77,0,0,1-.74-.27L15.39,1.86a.77.77,0,0,0-.63-.29l-8.07.35A.77.77,0,0,0,6.36,2L2.22,4.15l-.67.08L1.27,5.54a.77.77,0,0,0,.19.69L16.55,22.31l.9,1a.77.77,0,0,0,.37.22L20,24a.77.77,0,0,0,.92-.5l.28-.85.14-.25L24,19.31l8-9.53a.81.81,0,0,0-.12-1.11Z" transform="translate(-1.25 -1.58)"/></svg>