<svg id="Layer_1" data-name="Layer 1" xmlns="http://www.w3.org/2000/svg" viewBox="0 0 86.09 83.51"><defs><style>.cls-1{fill:#b6b6c2;}</style></defs><title>TX</title><path class="cls-1" d="M87.71,45.36l-3.77-7.71a.77.77,0,0,1-.08-.36l.33-10.81a.83.83,0,0,0-.47-.73l-6.59-2.82L77,22.86,46.72,17.64a1.25,1.25,0,0,1-.64-.79l.49-13.91a.75.75,0,0,0-.14-.45.76.76,0,0,0-.61-.35L29.24,1.67a.74.74,0,0,0-.15,0,.76.76,0,0,0-.64.67L25.28,34.53a.76.76,0,0,1-.75.68h-.1L2.66,32.93a.76.76,0,0,0-.68.3.75.75,0,0,0-.17.4L1.7,34.85a.77.77,0,0,0,.21.6l9.75,10.41a.77.77,0,0,1,.19.41s0,0,0,.06l.39,5.05a1.16,1.16,0,0,0,.27.53l8.79,7.48a.77.77,0,0,0,1.15-.16l3.75-5.68a.77.77,0,0,1,.57-.34h.16l7,.77c.21,0,.42.17.6.41l15.27,26a.77.77,0,0,0,.41.34l12.42,4.4a.77.77,0,0,0,1-.84L62.4,76.16a.77.77,0,0,1,.12-.54l7.26-11a.77.77,0,0,1,.69-.34l4.45.25a.77.77,0,0,0,.55-.19l9.92-8.68a.91.91,0,0,1,.36-.18l2-9.65A.77.77,0,0,0,87.71,45.36Z" transform="translate(-1.69 -1.67)"/></svg>