<svg id="Layer_1" data-name="Layer 1" xmlns="http://www.w3.org/2000/svg" viewBox="0 0 328.72 204.36"><defs><style>.cls-1{fill:#fff;}</style></defs><title>USABG</title><path class="cls-1" d="M158.2,206a2.2,2.2,0,0,1-.74-.13l-12.14-4.3a2.2,2.2,0,0,1-1.17-1L129,174.87l-6.39-.71-3.48,5.28a2.21,2.21,0,0,1-3.27.47l-8.61-7.33a2.22,2.22,0,0,1-.77-1.51l-.37-4.81L95.9,155.33l-9.19-1.23-.32,1.69a2.21,2.21,0,0,1-2.17,1.79,2.17,2.17,0,0,1-.36,0l-16.73-2.72a2.24,2.24,0,0,1-.83-.31L43.24,139.87,29.82,138a2.21,2.21,0,0,1-1.88-2.51l.51-3.44L12,112.26a2.22,2.22,0,0,1-.44-.86L5.25,86.68,1.65,65.86a2.22,2.22,0,0,1,.1-1.12l15.9-44L17.23,7.88A2.2,2.2,0,0,1,17.38,7l1-2.59a2.21,2.21,0,0,1,3.15-1.13l7.06,4a2.22,2.22,0,0,1,1,2.72l-.45,1.15L29.4,11l1.24-5.48-.3-1a2.18,2.18,0,0,1,.34-1.95A2.2,2.2,0,0,1,33,1.75c79.38,20.48,140.19,21,142.74,21a2.14,2.14,0,0,1,.49.06l24.47,5.78a2.21,2.21,0,0,1,.93,3.83l-8.22,7,6,.36,8-4.76a2.21,2.21,0,0,1,3.34,1.9v.56l5.53,2.29,4.06-.66L227.12,37a2.2,2.2,0,0,1,1.45.06l4.24,1.7a2.2,2.2,0,0,1,1.38,1.86l.15,1.72a2.21,2.21,0,0,1-2.2,2.4l-4.69-.23-8.1,3.59-1.73,3.8.83,1.86a2.22,2.22,0,0,1,.18,1.08l-1.4,17.55L219.05,77l2.34-.41,2-8.28-1.44-3a2.21,2.21,0,0,1-.21-1.06l.41-9.54a2.2,2.2,0,0,1,.64-1.47l7.29-7.29a2.21,2.21,0,0,1,2.33-.51l6.38,2.38a2.21,2.21,0,0,1,1.37,1.52l1.38,5.38a2.22,2.22,0,0,1-.26,1.71l-.5.81a2.21,2.21,0,0,1,2.5.33l2.3,2.11a2.21,2.21,0,0,1,.71,1.71L246,68.64a2.21,2.21,0,0,1-.11.62l-2,6.07,7.63.34L266,63.5l-.53-1.82A2.2,2.2,0,0,1,266.87,59l13.06-4.39-.58-2.06a2.22,2.22,0,0,1,.23-1.73l4.95-8.29a2.23,2.23,0,0,1,1.41-1l16.77-3.76,0-.44a2.22,2.22,0,0,1,1.56-2l2-.6,2.51-15.56a2.19,2.19,0,0,1,2-1.85l3.31-.21L315,16a2.2,2.2,0,0,1,1.59-.86l2.9-.21h.11a2.19,2.19,0,0,1,2.15,1.73c1.62,7.28,2.11,9.7,2.26,10.57a55.19,55.19,0,0,0,5.35,3.64,2.2,2.2,0,0,1,.48,3.33l-4.46,5.05a2.21,2.21,0,0,1-1.65.75h-.25l-2.11-.24L320.86,42a2.21,2.21,0,0,1-.4.89l-7,9.25.83,2.18a2.2,2.2,0,0,1,.14,1l-.18,2.22,4.12.65a2.22,2.22,0,0,1,.88.34l.91.6a2.21,2.21,0,0,1,.08,3.62l-3.79,2.77a2.21,2.21,0,0,1-2.45.1l-.23-.14v.28a2.21,2.21,0,0,1-1.38,1.94l-10,4-3,4.17L301,78a2.22,2.22,0,0,1,.27,2l-2.71,7.75a2.21,2.21,0,0,1-2.93,1.31l-.29-.12,2.32,3.39a2.2,2.2,0,0,1,.24,2.05l-2.66,6.79a2.21,2.21,0,0,1-4.25-.56l-.3-2.71-2-6.1L288,92l2.92,10.92,3.42,4.34a2.2,2.2,0,0,1,.47,1.23l.82,13.18a2.2,2.2,0,0,1-.69,1.75l-11.8,11.1L271.2,148.68,267,161.39l13.54,26.1a2.22,2.22,0,0,1,.25,1l.14,12.31a2.22,2.22,0,0,1-1.44,2.09l-3.92,1.46a2.21,2.21,0,0,1-2.29-.47l-5.82-5.55a2.2,2.2,0,0,1-.51-.73L258.17,177l-10.6-7.16L242,172.94a2.2,2.2,0,0,1-2.09,0l-6.63-3.38L207.23,171V171l4.63-.19a2.24,2.24,0,0,1,1.91,1,2.2,2.2,0,0,1,.23,2.05l-1.72,4.35a2.2,2.2,0,0,1-2,1.39l-8.25.26a2.26,2.26,0,0,1-1.2-.32l-5-3-14.21-.14-9.77,8.55a2.21,2.21,0,0,1-1.45.55h-.12l-4.1-.23-7,10.55,1.15,7.69A2.21,2.21,0,0,1,158.2,206Z" transform="translate(-1.62 -1.68)"/></svg>