<svg id="Layer_1" data-name="Layer 1" xmlns="http://www.w3.org/2000/svg" viewBox="0 0 34.03 43.11"><defs><style>.cls-1{fill:#b6b6c2;}</style></defs><title>UT</title><path class="cls-1" d="M35.36,13.7a.76.76,0,0,0-.25-.09L24.74,12.16a.76.76,0,0,1-.65-.64.75.75,0,0,1,0-.25l1-6.14a.79.79,0,0,0-.6-.88L10.31,1.12a.76.76,0,0,0-.7.22.75.75,0,0,0-.22.38L6.84,13.91,1.77,38.19a.79.79,0,0,0,.62.92l28,5.06.19,0a.77.77,0,0,0,.9-.65l4.32-29.07A.77.77,0,0,0,35.36,13.7Z" transform="translate(-1.75 -1.11)"/></svg>