<svg id="Layer_1" data-name="Layer 1" xmlns="http://www.w3.org/2000/svg" viewBox="0 0 43.69 23.16"><defs><style>.cls-1{fill:#b6b6c2;}</style></defs><title>VA</title><path class="cls-1" d="M42.28,17.2l-2.44-3.1a.77.77,0,0,1-.14-.28L38.47,9.23a.92.92,0,0,0-.55-.55L33.19,7.48a.77.77,0,0,1-.58-.83l.21-2A.82.82,0,0,0,32.48,4L29.09,1.77a.77.77,0,0,0-1,.14L21,10a.77.77,0,0,1-.88.2l-.94-.39a.77.77,0,0,0-1,.48l-2.43,7.63a.77.77,0,0,1-.64.53L4.94,19.7a.77.77,0,0,0-.49.26L1.38,23.53a.77.77,0,0,0,.71,1.27l13.08-2.09,24.84-4,1.79-.29A.77.77,0,0,0,42.28,17.2Z" transform="translate(-1.19 -1.65)"/><path class="cls-1" d="M43.92,8.07l-1.31.34a.8.8,0,0,0-.57.83l.26,2.35a.77.77,0,0,0,1.49.2l.2-.51.85-2.17A.77.77,0,0,0,43.92,8.07Z" transform="translate(-1.19 -1.65)"/></svg>