<svg id="Layer_1" data-name="Layer 1" xmlns="http://www.w3.org/2000/svg" viewBox="0 0 40.09 28.78"><defs><style>.cls-1{fill:#b6b6c2;}</style></defs><title>WA</title><path class="cls-1" d="M41.32,7.4a.75.75,0,0,0-.53-.46Q28.4,4.23,15.22.85a.77.77,0,0,0-.94,1L14.7,3.2a.77.77,0,0,1,0,.39L13.39,9.43a.77.77,0,0,1-.38.5l-1.43.8-.3.17a.74.74,0,0,1-.52.08.8.8,0,0,1-.44-.26.75.75,0,0,1-.13-.77l1-2.59a.8.8,0,0,0-.34-1L9.33,5.53,3.53,2.25a.77.77,0,0,0-1.1.39L1.36,5.42a.77.77,0,0,0-.05.3V6l.14,4.37.25,7.73a.77.77,0,0,0,.45.68l.1,0,4,1.86a.77.77,0,0,1,.45.76l-.22,2.68a.77.77,0,0,0,.52.79l1.29.44,3.55,1.2,2.36.79a.77.77,0,0,0,.24,0h1.28l10.82.08.17,0,8.94,2.11.08,0a.77.77,0,0,0,.93-.58L41.38,7.86A.76.76,0,0,0,41.32,7.4Z" transform="translate(-1.31 -0.82)"/></svg>