<svg id="Layer_1" data-name="Layer 1" xmlns="http://www.w3.org/2000/svg" viewBox="0 0 30.24 32.93"><defs><style>.cls-1{fill:#b6b6c2;}</style></defs><title>WI</title><path class="cls-1" d="M32,15.33l-.91-2A.9.9,0,0,1,31,12.8L26.61,7.55a.76.76,0,0,0-.28-.2L26.2,7.3,16.47,5h0l-.34-.08a1.34,1.34,0,0,1-.77-.45L14.23,2.4a.77.77,0,0,0-.63-.4L7.54,1.63a.77.77,0,0,0-.4.08L5,2.82a.77.77,0,0,0-.42.73L4.72,6.9a.77.77,0,0,1-.4.72l-1.69.93a.75.75,0,0,0-.33.4.75.75,0,0,0-.07.24l-.39,7.57a.74.74,0,0,0,0,.22.75.75,0,0,0,.31.48l8.35,5.3a.77.77,0,0,1,.36.59l.29,3.4a.77.77,0,0,0,.07.27l3.42,7.13a.69.69,0,0,0,.69.43h.23L30,33.17a.8.8,0,0,0,.7-.71L32.08,15.7A.77.77,0,0,0,32,15.33ZM15.53,22.88h0Z" transform="translate(-1.84 -1.63)"/></svg>