<svg id="Layer_1" data-name="Layer 1" xmlns="http://www.w3.org/2000/svg" viewBox="0 0 28.1 20.4"><defs><style>.cls-1{fill:#b6b6c2;}</style></defs><title>WV</title><path class="cls-1" d="M28.19,1.41c-1.13.52-7.92,4.78-8.59,5.27-.27.18-.68.14-.71-.11s-.32-3.45-.32-3.45-.2-.37-.43-.3-6,1.05-6,1.05c-.18,0-.72-.07-.79-.49L11,1.76C10.89,1,10.21.94,9.91,1.4L8.47,4.09a.77.77,0,0,0-.09.26L8,7a.77.77,0,0,1-.18.38l-6.44,7.5a.78.78,0,0,0-.07.91l3.29,5.39a.81.81,0,0,0,.75.36l8.64-1a.77.77,0,0,0,.64-.53l0-.09,2.58-8.09a.75.75,0,0,1,.26-.35.83.83,0,0,1,.22-.12.73.73,0,0,1,.55,0l1.38.58a.77.77,0,0,0,.88-.2l7.28-8.11a.77.77,0,0,1,.44-.24c.13,0,.48.3.81.52.12.07.25,0,.22-.13l-.61-2.15C28.59,1.37,28.44,1.29,28.19,1.41Z" transform="translate(-1.15 -1.12)"/></svg>