<svg id="Layer_1" data-name="Layer 1" xmlns="http://www.w3.org/2000/svg" viewBox="0 0 43.85 31.27" height="25"><defs><style>.bio-card-teal-svg{fill:#00b9b2;}</style></defs><title>Biography Card icon</title><path class="bio-card-teal-svg" d="M41,.33H4C1.69.33.58,1.45.58,3.73V28.2c0,2.29,1.11,3.4,3.4,3.4H41c2.29,0,3.4-1.11,3.4-3.4V3.73C44.43,1.45,43.32.33,41,.33ZM23.36,23A7.86,7.86,0,0,1,23,24.57H5.46A7.86,7.86,0,0,1,5.09,23c-.14-1.41.79-2.07,2.07-2.61,1.5-.64,3.5-1.88,4.44-2.24L11.74,17a5.25,5.25,0,0,1-.88-2.28.87.87,0,0,1-.41-.57l-.32-1.79a.68.68,0,0,1,.32-.63c0-2.68,1-4.42,3.78-4.42S18,9,18,11.72a.68.68,0,0,1,.32.63L18,14.14a.86.86,0,0,1-.41.57A5.24,5.24,0,0,1,16.71,17l.14,1.16c.94.36,2.94,1.6,4.44,2.24C22.57,20.93,23.5,21.6,23.36,23Zm16.08-2.82H27.89c-.3,0-.55-.48-.55-1.07S27.6,18,27.89,18H39.44c.3,0,.54.48.54,1.07S39.74,20.18,39.44,20.18Zm0-6.64H27.89c-.3,0-.55-.48-.55-1.07s.25-1.07.55-1.07H39.44c.3,0,.54.48.54,1.07S39.74,13.55,39.44,13.55Z" transform="translate(-0.58 -0.33)"/></svg>
