<svg id="Layer_1" data-name="Layer 1" xmlns="http://www.w3.org/2000/svg" viewBox="0 0 72.67 101.88" width="60" height="60"><defs><style>.factsheet-svg{fill:#00bbb1;}</style></defs><title>Factsheet icon</title><path class="factsheet-svg" d="M71.71,101.75H2a1.5,1.5,0,0,1-1.5-1.5V1.37A1.5,1.5,0,0,1,2-.13H57.73a1.5,1.5,0,0,1,1.5,1.5V15.3H71.71a1.5,1.5,0,0,1,1.5,1.5v83.45A1.5,1.5,0,0,1,71.71,101.75Zm-68.17-3H70.21V18.3H57.73a1.5,1.5,0,0,1-1.5-1.5V2.87H3.54Z" transform="translate(-0.54 0.13)"/><path class="factsheet-svg" d="M71.71,18.3h-14a1.5,1.5,0,0,1-1.5-1.5V1.37a1.5,1.5,0,0,1,2.61-1l14,15.43a1.5,1.5,0,0,1-1.11,2.51Zm-12.48-3h9.09l-9.09-10Z" transform="translate(-0.54 0.13)"/><path class="factsheet-svg" d="M58.36,31.74h-43a1.5,1.5,0,0,1,0-3h43a1.5,1.5,0,0,1,0,3Z" transform="translate(-0.54 0.13)"/><path class="factsheet-svg" d="M58.36,41.44h-43a1.5,1.5,0,0,1,0-3h43a1.5,1.5,0,0,1,0,3Z" transform="translate(-0.54 0.13)"/><path class="factsheet-svg" d="M58.36,51.14h-43a1.5,1.5,0,0,1,0-3h43a1.5,1.5,0,0,1,0,3Z" transform="translate(-0.54 0.13)"/><path class="factsheet-svg" d="M58.36,60.84h-43a1.5,1.5,0,0,1,0-3h43a1.5,1.5,0,0,1,0,3Z" transform="translate(-0.54 0.13)"/><path class="factsheet-svg" d="M57.73,80.33H36.87a1.5,1.5,0,0,1,0-3H57.73a1.5,1.5,0,0,1,0,3Z" transform="translate(-0.54 0.13)"/><path class="factsheet-svg" d="M57.73,87.26H36.87a1.5,1.5,0,0,1,0-3H57.73a1.5,1.5,0,0,1,0,3Z" transform="translate(-0.54 0.13)"/></svg>
