<svg id="Layer_1" data-name="Layer 1" xmlns="http://www.w3.org/2000/svg" viewBox="0 0 107.02 99.53" width="60" height="60"><defs><style>.leasing-brochure-svg{fill:#00bbb1;}</style></defs><title>Leasing Brochure icon</title><path class="leasing-brochure-svg" d="M35.62,13.24,4,.22A2.9,2.9,0,0,0,0,2.9V83.61a2.9,2.9,0,0,0,1.8,2.68l31.62,13a2.9,2.9,0,0,0,4-2.68V15.92A2.9,2.9,0,0,0,35.62,13.24Zm-1,83.58L2.51,83.75V3.21L34.61,16.28Z" transform="translate(0 0)"/><path class="leasing-brochure-svg" d="M34.68,15.92V96.63a2.9,2.9,0,0,0,4,2.68l31.62-13a2.9,2.9,0,0,0,1.8-2.68V2.9a2.9,2.9,0,0,0-4-2.68l-31.62,13A2.9,2.9,0,0,0,34.68,15.92Zm2.81.36L69.59,3.21V83.75L37.49,96.82Z" transform="translate(0 0)"/><path class="leasing-brochure-svg" d="M105.23,13.24,73.61.22a2.9,2.9,0,0,0-4,2.68V83.61a2.9,2.9,0,0,0,1.8,2.68l31.62,13a2.9,2.9,0,0,0,4-2.68V15.92A2.9,2.9,0,0,0,105.23,13.24Zm-1,83.58L72.11,83.75V3.21l32.11,13.07Z" transform="translate(0 0)"/></svg>
