<svg id="Layer_1" data-name="Layer 1" xmlns="http://www.w3.org/2000/svg" viewBox="0 0 100.64 100.65" width="60" height="60"><defs><style>.lease-plans-svg{fill:#00bbb1;}</style></defs><title>Lease Plans icon</title><g id="_6" data-name="6"><path class="lease-plans-svg" d="M14.38,90.72a1.47,1.47,0,0,1-1-.43l-2-2A1.47,1.47,0,1,1,13.4,86.2l2,2a1.47,1.47,0,0,1-1,2.51Z" transform="translate(-1.11 -0.67)"/><path class="lease-plans-svg" d="M59.12,44.41a1.47,1.47,0,0,1-1-2.51l27-27A1.47,1.47,0,0,1,87.18,17l-27,27A1.47,1.47,0,0,1,59.12,44.41Z" transform="translate(-1.11 -0.67)"/><path class="lease-plans-svg" d="M24.63,78.9a1.47,1.47,0,0,1-1-2.51L41.92,58.07A1.47,1.47,0,0,1,44,60.15L25.67,78.47A1.47,1.47,0,0,1,24.63,78.9Z" transform="translate(-1.11 -0.67)"/><path class="lease-plans-svg" d="M11.51,92.77A1.93,1.93,0,0,1,9.7,90.2l5.66-16.11a1.47,1.47,0,0,1,.35-.55L36.39,52.86a1.47,1.47,0,1,1,2.08,2.08L18,75.38,13.17,89.19,27,84.34,47.74,63.58a1.47,1.47,0,1,1,2.08,2.08l-21,21a1.47,1.47,0,0,1-.55.35L12.16,92.66A2,2,0,0,1,11.51,92.77Z" transform="translate(-1.11 -0.67)"/><path class="lease-plans-svg" d="M64.94,49.92a1.47,1.47,0,0,1-1-2.51L92.55,18.76a4.29,4.29,0,0,0,0-6.06L89.66,9.81a4.29,4.29,0,0,0-6.06,0L55,38.42a1.47,1.47,0,1,1-2.08-2.08L81.52,7.73a7.23,7.23,0,0,1,10.22,0l2.89,2.89a7.24,7.24,0,0,1,0,10.22L66,49.49A1.47,1.47,0,0,1,64.94,49.92Z" transform="translate(-1.11 -0.67)"/><path class="lease-plans-svg" d="M27.4,86.31a1.47,1.47,0,0,1-1.38-1l-2.53-6.78L16.55,76a1.47,1.47,0,0,1,1-2.76l7.57,2.79a1.47,1.47,0,0,1,.87.86l2.77,7.41a1.47,1.47,0,0,1-1.38,2Z" transform="translate(-1.11 -0.67)"/><path class="lease-plans-svg" d="M84.48,101.32a1.47,1.47,0,0,1-1-.43L1.54,19a1.47,1.47,0,0,1,0-2.08L17.35,1.1a1.47,1.47,0,0,1,2.08,0L101.32,83a1.47,1.47,0,0,1,0,2.08l-15.8,15.8A1.47,1.47,0,0,1,84.48,101.32ZM4.66,17.94,84.48,97.77,98.2,84,18.39,4.22Z" transform="translate(-1.11 -0.67)"/><path class="lease-plans-svg" d="M10.93,27.76a1.47,1.47,0,0,1-1-2.51L15.16,20a1.47,1.47,0,0,1,2.08,2.08L12,27.33A1.47,1.47,0,0,1,10.93,27.76Z" transform="translate(-1.11 -0.67)"/><path class="lease-plans-svg" d="M19,35.87a1.47,1.47,0,0,1-1-2.51l8.61-8.61a1.47,1.47,0,0,1,2.08,2.08l-8.61,8.61A1.47,1.47,0,0,1,19,35.87Z" transform="translate(-1.11 -0.67)"/><path class="lease-plans-svg" d="M27.14,44a1.47,1.47,0,0,1-1-2.51l5.27-5.27a1.47,1.47,0,1,1,2.08,2.08l-5.27,5.27A1.47,1.47,0,0,1,27.14,44Z" transform="translate(-1.11 -0.67)"/><path class="lease-plans-svg" d="M35.25,52.08a1.47,1.47,0,0,1-1-2.51l5.27-5.27a1.47,1.47,0,1,1,2.08,2.08l-5.27,5.27A1.47,1.47,0,0,1,35.25,52.08Z" transform="translate(-1.11 -0.67)"/><path class="lease-plans-svg" d="M51.45,68.29a1.47,1.47,0,0,1-1-2.51l5.27-5.27a1.47,1.47,0,0,1,2.08,2.08l-5.27,5.27A1.47,1.47,0,0,1,51.45,68.29Z" transform="translate(-1.11 -0.67)"/><path class="lease-plans-svg" d="M59.56,76.39a1.47,1.47,0,0,1-1-2.51l5.27-5.27a1.47,1.47,0,1,1,2.08,2.08L60.6,76A1.47,1.47,0,0,1,59.56,76.39Z" transform="translate(-1.11 -0.67)"/><path class="lease-plans-svg" d="M67.66,84.5a1.47,1.47,0,0,1-1-2.51l8.61-8.61a1.47,1.47,0,0,1,2.08,2.08L68.7,84.07A1.47,1.47,0,0,1,67.66,84.5Z" transform="translate(-1.11 -0.67)"/><path class="lease-plans-svg" d="M43.3,60.14a1.47,1.47,0,0,1-1-2.51L50.87,49A1.47,1.47,0,0,1,53,51.1l-8.61,8.61A1.47,1.47,0,0,1,43.3,60.14Z" transform="translate(-1.11 -0.67)"/><path class="lease-plans-svg" d="M75.77,92.6a1.47,1.47,0,0,1-1-2.51L80,84.82a1.47,1.47,0,0,1,2.08,2.08L76.8,92.17A1.47,1.47,0,0,1,75.77,92.6Z" transform="translate(-1.11 -0.67)"/><path class="lease-plans-svg" d="M91.51,22.76a1.47,1.47,0,0,1-1-.43L80,11.83A1.47,1.47,0,0,1,82,9.75l10.5,10.5a1.47,1.47,0,0,1-1,2.51Z" transform="translate(-1.11 -0.67)"/></g></svg>
