<?xml version="1.0" encoding="utf-8"?>
<!-- Generator: Adobe Illustrator 21.1.0, SVG Export Plug-In . SVG Version: 6.00 Build 0)  -->
<svg version="1.1" id="Layer_1" xmlns="http://www.w3.org/2000/svg" xmlns:xlink="http://www.w3.org/1999/xlink" x="0px" y="0px"
	 viewBox="0 0 230.712 92.053" enable-background="new 0 0 230.712 92.053" xml:space="preserve">
   <title>Mainplace Mall logo</title>
<path fill="#4296B4" d="M227.889,46.595h-3.6v19.762c0,3.529,1.87,5.364,5.682,5.364h0.741v-3.246h-0.706
	c-1.412,0-2.117-0.918-2.117-2.471V46.595z M217.874,46.595h-3.6v19.762c0,3.529,1.87,5.364,5.682,5.364h0.741v-3.246h-0.706
	c-1.412,0-2.117-0.918-2.117-2.471V46.595z M201.888,68.898c-2.118,0-3.035-0.953-3.035-2.117v-0.177
	c0-1.411,1.27-2.364,2.858-2.364h4.517v2.435C205.487,68.016,203.793,68.898,201.888,68.898 M195.253,67.134
	c0,2.788,2.259,5.011,5.999,5.011c2.259,0,3.953-0.882,4.976-2.259v1.835h3.6V60.358c0-3.952-2.576-6.705-6.846-6.705
	c-3.318,0-5.858,1.8-7.199,4.552l3.564,0.988c0.706-1.411,1.835-2.293,3.494-2.293c2.082,0,3.387,1.376,3.387,3.987v0.459h-3.423
	c-5.576,0-7.552,2.576-7.552,5.258V67.134z M178.607,65.228h3.176l5.541-10.199v16.692h3.811V47.018h-3.282l-7.658,14.046
	l-7.658-14.046h-3.282v24.703h3.812V55.029L178.607,65.228z M147.094,56.9c2.011,0,3.776,1.446,3.917,4.446h-7.835
	C143.282,58.346,145.082,56.9,147.094,56.9 M154.61,64.24v-3.282c0-3.882-3.14-7.305-7.516-7.305c-4.376,0-7.517,3.423-7.517,7.305
	v3.882c0,3.846,2.964,7.305,7.623,7.305c3.634,0,6.105-1.976,7.058-4.941l-3.671-0.6c-0.494,1.553-1.729,2.294-3.387,2.294
	c-2.294,0-3.988-1.517-4.024-4.658H154.61z M121.519,64.84c0,3.882,3.141,7.305,7.517,7.305c3.705,0,6.317-2.506,7.129-5.611
	l-3.635-0.6c-0.459,1.976-1.871,2.964-3.494,2.964c-2.082,0-3.917-1.553-3.917-4.764v-2.47c0-3.212,1.835-4.764,3.917-4.764
	c1.623,0,3.035,0.988,3.494,2.964l3.635-0.6c-0.812-3.106-3.424-5.611-7.129-5.611c-4.376,0-7.517,3.423-7.517,7.305V64.84z
	 M109.556,68.898c-2.117,0-3.035-0.953-3.035-2.117v-0.177c0-1.411,1.271-2.364,2.859-2.364h4.517v2.435
	C113.156,68.016,111.462,68.898,109.556,68.898 M102.922,67.134c0,2.788,2.258,5.011,5.999,5.011c2.259,0,3.953-0.882,4.976-2.259
	v1.835h3.6V60.358c0-3.952-2.577-6.705-6.847-6.705c-3.317,0-5.858,1.8-7.199,4.552l3.564,0.988
	c0.706-1.411,1.836-2.293,3.494-2.293c2.082,0,3.388,1.376,3.388,3.987v0.459h-3.423c-5.576,0-7.552,2.576-7.552,5.258V67.134z
	 M97.099,46.595H93.5v19.762c0,3.529,1.87,5.364,5.681,5.364h0.741v-3.246h-0.705c-1.412,0-2.118-0.918-2.118-2.471V46.595z
	 M77.443,58.699v-8.257h4.482c2.647,0,4.587,1.376,4.587,4.128c0,2.718-1.94,4.129-4.587,4.129H77.443z M82.454,62.122
	c3.811,0,7.87-2.399,7.87-7.552c0-5.117-4.059-7.552-7.87-7.552h-8.822v24.703h3.811v-9.599H82.454z M53.446,71.721h3.599V59.476
	c0.671-1.588,2.33-2.576,3.812-2.576c2.823,0,3.67,1.693,3.67,4.764v10.057h3.599V60.958c0-4.482-2.117-7.305-6.069-7.305
	c-2.224,0-4.129,1.129-5.012,2.611v-2.188h-3.599V71.721z M45.068,50.477h3.6v-3.882h-3.6V50.477z M45.068,71.721h3.6V54.076h-3.6
	V71.721z M32.396,68.898c-2.117,0-3.035-0.953-3.035-2.117v-0.177c0-1.411,1.271-2.364,2.859-2.364h4.517v2.435
	C35.996,68.016,34.302,68.898,32.396,68.898 M25.762,67.134c0,2.788,2.258,5.011,5.999,5.011c2.259,0,3.952-0.882,4.976-2.259v1.835
	h3.599V60.358c0-3.952-2.576-6.705-6.846-6.705c-3.317,0-5.858,1.8-7.199,4.552l3.564,0.988c0.706-1.411,1.835-2.293,3.494-2.293
	c2.082,0,3.388,1.376,3.388,3.987v0.459h-3.423c-5.576,0-7.552,2.576-7.552,5.258V67.134z M9.352,65.228h3.176l5.541-10.199v16.692
	h3.811V47.018h-3.282L10.94,61.064L3.282,47.018H0v24.703h3.811V55.029L9.352,65.228z"/>
<path fill="#646569" d="M187.746,92.025v-7.142h-1.631v3.648l-4.186-3.782l-0.22,0.038v7.132h1.63v-3.676l4.244,3.81L187.746,92.025
	z M177.71,88.406c0,1.258-0.749,2.18-1.863,2.18s-1.863-0.922-1.863-2.18c0-1.267,0.749-2.18,1.863-2.18
	S177.71,87.139,177.71,88.406 M179.456,88.406c0-2.074-1.4-3.638-3.57-3.638c-2.18,0-3.638,1.564-3.638,3.638
	c0,2.065,1.391,3.628,3.57,3.628C177.988,92.034,179.456,90.471,179.456,88.406 M169.994,84.883h-1.631v7.036h1.631V84.883z
	 M166.435,86.38v-1.497h-5.855v1.497h2.112v5.539h1.631V86.38H166.435z M158.949,91.382L158.459,90
	c-0.528,0.327-1.181,0.519-1.757,0.519c-1.315,0-2.131-0.807-2.131-2.113s0.816-2.113,2.131-2.113c0.576,0,1.162,0.183,1.68,0.471
	l0.5-1.382c-0.634-0.374-1.383-0.614-2.199-0.614c-2.294,0-3.848,1.545-3.848,3.638c0,2.084,1.554,3.628,3.848,3.628
	C157.49,92.034,158.334,91.785,158.949,91.382 M150.812,91.919v-1.487h-2.822v-1.374h2.572v-1.419h-2.572V86.38h2.822v-1.497h-4.453
	v7.036H150.812z M144.495,91.919v-1.487h-2.822v-5.549h-1.631v7.036H144.495z M138.178,91.919v-1.487h-2.822v-5.549h-1.631v7.036
	H138.178z M129.727,88.406c0,1.258-0.749,2.18-1.863,2.18s-1.863-0.922-1.863-2.18c0-1.267,0.749-2.18,1.863-2.18
	S129.727,87.139,129.727,88.406 M131.473,88.406c0-2.074-1.401-3.638-3.571-3.638c-2.179,0-3.637,1.564-3.637,3.638
	c0,2.065,1.391,3.628,3.57,3.628C130.005,92.034,131.473,90.471,131.473,88.406 M122.654,91.382L122.165,90
	c-0.528,0.327-1.181,0.519-1.757,0.519c-1.315,0-2.131-0.807-2.131-2.113s0.816-2.113,2.131-2.113c0.576,0,1.162,0.183,1.68,0.471
	l0.499-1.382c-0.633-0.374-1.382-0.614-2.198-0.614c-2.295,0-3.849,1.545-3.849,3.638c0,2.084,1.554,3.628,3.849,3.628
	C121.195,92.034,122.04,91.785,122.654,91.382 M112.335,91.919v-1.487h-2.823v-5.549h-1.631v7.036H112.335z M103.408,89.395h-1.392
	l0.701-1.689L103.408,89.395z M106.154,91.919l-3.312-7.093h-0.221l-3.312,7.093h1.661l0.528-1.277h2.429l0.528,1.277H106.154z
	 M97.565,84.883h-1.631v7.036h1.631V84.883z M93.369,92.025v-7.142h-1.631v3.648l-4.186-3.782l-0.22,0.038v7.132h1.631v-3.676
	l4.243,3.81L93.369,92.025z M84.789,92.025v-7.142h-1.631v3.648l-4.186-3.782l-0.221,0.038v7.132h1.631v-3.676l4.244,3.81
	L84.789,92.025z M76.323,91.919v-1.487h-2.822v-1.374h2.573v-1.419h-2.573V86.38h2.822v-1.497H71.87v7.036H76.323z M69.967,86.38
	v-1.497h-5.854v1.497h2.112v5.539h1.63V86.38H69.967z M62.205,92.025v-7.142h-1.631v3.648l-4.186-3.782l-0.22,0.038v7.132h1.631
	v-3.676l4.243,3.81L62.205,92.025z M53.74,91.919v-1.487h-2.823v-1.374h2.573v-1.419h-2.573V86.38h2.823v-1.497h-4.454v7.036H53.74z
	 M47.252,91.382L46.762,90c-0.528,0.327-1.18,0.519-1.756,0.519c-1.316,0-2.132-0.807-2.132-2.113s0.816-2.113,2.132-2.113
	c0.576,0,1.161,0.183,1.68,0.471l0.499-1.382c-0.634-0.374-1.383-0.614-2.199-0.614c-2.294,0-3.848,1.545-3.848,3.638
	c0,2.084,1.554,3.628,3.848,3.628C45.793,92.034,46.638,91.785,47.252,91.382"/>
<line fill="none" stroke="#4296B4" stroke-width="0.75" stroke-linecap="round" stroke-miterlimit="10" x1="65.746" y1="36.283" x2="163.378" y2="36.283"/>
<g>
	<path fill="#4296B4" d="M113.22,4.675c0,0,2.246-3.808,4.395-4.479c2.056-0.642,3.686,0.499,3.686,0.499l-3.261,1.359l1.494,0.027
		l-2.879,2.01l1.113,0.028l-1.429,1.047c0,0,4.186-1.161,6.543,0.382c1.765,1.155,1.691,2.945,1.691,2.945l-2.176-0.789
		l-0.006,0.843l-2.127-0.763l-0.436,0.545c0,0-2.341-0.606-2.758-0.606s1.199,0.444,2.704,2.024
		c1.091,1.145,1.091,3.381,1.091,3.381l-2.013-1.401l-0.142,0.907l-1.325-1.939l-0.299,0.706l-1.057-1.545l-0.241,0.462
		c0,0-0.896-1.562-1.522-1.771c-0.625-0.208-1.367-0.198-1.367-0.198L113.22,4.675z"/>
	<path fill="#4296B4" d="M114.387,4.284c0,0-3.052-3.61-5.258-3.886c-2.112-0.264-3.533,1.06-3.533,1.06l3.401,0.734l-1.459,0.267
		l3.129,1.402l-1.087,0.205l2.069,1.155c0,0-5.719-1.097-7.525,1.308c-1.255,1.672-0.982,2.345-0.982,2.345l2.236-0.872l0.363,0.858
		l2.636-1.349l-0.436,1.137c0,0,2.737-0.842,3.145-0.91c0.408-0.067-2.464,1.222-2.981,2.118c-0.819,1.418-0.655,3.544-0.655,3.544
		l1.935-1.642l0.278,0.819l1-2.016l0.401,0.608l1.368-1.618l0.308,0.391c0,0,0.946-1.809,1.526-2.104
		c0.581-0.295,0.999-0.194,0.999-0.194L114.387,4.284z"/>
	<path fill="#4296B4" d="M114.5,6.431c0,0,3.066,21.106,1.856,22.1c-1.163,0.955-3.398,0.792-3.887,0.097
		c-0.24-0.343,0.852-21.468,0.852-21.468L114.5,6.431z"/>
	<path fill="#4296B4" d="M106.359,16.565c0,0,1.157-1.962,2.264-2.307c1.059-0.331,1.899,0.256,1.899,0.256l-1.68,0.7l0.77,0.014
		l-1.484,1.036l0.574,0.014l-0.737,0.54c0,0,2.157-0.598,3.372,0.197c0.909,0.595,0.87,1.517,0.87,1.517l-1.12-0.407l-0.003,0.435
		l-1.096-0.394l-0.225,0.281c0,0-1.206-0.312-1.421-0.312c-0.214,0,0.619,0.229,1.393,1.043c0.562,0.589,0.562,1.741,0.562,1.741
		l-1.037-0.721l-0.072,0.467l-0.683-0.999l-0.154,0.364l-0.545-0.796l-0.124,0.238c0,0-0.462-0.805-0.784-0.912
		c-0.322-0.108-0.704-0.103-0.704-0.103L106.359,16.565z"/>
	<path fill="#4296B4" d="M106.96,16.364c0,0-1.572-1.86-2.708-2.002c-1.088-0.136-1.82,0.546-1.82,0.546l1.752,0.378l-0.752,0.138
		l1.611,0.722l-0.559,0.106l1.066,0.594c0,0-2.946-0.565-3.877,0.675c-0.646,0.861-0.505,1.208-0.505,1.208l1.151-0.45l0.187,0.442
		l1.358-0.695l-0.224,0.586c0,0,1.409-0.434,1.62-0.469c0.21-0.034-1.27,0.63-1.536,1.091c-0.422,0.731-0.337,1.826-0.337,1.826
		l0.996-0.846l0.143,0.422l0.516-1.038l0.206,0.313l0.705-0.834l0.158,0.202c0,0,0.488-0.932,0.787-1.084
		c0.299-0.152,0.515-0.1,0.515-0.1L106.96,16.364z"/>
	<path fill="#4296B4" d="M107.019,17.47c0,0,1.579,10.873,0.956,11.385c-0.599,0.492-1.751,0.408-2.002,0.05
		c-0.124-0.177,0.439-11.06,0.439-11.06L107.019,17.47z"/>
	<path fill="#4296B4" d="M122.636,16.428c0,0-1.186-1.983-2.32-2.333c-1.085-0.334-1.946,0.26-1.946,0.26l1.722,0.708l-0.789,0.014
		l1.52,1.047l-0.588,0.014l0.755,0.546c0,0-2.21-0.605-3.454,0.199c-0.932,0.601-0.893,1.533-0.893,1.533l1.149-0.411l0.003,0.439
		l1.122-0.397l0.231,0.284c0,0,1.236-0.316,1.456-0.316s-0.634,0.232-1.427,1.054c-0.576,0.596-0.576,1.761-0.576,1.761l1.062-0.729
		l0.075,0.472l0.699-1.01l0.158,0.368l0.558-0.805l0.128,0.241c0,0,0.473-0.814,0.803-0.923c0.33-0.108,0.721-0.103,0.721-0.103
		L122.636,16.428z"/>
	<path fill="#4296B4" d="M122.02,16.224c0,0,1.611-1.88,2.776-2.023c1.115-0.138,1.865,0.551,1.865,0.551l-1.796,0.383l0.771,0.139
		l-1.652,0.73l0.574,0.107l-1.093,0.601c0,0,3.019-0.571,3.973,0.681c0.662,0.871,0.518,1.221,0.518,1.221l-1.18-0.454l-0.192,0.447
		l-1.391-0.702l0.23,0.591c0,0-1.445-0.438-1.66-0.473c-0.216-0.035,1.3,0.636,1.573,1.102c0.432,0.739,0.346,1.846,0.346,1.846
		l-1.021-0.855l-0.147,0.427l-0.528-1.05l-0.212,0.316l-0.722-0.842l-0.162,0.203c0,0-0.5-0.942-0.806-1.095
		c-0.307-0.154-0.527-0.101-0.527-0.101L122.02,16.224z"/>
	<path fill="#4296B4" d="M121.96,17.342c0,0-1.618,10.991-0.979,11.509c0.613,0.497,1.793,0.412,2.051,0.05
		c0.127-0.179-0.449-11.18-0.449-11.18L121.96,17.342z"/>
</g>
</svg>
