<svg id="Layer_1" data-name="Layer 1" xmlns="http://www.w3.org/2000/svg" viewBox="0 0 146.14 125.05"><defs><style>.cls-1{fill:#fff;}.cls-2{fill:none;stroke:#fff;stroke-linecap:round;stroke-miterlimit:10;stroke-width:0.75px;}</style></defs><title>MainPlace_STCKD_WHT</title><path class="cls-1" d="M103.94,103.42h-.64c-1.69,0-2.43-1.09-2.43-3V80.66H98.22v20c0,3.28,1.55,5.08,5,5.08h.71Zm-8.72,0h-.64c-1.69,0-2.43-1.09-2.43-3V80.66H89.5v20c0,3.28,1.55,5.08,5,5.08h.71ZM78.63,90.08c2.54,0,4.09,1.52,4.09,4.69v.88h-4.2c-5.43,0-7.34,2.54-7.34,5.19v.46c0,2.79,2.29,4.91,6,4.91a6.53,6.53,0,0,0,5.58-2.58v2.15h2.65V94.45c0-4-2.5-6.74-6.63-6.74a7.57,7.57,0,0,0-7,4.31l2.61.7a4.69,4.69,0,0,1,4.24-2.65m-1.09,13.76c-2.43,0-3.71-1.2-3.71-2.79v-.18c0-1.73,1.38-3.07,3.88-3.07h5V101a5.66,5.66,0,0,1-5.19,2.86M58.13,99l6.7-12.17v19h2.79V81.08H65.15L57,95.94,48.78,81.08H46.31v24.7H49.1v-19L55.8,99Z" transform="translate(-1.68 -1.06)"/><path class="cls-1" d="M135.86,62.62c0-3.49,2-5.54,4.66-5.54s4.66,2,4.66,5.54v.18h-9.32Zm4.66,10.59a6.9,6.9,0,0,0,7-4.94l-2.72-.42a4.17,4.17,0,0,1-4.24,3c-2.65,0-4.66-2-4.66-5.54v-.35h12V62.12a7.31,7.31,0,1,0-14.61,0v3.67a7.17,7.17,0,0,0,7.31,7.41M116,65.79a7.17,7.17,0,0,0,7.31,7.41,7,7,0,0,0,7-5.54l-2.65-.46a4.28,4.28,0,0,1-4.34,3.64c-2.65,0-4.66-2-4.66-5.54V62.62c0-3.49,2-5.54,4.66-5.54a4.28,4.28,0,0,1,4.34,3.63l2.65-.46a7,7,0,0,0-7-5.54A7.17,7.17,0,0,0,116,62.12Zm-10.24-8.72c2.54,0,4.09,1.52,4.09,4.69v.88h-4.2c-5.43,0-7.34,2.54-7.34,5.19v.46c0,2.79,2.29,4.9,6,4.9a6.53,6.53,0,0,0,5.58-2.58v2.15h2.65V61.45c0-4-2.51-6.74-6.64-6.74a7.57,7.57,0,0,0-7,4.31l2.61.71a4.69,4.69,0,0,1,4.24-2.65M104.7,70.84c-2.43,0-3.71-1.2-3.71-2.79v-.18c0-1.73,1.38-3.07,3.88-3.07h5V68a5.66,5.66,0,0,1-5.19,2.86m-8.43-.42h-.64c-1.69,0-2.43-1.09-2.43-3V47.66H90.55v20c0,3.28,1.55,5.08,5,5.08h.71Zm-11.58-15c0,3.25-2.29,4.83-5.33,4.83H74V50.58h5.36c3,0,5.33,1.59,5.33,4.83m-4.9,7.34c3.85,0,7.69-2.33,7.69-7.34s-3.85-7.34-7.69-7.34H71.21v24.7H74v-10Zm-14,10V62c0-4.52-2.12-7.27-6-7.27a6.39,6.39,0,0,0-5.43,2.68V55.14H51.69V72.78h2.65V60.25A5.25,5.25,0,0,1,59,57.08c3,0,4.09,1.8,4.09,5.47V72.78Zm-21-21.88h2.65V47.66H44.79Zm0,21.88h2.65V55.14H44.79Zm-11-15.7c2.54,0,4.09,1.52,4.09,4.69v.88h-4.2c-5.43,0-7.34,2.54-7.34,5.19v.46c0,2.79,2.29,4.9,6,4.9a6.53,6.53,0,0,0,5.58-2.58v2.15h2.65V61.45c0-4-2.51-6.74-6.63-6.74A7.57,7.57,0,0,0,27,59l2.61.71a4.69,4.69,0,0,1,4.23-2.65M32.73,70.84c-2.43,0-3.7-1.2-3.7-2.79v-.18c0-1.73,1.38-3.07,3.88-3.07h5V68a5.66,5.66,0,0,1-5.19,2.86M13.5,66l6.7-12.17v19H23V48.08H20.52L12.34,62.94,4.15,48.08H1.68v24.7H4.47v-19L11.17,66Z" transform="translate(-1.68 -1.06)"/><path class="cls-1" d="M143.17,126.08v-7.14H142v4.44l-4.35-4.58-.19,0V126h1.2v-4.51l4.41,4.65Zm-9-3.62a2.29,2.29,0,1,1-2.27-2.56,2.35,2.35,0,0,1,2.27,2.56m1.29,0a3.47,3.47,0,0,0-3.52-3.64,3.53,3.53,0,0,0-3.59,3.64,3.47,3.47,0,0,0,3.52,3.63,3.53,3.53,0,0,0,3.59-3.63m-9.15-3.52h-1.2v7h1.2ZM123.36,120v-1.09H117.7V120h2.24V126h1.2V120Zm-7.08,5.4-.36-1A4,4,0,0,1,114,125a2.51,2.51,0,0,1,0-5,4,4,0,0,1,1.87.54l.41-1a4.41,4.41,0,0,0-2.27-.64,3.64,3.64,0,1,0,0,7.27,4.4,4.4,0,0,0,2.29-.66m-7.77.55v-1.09h-3.09v-2h2.79v-1.06h-2.79V120h3.09v-1.09h-4.29v7Zm-5.93,0v-1.09H99.49v-5.94h-1.2v7Zm-5.93,0v-1.09H93.56v-5.94h-1.2v7Zm-7.59-3.51a2.29,2.29,0,1,1-2.27-2.56,2.35,2.35,0,0,1,2.27,2.56m1.28,0a3.47,3.47,0,0,0-3.52-3.64,3.53,3.53,0,0,0-3.59,3.64,3.47,3.47,0,0,0,3.52,3.63,3.53,3.53,0,0,0,3.59-3.63m-8.43,3-.36-1a4,4,0,0,1-1.92.56,2.51,2.51,0,0,1,0-5,4,4,0,0,1,1.87.54l.41-1a4.41,4.41,0,0,0-2.27-.64,3.64,3.64,0,1,0,0,7.27,4.39,4.39,0,0,0,2.29-.66M72,126v-1.09H68.89v-5.94h-1.2v7Zm-8.17-2.56h-2l1-2.35ZM66.14,126l-3.24-7.13h-.17L59.49,126h1.24l.68-1.61H64.2l.68,1.61Zm-8.21-7h-1.2v7h1.2Zm-3.54,7.14v-7.14H53.2v4.44l-4.35-4.58-.19,0V126h1.2v-4.51l4.41,4.65Zm-8.06,0v-7.14h-1.2v4.44l-4.35-4.58-.19,0V126h1.2v-4.51l4.41,4.65ZM38.48,126v-1.09H35.39v-2h2.79v-1.06H35.39V120h3.09v-1.09H34.19v7Zm-6-5.94v-1.09H26.85V120h2.24V126h1.2V120Zm-7.34,6v-7.14H24v4.44l-4.35-4.58-.19,0V126h1.2v-4.51L25,126.11ZM17.31,126v-1.09H14.22v-2H17v-1.06H14.22V120h3.09v-1.09H13v7Zm-6-.55-.37-1A4,4,0,0,1,9,125a2.51,2.51,0,0,1,0-5,4,4,0,0,1,1.87.54l.41-1A4.4,4.4,0,0,0,9,118.83a3.64,3.64,0,1,0,0,7.27,4.4,4.4,0,0,0,2.29-.66" transform="translate(-1.68 -1.06)"/><line class="cls-2" x1="23.8" y1="36.28" x2="121.43" y2="36.28"/><path class="cls-1" d="M73,5.74s2.25-3.81,4.39-4.48a4.5,4.5,0,0,1,3.69.5L77.77,3.12l1.49,0-2.88,2,1.11,0-1.43,1s4.19-1.16,6.54.38A3.58,3.58,0,0,1,84.3,9.55l-2.18-.79v.84L80,8.85l-.44.55s-2.34-.61-2.76-.61,1.2.44,2.7,2a5.73,5.73,0,0,1,1.09,3.38l-2-1.4-.14.91-1.33-1.94-.3.71-1.06-1.54-.24.46S74.62,9.82,74,9.61a4.82,4.82,0,0,0-1.37-.2Z" transform="translate(-1.68 -1.06)"/><path class="cls-1" d="M74.12,5.35s-3.05-3.61-5.26-3.89a4.67,4.67,0,0,0-3.53,1.06l3.4.73-1.46.27,3.13,1.4-1.09.21,2.07,1.15s-5.72-1.1-7.52,1.31c-1.26,1.67-1,2.35-1,2.35l2.24-.87.36.86,2.64-1.35-.44,1.14s2.74-.84,3.15-.91-2.46,1.22-3,2.12a7.22,7.22,0,0,0-.65,3.54l1.93-1.64.28.82,1-2,.4.61,1.37-1.62.31.39S73.42,9.19,74,8.9a1.57,1.57,0,0,1,1-.19Z" transform="translate(-1.68 -1.06)"/><path class="cls-1" d="M74.23,7.49s3.07,21.11,1.86,22.1-3.4.79-3.89.1c-.24-.34.85-21.47.85-21.47Z" transform="translate(-1.68 -1.06)"/><path class="cls-1" d="M66.09,17.63s1.16-2,2.26-2.31a2.32,2.32,0,0,1,1.9.26l-1.68.7h.77l-1.48,1h.57l-.74.54s2.16-.6,3.37.2a1.84,1.84,0,0,1,.87,1.52l-1.12-.41v.43l-1.1-.39-.22.28s-1.21-.31-1.42-.31.62.23,1.39,1A3,3,0,0,1,70,22l-1-.72-.07.47-.68-1-.15.36-.54-.8-.12.24s-.46-.81-.78-.91a2.47,2.47,0,0,0-.7-.1Z" transform="translate(-1.68 -1.06)"/><path class="cls-1" d="M66.69,17.42s-1.57-1.86-2.71-2a2.4,2.4,0,0,0-1.82.55l1.75.38-.75.14,1.61.72-.56.11,1.07.59s-2.95-.56-3.88.68c-.65.86-.5,1.21-.5,1.21l1.15-.45.19.44,1.36-.69-.22.59s1.41-.43,1.62-.47-1.27.63-1.54,1.09a3.72,3.72,0,0,0-.34,1.83l1-.85.14.42.52-1L65,21l.7-.83.16.2s.49-.93.79-1.08a.81.81,0,0,1,.51-.1Z" transform="translate(-1.68 -1.06)"/><path class="cls-1" d="M66.75,18.53s1.58,10.87,1,11.39a1.72,1.72,0,0,1-2,.05c-.12-.18.44-11.06.44-11.06Z" transform="translate(-1.68 -1.06)"/><path class="cls-1" d="M82.37,17.49s-1.19-2-2.32-2.33a2.41,2.41,0,0,0-1.95.26l1.72.71H79l1.52,1H80l.75.55s-2.21-.61-3.45.2a1.85,1.85,0,0,0-.89,1.53l1.15-.41v.44l1.12-.4.23.28s1.24-.32,1.46-.32-.63.23-1.43,1.05a3,3,0,0,0-.58,1.76l1.06-.73.08.47.7-1,.16.37.56-.81.13.24s.47-.81.8-.92a2.59,2.59,0,0,1,.72-.1Z" transform="translate(-1.68 -1.06)"/><path class="cls-1" d="M81.75,17.29s1.61-1.88,2.78-2a2.48,2.48,0,0,1,1.87.55l-1.8.38.77.14-1.65.73.57.11-1.09.6s3-.57,4,.68c.66.87.52,1.22.52,1.22l-1.18-.45-.19.45L84.92,19l.23.59s-1.45-.44-1.66-.47,1.3.64,1.57,1.1A3.72,3.72,0,0,1,85.41,22l-1-.85-.15.43-.53-1-.21.32L82.78,20l-.16.2s-.5-.94-.81-1.1a.83.83,0,0,0-.53-.1Z" transform="translate(-1.68 -1.06)"/><path class="cls-1" d="M81.69,18.4s-1.62,11-1,11.51a1.78,1.78,0,0,0,2.05.05c.13-.18-.45-11.18-.45-11.18Z" transform="translate(-1.68 -1.06)"/></svg>