<svg id="Layer_1" data-name="Layer 1" xmlns="http://www.w3.org/2000/svg" viewBox="0 0 153.47 119.07"><defs><style>.cls-1{fill:#fff;}.cls-2{fill:none;stroke:#fff;stroke-linecap:round;stroke-miterlimit:10;stroke-width:0.75px;}</style></defs><title>VAncouver_STCKD_WHT</title><path class="cls-1" d="M107.49,98.36h-.64c-1.69,0-2.43-1.09-2.43-3V75.6h-2.65v20c0,3.28,1.55,5.08,5,5.08h.71Zm-8.72,0h-.64c-1.69,0-2.43-1.09-2.43-3V75.6H93.06v20c0,3.28,1.55,5.08,5,5.08h.71ZM82.19,85c2.54,0,4.09,1.52,4.09,4.69v.88h-4.2c-5.43,0-7.34,2.54-7.34,5.19v.46c0,2.79,2.29,4.91,6,4.91a6.53,6.53,0,0,0,5.58-2.58v2.15h2.65V89.4c0-4-2.5-6.74-6.63-6.74a7.57,7.57,0,0,0-7,4.31l2.61.7A4.69,4.69,0,0,1,82.19,85M81.09,98.79c-2.43,0-3.71-1.2-3.71-2.79v-.18c0-1.73,1.38-3.07,3.88-3.07h5v3.18a5.66,5.66,0,0,1-5.19,2.86M61.69,94l6.7-12.17v19h2.79V76H68.71L60.52,90.88,52.33,76H49.86v24.7h2.79v-19L59.36,94Z" transform="translate(-0.99 -1.99)"/><path class="cls-1" d="M154.46,50.08a5.5,5.5,0,0,0-2.19-.42A6.27,6.27,0,0,0,147,52.31V50.08H144.4V67.73H147V55.06a5.66,5.66,0,0,1,4.9-3,7.19,7.19,0,0,1,2.51.42Zm-25.52,7.48c0-3.49,2-5.54,4.66-5.54s4.66,2,4.66,5.54v.18h-9.32Zm4.66,10.59a6.9,6.9,0,0,0,7-4.94l-2.72-.42a4.17,4.17,0,0,1-4.24,3c-2.65,0-4.66-2-4.66-5.54v-.35h12V57.07a7.31,7.31,0,1,0-14.61,0v3.67a7.17,7.17,0,0,0,7.31,7.41m-15.52-.42,6.74-17.65h-2.75L116.7,64.38l-5.36-14.29h-2.75l6.74,17.65ZM91.79,50.08v10.8c0,4.52,2.12,7.27,6,7.27a6.39,6.39,0,0,0,5.43-2.68v2.26h2.65V50.08h-2.65V62.61a5.25,5.25,0,0,1-4.69,3.18c-3,0-4.09-1.8-4.09-5.47V50.08ZM85.66,60.25c0,3.49-2,5.54-4.66,5.54s-4.66-2-4.66-5.54V57.56c0-3.49,2-5.54,4.66-5.54s4.66,2,4.66,5.54Zm-12,.49a7.31,7.31,0,1,0,14.61,0V57.07a7.31,7.31,0,1,0-14.61,0Zm-17.19,0a7.17,7.17,0,0,0,7.31,7.41,7,7,0,0,0,7-5.54l-2.65-.46a4.28,4.28,0,0,1-4.34,3.64c-2.65,0-4.66-2-4.66-5.54V57.56c0-3.49,2-5.54,4.66-5.54a4.28,4.28,0,0,1,4.34,3.64l2.65-.46a7,7,0,0,0-7-5.54,7.17,7.17,0,0,0-7.31,7.41Zm-3.11,7V56.93c0-4.52-2.12-7.27-6-7.27A6.39,6.39,0,0,0,42,52.34V50.08H39.33V67.73H42V55.2A5.25,5.25,0,0,1,46.67,52c3,0,4.09,1.8,4.09,5.47V67.73ZM28.17,52c2.54,0,4.09,1.52,4.09,4.69v.88h-4.2c-5.43,0-7.34,2.54-7.34,5.19v.46c0,2.79,2.29,4.9,6,4.9a6.53,6.53,0,0,0,5.58-2.58v2.15h2.65V56.4c0-4-2.51-6.74-6.63-6.74a7.58,7.58,0,0,0-7,4.31l2.61.71A4.69,4.69,0,0,1,28.17,52M27.08,65.79c-2.43,0-3.7-1.2-3.7-2.79v-.18c0-1.73,1.38-3.07,3.88-3.07h5v3.18a5.66,5.66,0,0,1-5.19,2.86m-15,1.94L20.4,43h-3L10.7,63.32,4,43H1l8.29,24.7Z" transform="translate(-0.99 -1.99)"/><path class="cls-1" d="M146.72,121v-7.14h-1.2v4.44l-4.35-4.58-.19,0v7.13h1.2v-4.51l4.41,4.65Zm-9-3.62a2.29,2.29,0,1,1-2.27-2.56,2.35,2.35,0,0,1,2.27,2.56m1.29,0a3.48,3.48,0,0,0-3.52-3.64,3.53,3.53,0,0,0-3.59,3.64,3.47,3.47,0,0,0,3.52,3.63,3.53,3.53,0,0,0,3.59-3.63m-9.15-3.52h-1.2v7h1.2ZM126.92,115v-1.09h-5.66V115h2.24v5.94h1.2V115Zm-7.08,5.4-.36-1a4,4,0,0,1-1.92.56,2.51,2.51,0,0,1,0-5,4,4,0,0,1,1.87.54l.41-1a4.41,4.41,0,0,0-2.27-.64,3.64,3.64,0,1,0,0,7.27,4.4,4.4,0,0,0,2.29-.66m-7.77.55v-1.09H109v-2h2.79v-1.06H109V115h3.09v-1.09h-4.29v7Zm-5.93,0v-1.09H103v-5.94h-1.2v7Zm-5.93,0v-1.09H97.11v-5.94h-1.2v7Zm-7.59-3.51a2.29,2.29,0,1,1-2.27-2.56,2.35,2.35,0,0,1,2.27,2.56m1.28,0a3.48,3.48,0,0,0-3.52-3.64,3.53,3.53,0,0,0-3.59,3.64A3.47,3.47,0,0,0,90.31,121a3.53,3.53,0,0,0,3.59-3.63m-8.43,3-.36-1a4,4,0,0,1-1.92.56,2.51,2.51,0,0,1,0-5,4,4,0,0,1,1.87.54l.41-1a4.41,4.41,0,0,0-2.27-.64,3.64,3.64,0,1,0,0,7.27,4.39,4.39,0,0,0,2.29-.66m-9.94.55v-1.09H72.44v-5.94h-1.2v7Zm-8.17-2.56h-2l1-2.35Zm2.34,2.56-3.24-7.13h-.17L63,120.92h1.24l.68-1.61h2.78l.68,1.61Zm-8.21-7h-1.2v7h1.2ZM58,121v-7.14h-1.2v4.44l-4.35-4.58-.19,0v7.13h1.2v-4.51l4.41,4.65Zm-8.06,0v-7.14h-1.2v4.44l-4.35-4.58-.19,0v7.13h1.2v-4.51l4.41,4.65ZM42,120.92v-1.09H38.95v-2h2.79v-1.06H38.95V115H42v-1.09H37.75v7Zm-6-5.94v-1.09H30.4V115h2.24v5.94h1.2V115Zm-7.34,6v-7.14h-1.2v4.44l-4.35-4.58-.19,0v7.13h1.2v-4.51l4.41,4.65Zm-7.86-.11v-1.09H17.77v-2h2.79v-1.06H17.77V115h3.09v-1.09H16.58v7Zm-6-.55-.37-1a4,4,0,0,1-1.92.56,2.51,2.51,0,0,1,0-5,4,4,0,0,1,1.87.54l.41-1a4.4,4.4,0,0,0-2.27-.64,3.64,3.64,0,1,0,0,7.27,4.4,4.4,0,0,0,2.29-.66" transform="translate(-0.99 -1.99)"/><line class="cls-2" x1="28.04" y1="30" x2="125.67" y2="30"/><polygon class="cls-1" points="33.01 18.84 35.15 15.48 33.81 15.48 36.76 11.03 39.66 15.48 38.33 15.48 40.47 18.84 39.08 18.84 41.28 22.25 37.75 22.25 37.75 23.75 35.84 23.75 35.84 22.25 32.14 22.25 34.39 18.84 33.01 18.84"/><polygon class="cls-1" points="112.92 19.32 115.39 15.46 113.85 15.46 117.24 10.44 120.59 15.46 119.05 15.46 121.52 19.32 119.92 19.32 122.45 23.26 118.39 23.26 118.39 24.99 116.19 24.99 116.19 23.26 111.92 23.26 114.52 19.32 112.92 19.32"/><path class="cls-1" d="M95.79,13.2l-7,1.39-4.58-2.78-2.59.69-4.28-2.2-4.23,4.42-2.07-1.89-6.2,4.25-2.94-1-3.5.83-4.69-1.75-1.59.51L49.26,14l-4.93,1.75,4.89-4.29,3.3.46,6,4.15,3.62-3.55,2.7,2.58L71,10.72l1.51.69,5.31-6.88,2.59,1.39s3.09-1.27,3.19-.81,5,6,5,6L90.46,9.2l3.85-1,2.07.51,3.93,3.78,5.92,3.27ZM106,18.56l2.2-3.28-7.2-4s-3.37-3.47-3.59-3.82-2.94-.92-2.94-.92l-4.45,1L88.48,9.27,83.67,3a18,18,0,0,1-3.52.58A9.29,9.29,0,0,1,77.71,2L72.33,9.5l-1.22-.69-6.32,4.63-2.66-2.78-3.73,3.7-5.53-3.93-3.73-.81-7.72,6.91,1.2,1.79H41.25l2.14,3.35H42l1.61,2.5h61.52l1.49-2.25h-1.36l2.14-3.35Z" transform="translate(-0.99 -1.99)"/><polygon class="cls-1" points="111.25 20.18 112.75 17.83 111.41 15.72 112.76 15.72 109.86 11.3 106.9 15.72 108.23 15.72 106.09 19.08 107.48 19.08 105.22 22.49 108.92 22.49 108.92 23.99 110.83 23.99 110.83 22.49 111.5 22.49 112.96 20.18 111.25 20.18"/></svg>