<?xml version="1.0" encoding="utf-8"?>
<!-- Generator: Adobe Illustrator 21.1.0, SVG Export Plug-In . SVG Version: 6.00 Build 0)  -->
<svg version="1.1" id="Layer_1" xmlns="http://www.w3.org/2000/svg" xmlns:xlink="http://www.w3.org/1999/xlink" x="0px" y="0px"
	 viewBox="0 0 237.482 86.293" enable-background="new 0 0 237.482 86.293" xml:space="preserve">
   <title>Vancouver Mall logo</title>
<g>
	<path fill="#35647E" d="M234.658,40.836h-3.599v19.762c0,3.529,1.87,5.364,5.682,5.364h0.741v-3.247h-0.706
		c-1.412,0-2.118-0.917-2.118-2.47V40.836z M224.643,40.836h-3.599v19.762c0,3.529,1.87,5.364,5.681,5.364h0.742v-3.247h-0.706
		c-1.412,0-2.118-0.917-2.118-2.47V40.836z M208.463,63.139c-2.117,0-3.035-0.953-3.035-2.117v-0.177
		c0-1.411,1.271-2.364,2.859-2.364h4.517v2.435C212.063,62.257,210.369,63.139,208.463,63.139 M201.829,61.374
		c0,2.788,2.258,5.012,5.999,5.012c2.259,0,3.953-0.883,4.976-2.259v1.835h3.6V54.599c0-3.953-2.577-6.705-6.847-6.705
		c-3.317,0-5.858,1.799-7.199,4.552l3.564,0.988c0.706-1.411,1.836-2.294,3.494-2.294c2.082,0,3.388,1.377,3.388,3.988v0.459h-3.423
		c-5.576,0-7.552,2.576-7.552,5.258V61.374z M185.183,59.469h3.176l5.54-10.199v16.692h3.812V41.259h-3.282l-7.658,14.046
		l-7.658-14.046h-3.282v24.703h3.811V49.27L185.183,59.469z M151.657,65.962h3.6V53.54c0.953-1.517,2.611-2.4,4.341-2.4
		c0.988,0,1.729,0.142,2.646,0.459v-3.282c-0.67-0.282-1.446-0.423-2.152-0.423c-2.118,0-3.847,0.988-4.835,2.258v-1.835h-3.6
		V65.962z M140.051,51.14c2.011,0,3.776,1.447,3.917,4.447h-7.834C136.24,52.587,138.039,51.14,140.051,51.14 M147.568,58.481
		v-3.282c0-3.882-3.141-7.305-7.517-7.305s-7.517,3.423-7.517,7.305v3.882c0,3.846,2.964,7.305,7.623,7.305
		c3.635,0,6.105-1.977,7.058-4.941l-3.67-0.6c-0.494,1.553-1.73,2.294-3.388,2.294c-2.294,0-3.988-1.517-4.023-4.658H147.568z
		 M130.498,48.317h-3.776l-4.658,13.269l-4.623-13.269h-3.776l6.528,17.645h3.776L130.498,48.317z M95.759,59.081
		c0,4.481,2.117,7.305,6.069,7.305c2.224,0,4.129-1.13,5.012-2.612v2.188h3.599V48.317h-3.599v12.246
		c-0.671,1.588-2.329,2.576-3.812,2.576c-2.823,0-3.67-1.694-3.67-4.764V48.317h-3.599V59.081z M80.351,55.905
		c0-3.212,1.835-4.765,3.917-4.765c2.083,0,3.918,1.553,3.918,4.765v2.47c0,3.211-1.835,4.764-3.918,4.764
		c-2.082,0-3.917-1.553-3.917-4.764V55.905z M76.752,59.081c0,3.882,3.141,7.305,7.516,7.305c4.376,0,7.517-3.423,7.517-7.305
		v-3.882c0-3.882-3.141-7.305-7.517-7.305c-4.375,0-7.516,3.423-7.516,7.305V59.081z M58.694,59.081
		c0,3.882,3.141,7.305,7.517,7.305c3.705,0,6.317-2.506,7.128-5.611l-3.635-0.6c-0.458,1.976-1.87,2.964-3.493,2.964
		c-2.082,0-3.917-1.553-3.917-4.764v-2.47c0-3.212,1.835-4.765,3.917-4.765c1.623,0,3.035,0.988,3.493,2.965l3.635-0.6
		c-0.811-3.106-3.423-5.611-7.128-5.611c-4.376,0-7.517,3.423-7.517,7.305V59.081z M39.99,65.962h3.6V53.717
		c0.67-1.589,2.329-2.577,3.811-2.577c2.823,0,3.67,1.694,3.67,4.765v10.057h3.6V55.199c0-4.482-2.117-7.305-6.07-7.305
		c-2.223,0-4.129,1.129-5.011,2.611v-2.188h-3.6V65.962z M27.491,63.139c-2.117,0-3.035-0.953-3.035-2.117v-0.177
		c0-1.411,1.271-2.364,2.859-2.364h4.517v2.435C31.091,62.257,29.397,63.139,27.491,63.139 M20.857,61.374
		c0,2.788,2.258,5.012,5.999,5.012c2.258,0,3.952-0.883,4.976-2.259v1.835h3.599V54.599c0-3.953-2.576-6.705-6.846-6.705
		c-3.317,0-5.858,1.799-7.199,4.552l3.564,0.988c0.706-1.411,1.835-2.294,3.494-2.294c2.082,0,3.388,1.377,3.388,3.988v0.459h-3.423
		c-5.576,0-7.552,2.576-7.552,5.258V61.374z M9.952,59.857L4.164,41.259H0l8.046,24.703h3.812l8.046-24.703H15.74L9.952,59.857z"/>
	<path fill="#646569" d="M192.19,86.265v-7.142h-1.631v3.648l-4.186-3.782l-0.22,0.038v7.132h1.63v-3.676l4.244,3.81L192.19,86.265z
		 M182.154,82.646c0,1.258-0.749,2.18-1.863,2.18s-1.863-0.922-1.863-2.18c0-1.267,0.749-2.18,1.863-2.18
		S182.154,81.38,182.154,82.646 M183.9,82.646c0-2.074-1.4-3.638-3.57-3.638c-2.18,0-3.638,1.564-3.638,3.638
		c0,2.065,1.391,3.628,3.57,3.628C182.432,86.274,183.9,84.712,183.9,82.646 M174.438,79.123h-1.631v7.036h1.631V79.123z
		 M170.879,80.62v-1.497h-5.855v1.497h2.112v5.539h1.631V80.62H170.879z M163.393,85.622l-0.49-1.382
		c-0.528,0.327-1.181,0.519-1.757,0.519c-1.315,0-2.131-0.807-2.131-2.113s0.816-2.113,2.131-2.113c0.576,0,1.162,0.183,1.68,0.471
		l0.5-1.382c-0.634-0.374-1.383-0.614-2.199-0.614c-2.294,0-3.848,1.545-3.848,3.638c0,2.084,1.554,3.628,3.848,3.628
		C161.934,86.274,162.778,86.025,163.393,85.622 M155.256,86.16v-1.487h-2.822v-1.374h2.572V81.88h-2.572V80.62h2.822v-1.497h-4.453
		v7.036H155.256z M148.939,86.16v-1.487h-2.822v-5.549h-1.631v7.036H148.939z M142.622,86.16v-1.487H139.8v-5.549h-1.631v7.036
		H142.622z M134.171,82.646c0,1.258-0.749,2.18-1.863,2.18s-1.863-0.922-1.863-2.18c0-1.267,0.749-2.18,1.863-2.18
		S134.171,81.38,134.171,82.646 M135.917,82.646c0-2.074-1.401-3.638-3.571-3.638c-2.179,0-3.637,1.564-3.637,3.638
		c0,2.065,1.391,3.628,3.57,3.628C134.449,86.274,135.917,84.712,135.917,82.646 M127.098,85.622l-0.489-1.382
		c-0.528,0.327-1.181,0.519-1.757,0.519c-1.315,0-2.131-0.807-2.131-2.113s0.816-2.113,2.131-2.113c0.576,0,1.162,0.183,1.68,0.471
		l0.499-1.382c-0.633-0.374-1.382-0.614-2.198-0.614c-2.295,0-3.849,1.545-3.849,3.638c0,2.084,1.554,3.628,3.849,3.628
		C125.639,86.274,126.484,86.025,127.098,85.622 M116.779,86.16v-1.487h-2.823v-5.549h-1.631v7.036H116.779z M107.852,83.635h-1.392
		l0.701-1.689L107.852,83.635z M110.598,86.16l-3.312-7.093h-0.221l-3.312,7.093h1.661l0.528-1.277h2.429l0.528,1.277H110.598z
		 M102.009,79.123h-1.631v7.036h1.631V79.123z M97.813,86.265v-7.142h-1.631v3.648l-4.186-3.782l-0.22,0.038v7.132h1.631v-3.676
		l4.243,3.81L97.813,86.265z M89.233,86.265v-7.142h-1.631v3.648l-4.186-3.782l-0.221,0.038v7.132h1.631v-3.676l4.244,3.81
		L89.233,86.265z M80.767,86.16v-1.487h-2.822v-1.374h2.573V81.88h-2.573V80.62h2.822v-1.497h-4.453v7.036H80.767z M74.411,80.62
		v-1.497h-5.854v1.497h2.112v5.539h1.63V80.62H74.411z M66.649,86.265v-7.142h-1.631v3.648l-4.186-3.782l-0.22,0.038v7.132h1.631
		v-3.676l4.243,3.81L66.649,86.265z M58.184,86.16v-1.487h-2.823v-1.374h2.573V81.88h-2.573V80.62h2.823v-1.497H53.73v7.036H58.184z
		 M51.696,85.622l-0.49-1.382c-0.528,0.327-1.18,0.519-1.756,0.519c-1.316,0-2.132-0.807-2.132-2.113s0.816-2.113,2.132-2.113
		c0.576,0,1.161,0.183,1.68,0.471l0.499-1.382c-0.634-0.374-1.383-0.614-2.199-0.614c-2.294,0-3.848,1.545-3.848,3.638
		c0,2.084,1.554,3.628,3.848,3.628C50.237,86.274,51.082,86.025,51.696,85.622"/>
</g>
<line fill="none" stroke="#35647E" stroke-width="0.75" stroke-linecap="round" stroke-miterlimit="10" x1="71.483" y1="30.001" x2="169.115" y2="30.001"/>
<polygon fill="#35647E" points="76.448,18.834 78.587,15.48 77.257,15.48 80.202,11.028 83.099,15.48 81.768,15.48 83.908,18.834
	82.521,18.834 84.718,22.246 81.191,22.246 81.191,23.75 79.281,23.75 79.281,22.246 75.581,22.246 77.836,18.834 "/>
<polygon fill="#35647E" points="156.362,19.325 158.828,15.459 157.294,15.459 160.686,10.438 164.028,15.459 162.494,15.459
	164.96,19.325 163.362,19.325 165.894,23.257 161.828,23.257 161.828,24.991 159.628,24.991 159.628,23.257 155.362,23.257
	157.962,19.325 "/>
<g>
	<path fill="#35647E" d="M138.238,11.217l-6.968,1.388l-4.579-2.776l-2.588,0.694l-4.281-2.197l-4.234,4.424l-2.066-1.893
		l-6.198,4.247l-2.94-1.016l-3.497,0.831l-4.689-1.754l-1.589,0.508l-2.9-1.708l-4.927,1.754l4.887-4.292l3.298,0.461l6,4.154
		l3.615-3.554l2.702,2.585l6.119-4.339l1.51,0.693l5.307-6.883l2.588,1.388c0,0,3.086-1.272,3.186-0.81
		c0.099,0.463,4.971,6.027,4.971,6.027l1.947-1.938l3.854-1.016l2.069,0.512l3.931,3.781l5.924,3.273L138.238,11.217z
		 M148.488,16.576l2.201-3.277l-7.197-4.048c0,0-3.374-3.469-3.589-3.816S136.96,4.51,136.96,4.51l-4.451,1.041l-1.579,1.734
		l-4.809-6.244c0,0-2.8,0.694-3.517,0.578C121.884,1.503,120.162,0,120.162,0l-5.384,7.516l-1.22-0.693l-6.317,4.625l-2.656-2.775
		l-3.733,3.7l-5.527-3.932l-3.733-0.809l-7.719,6.912l1.202,1.79h-1.375l2.139,3.354h-1.378l1.608,2.497l61.522-0.001l1.489-2.254
		h-1.357l2.14-3.354H148.488z"/>
</g>
<polygon fill="#35647E" points="154.693,20.184 156.195,17.828 154.851,15.722 156.199,15.723 153.301,11.297 150.34,15.722
	151.67,15.722 149.531,19.077 150.919,19.077 148.664,22.488 152.364,22.488 152.364,23.992 154.274,23.992 154.274,22.488
	154.945,22.488 156.402,20.184 "/>
</svg>
