<svg id="Layer_1" data-name="Layer 1" xmlns="http://www.w3.org/2000/svg" viewBox="0 0 172.65 124.49"><defs><style>.cls-1{fill:#fff;}.cls-2{fill:none;stroke:#fff;stroke-linecap:round;stroke-miterlimit:10;stroke-width:0.75px;}</style></defs><title>CONNPOST_STCKD_WHT</title><path class="cls-1" d="M156.23,126.32v-7.14H155v4.44L150.68,119l-.19,0v7.13h1.2V121.7l4.41,4.65Zm-9-3.62a2.29,2.29,0,1,1-2.27-2.56,2.35,2.35,0,0,1,2.27,2.56m1.29,0a3.48,3.48,0,0,0-3.52-3.64,3.53,3.53,0,0,0-3.59,3.64,3.47,3.47,0,0,0,3.52,3.63,3.53,3.53,0,0,0,3.59-3.63m-9.15-3.52h-1.2v7h1.2Zm-2.91,1.09v-1.09h-5.66v1.09H133v5.94h1.2v-5.94Zm-7.08,5.4-.36-1a4,4,0,0,1-1.92.56,2.51,2.51,0,0,1,0-5,4,4,0,0,1,1.87.54l.41-1a4.41,4.41,0,0,0-2.27-.64,3.64,3.64,0,1,0,0,7.27,4.4,4.4,0,0,0,2.29-.66m-7.77.55v-1.09h-3.09v-2h2.79v-1.06h-2.79v-1.83h3.09v-1.09h-4.29v7Zm-5.93,0v-1.09h-3.09v-5.94h-1.2v7Zm-5.93,0v-1.09h-3.09v-5.94h-1.2v7Zm-7.59-3.51a2.29,2.29,0,1,1-2.27-2.56,2.35,2.35,0,0,1,2.27,2.56m1.28,0a3.48,3.48,0,0,0-3.52-3.64,3.53,3.53,0,0,0-3.59,3.64,3.47,3.47,0,0,0,3.52,3.63,3.53,3.53,0,0,0,3.59-3.63m-8.43,3-.36-1a4,4,0,0,1-1.92.56,2.51,2.51,0,0,1,0-5,4,4,0,0,1,1.87.54l.41-1a4.41,4.41,0,0,0-2.27-.64,3.64,3.64,0,1,0,0,7.27,4.39,4.39,0,0,0,2.29-.66m-9.94.55v-1.09H81.94v-5.94h-1.2v7Zm-8.17-2.56h-2l1-2.35Zm2.34,2.56L76,119.08h-.17l-3.25,7.13h1.24l.68-1.61h2.78l.68,1.61Zm-8.21-7h-1.2v7H71Zm-3.54,7.14v-7.14h-1.2v4.44L61.91,119l-.19,0v7.13h1.2V121.7l4.41,4.65Zm-8.06,0v-7.14H58.2v4.44L53.85,119l-.19,0v7.13h1.2V121.7l4.41,4.65Zm-7.86-.11v-1.09H48.45v-2h2.79v-1.06H48.45v-1.83h3.09v-1.09H47.25v7Zm-6-5.94v-1.09H39.91v1.09h2.24v5.94h1.2v-5.94Zm-7.34,6v-7.14H37v4.44L32.68,119l-.19,0v7.13h1.2V121.7l4.41,4.65Zm-7.86-.11v-1.09H27.28v-2h2.79v-1.06H27.28v-1.83h3.09v-1.09H26.08v7Zm-6-.55-.37-1a4,4,0,0,1-1.92.56,2.51,2.51,0,0,1,0-5,4,4,0,0,1,1.87.54l.41-1a4.4,4.4,0,0,0-2.26-.64,3.64,3.64,0,1,0,0,7.27,4.4,4.4,0,0,0,2.29-.66" transform="translate(-1.4 -1.86)"/><path class="cls-1" d="M154.62,103.66H154c-1.69,0-2.43-1.09-2.43-3V80.89H148.9v20c0,3.28,1.55,5.08,5,5.08h.71Zm-8.72,0h-.64c-1.69,0-2.43-1.09-2.43-3V80.89h-2.65v20c0,3.28,1.55,5.08,5,5.08h.71ZM129.31,90.32c2.54,0,4.09,1.52,4.09,4.69v.88h-4.2c-5.43,0-7.34,2.54-7.34,5.19v.46c0,2.79,2.29,4.91,6,4.91a6.53,6.53,0,0,0,5.58-2.58V106H136V94.69c0-4-2.5-6.74-6.63-6.74a7.58,7.58,0,0,0-7,4.31l2.61.71a4.69,4.69,0,0,1,4.24-2.65m-1.09,13.76c-2.43,0-3.7-1.2-3.7-2.79v-.18c0-1.73,1.38-3.07,3.88-3.07h5v3.18a5.66,5.66,0,0,1-5.19,2.86m-19.41-4.83,6.71-12.18v19h2.79V81.32h-2.47l-8.19,14.86L99.46,81.32H97V106h2.79v-19l6.7,12.18ZM79.31,88.37v-5H76.66v5H73.94v2.37h2.72v10.2c0,3.28,1.52,5.08,5,5.08h2.4v-2.36H81.71c-1.69,0-2.4-1.09-2.4-3v-10h4.45V88.37ZM58.61,92.89C58.61,95.54,60,97.37,64,98l1.73.28c2.26.35,3.49,1.17,3.49,2.89s-1.38,2.86-3.71,2.86a4.67,4.67,0,0,1-4.73-3.46l-2.68.49c1,3.46,3.67,5.33,7.41,5.33,4,0,6.35-2.15,6.35-5.22,0-2.79-1.45-4.55-5.43-5.19l-1.73-.28c-2.26-.35-3.49-1.2-3.49-2.82s1.24-2.61,3.42-2.61a3.94,3.94,0,0,1,4.13,3l2.72-.46A6.7,6.7,0,0,0,64.65,88c-3.6,0-6,2-6,4.94m-6.08,5.65c0,3.49-2,5.54-4.66,5.54s-4.66-2-4.66-5.54V95.86c0-3.49,2-5.54,4.66-5.54s4.66,2,4.66,5.54Zm-12,.49a7.31,7.31,0,1,0,14.61,0V95.36a7.31,7.31,0,1,0-14.61,0ZM35.23,88.66c0,3.25-2.29,4.83-5.33,4.83H24.53V83.82H29.9c3,0,5.33,1.59,5.33,4.83M30.32,96C34.17,96,38,93.67,38,88.66s-3.85-7.34-7.69-7.34H21.75V106h2.79V96Z" transform="translate(-1.4 -1.86)"/><path class="cls-1" d="M169.28,55.38v-5h-2.65v5h-2.72v2.36h2.72v10.2c0,3.28,1.52,5.08,5,5.08H174V70.66h-2.36c-1.69,0-2.4-1.09-2.4-3v-10h4.45V55.38Zm-22.39,0v10.8c0,4.52,2.12,7.27,6,7.27a6.39,6.39,0,0,0,5.43-2.68V73H161V55.38h-2.65V67.9a5.25,5.25,0,0,1-4.69,3.18c-3,0-4.09-1.8-4.09-5.47V55.38ZM129.44,66a7.17,7.17,0,0,0,7.31,7.41,7,7,0,0,0,7-5.54l-2.65-.46a4.28,4.28,0,0,1-4.34,3.63c-2.65,0-4.66-2-4.66-5.54V62.86c0-3.49,2-5.54,4.66-5.54A4.28,4.28,0,0,1,141.09,61l2.65-.46a7,7,0,0,0-7-5.54,7.17,7.17,0,0,0-7.31,7.41ZM123,51.14h2.65V47.89H123ZM123,73h2.65V55.38H123Zm-8-17.64v-5h-2.65v5h-2.72v2.36h2.72v10.2c0,3.28,1.52,5.08,5,5.08h2.4V70.66h-2.36c-1.69,0-2.4-1.09-2.4-3v-10h4.45V55.38ZM93.3,66a7.17,7.17,0,0,0,7.31,7.41,7,7,0,0,0,7-5.54l-2.65-.46a4.28,4.28,0,0,1-4.34,3.63c-2.65,0-4.66-2-4.66-5.54V62.86c0-3.49,2-5.54,4.66-5.54A4.28,4.28,0,0,1,104.95,61l2.65-.46a7,7,0,0,0-7-5.54,7.17,7.17,0,0,0-7.31,7.41ZM78.22,62.86c0-3.49,2-5.54,4.66-5.54s4.66,2,4.66,5.54V63H78.22Zm4.66,10.59a6.9,6.9,0,0,0,7-4.94l-2.72-.42a4.17,4.17,0,0,1-4.24,3c-2.65,0-4.66-2-4.66-5.54v-.35h12V62.36a7.31,7.31,0,1,0-14.61,0V66a7.17,7.17,0,0,0,7.31,7.41M72.09,73V62.22c0-4.52-2.12-7.27-6-7.27a6.39,6.39,0,0,0-5.43,2.68V55.38H58V73h2.65V60.49a5.25,5.25,0,0,1,4.69-3.18c3,0,4.09,1.8,4.09,5.47V73ZM54,73V62.22C54,57.7,51.86,55,48,55a6.39,6.39,0,0,0-5.44,2.68V55.38H39.89V73h2.65V60.49a5.25,5.25,0,0,1,4.69-3.18c3,0,4.09,1.8,4.09,5.47V73ZM33.65,65.54c0,3.49-2,5.54-4.66,5.54s-4.66-2-4.66-5.54V62.86c0-3.49,2-5.54,4.66-5.54s4.66,2,4.66,5.54Zm-12,.49A7.31,7.31,0,1,0,36.3,66V62.36a7.31,7.31,0,1,0-14.61,0ZM10,50.4c3,0,5.15,1.94,5.79,5.61l2.75-.46c-.67-4.66-3.88-7.66-8.54-7.66-5.26,0-8.61,4-8.61,9.74V63.7c0,5.75,3.35,9.74,8.61,9.74,4.66,0,7.87-3,8.54-7.62l-2.75-.46C15.16,69,13,70.94,10,70.94c-3.53,0-5.82-2.82-5.82-7.66V58.06c0-4.83,2.29-7.66,5.82-7.66" transform="translate(-1.4 -1.86)"/><path class="cls-1" d="M86.22,22.59l-.38,8.29h3l-.37-8.06c-.89-.36-1.44-.65-1.44-.65s-.28.18-.78.42" transform="translate(-1.4 -1.86)"/><path class="cls-1" d="M94.38,6.31C92.81.42,81.2.16,78.07,6.82c-10.5,4.1-4.91,15.87-1.12,16.89a13.67,13.67,0,0,0,9.26-1.11l.19-4.12L76.32,15.06v-.41l10.13,2.05.14-3.29h1.48l.14,3.29L97.59,15v.41l-9.34,3,.2,4.35c2.79,1.12,8.93,2.89,12-1.67,6.18-9.3-2.9-13.31-6-14.84" transform="translate(-1.4 -1.86)"/><path class="cls-1" d="M112,24.77l-.26,6.14h2.08l-.26-6.23c-.45-.15-.73-.28-.73-.28a8.68,8.68,0,0,1-.84.38" transform="translate(-1.4 -1.86)"/><path class="cls-1" d="M117.18,15.52C116,11.75,104,14.41,104.93,18.15c-3.14,2.93-2.26,6.57.53,7.23a11.24,11.24,0,0,0,6.54-.61l.14-3.39-3.37-2.08V19l3.4,1,.1-2.53h1l.1,2.53,4.09-.23v.32l-4.06,1.28.14,3.3c1.53.52,5.16,1.33,7.45-1.57,4.48-5.69-1.55-6.61-3.84-7.59" transform="translate(-1.4 -1.86)"/><path class="cls-1" d="M69.77,18.15c.91-3.74-11.1-6.4-12.24-2.63-2.3,1-8.33,1.9-3.85,7.59,2.31,2.93,6,2.07,7.5,1.55l.09-1.87-3.06-1.94v-.27l3.09,1.05.1-2.15h1l.1,2.15,3.4-.88V21l-3.37,1.77.1,2a11.25,11.25,0,0,0,6.59.63c2.79-.66,3.67-4.3.53-7.23" transform="translate(-1.4 -1.86)"/><path class="cls-1" d="M61.18,24.66l-.31,6.25H63l-.3-6.15c-.5-.2-.79-.36-.79-.36s-.26.12-.68.26" transform="translate(-1.4 -1.86)"/><line class="cls-2" x1="27.45" y1="35.44" x2="144.45" y2="35.44"/></svg>