<?xml version="1.0" encoding="utf-8"?>
<!-- Generator: Adobe Illustrator 21.1.0, SVG Export Plug-In . SVG Version: 6.00 Build 0)  -->
<svg version="1.1" id="Layer_1" xmlns="http://www.w3.org/2000/svg" xmlns:xlink="http://www.w3.org/1999/xlink" x="0px" y="0px"
	 viewBox="0 0 337.071 91.453" enable-background="new 0 0 337.071 91.453" xml:space="preserve">
   <title>Connecticut Post Mall logo</title>
<g>
	<path fill="#42683C" d="M334.248,45.995h-3.6v19.762c0,3.529,1.871,5.365,5.682,5.365h0.741v-3.247h-0.706
		c-1.411,0-2.117-0.918-2.117-2.47V45.995z M324.233,45.995h-3.6v19.762c0,3.529,1.871,5.365,5.682,5.365h0.741v-3.247h-0.706
		c-1.411,0-2.117-0.918-2.117-2.47V45.995z M308.053,68.298c-2.117,0-3.035-0.952-3.035-2.117v-0.176
		c0-1.412,1.27-2.365,2.859-2.365h4.517v2.435C311.653,67.416,309.959,68.298,308.053,68.298 M301.418,66.534
		c0,2.788,2.259,5.011,6,5.011c2.258,0,3.952-0.882,4.976-2.259v1.836h3.599V59.758c0-3.952-2.576-6.705-6.846-6.705
		c-3.317,0-5.858,1.8-7.199,4.552l3.564,0.989c0.706-1.412,1.835-2.294,3.494-2.294c2.082,0,3.388,1.376,3.388,3.988v0.458h-3.423
		c-5.576,0-7.553,2.576-7.553,5.259V66.534z M284.772,64.628h3.176l5.541-10.199v16.693h3.811V46.419h-3.282l-7.658,14.045
		l-7.658-14.045h-3.281v24.703h3.811V54.429L284.772,64.628z M256.717,56.723h4.235v-3.246h-4.235v-5.012h-3.599v5.012h-2.506v3.246
		h2.506v9.034c0,3.529,1.87,5.365,5.681,5.365h2.506v-3.247h-2.47c-1.412,0-2.118-0.918-2.118-2.47V56.723z M248.495,66.11
		c0-2.788-1.27-4.587-5.646-5.328l-1.659-0.283c-1.694-0.282-2.753-0.953-2.753-2.188c0-1.164,1.059-2.011,2.718-2.011
		c1.694,0,3.035,0.988,3.352,2.505l3.67-0.635c-0.917-3.211-3.564-5.117-7.058-5.117c-3.917,0-6.281,2.188-6.281,5.188
		c0,2.823,1.8,4.587,5.787,5.223l1.588,0.247c1.906,0.282,2.682,1.129,2.682,2.399c0,1.271-1.094,2.188-2.929,2.188
		c-1.905,0-3.317-0.917-3.952-2.964l-3.67,0.635c0.953,3.565,3.776,5.576,7.693,5.576C246.025,71.545,248.495,69.251,248.495,66.11
		 M220.263,61.064c0-3.211,1.835-4.764,3.918-4.764c2.082,0,3.917,1.553,3.917,4.764v2.47c0,3.212-1.835,4.764-3.917,4.764
		c-2.083,0-3.918-1.552-3.918-4.764V61.064z M216.664,64.24c0,3.882,3.141,7.305,7.517,7.305c4.375,0,7.516-3.423,7.516-7.305
		v-3.882c0-3.882-3.141-7.305-7.516-7.305c-4.376,0-7.517,3.423-7.517,7.305V64.24z M201.842,58.1v-8.258h4.482
		c2.647,0,4.588,1.376,4.588,4.129c0,2.717-1.941,4.129-4.588,4.129H201.842z M206.853,61.523c3.812,0,7.87-2.4,7.87-7.552
		c0-5.117-4.058-7.552-7.87-7.552h-8.822v24.703h3.811v-9.599H206.853z M179.328,56.723h4.234v-3.246h-4.234v-5.012h-3.6v5.012
		h-2.506v3.246h2.506v9.034c0,3.529,1.87,5.365,5.682,5.365h2.505v-3.247h-2.47c-1.412,0-2.117-0.918-2.117-2.47V56.723z
		 M155.094,64.24c0,4.482,2.117,7.305,6.07,7.305c2.223,0,4.129-1.129,5.011-2.611v2.188h3.6V53.477h-3.6v12.245
		c-0.67,1.588-2.329,2.576-3.811,2.576c-2.824,0-3.67-1.694-3.67-4.764V53.477h-3.6V64.24z M136.814,64.24
		c0,3.882,3.141,7.305,7.517,7.305c3.705,0,6.317-2.506,7.128-5.611l-3.635-0.6c-0.458,1.976-1.87,2.964-3.493,2.964
		c-2.082,0-3.918-1.552-3.918-4.764v-2.47c0-3.211,1.836-4.764,3.918-4.764c1.623,0,3.035,0.988,3.493,2.964l3.635-0.6
		c-0.811-3.105-3.423-5.611-7.128-5.611c-4.376,0-7.517,3.423-7.517,7.305V64.24z M128.881,49.877h3.6v-3.882h-3.6V49.877z
		 M128.881,71.122h3.6V53.477h-3.6V71.122z M120.525,56.723h4.234v-3.246h-4.234v-5.012h-3.6v5.012h-2.506v3.246h2.506v9.034
		c0,3.529,1.87,5.365,5.682,5.365h2.505v-3.247h-2.47c-1.412,0-2.117-0.918-2.117-2.47V56.723z M97.06,64.24
		c0,3.882,3.141,7.305,7.517,7.305c3.706,0,6.317-2.506,7.129-5.611l-3.635-0.6c-0.459,1.976-1.87,2.964-3.494,2.964
		c-2.082,0-3.917-1.552-3.917-4.764v-2.47c0-3.211,1.835-4.764,3.917-4.764c1.624,0,3.035,0.988,3.494,2.964l3.635-0.6
		c-0.812-3.105-3.423-5.611-7.129-5.611c-4.376,0-7.517,3.423-7.517,7.305V64.24z M85.927,56.3c2.011,0,3.776,1.447,3.917,4.446
		H82.01C82.115,57.747,83.915,56.3,85.927,56.3 M93.443,63.64v-3.282c0-3.882-3.14-7.305-7.516-7.305s-7.517,3.423-7.517,7.305
		v3.882c0,3.847,2.964,7.305,7.623,7.305c3.634,0,6.105-1.976,7.058-4.941l-3.671-0.599c-0.494,1.552-1.729,2.293-3.387,2.293
		c-2.294,0-3.988-1.517-4.023-4.658H93.443z M59.706,71.122h3.6V58.876c0.67-1.588,2.329-2.576,3.811-2.576
		c2.823,0,3.67,1.694,3.67,4.764v10.058h3.6V60.358c0-4.482-2.117-7.305-6.07-7.305c-2.223,0-4.129,1.129-5.011,2.612v-2.188h-3.6
		V71.122z M40.466,71.122h3.6V58.876c0.67-1.588,2.329-2.576,3.811-2.576c2.823,0,3.67,1.694,3.67,4.764v10.058h3.6V60.358
		c0-4.482-2.117-7.305-6.07-7.305c-2.223,0-4.129,1.129-5.011,2.612v-2.188h-3.6V71.122z M24.897,61.064
		c0-3.211,1.835-4.764,3.917-4.764s3.917,1.553,3.917,4.764v2.47c0,3.212-1.835,4.764-3.917,4.764s-3.917-1.552-3.917-4.764V61.064z
		 M21.297,64.24c0,3.882,3.141,7.305,7.517,7.305s7.517-3.423,7.517-7.305v-3.882c0-3.882-3.141-7.305-7.517-7.305
		s-7.517,3.423-7.517,7.305V64.24z M0,61.805c0,5.717,3.529,9.74,8.893,9.74c4.729,0,8.117-3.141,8.787-7.799l-3.776-0.635
		c-0.6,3.317-2.399,5.011-5.011,5.011c-3.141,0-5.082-2.506-5.082-6.952v-4.8c0-4.446,1.941-6.952,5.082-6.952
		c2.612,0,4.411,1.694,5.011,5.011l3.776-0.635c-0.67-4.658-4.058-7.799-8.787-7.799C3.529,45.995,0,50.018,0,55.735V61.805z"/>
	<path fill="#646569" d="M241.279,91.425v-7.142h-1.631v3.648l-4.186-3.782l-0.22,0.038v7.132h1.63v-3.676l4.244,3.81
		L241.279,91.425z M231.243,87.806c0,1.258-0.749,2.18-1.863,2.18s-1.863-0.922-1.863-2.18c0-1.267,0.749-2.18,1.863-2.18
		S231.243,86.539,231.243,87.806 M232.989,87.806c0-2.074-1.4-3.638-3.57-3.638c-2.18,0-3.638,1.564-3.638,3.638
		c0,2.065,1.391,3.628,3.57,3.628C231.521,91.434,232.989,89.871,232.989,87.806 M223.527,84.283h-1.631v7.036h1.631V84.283z
		 M219.968,85.78v-1.497h-5.855v1.497h2.112v5.539h1.631V85.78H219.968z M212.482,90.782l-0.49-1.382
		c-0.528,0.327-1.181,0.519-1.757,0.519c-1.315,0-2.131-0.807-2.131-2.113s0.816-2.113,2.131-2.113c0.576,0,1.162,0.183,1.68,0.471
		l0.5-1.382c-0.634-0.374-1.383-0.614-2.199-0.614c-2.294,0-3.848,1.545-3.848,3.638c0,2.084,1.554,3.628,3.848,3.628
		C211.023,91.434,211.867,91.185,212.482,90.782 M204.345,91.319v-1.487h-2.822v-1.374h2.572v-1.419h-2.572V85.78h2.822v-1.497
		h-4.453v7.036H204.345z M198.028,91.319v-1.487h-2.822v-5.549h-1.631v7.036H198.028z M191.711,91.319v-1.487h-2.822v-5.549h-1.631
		v7.036H191.711z M183.26,87.806c0,1.258-0.749,2.18-1.863,2.18s-1.863-0.922-1.863-2.18c0-1.267,0.749-2.18,1.863-2.18
		S183.26,86.539,183.26,87.806 M185.006,87.806c0-2.074-1.401-3.638-3.571-3.638c-2.179,0-3.638,1.564-3.638,3.638
		c0,2.065,1.392,3.628,3.571,3.628C183.538,91.434,185.006,89.871,185.006,87.806 M176.187,90.782l-0.489-1.382
		c-0.528,0.327-1.181,0.519-1.757,0.519c-1.315,0-2.131-0.807-2.131-2.113s0.816-2.113,2.131-2.113c0.576,0,1.162,0.183,1.68,0.471
		l0.499-1.382c-0.633-0.374-1.382-0.614-2.198-0.614c-2.295,0-3.849,1.545-3.849,3.638c0,2.084,1.554,3.628,3.849,3.628
		C174.728,91.434,175.573,91.185,176.187,90.782 M165.868,91.319v-1.487h-2.823v-5.549h-1.631v7.036H165.868z M156.941,88.795
		h-1.392l0.701-1.689L156.941,88.795z M159.687,91.319l-3.312-7.093h-0.221l-3.312,7.093h1.661l0.528-1.277h2.429l0.528,1.277
		H159.687z M151.098,84.283h-1.631v7.036h1.631V84.283z M146.902,91.425v-7.142h-1.631v3.648l-4.186-3.782l-0.22,0.038v7.132h1.631
		v-3.676l4.243,3.81L146.902,91.425z M138.322,91.425v-7.142h-1.631v3.648l-4.186-3.782l-0.221,0.038v7.132h1.631v-3.676l4.244,3.81
		L138.322,91.425z M129.856,91.319v-1.487h-2.822v-1.374h2.573v-1.419h-2.573V85.78h2.822v-1.497h-4.453v7.036H129.856z
		 M123.5,85.78v-1.497h-5.854v1.497h2.112v5.539h1.63V85.78H123.5z M115.738,91.425v-7.142h-1.631v3.648l-4.186-3.782l-0.22,0.038
		v7.132h1.631v-3.676l4.243,3.81L115.738,91.425z M107.273,91.319v-1.487h-2.823v-1.374h2.573v-1.419h-2.573V85.78h2.823v-1.497
		h-4.454v7.036H107.273z M100.785,90.782l-0.49-1.382c-0.528,0.327-1.18,0.519-1.756,0.519c-1.316,0-2.132-0.807-2.132-2.113
		s0.816-2.113,2.132-2.113c0.576,0,1.161,0.183,1.68,0.471l0.499-1.382c-0.634-0.374-1.383-0.614-2.199-0.614
		c-2.294,0-3.848,1.545-3.848,3.638c0,2.084,1.554,3.628,3.848,3.628C99.326,91.434,100.171,91.185,100.785,90.782"/>
	<path fill="#42683C" d="M166.965,20.735l-0.378,8.29h2.969l-0.367-8.062c-0.888-0.357-1.439-0.648-1.439-0.648
		S167.465,20.491,166.965,20.735"/>
	<path fill="#42683C" d="M175.12,4.447c-1.563-5.886-13.176-6.142-16.302,0.512c-10.496,4.095-4.913,15.868-1.117,16.891
		c4.008,1.081,7.704-0.354,9.264-1.115l0.188-4.119l-10.09-3.41v-0.411l10.128,2.054l0.139-3.291h1.484l0.139,3.291l9.38-1.679
		v0.411l-9.342,3.035l0.198,4.347c2.788,1.121,8.927,2.891,11.961-1.672C187.33,9.994,178.246,5.983,175.12,4.447"/>
	<path fill="#42683C" d="M192.747,22.913l-0.255,6.137h2.081l-0.26-6.232c-0.449-0.153-0.728-0.281-0.728-0.281
		S193.275,22.704,192.747,22.913"/>
	<path fill="#42683C" d="M197.92,13.66c-1.148-3.771-13.154-1.113-12.243,2.631c-3.137,2.934-2.259,6.574,0.529,7.23
		c2.74,0.645,5.278-0.107,6.541-0.608l0.141-3.391l-3.373-2.08v-0.315l3.4,1.038l0.097-2.527h1.04l0.097,2.527l4.091-0.234v0.315
		l-4.064,1.276l0.137,3.296c1.533,0.519,5.164,1.334,7.452-1.569C206.249,15.561,200.216,14.644,197.92,13.66"/>
	<path fill="#42683C" d="M150.512,16.291c0.911-3.744-11.095-6.402-12.243-2.631c-2.296,0.984-8.329,1.901-3.845,7.589
		c2.312,2.933,5.993,2.072,7.498,1.553l0.091-1.875l-3.064-1.94v-0.268l3.091,1.051l0.097-2.154h1.04l0.097,2.154l3.4-0.884v0.269
		l-3.373,1.772l0.096,1.968c1.246,0.5,3.812,1.279,6.586,0.626C152.771,22.865,153.649,19.225,150.512,16.291"/>
	<path fill="#42683C" d="M141.922,22.803l-0.305,6.248h2.081l-0.3-6.155c-0.5-0.201-0.794-0.358-0.794-0.358
		S142.344,22.658,141.922,22.803"/>
</g>
<line fill="none" stroke="#42683C" stroke-width="0.75" stroke-linecap="round" stroke-miterlimit="10" x1="109.594" y1="35.442" x2="226.594" y2="35.442"/>
</svg>
