<?xml version="1.0" encoding="utf-8"?>
<!-- Generator: Adobe Illustrator 21.1.0, SVG Export Plug-In . SVG Version: 6.00 Build 0)  -->
<svg version="1.1" id="Layer_1" xmlns="http://www.w3.org/2000/svg" xmlns:xlink="http://www.w3.org/1999/xlink" x="0px" y="0px"
	 viewBox="0 0 229.434 90.733" enable-background="new 0 0 229.434 90.733" xml:space="preserve">
   <title>Fox Valley Mall logo</title>
<g>
	<g>
		<path fill="#B83D24" d="M226.611,45.275h-3.6v19.762c0,3.529,1.871,5.364,5.682,5.364h0.741v-3.247h-0.706
			c-1.411,0-2.117-0.917-2.117-2.47V45.275z M216.596,45.275h-3.6v19.762c0,3.529,1.871,5.364,5.682,5.364h0.741v-3.247h-0.706
			c-1.411,0-2.117-0.917-2.117-2.47V45.275z M200.416,67.578c-2.118,0-3.035-0.953-3.035-2.118v-0.176
			c0-1.412,1.27-2.364,2.858-2.364h4.517v2.435C204.015,66.696,202.321,67.578,200.416,67.578 M193.781,65.813
			c0,2.788,2.259,5.011,6,5.011c2.258,0,3.952-0.882,4.975-2.258v1.835h3.6V59.038c0-3.953-2.576-6.705-6.846-6.705
			c-3.318,0-5.858,1.799-7.199,4.552l3.564,0.988c0.706-1.412,1.835-2.294,3.494-2.294c2.082,0,3.387,1.377,3.387,3.988v0.459
			h-3.423c-5.576,0-7.552,2.576-7.552,5.258V65.813z M177.135,63.908h3.176l5.541-10.199v16.692h3.811V45.698h-3.282l-7.658,14.045
			l-7.658-14.045h-3.282v24.703h3.812V53.709L177.135,63.908z M143.398,72.695c-0.564,1.517-1.305,1.906-2.47,1.906h-1.2v3.246
			h1.376c2.753,0,4.306-0.635,5.541-3.988l7.729-21.103h-3.882l-4.341,12.175l-4.729-12.175h-3.882l6.917,16.904L143.398,72.695z
			 M128.026,55.579c2.012,0,3.776,1.447,3.918,4.447h-7.835C124.215,57.026,126.015,55.579,128.026,55.579 M135.543,62.92v-3.282
			c0-3.882-3.141-7.305-7.517-7.305c-4.376,0-7.516,3.423-7.516,7.305v3.881c0,3.847,2.964,7.305,7.622,7.305
			c3.635,0,6.105-1.976,7.058-4.94l-3.67-0.6c-0.494,1.553-1.729,2.294-3.388,2.294c-2.294,0-3.988-1.518-4.023-4.658H135.543z
			 M114.772,45.275h-3.6v19.762c0,3.529,1.87,5.364,5.682,5.364h0.741v-3.247h-0.706c-1.412,0-2.117-0.917-2.117-2.47V45.275z
			 M104.757,45.275h-3.6v19.762c0,3.529,1.87,5.364,5.682,5.364h0.741v-3.247h-0.706c-1.412,0-2.117-0.917-2.117-2.47V45.275z
			 M88.577,67.578c-2.118,0-3.035-0.953-3.035-2.118v-0.176c0-1.412,1.27-2.364,2.858-2.364h4.517v2.435
			C92.176,66.696,90.482,67.578,88.577,67.578 M81.942,65.813c0,2.788,2.259,5.011,5.999,5.011c2.259,0,3.953-0.882,4.976-2.258
			v1.835h3.6V59.038c0-3.953-2.576-6.705-6.846-6.705c-3.318,0-5.859,1.799-7.2,4.552l3.565,0.988
			c0.706-1.412,1.835-2.294,3.493-2.294c2.083,0,3.388,1.377,3.388,3.988v0.459h-3.423c-5.576,0-7.552,2.576-7.552,5.258V65.813z
			 M71.285,64.296l-5.788-18.598h-4.164l8.046,24.703h3.811l8.046-24.703h-4.164L71.285,64.296z M45.947,70.401h4.094l-5.717-9.07
			l5.364-8.575h-4.094l-3.529,5.682l-3.529-5.682h-4.093l5.364,8.575l-5.717,9.07h4.093l3.882-6.176L45.947,70.401z M20.186,60.343
			c0-3.211,1.835-4.764,3.917-4.764s3.917,1.553,3.917,4.764v2.471c0,3.211-1.835,4.764-3.917,4.764s-3.917-1.553-3.917-4.764
			V60.343z M16.586,63.519c0,3.882,3.141,7.305,7.517,7.305s7.517-3.423,7.517-7.305v-3.881c0-3.882-3.141-7.305-7.517-7.305
			s-7.517,3.423-7.517,7.305V63.519z M0,70.401h3.811V59.779h10.27v-3.423H3.811v-7.235h11.364v-3.423H0V70.401z"/>
		<path fill="#646569" d="M187.107,90.705v-7.142h-1.631v3.648l-4.186-3.782l-0.22,0.038v7.132h1.63v-3.676l4.244,3.81
			L187.107,90.705z M177.071,87.086c0,1.258-0.749,2.18-1.863,2.18s-1.863-0.922-1.863-2.18c0-1.267,0.749-2.18,1.863-2.18
			S177.071,85.819,177.071,87.086 M178.817,87.086c0-2.074-1.4-3.638-3.57-3.638c-2.18,0-3.638,1.564-3.638,3.638
			c0,2.065,1.391,3.628,3.57,3.628C177.349,90.714,178.817,89.151,178.817,87.086 M169.355,83.563h-1.631v7.036h1.631V83.563z
			 M165.796,85.06v-1.497h-5.855v1.497h2.112v5.539h1.631V85.06H165.796z M158.31,90.062l-0.49-1.382
			c-0.528,0.327-1.181,0.519-1.757,0.519c-1.315,0-2.131-0.807-2.131-2.113s0.816-2.113,2.131-2.113c0.576,0,1.162,0.183,1.68,0.471
			l0.5-1.382c-0.634-0.374-1.383-0.614-2.199-0.614c-2.294,0-3.848,1.545-3.848,3.638c0,2.084,1.554,3.628,3.848,3.628
			C156.851,90.714,157.695,90.465,158.31,90.062 M150.173,90.599v-1.487h-2.822v-1.374h2.572v-1.419h-2.572V85.06h2.822v-1.497
			h-4.453v7.036H150.173z M143.856,90.599v-1.487h-2.822v-5.549h-1.631v7.036H143.856z M137.539,90.599v-1.487h-2.822v-5.549h-1.631
			v7.036H137.539z M129.088,87.086c0,1.258-0.749,2.18-1.863,2.18c-1.114,0-1.863-0.922-1.863-2.18c0-1.267,0.749-2.18,1.863-2.18
			C128.339,84.906,129.088,85.819,129.088,87.086 M130.834,87.086c0-2.074-1.401-3.638-3.571-3.638
			c-2.179,0-3.637,1.564-3.637,3.638c0,2.065,1.391,3.628,3.57,3.628C129.366,90.714,130.834,89.151,130.834,87.086 M122.015,90.062
			l-0.489-1.382c-0.528,0.327-1.181,0.519-1.757,0.519c-1.315,0-2.131-0.807-2.131-2.113s0.816-2.113,2.131-2.113
			c0.576,0,1.162,0.183,1.68,0.471l0.499-1.382c-0.633-0.374-1.382-0.614-2.198-0.614c-2.295,0-3.849,1.545-3.849,3.638
			c0,2.084,1.554,3.628,3.849,3.628C120.556,90.714,121.401,90.465,122.015,90.062 M111.696,90.599v-1.487h-2.823v-5.549h-1.631
			v7.036H111.696z M102.769,88.075h-1.392l0.701-1.689L102.769,88.075z M105.515,90.599l-3.312-7.093h-0.221l-3.312,7.093h1.661
			l0.528-1.277h2.429l0.528,1.277H105.515z M96.926,83.563h-1.631v7.036h1.631V83.563z M92.73,90.705v-7.142h-1.631v3.648
			l-4.186-3.782l-0.22,0.038v7.132h1.631v-3.676l4.243,3.81L92.73,90.705z M84.15,90.705v-7.142h-1.631v3.648l-4.186-3.782
			l-0.221,0.038v7.132h1.631v-3.676l4.244,3.81L84.15,90.705z M75.684,90.599v-1.487h-2.822v-1.374h2.573v-1.419h-2.573V85.06h2.822
			v-1.497h-4.453v7.036H75.684z M69.328,85.06v-1.497h-5.854v1.497h2.112v5.539h1.63V85.06H69.328z M61.566,90.705v-7.142h-1.631
			v3.648l-4.186-3.782l-0.22,0.038v7.132h1.631v-3.676l4.243,3.81L61.566,90.705z M53.101,90.599v-1.487h-2.823v-1.374h2.573v-1.419
			h-2.573V85.06h2.823v-1.497h-4.454v7.036H53.101z M46.613,90.062l-0.49-1.382c-0.528,0.327-1.18,0.519-1.756,0.519
			c-1.316,0-2.132-0.807-2.132-2.113s0.816-2.113,2.132-2.113c0.576,0,1.161,0.183,1.68,0.471l0.499-1.382
			c-0.634-0.374-1.383-0.614-2.199-0.614c-2.294,0-3.848,1.545-3.848,3.638c0,2.084,1.554,3.628,3.848,3.628
			C45.154,90.714,45.999,90.465,46.613,90.062"/>
	</g>

		<line fill="none" stroke="#B83D24" stroke-width="0.75" stroke-linecap="round" stroke-miterlimit="10" x1="65.107" y1="33.667" x2="162.739" y2="33.667"/>
	<g>
		<path fill="#B83D24" d="M98.631,16.474c4.565,1.841,13.654,5.366,14.181,5.51c0.527,0.143,1.579,0.12,2.609-0.264
			c3.768-1.403,12.511-5.353,12.511-5.353l12.972,8.567H86.923L98.631,16.474z"/>
		<path fill="#B83D24" d="M121.858,9.555c-0.035,0.01-0.07,0.021-0.104,0.031c-0.035,0.011-0.068,0.02-0.101,0.031
			c-0.036,0.01-0.072,0.022-0.108,0.033c-0.032,0.01-0.065,0.02-0.098,0.03c-0.033,0.011-0.067,0.022-0.101,0.033
			c-0.034,0.011-0.069,0.022-0.104,0.034c-0.033,0.011-0.066,0.023-0.099,0.034c-0.035,0.013-0.071,0.025-0.105,0.037
			c-0.034,0.012-0.069,0.026-0.101,0.038c-0.035,0.013-0.07,0.026-0.104,0.039c-0.037,0.014-0.074,0.03-0.111,0.045
			c-0.032,0.013-0.063,0.026-0.093,0.039c-0.069,0.029-0.137,0.06-0.206,0.092c-1.599,0.761-3.203,2.445-4.431,3.728
			c-0.013,0.014-0.026,0.029-0.039,0.046c-0.003,0.002-0.005,0.005-0.007,0.008c-0.335,0.43-0.531,2.103-1.242,2.457
			c0,0-0.006,0.003-0.009,0.005c-0.03,0.014-0.061,0.027-0.092,0.039h-0.001c-0.014,0.006-0.029,0.011-0.044,0.015l-0.005,0.002
			c-0.009,0.003-0.019,0.006-0.029,0.008c0,0-0.014,0.004-0.02,0.006c-0.011,0.003-0.021,0.005-0.032,0.007
			c-0.007,0.002-0.014,0.004-0.02,0.005c-0.011,0.002-0.022,0.004-0.033,0.006c-0.007,0.001-0.013,0.002-0.013,0.002
			c-0.019,0.003-0.03,0.004-0.042,0.006c0,0-0.013,0.001-0.021,0.002c-0.01,0.001-0.021,0.002-0.031,0.002
			c-0.009,0.001-0.016,0.002-0.016,0.002c-0.022,0.001-0.035,0.001-0.049,0.002h-0.018c-0.014,0-0.031,0-0.046-0.001h-0.008
			c-0.017-0.001-0.03-0.002-0.042-0.003c-0.009,0-0.017-0.001-0.017-0.001c-0.02-0.002-0.032-0.003-0.045-0.005
			c-0.009,0-0.017-0.001-0.026-0.002c-0.012-0.002-0.026-0.004-0.039-0.006c0,0-0.017-0.003-0.026-0.004
			c-0.016-0.003-0.033-0.007-0.05-0.01c-0.005-0.001-0.011-0.002-0.017-0.003c0,0-0.01,0.002-0.016,0.003
			c-0.016,0.003-0.034,0.007-0.05,0.01c-0.009,0.001-0.017,0.002-0.026,0.004c-0.013,0.002-0.026,0.004-0.038,0.006
			c-0.01,0.001-0.019,0.002-0.027,0.002c-0.013,0.002-0.025,0.003-0.038,0.005c0,0-0.015,0.001-0.023,0.001
			c-0.012,0.001-0.025,0.002-0.037,0.003h-0.014c-0.015,0.001-0.031,0.001-0.047,0.001h-0.017c-0.013-0.001-0.027-0.001-0.04-0.002
			c-0.009,0-0.016-0.001-0.024-0.002c-0.011,0-0.022-0.001-0.033-0.002c-0.007-0.001-0.014-0.002-0.02-0.002
			c-0.012-0.002-0.023-0.003-0.035-0.005c-0.006-0.001-0.013-0.002-0.013-0.002c-0.018-0.003-0.029-0.005-0.039-0.007
			c-0.008-0.001-0.014-0.003-0.021-0.005c-0.011-0.002-0.021-0.004-0.031-0.007c0,0-0.014-0.004-0.021-0.006
			c-0.01-0.002-0.02-0.005-0.029-0.008l-0.003-0.001c-0.017-0.005-0.032-0.01-0.046-0.016h-0.001
			c-0.031-0.012-0.062-0.025-0.091-0.039l-0.011-0.005c-0.71-0.354-0.905-2.027-1.241-2.457c0,0-0.004-0.006-0.006-0.008
			c-0.013-0.017-0.027-0.032-0.04-0.046c-1.228-1.283-2.831-2.967-4.431-3.728c-0.068-0.032-0.136-0.063-0.205-0.092
			c-0.031-0.013-0.062-0.026-0.094-0.039c-0.036-0.015-0.073-0.031-0.111-0.045c-0.034-0.013-0.068-0.026-0.103-0.039
			c-0.033-0.012-0.068-0.026-0.101-0.038c-0.035-0.012-0.071-0.024-0.106-0.037c-0.033-0.011-0.066-0.023-0.099-0.034
			c-0.034-0.012-0.069-0.023-0.104-0.034c-0.034-0.011-0.067-0.022-0.101-0.033c-0.033-0.01-0.065-0.02-0.098-0.03
			c-0.036-0.011-0.072-0.023-0.107-0.033c-0.034-0.011-0.067-0.02-0.101-0.031c-0.035-0.01-0.069-0.021-0.105-0.031
			c-0.065-0.019-0.132-0.039-0.2-0.059c0.446-0.467,1.11-0.643,1.689-0.643c1.372-0.1,2.92,0.251,3.846,1.339l-0.001-0.002
			c0.539,0.726,0.991,1.527,1.349,2.372c0.011,0.027,0.023,0.055,0.034,0.083c0.015,0.037,0.031,0.075,0.047,0.112
			c0.052,0.131,0.102,0.263,0.151,0.396c0.163,0.447-0.026,1.075,0.11,1.469l0.064-0.026c0.665-0.387,0.714-0.413,0.894-0.412
			c0.181,0.002,0.628,0.249,0.886,0.416l0.03,0.017c0.175-0.433-0.087-1.017,0.076-1.464c0.048-0.133,0.098-0.265,0.151-0.396
			c0.015-0.037,0.031-0.075,0.047-0.112c0.012-0.028,0.022-0.056,0.034-0.083c0.357-0.845,0.81-1.646,1.348-2.372l-0.001,0.001
			c0.926-1.087,2.474-1.438,3.846-1.338c0.579,0,1.244,0.176,1.689,0.643C121.991,9.516,121.925,9.536,121.858,9.555 M107.029,3.23
			c-0.013-0.052-0.018-0.035-0.027-0.077c-0.13-0.586-0.611-1.972-0.129-2.278c0.328-0.21,0.914,0.069,1.689,0.581
			c-0.326,0.091-0.673,0.483-0.848,0.673C107.333,2.542,107.204,2.719,107.029,3.23 M120.952,0.969
			c0.482,0.306,0.002,1.693-0.128,2.279c-0.009,0.042-0.014,0.025-0.026,0.077c-0.177-0.512-0.305-0.688-0.686-1.101
			c-0.175-0.19-0.522-0.583-0.849-0.673C120.039,1.038,120.624,0.76,120.952,0.969 M122.405,9.307
			c-0.016-0.061-0.033-0.121-0.05-0.181c-0.233-0.843-0.536-1.686-0.933-2.468c-0.137-0.268-0.285-0.529-0.443-0.78
			c-0.078-0.124-0.157-0.246-0.241-0.364c-0.005-0.007-0.009-0.013-0.014-0.02c0.027-0.111,0.077-0.323,0.14-0.586
			c0.107-0.444,0.247-1.029,0.357-1.502c0.035-0.148,0.067-0.285,0.094-0.402c0.015-0.063,0.028-0.121,0.039-0.172
			c0.16-0.706,0.726-2.342,0.159-2.746c-0.289-0.206-0.823-0.013-1.34,0.262c-0.448,0.238-0.882,0.537-1.132,0.696
			c-0.115,0.073-0.253,0.164-0.402,0.266c-0.509,0.347-1.163,0.821-1.598,1.14c-0.107-0.043-0.213-0.08-0.332-0.118
			c-0.114-0.035-0.238-0.072-0.386-0.116c-0.686-0.202-1.469-0.311-2.409-0.312c-0.941,0.001-1.723,0.11-2.409,0.312
			c-0.149,0.044-0.273,0.081-0.386,0.116c-0.12,0.038-0.226,0.075-0.332,0.118c-0.436-0.319-1.089-0.793-1.599-1.14
			c-0.149-0.102-0.286-0.193-0.401-0.266c-0.104-0.065-0.243-0.157-0.396-0.256l0.002-0.002c-0.025-0.016-0.046-0.026-0.071-0.042
			c-0.145-0.093-0.304-0.19-0.47-0.284c-0.061-0.036-0.123-0.072-0.182-0.104c-0.005-0.002-0.01-0.005-0.015-0.008l-0.001,0.001
			c-0.589-0.314-1.049-0.445-1.34-0.263c-0.592,0.368-0.001,2.04,0.159,2.746c0.011,0.051,0.025,0.109,0.039,0.172
			c0.027,0.117,0.06,0.254,0.094,0.402c0.111,0.473,0.251,1.058,0.357,1.502c0.063,0.263,0.114,0.475,0.141,0.586
			c-0.005,0.007-0.01,0.013-0.01,0.013c-0.088,0.125-0.168,0.247-0.246,0.371c-0.158,0.251-0.306,0.512-0.443,0.78
			c-0.397,0.782-0.7,1.625-0.933,2.468c-0.017,0.06-0.034,0.12-0.049,0.181c-0.734,2.78-0.704,5.522-0.687,6.113
			c0.041,0,8.694,3.287,8.694,3.287c0.329,0.069,0.937,0.058,1.157-0.01c0.257-0.08,8.464-3.277,8.505-3.277
			C123.108,14.829,123.138,12.087,122.405,9.307"/>
		<path fill="#B83D24" d="M114.688,15.035l-0.004-0.002c-0.02-0.017-0.041-0.033-0.064-0.049v-0.001l-0.009-0.005
			c-0.008-0.006-0.016-0.012-0.016-0.012c-0.021-0.015-0.035-0.025-0.049-0.034l-0.001-0.001c-0.009-0.006-0.019-0.012-0.027-0.018
			c-0.006-0.004-0.012-0.008-0.012-0.008c-0.016-0.01-0.026-0.016-0.036-0.023c-0.004-0.003-0.009-0.005-0.014-0.008
			c-0.04-0.025-0.081-0.049-0.123-0.072c-0.04-0.022-0.08-0.041-0.121-0.06c-0.008-0.004-0.016-0.008-0.023-0.011l-0.005-0.002
			c-0.013-0.006-0.022-0.009-0.032-0.014c-0.016-0.006-0.031-0.013-0.047-0.019c-0.037-0.014-0.075-0.026-0.112-0.037
			c-0.02-0.007-0.042-0.013-0.062-0.018c-0.021,0.005-0.042,0.011-0.062,0.018c-0.038,0.011-0.076,0.023-0.112,0.037
			c-0.017,0.006-0.032,0.013-0.047,0.019c-0.01,0.005-0.02,0.008-0.03,0.013l-0.007,0.003c-0.007,0.003-0.016,0.007-0.024,0.011
			c-0.04,0.019-0.08,0.038-0.12,0.059v0.001c-0.043,0.023-0.083,0.047-0.124,0.072c-0.004,0.003-0.009,0.005-0.014,0.008
			c-0.01,0.007-0.02,0.013-0.03,0.02c-0.006,0.003-0.011,0.007-0.016,0.011c-0.01,0.006-0.019,0.012-0.028,0.018l-0.002,0.001
			c-0.013,0.009-0.027,0.019-0.04,0.028c-0.009,0.007-0.017,0.013-0.026,0.019l-0.005,0.004l-0.003,0.001
			c-0.021,0.016-0.042,0.032-0.063,0.049l-0.004,0.002l-0.004,0.003l-0.003,0.002c0.183,0.584,0.512,0.782,0.671,0.845
			c0.013,0.009,0.088,0.027,0.088,0.027s0.084-0.018,0.096-0.027c0.161-0.063,0.489-0.261,0.672-0.845l-0.001-0.001
			C114.693,15.039,114.69,15.036,114.688,15.035"/>
		<path fill="#B83D24" d="M111.06,11.559c0.658-0.384,0.227-0.578-0.083-0.979c-0.312-0.401-0.778-0.612-1.042-0.472
			c-0.265,0.14-0.228,0.579,0.083,0.979C110.33,11.488,110.498,11.888,111.06,11.559"/>
		<path fill="#B83D24" d="M116.779,11.559c-0.658-0.384-0.227-0.578,0.084-0.979c0.311-0.401,0.777-0.612,1.041-0.472
			c0.265,0.14,0.228,0.579-0.083,0.979C117.51,11.488,117.342,11.888,116.779,11.559"/>
	</g>
</g>
</svg>
