<svg id="Layer_1" data-name="Layer 1" xmlns="http://www.w3.org/2000/svg" viewBox="0 0 144.34 122.88"><defs><style>.cls-1{fill:#fff;}.cls-2{fill:none;stroke:#fff;stroke-linecap:round;stroke-miterlimit:10;stroke-width:0.75px;}</style></defs><title>FOXVALLEY_STCKD_WHT</title><path class="cls-1" d="M102.93,102.45h-.64c-1.69,0-2.43-1.09-2.43-3V79.69H97.22v20c0,3.28,1.55,5.08,5,5.08h.71Zm-8.72,0h-.64c-1.69,0-2.43-1.09-2.43-3V79.69H88.5v20c0,3.28,1.55,5.08,5,5.08h.71ZM77.63,89.11c2.54,0,4.09,1.52,4.09,4.69v.88h-4.2c-5.43,0-7.34,2.54-7.34,5.19v.46c0,2.79,2.29,4.91,6,4.91a6.53,6.53,0,0,0,5.58-2.58v2.15h2.65V93.49c0-4-2.5-6.74-6.63-6.74a7.57,7.57,0,0,0-7,4.31l2.61.7a4.69,4.69,0,0,1,4.24-2.65m-1.09,13.76c-2.43,0-3.71-1.2-3.71-2.79v-.18c0-1.73,1.38-3.07,3.88-3.07h5V100a5.66,5.66,0,0,1-5.19,2.86M57.13,98l6.7-12.17v19h2.79V80.11H64.15L56,95,47.78,80.11H45.31v24.7h2.79v-19L54.8,98Z" transform="translate(-2.25 -2.26)"/><path class="cls-1" d="M136.18,74.88a2.71,2.71,0,0,1-2.86,2h-1v2.36h1.13c2.54,0,4.06-.64,5.22-3.74l7.94-21.35h-2.82l-5,13.8-5.57-13.8h-2.82l7.09,17.19ZM116.93,61.65c0-3.49,2-5.54,4.66-5.54s4.66,2,4.66,5.54v.18h-9.32Zm4.66,10.59a6.9,6.9,0,0,0,7-4.94l-2.72-.42a4.17,4.17,0,0,1-4.24,3c-2.65,0-4.66-2-4.66-5.54V64h12V61.15a7.31,7.31,0,1,0-14.61,0v3.67a7.17,7.17,0,0,0,7.31,7.41m-9.41-2.79h-.63c-1.69,0-2.44-1.09-2.44-3V46.69h-2.65v20c0,3.28,1.55,5.08,5,5.08h.71Zm-8.72,0h-.64c-1.69,0-2.43-1.09-2.43-3V46.69H97.75v20c0,3.28,1.55,5.08,5,5.08h.71ZM86.87,56.11c2.54,0,4.09,1.52,4.09,4.69v.88h-4.2c-5.44,0-7.34,2.54-7.34,5.19v.46c0,2.79,2.29,4.9,6,4.9A6.53,6.53,0,0,0,91,69.66v2.15h2.65V60.48c0-4-2.51-6.74-6.64-6.74A7.58,7.58,0,0,0,80,58l2.61.71a4.69,4.69,0,0,1,4.24-2.65M85.78,69.87c-2.43,0-3.71-1.2-3.71-2.79v-.18c0-1.73,1.38-3.07,3.88-3.07h5V67a5.66,5.66,0,0,1-5.19,2.86M71.06,71.81l8.29-24.7h-3L69.65,67.4l-6.7-20.29h-3l8.29,24.7Zm-33.45,0,4.69-7.16L47,71.81h3L44,62.67l5.68-8.51h-3L42.3,60.7,38,54.17H35l5.65,8.51-6.07,9.14Zm-7.55-7.48c0,3.49-2,5.54-4.66,5.54s-4.66-2-4.66-5.54V61.65c0-3.49,2-5.54,4.66-5.54s4.66,2,4.66,5.54Zm-12,.49a7.17,7.17,0,0,0,7.3,7.41,7.17,7.17,0,0,0,7.31-7.41V61.15a7.17,7.17,0,0,0-7.31-7.41,7.17,7.17,0,0,0-7.3,7.41ZM5,71.81V60.7H15.87V58.19H5V49.62H16.93V47.11H2.25v24.7Z" transform="translate(-2.25 -2.26)"/><path class="cls-1" d="M142.17,125.11V118H141v4.44l-4.35-4.58-.19,0V125h1.2V120.5l4.41,4.65Zm-9-3.62a2.29,2.29,0,1,1-2.27-2.56,2.35,2.35,0,0,1,2.27,2.56m1.29,0a3.48,3.48,0,0,0-3.52-3.64,3.53,3.53,0,0,0-3.59,3.64,3.47,3.47,0,0,0,3.52,3.63,3.53,3.53,0,0,0,3.59-3.63M125.27,118h-1.2v7h1.2Zm-2.91,1.09V118H116.7v1.09h2.24V125h1.2v-5.94Zm-7.08,5.4-.36-1A4,4,0,0,1,113,124a2.51,2.51,0,0,1,0-5,4,4,0,0,1,1.87.54l.41-1a4.41,4.41,0,0,0-2.27-.64,3.64,3.64,0,1,0,0,7.27,4.4,4.4,0,0,0,2.29-.66m-7.77.55v-1.09h-3.09v-2h2.79V120.9h-2.79v-1.83h3.09V118h-4.29v7Zm-5.93,0v-1.09H98.49V118h-1.2v7Zm-5.93,0v-1.09H92.56V118h-1.2v7Zm-7.59-3.51a2.29,2.29,0,1,1-2.27-2.56,2.35,2.35,0,0,1,2.27,2.56m1.28,0a3.48,3.48,0,0,0-3.52-3.64,3.53,3.53,0,0,0-3.59,3.64,3.47,3.47,0,0,0,3.52,3.63,3.53,3.53,0,0,0,3.59-3.63m-8.43,3-.36-1a4,4,0,0,1-1.92.56,2.51,2.51,0,0,1,0-5,4,4,0,0,1,1.87.54l.41-1a4.41,4.41,0,0,0-2.27-.64,3.64,3.64,0,1,0,0,7.27,4.39,4.39,0,0,0,2.29-.66M71,125v-1.09H67.88V118h-1.2v7Zm-8.17-2.56h-2l1-2.35ZM65.14,125l-3.24-7.13h-.17L58.49,125h1.24l.68-1.61h2.78l.68,1.61Zm-8.21-7h-1.2v7h1.2Zm-3.54,7.14V118h-1.2v4.44l-4.35-4.58-.19,0V125h1.2V120.5l4.41,4.65Zm-8.06,0V118h-1.2v4.44l-4.35-4.58-.19,0V125h1.2V120.5l4.41,4.65ZM37.48,125v-1.09H34.39v-2h2.79V120.9H34.39v-1.83h3.09V118H33.19v7Zm-6-5.94V118H25.85v1.09h2.24V125h1.2v-5.94Zm-7.34,6V118H23v4.44l-4.35-4.58-.19,0V125h1.2V120.5L24,125.14ZM16.31,125v-1.09H13.22v-2H16V120.9H13.22v-1.83h3.09V118H12v7Zm-6-.55-.37-1A4,4,0,0,1,8,124a2.51,2.51,0,0,1,0-5,4,4,0,0,1,1.87.54l.41-1A4.4,4.4,0,0,0,8,117.86a3.64,3.64,0,1,0,0,7.27,4.4,4.4,0,0,0,2.29-.66" transform="translate(-2.25 -2.26)"/><line class="cls-2" x1="22.82" y1="33.76" x2="119.27" y2="33.76"/><path class="cls-1" d="M58.18,18.74c4.51,1.84,13.49,5.37,14,5.51A4.7,4.7,0,0,0,74.77,24c3.72-1.4,12.36-5.35,12.36-5.35L99.95,27.2H46.62Z" transform="translate(-2.25 -2.26)"/><path class="cls-1" d="M81.13,11.82l-.1,0-.1,0-.11,0-.1,0-.1,0-.1,0-.1,0-.1,0-.1,0-.1,0-.11,0-.09,0-.2.09a17.46,17.46,0,0,0-4.38,3.73l0,0h0c-.33.43-.53,2.1-1.23,2.46h0l-.09,0H72.65l0,0h0l-.09,0h0c-.7-.35-.89-2-1.23-2.46h0l0,0a17.45,17.45,0,0,0-4.38-3.73l-.2-.09-.09,0-.11,0-.1,0-.1,0-.1,0L66,12l-.1,0-.1,0-.1,0-.11,0-.1,0-.1,0-.2-.06a2.3,2.3,0,0,1,1.67-.64,4.51,4.51,0,0,1,3.8,1.34h0A11.64,11.64,0,0,1,72,14.83l0,.08,0,.11.15.4c.16.45,0,1.08.11,1.47l.06,0c.66-.39.7-.41.88-.41a2.68,2.68,0,0,1,.88.42l0,0c.17-.43-.09-1,.07-1.46l.15-.4,0-.11,0-.08a11.55,11.55,0,0,1,1.33-2.37h0a4.51,4.51,0,0,1,3.8-1.34,2.29,2.29,0,0,1,1.67.64l-.2.06M66.48,5.49c0-.05,0,0,0-.08-.13-.59-.6-2-.13-2.28.32-.21.9.07,1.67.58a2.29,2.29,0,0,0-.84.67,2.52,2.52,0,0,0-.68,1.1M80.24,3.23c.48.31,0,1.69-.13,2.28,0,0,0,0,0,.08a2.54,2.54,0,0,0-.68-1.1,2.27,2.27,0,0,0-.84-.67c.77-.51,1.35-.79,1.67-.58m1.44,8.34,0-.18a13.33,13.33,0,0,0-.92-2.47c-.13-.27-.28-.53-.44-.78L80,7.78v0l.14-.59.35-1.5.09-.4,0-.17c.16-.71.72-2.34.16-2.75-.29-.21-.81,0-1.32.26s-.87.54-1.12.7l-.4.27c-.5.35-1.15.82-1.58,1.14L76,4.6l-.38-.12a9.23,9.23,0,0,0-4.76,0l-.38.12-.33.12c-.43-.32-1.07-.79-1.58-1.14l-.4-.27-.39-.26h0l-.07,0-.47-.28-.18-.1h0c-.58-.31-1-.44-1.32-.26-.58.37,0,2,.16,2.75l0,.17.09.4.35,1.5.14.59h0l-.24.37c-.16.25-.3.51-.44.78a13.26,13.26,0,0,0-.92,2.47l0,.18a23.66,23.66,0,0,0-.68,6.11S72.8,21,72.8,21a3.17,3.17,0,0,0,1.14,0c.25-.08,8.36-3.28,8.4-3.28a23.64,23.64,0,0,0-.68-6.11" transform="translate(-2.25 -2.26)"/><path class="cls-1" d="M74,17.3h0l-.06,0h0l0,0h0l0,0h0l0,0h0l-.12-.07L73.58,17h-.06l0,0-.11,0-.06,0-.06,0-.11,0,0,0H73l-.12.06h0l-.12.07h0l0,0h0l0,0h0l0,0,0,0h0l-.06,0h0a1.22,1.22,0,0,0,.66.85l.09,0,.1,0a1.22,1.22,0,0,0,.66-.85h0" transform="translate(-2.25 -2.26)"/><path class="cls-1" d="M70.46,13.82c.65-.38.22-.58-.08-1s-.77-.61-1-.47-.22.58.08,1,.47.8,1,.47" transform="translate(-2.25 -2.26)"/><path class="cls-1" d="M76.11,13.82c-.65-.38-.23-.58.08-1s.77-.61,1-.47.22.58-.08,1-.47.8-1,.47" transform="translate(-2.25 -2.26)"/></svg>