<?xml version="1.0" encoding="utf-8"?>
<!-- Generator: Adobe Illustrator 21.1.0, SVG Export Plug-In . SVG Version: 6.00 Build 0)  -->
<svg version="1.1" id="Layer_1" xmlns="http://www.w3.org/2000/svg" xmlns:xlink="http://www.w3.org/1999/xlink" x="0px" y="0px"
	 viewBox="0 0 225.081 88.753" enable-background="new 0 0 225.081 88.753" xml:space="preserve">
   <title>Hawthorn Mall logo</title>
<path fill="#49773B" d="M222.258,43.295h-3.6v19.762c0,3.529,1.87,5.364,5.682,5.364h0.741v-3.247h-0.706
	c-1.412,0-2.117-0.917-2.117-2.47V43.295z M212.243,43.295h-3.6v19.762c0,3.529,1.87,5.364,5.682,5.364h0.741v-3.247h-0.706
	c-1.412,0-2.117-0.917-2.117-2.47V43.295z M196.063,65.598c-2.118,0-3.035-0.953-3.035-2.118v-0.176c0-1.412,1.27-2.364,2.858-2.364
	h4.517v2.435C199.662,64.716,197.968,65.598,196.063,65.598 M189.428,63.833c0,2.788,2.259,5.011,5.999,5.011
	c2.259,0,3.953-0.882,4.976-2.258v1.835h3.6V57.058c0-3.953-2.576-6.705-6.846-6.705c-3.318,0-5.859,1.799-7.2,4.552l3.565,0.988
	c0.705-1.412,1.835-2.294,3.493-2.294c2.082,0,3.388,1.377,3.388,3.988v0.459h-3.423c-5.576,0-7.552,2.576-7.552,5.258V63.833z
	 M172.782,61.928h3.176l5.541-10.199v16.692h3.811V43.718h-3.282l-7.658,14.045l-7.658-14.045h-3.282v24.703h3.811V51.729
	L172.782,61.928z M133.716,68.421h3.6V56.175c0.67-1.588,2.329-2.576,3.811-2.576c2.823,0,3.67,1.694,3.67,4.764v10.058h3.6V57.658
	c0-4.482-2.118-7.305-6.07-7.305c-2.223,0-4.129,1.129-5.011,2.611v-2.188h-3.6V68.421z M119.787,68.421h3.6V55.999
	c0.953-1.518,2.611-2.4,4.34-2.4c0.989,0,1.73,0.141,2.647,0.459v-3.282c-0.67-0.282-1.447-0.423-2.153-0.423
	c-2.117,0-3.846,0.988-4.834,2.258v-1.835h-3.6V68.421z M104.218,58.363c0-3.211,1.835-4.764,3.917-4.764
	c2.082,0,3.917,1.553,3.917,4.764v2.471c0,3.211-1.835,4.764-3.917,4.764c-2.082,0-3.917-1.553-3.917-4.764V58.363z M100.618,61.539
	c0,3.882,3.141,7.305,7.517,7.305c4.376,0,7.517-3.423,7.517-7.305v-3.881c0-3.882-3.141-7.305-7.517-7.305
	c-4.376,0-7.517,3.423-7.517,7.305V61.539z M96.595,57.658c0-4.482-2.117-7.305-6.07-7.305c-2.223,0-4.129,1.129-5.011,2.611v-9.669
	h-3.6v25.126h3.6V56.175c0.67-1.588,2.329-2.576,3.811-2.576c2.823,0,3.67,1.694,3.67,4.764v10.058h3.6V57.658z M73.551,54.023
	h4.235v-3.247h-4.235v-5.011h-3.6v5.011h-2.505v3.247h2.505v9.034c0,3.529,1.871,5.364,5.682,5.364h2.505v-3.247h-2.47
	c-1.411,0-2.117-0.917-2.117-2.47V54.023z M49.589,50.776L45.637,63.41l-3.918-12.634h-3.776l5.823,17.645h3.776l3.917-12.634
	l3.918,12.634h3.776l5.822-17.645h-3.776L57.282,63.41L53.33,50.776H49.589z M27.674,65.598c-2.117,0-3.035-0.953-3.035-2.118
	v-0.176c0-1.412,1.271-2.364,2.859-2.364h4.517v2.435C31.274,64.716,29.58,65.598,27.674,65.598 M21.04,63.833
	c0,2.788,2.258,5.011,5.999,5.011c2.259,0,3.953-0.882,4.976-2.258v1.835h3.6V57.058c0-3.953-2.577-6.705-6.847-6.705
	c-3.317,0-5.858,1.799-7.199,4.552l3.564,0.988c0.706-1.412,1.836-2.294,3.494-2.294c2.082,0,3.388,1.377,3.388,3.988v0.459h-3.423
	c-5.576,0-7.552,2.576-7.552,5.258V63.833z M13.128,68.421h3.811V43.718h-3.811v10.305H3.811V43.718H0v24.703h3.811V57.446h9.317
	V68.421z"/>
<path fill="#646569" d="M185.845,88.725v-7.142h-1.631v3.648l-4.186-3.782l-0.22,0.038v7.132h1.63v-3.676l4.244,3.81L185.845,88.725
	z M175.809,85.106c0,1.258-0.749,2.18-1.863,2.18s-1.863-0.922-1.863-2.18c0-1.267,0.749-2.18,1.863-2.18
	S175.809,83.839,175.809,85.106 M177.555,85.106c0-2.074-1.4-3.638-3.57-3.638c-2.18,0-3.638,1.564-3.638,3.638
	c0,2.065,1.391,3.628,3.57,3.628C176.087,88.734,177.555,87.171,177.555,85.106 M168.093,81.583h-1.631v7.036h1.631V81.583z
	 M164.534,83.08v-1.497h-5.855v1.497h2.112v5.539h1.631V83.08H164.534z M157.048,88.082l-0.49-1.382
	c-0.528,0.327-1.181,0.519-1.757,0.519c-1.315,0-2.131-0.807-2.131-2.113s0.816-2.113,2.131-2.113c0.576,0,1.162,0.183,1.68,0.471
	l0.5-1.382c-0.634-0.374-1.383-0.614-2.199-0.614c-2.294,0-3.848,1.545-3.848,3.638c0,2.084,1.554,3.628,3.848,3.628
	C155.589,88.734,156.433,88.485,157.048,88.082 M148.911,88.619v-1.487h-2.822v-1.374h2.572v-1.419h-2.572V83.08h2.822v-1.497
	h-4.453v7.036H148.911z M142.594,88.619v-1.487h-2.822v-5.549h-1.631v7.036H142.594z M136.277,88.619v-1.487h-2.822v-5.549h-1.631
	v7.036H136.277z M127.826,85.106c0,1.258-0.749,2.18-1.863,2.18s-1.863-0.922-1.863-2.18c0-1.267,0.749-2.18,1.863-2.18
	S127.826,83.839,127.826,85.106 M129.572,85.106c0-2.074-1.401-3.638-3.571-3.638c-2.179,0-3.637,1.564-3.637,3.638
	c0,2.065,1.391,3.628,3.57,3.628C128.104,88.734,129.572,87.171,129.572,85.106 M120.753,88.082l-0.489-1.382
	c-0.528,0.327-1.181,0.519-1.757,0.519c-1.315,0-2.131-0.807-2.131-2.113s0.816-2.113,2.131-2.113c0.576,0,1.162,0.183,1.68,0.471
	l0.499-1.382c-0.633-0.374-1.382-0.614-2.198-0.614c-2.295,0-3.849,1.545-3.849,3.638c0,2.084,1.554,3.628,3.849,3.628
	C119.294,88.734,120.139,88.485,120.753,88.082 M110.434,88.619v-1.487h-2.823v-5.549h-1.631v7.036H110.434z M101.507,86.095h-1.392
	l0.701-1.689L101.507,86.095z M104.253,88.619l-3.312-7.093h-0.221l-3.312,7.093h1.661l0.528-1.277h2.429l0.528,1.277H104.253z
	 M95.664,81.583h-1.631v7.036h1.631V81.583z M91.468,88.725v-7.142h-1.631v3.648l-4.186-3.782l-0.22,0.038v7.132h1.631v-3.676
	l4.243,3.81L91.468,88.725z M82.888,88.725v-7.142h-1.631v3.648l-4.186-3.782l-0.221,0.038v7.132h1.631v-3.676l4.244,3.81
	L82.888,88.725z M74.422,88.619v-1.487H71.6v-1.374h2.573v-1.419H71.6V83.08h2.822v-1.497h-4.453v7.036H74.422z M68.066,83.08
	v-1.497h-5.854v1.497h2.112v5.539h1.63V83.08H68.066z M60.304,88.725v-7.142h-1.631v3.648l-4.186-3.782l-0.22,0.038v7.132h1.631
	v-3.676l4.243,3.81L60.304,88.725z M51.839,88.619v-1.487h-2.823v-1.374h2.573v-1.419h-2.573V83.08h2.823v-1.497h-4.454v7.036
	H51.839z M45.351,88.082l-0.49-1.382c-0.528,0.327-1.18,0.519-1.756,0.519c-1.316,0-2.132-0.807-2.132-2.113
	s0.816-2.113,2.132-2.113c0.576,0,1.161,0.183,1.68,0.471l0.499-1.382c-0.634-0.374-1.383-0.614-2.199-0.614
	c-2.294,0-3.848,1.545-3.848,3.638c0,2.084,1.554,3.628,3.848,3.628C43.892,88.734,44.737,88.485,45.351,88.082"/>
<polygon fill="#49773B" points="97.997,12.542 102.733,17.278 103.797,16.214 97.997,10.414 97.997,8.027 101.227,11.258
	102.292,10.193 97.245,5.146 92.197,10.193 93.262,11.258 96.492,8.027 96.492,10.414 90.692,16.214 91.756,17.278 96.492,12.542
	96.492,15.682 90.692,21.481 91.756,22.545 96.492,17.81 96.492,25.465 97.997,25.465 97.997,17.81 102.733,22.545 103.797,21.481
	97.997,15.682 "/>
<polygon fill="#49773B" points="112.785,0 107.738,6.485 108.802,7.853 112.033,3.702 112.033,6.768 106.233,14.221 107.297,15.588
	112.033,9.503 112.033,13.537 106.233,20.99 107.297,22.357 112.033,16.272 112.033,25.465 113.537,25.465 113.537,16.272
	118.273,22.357 119.337,20.99 113.537,13.537 113.537,9.503 118.273,15.588 119.337,14.221 113.537,6.768 113.537,3.702
	116.768,7.853 117.832,6.485 "/>
<polygon fill="#49773B" points="128.589,12.542 133.324,17.278 134.388,16.214 128.589,10.414 128.589,8.027 131.818,11.258
	132.883,10.193 127.836,5.146 122.788,10.193 123.853,11.258 127.083,8.027 127.083,10.414 121.283,16.214 122.347,17.278
	127.083,12.542 127.083,15.682 121.283,21.481 122.347,22.545 127.083,17.81 127.083,25.465 128.589,25.465 128.589,17.81
	133.324,22.545 134.388,21.481 128.589,15.682 "/>
<line fill="none" stroke="#49773B" stroke-width="0.75" stroke-linecap="round" stroke-miterlimit="10" x1="63.724" y1="32.904" x2="161.356" y2="32.904"/>
</svg>
