<svg id="Layer_1" data-name="Layer 1" xmlns="http://www.w3.org/2000/svg" viewBox="0 0 140.99 121.97"><defs><style>.cls-1{fill:#fff;}.cls-2{fill:none;stroke:#fff;stroke-linecap:round;stroke-miterlimit:10;stroke-width:0.75px;}</style></defs><title>Hawthorn_STCKD_WHT</title><path class="cls-1" d="M102,101.06h-.64c-1.69,0-2.43-1.09-2.43-3V78.3H96.31v20c0,3.28,1.55,5.08,5,5.08H102Zm-8.72,0h-.64c-1.69,0-2.43-1.09-2.43-3V78.3H87.6v20c0,3.28,1.55,5.08,5,5.08h.71ZM76.72,87.72c2.54,0,4.09,1.52,4.09,4.69v.88h-4.2c-5.43,0-7.34,2.54-7.34,5.19v.46c0,2.79,2.29,4.91,6,4.91a6.53,6.53,0,0,0,5.58-2.58v2.15h2.65V92.1c0-4-2.5-6.74-6.63-6.74a7.57,7.57,0,0,0-7,4.31l2.61.7a4.69,4.69,0,0,1,4.24-2.65m-1.09,13.76c-2.43,0-3.71-1.2-3.71-2.79v-.18c0-1.73,1.38-3.07,3.88-3.07h5v3.18a5.66,5.66,0,0,1-5.19,2.86M56.22,96.65l6.7-12.17v19h2.79V78.72H63.25L55.06,93.58,46.87,78.72H44.4v24.7h2.79v-19l6.7,12.17Z" transform="translate(-2.14 -1.78)"/><path class="cls-1" d="M143.13,70.42V59.62c0-4.52-2.12-7.27-6-7.27A6.38,6.38,0,0,0,131.7,55V52.78H129V70.42h2.65V57.89a5.25,5.25,0,0,1,4.69-3.18c3,0,4.09,1.8,4.09,5.47V70.42ZM126.2,52.78a5.5,5.5,0,0,0-2.19-.42A6.27,6.27,0,0,0,118.79,55V52.78h-2.65V70.42h2.65V57.75a5.66,5.66,0,0,1,4.9-3,7.18,7.18,0,0,1,2.51.42ZM109.9,62.94c0,3.49-2,5.54-4.66,5.54s-4.66-2-4.66-5.54V60.26c0-3.49,2-5.54,4.66-5.54s4.66,2,4.66,5.54Zm-12,.49a7.31,7.31,0,1,0,14.61,0V59.76a7.31,7.31,0,1,0-14.61,0Zm-3.5,7V59.62c0-4.52-2.12-7.27-6-7.27A6.38,6.38,0,0,0,83,55V45.3H80.36V70.42H83V57.89a5.25,5.25,0,0,1,4.69-3.18c3,0,4.09,1.8,4.09,5.47V70.42ZM72.31,52.78v-5H69.67v5H67v2.36h2.72v10.2c0,3.28,1.52,5.08,5,5.08h2.4V68.06H74.71c-1.69,0-2.4-1.09-2.4-3v-10h4.45V52.78Zm-22.17,0-4.45,14-4.76-14H38.15l6.17,17.65h2.79l4.41-13.94,4.41,13.94h2.79L64.9,52.78H62.11l-4.76,14-4.45-14ZM29.61,54.72c2.54,0,4.09,1.52,4.09,4.69v.88H29.5c-5.43,0-7.34,2.54-7.34,5.19v.46c0,2.79,2.29,4.9,6,4.9a6.53,6.53,0,0,0,5.58-2.58v2.15h2.65V59.09c0-4-2.51-6.74-6.63-6.74a7.57,7.57,0,0,0-7,4.31l2.61.71a4.69,4.69,0,0,1,4.24-2.65M28.51,68.48c-2.43,0-3.71-1.2-3.71-2.79v-.18c0-1.73,1.38-3.07,3.88-3.07h5v3.18a5.66,5.66,0,0,1-5.19,2.86M15.83,70.42h2.79V45.72H15.83V56.48H4.93V45.72H2.14v24.7H4.93V59h10.9Z" transform="translate(-2.14 -1.78)"/><path class="cls-1" d="M141.26,123.72v-7.14h-1.2V121l-4.35-4.58-.19,0v7.13h1.2V119.1l4.41,4.65Zm-9-3.62a2.29,2.29,0,1,1-2.27-2.56,2.35,2.35,0,0,1,2.27,2.56m1.29,0a3.48,3.48,0,0,0-3.52-3.64,3.53,3.53,0,0,0-3.59,3.64,3.47,3.47,0,0,0,3.52,3.63,3.53,3.53,0,0,0,3.59-3.63m-9.15-3.52h-1.2v7h1.2Zm-2.91,1.09v-1.09H115.8v1.09H118v5.94h1.2v-5.94Zm-7.08,5.4-.36-1a4,4,0,0,1-1.92.56,2.51,2.51,0,0,1,0-5,4,4,0,0,1,1.87.54l.41-1a4.41,4.41,0,0,0-2.27-.64,3.64,3.64,0,1,0,0,7.27,4.4,4.4,0,0,0,2.29-.66m-7.77.55v-1.09h-3.09v-2h2.79v-1.06h-2.79v-1.83h3.09v-1.09h-4.29v7Zm-5.93,0v-1.09H97.59v-5.94h-1.2v7Zm-5.93,0v-1.09H91.65v-5.94h-1.2v7Zm-7.59-3.51a2.29,2.29,0,1,1-2.27-2.56,2.35,2.35,0,0,1,2.27,2.56m1.28,0a3.48,3.48,0,0,0-3.52-3.64,3.53,3.53,0,0,0-3.59,3.64,3.47,3.47,0,0,0,3.52,3.63,3.53,3.53,0,0,0,3.59-3.63m-8.43,3-.36-1a4,4,0,0,1-1.92.56,2.51,2.51,0,0,1,0-5,4,4,0,0,1,1.87.54l.41-1a4.41,4.41,0,0,0-2.27-.64,3.64,3.64,0,1,0,0,7.27,4.39,4.39,0,0,0,2.29-.66m-9.94.55v-1.09H67v-5.94h-1.2v7Zm-8.17-2.56h-2l1-2.35Zm2.34,2.56L61,116.48h-.17l-3.24,7.13h1.24l.68-1.61h2.78l.68,1.61Zm-8.21-7h-1.2v7H56Zm-3.54,7.14v-7.14h-1.2V121l-4.35-4.58-.19,0v7.13h1.2V119.1l4.41,4.65Zm-8.06,0v-7.14h-1.2V121l-4.35-4.58-.19,0v7.13h1.2V119.1l4.41,4.65Zm-7.85-.11v-1.09H33.48v-2h2.79v-1.06H33.48v-1.83h3.09v-1.09H32.29v7Zm-6-5.94v-1.09H24.94v1.09h2.24v5.94h1.2v-5.94Zm-7.34,6v-7.14h-1.2V121l-4.35-4.58-.19,0v7.13h1.2V119.1l4.41,4.65Zm-7.86-.11v-1.09H12.31v-2h2.79v-1.06H12.31v-1.83H15.4v-1.09H11.11v7Zm-6-.55-.37-1a4,4,0,0,1-1.92.56,2.51,2.51,0,0,1,0-5,4,4,0,0,1,1.87.54l.41-1a4.4,4.4,0,0,0-2.26-.64,3.64,3.64,0,1,0,0,7.27,4.4,4.4,0,0,0,2.29-.66" transform="translate(-2.14 -1.78)"/><polygon class="cls-1" points="55.88 12.54 60.56 17.28 61.61 16.21 55.88 10.41 55.88 8.03 59.07 11.26 60.12 10.19 55.14 5.15 50.15 10.19 51.2 11.26 54.39 8.03 54.39 10.41 48.66 16.21 49.72 17.28 54.39 12.54 54.39 15.68 48.66 21.48 49.72 22.55 54.39 17.81 54.39 25.46 55.88 25.46 55.88 17.81 60.56 22.55 61.61 21.48 55.88 15.68 55.88 12.54"/><polygon class="cls-1" points="70.49 0 65.5 6.49 66.56 7.85 69.75 3.7 69.75 6.77 64.02 14.22 65.07 15.59 69.75 9.5 69.75 13.54 64.02 20.99 65.07 22.36 69.75 16.27 69.75 25.46 71.23 25.46 71.23 16.27 75.91 22.36 76.97 20.99 71.23 13.54 71.23 9.5 75.91 15.59 76.97 14.22 71.23 6.77 71.23 3.7 74.43 7.85 75.48 6.49 70.49 0"/><polygon class="cls-1" points="86.11 12.54 90.78 17.28 91.83 16.21 86.11 10.41 86.11 8.03 89.3 11.26 90.35 10.19 85.36 5.15 80.38 10.19 81.43 11.26 84.62 8.03 84.62 10.41 78.89 16.21 79.94 17.28 84.62 12.54 84.62 15.68 78.89 21.48 79.94 22.55 84.62 17.81 84.62 25.46 86.11 25.46 86.11 17.81 90.78 22.55 91.83 21.48 86.11 15.68 86.11 12.54"/><line class="cls-2" x1="22.02" y1="32.9" x2="118.47" y2="32.9"/></svg>