<?xml version="1.0" encoding="utf-8"?>
<!-- Generator: Adobe Illustrator 19.2.0, SVG Export Plug-In . SVG Version: 6.00 Build 0)  -->
<!DOCTYPE svg PUBLIC "-//W3C//DTD SVG 1.1//EN" "http://www.w3.org/Graphics/SVG/1.1/DTD/svg11.dtd">
<svg version="1.1" id="Layer_1" xmlns="http://www.w3.org/2000/svg" xmlns:xlink="http://www.w3.org/1999/xlink" x="0px" y="0px"
	 viewBox="0 0 342.2 217.7" style="enable-background:new 0 0 342.2 217.7;" xml:space="preserve">
<style type="text/css">
	.st0{fill:#FFFFFF;}
	.st1{fill:none;}
	.st2{fill:#87B062;}
	.st3{fill:#F9E38A;}
	.st4{fill:#FDE7D5;}
	.st5{fill:#B6B6C2;}
	.st6{fill:#58595B;}
	.st7{font-family:'Raleway-Regular';}
	.st8{font-size:7px;}
</style>
<title>USAMap</title>
<g id="bg">
	
		<image style="overflow:visible;opacity:0.75;enable-background:new    ;" width="1426" height="908" xlink:href="98F38BF5AE5F403A.png"  transform="matrix(0.24 0 0 0.2397 0 0)">
	</image>
	<path class="st0" d="M163.3,210.9c-0.3,0-0.5,0-0.7-0.1l-12.1-4.3c-0.5-0.2-0.9-0.5-1.2-1l-15.1-25.8l-6.4-0.7l-3.5,5.3
		c-0.7,1-2,1.3-3.1,0.6c-0.1,0-0.1-0.1-0.2-0.2l-8.6-7.3c-0.4-0.4-0.7-0.9-0.8-1.5l-0.4-4.8L101,160.2l-9.2-1.2l-0.3,1.7
		c-0.2,1-1.1,1.8-2.2,1.8c-0.1,0-0.2,0-0.4,0l-16.8-2.8c-0.3,0-0.6-0.2-0.8-0.3l-23-14.7l-13.4-1.8c-1.2-0.2-2.1-1.3-1.9-2.5
		c0,0,0,0,0,0l0.5-3.5l-16.4-19.8c-0.2-0.3-0.4-0.5-0.4-0.9l-6.3-24.7L6.7,70.8c-0.1-0.4,0-0.8,0.1-1.1l15.9-44l-0.4-12.9
		c0-0.3,0.1-0.6,0.2-0.8l1-2.6c0.4-1.1,1.7-1.7,2.9-1.3c0.1,0,0.2,0.1,0.3,0.1l7.1,4c1,0.5,1.4,1.7,1,2.7l-0.5,1.1l0.2-0.1l1.2-5.5
		l-0.3-1c-0.2-0.7-0.1-1.4,0.3-1.9c0.5-0.7,1.5-1,2.3-0.8c79.4,20.5,140.2,21,142.7,21c0.2,0,0.3,0,0.5,0.1l24.5,5.8
		c1.2,0.3,1.9,1.5,1.6,2.7c-0.1,0.5-0.4,0.9-0.7,1.2l-8.2,7l6,0.4l8-4.8c1-0.6,2.4-0.3,3,0.8c0.2,0.3,0.3,0.7,0.3,1.1v0.6l5.5,2.3
		l4.1-0.7l6.8-2.1c0.5-0.1,1-0.1,1.4,0.1l4.2,1.7c0.8,0.3,1.3,1,1.4,1.9l0.1,1.7c0.1,1.2-0.8,2.3-2,2.4c-0.1,0-0.1,0-0.2,0l-4.7-0.2
		l-8.1,3.6l-1.7,3.8l0.8,1.9c0.1,0.3,0.2,0.7,0.2,1.1l-1.4,17.5l1.9,4.6l2.3-0.4l2-8.3l-1.4-3c-0.2-0.3-0.2-0.7-0.2-1.1l0.4-9.5
		c0-0.6,0.2-1.1,0.6-1.5l7.3-7.3c0.6-0.6,1.5-0.8,2.3-0.5l6.4,2.4c0.7,0.3,1.2,0.8,1.4,1.5l1.4,5.4c0.1,0.6,0.1,1.2-0.3,1.7
		l-0.5,0.8c0.8-0.4,1.8-0.3,2.5,0.3l2.3,2.1c0.5,0.4,0.7,1.1,0.7,1.7l-0.3,7.3c0,0.2,0,0.4-0.1,0.6l-2,6.1l7.6,0.3l14.5-12.2
		l-0.6-1.9c-0.3-1.1,0.3-2.3,1.4-2.7l13.1-4.4l-0.6-2.1c-0.2-0.6-0.1-1.2,0.2-1.7l5-8.3c0.3-0.5,0.8-0.9,1.4-1l16.8-3.8v-0.4
		c0.1-0.9,0.7-1.7,1.6-2l2-0.6l2.5-15.6c0.2-1,1-1.8,2-1.9l3.3-0.2l0.8-1.1c0.4-0.5,1-0.8,1.6-0.9l2.9-0.2h0.1c1,0,1.9,0.7,2.1,1.7
		c1.6,7.3,2.1,9.7,2.3,10.6c1.7,1.3,3.5,2.5,5.4,3.6c1,0.6,1.3,2,0.7,3c-0.1,0.1-0.1,0.2-0.2,0.3l-4.5,5.1c-0.4,0.5-1,0.7-1.6,0.8
		h-0.2l-2.1-0.2l-0.5,2.3c-0.1,0.3-0.2,0.6-0.4,0.9l-7,9.2l0.8,2.2c0.1,0.3,0.2,0.7,0.1,1l-0.2,2.2l4.1,0.7c0.3,0,0.6,0.2,0.9,0.3
		l0.9,0.6c1,0.7,1.3,2.1,0.6,3.1c-0.1,0.2-0.3,0.4-0.5,0.6l-3.8,2.8c-0.7,0.5-1.7,0.6-2.5,0.1l-0.2-0.1v0.3
		c-0.1,0.8-0.6,1.6-1.3,1.9l-10,4l-3,4.2l1.5,2.2c0.4,0.6,0.5,1.3,0.3,2l-2.7,7.8c-0.4,1.1-1.7,1.7-2.9,1.3c0,0-0.1,0-0.1,0
		l-0.3-0.1l2.3,3.4c0.4,0.6,0.5,1.4,0.2,2.1l-2.7,6.8c-0.4,1.1-1.7,1.7-2.9,1.2c-0.8-0.3-1.3-1-1.4-1.8l-0.3-2.7l-2-6.1l-0.6,0.2
		l2.9,10.9l3.4,4.3c0.3,0.4,0.4,0.8,0.5,1.2l0.8,13.2c0,0.7-0.2,1.3-0.7,1.8l-11.8,11.1l-11.9,14.2l-4.2,12.7l13.5,26.1
		c0.2,0.3,0.2,0.7,0.2,1l0.1,12.3c0,0.9-0.6,1.8-1.4,2.1l-3.9,1.5c-0.8,0.3-1.7,0.1-2.3-0.5l-5.9-5.5c-0.2-0.2-0.4-0.5-0.5-0.7
		l-8.8-20.6l-10.6-7.2l-5.5,3.1c-0.7,0.4-1.4,0.4-2.1,0l-6.6-3.4l-26.1,1.4v0.1l4.6-0.2c0.8,0,1.5,0.4,1.9,1
		c0.4,0.6,0.5,1.4,0.2,2.1l-1.7,4.4c-0.3,0.8-1.1,1.4-2,1.4l-8.2,0.3c-0.4,0-0.8-0.1-1.2-0.3l-5-3l-14.2-0.1l-9.8,8.6
		c-0.4,0.4-0.9,0.5-1.4,0.6h-0.1l-4.1-0.2l-7,10.6l1.1,7.7c0.2,1.2-0.6,2.3-1.9,2.5C163.4,211,163.3,211,163.3,210.9L163.3,210.9z"
		/>
</g>
<g id="Layer_3">
	<line class="st1" x1="87.5" y1="146.6" x2="87.6" y2="145.9"/>
	<path class="st2" d="M129.5,49.9"/>
	<path class="st3" d="M190.5,61.5"/>
	<path class="st1" d="M199.6,100.3c0,0.1,0.1,0.3,0.1,0.4L199.6,100.3z"/>
	<polygon class="st1" points="202.6,109.1 202.6,109.1 202.6,109.1 	"/>
	<path class="st4" d="M220.9,46l-6.4-2.5l6,2.5C220.7,46,220.8,46.1,220.9,46z"/>
	<path class="st5" d="M235.2,112.9l-0.2,0.2C235,113.1,235.1,113,235.2,112.9z"/>
	<path class="st5" d="M247.5,131.6l1.5-1.3l-1.1,0.7C247.6,131.1,247.5,131.3,247.5,131.6z"/>
	<path class="st5" d="M247.4,169.5c0.1,0.1,0.2,0.2,0.3,0.2L247.4,169.5z"/>
	<path class="st5" d="M297.5,99.5L297.5,99.5z"/>
	<path class="st1" d="M324.7,44.3l0.1-0.3l0,0L324.7,44.3z"/>
	<path id="NE" d="M175.6,97.2l-1.1-2c0-0.1-0.1-0.2-0.1-0.2l-2.7-16c-0.1-0.4-0.4-0.6-0.8-0.6h-7h-0.2c-0.1,0-0.2,0-0.2-0.1
		l-4.4-2.7c-0.1,0-0.2-0.1-0.4-0.1l-30-1.9c-0.4,0-0.8,0.3-0.8,0.7l-1.3,13.3c0,0.4,0.3,0.8,0.7,0.8l10.1,1c0.3,0,0.5,0.2,0.6,0.4
		c0.1,0.1,0.1,0.3,0.1,0.4l-0.4,5.8c0,0.4,0.3,0.8,0.7,0.8c0,0,0,0,0,0l16.1,0.8l20.3,0.9c0.4,0,0.8-0.3,0.8-0.7c0-0.1,0-0.1,0-0.2
		C175.6,97.4,175.6,97.3,175.6,97.2z"/>
	<path id="WA" d="M63.5,14.5C63.4,14.2,63.2,14,63,14c-8.2-1.8-16.7-3.8-25.5-6.1c-0.4-0.1-0.8,0.1-1,0.5c0,0.2,0,0.3,0,0.5l0.4,1.4
		c0,0.1,0,0.3,0,0.4l-1.3,5.8c0,0.2-0.2,0.4-0.4,0.5l-1.4,0.8l-0.3,0.1C33.3,18,33.1,18,33,18c-0.2,0-0.3-0.1-0.4-0.3
		c-0.2-0.2-0.2-0.5-0.1-0.8l1-2.6c0.2-0.4,0-0.8-0.3-1l-1.5-0.9l-5.8-3.3c-0.4-0.2-0.8-0.1-1.1,0.3c0,0,0,0.1,0,0.1l-1.1,2.8
		c0,0.1-0.1,0.2,0,0.3v0.2l0.1,4.4l0.2,7.7c0,0.3,0.2,0.6,0.5,0.7h0.1l4,1.9c0.3,0.1,0.5,0.4,0.5,0.8L28.7,31c0,0.4,0.2,0.7,0.5,0.8
		l1.3,0.4l3.5,1.2l2.4,0.8c0.1,0,0.2,0,0.2,0h1.3l10.8,0.1h0.2l8.9,2.1h0.1c0.4,0.1,0.8-0.2,0.9-0.6c0,0,0,0,0,0l4.7-20.9
		C63.6,14.8,63.6,14.6,63.5,14.5z"/>
	<path id="OR" d="M60.4,40.8L59,38.4c-0.1-0.2-0.3-0.3-0.5-0.4l-0.8-0.2l-8.5-2l-0.4-0.1h-0.2l-11.7-0.1h-0.5c-0.1,0-0.2,0-0.2,0
		l-3.5-1.2l-1.5-0.6l-3.3-1.1l0,0c-0.3-0.1-0.5-0.4-0.5-0.7c0,0,0-0.1,0-0.1l0.2-2.8c0-0.3-0.2-0.6-0.5-0.8l-2.8-1.3
		c-0.4-0.2-0.8,0-1,0.4c0,0,0,0,0,0.1L13.1,55.8c-0.1,0.2-0.1,0.4,0.1,0.6c0.1,0.1,0.1,0.2,0.2,0.3c0.1,0,0.1,0.1,0.2,0.1l21.8,6.8
		h0.1L50.7,67c0.1,0,0.2,0,0.4,0c0.3-0.1,0.5-0.3,0.5-0.5l4-14.3c0.1-0.3,0-0.6-0.2-0.8l-0.9-0.8c-0.2-0.2-0.3-0.5-0.2-0.7
		c0,0,0-0.1,0-0.1c0-0.1,0.1-0.1,0.1-0.2l3-4l1.4-1.8l1.5-2C60.5,41.4,60.5,41.1,60.4,40.8z"/>
	<path id="CA" d="M55.4,131.7l-2.4-4.9c-0.1-0.2-0.1-0.3-0.1-0.5l0.2-0.7l0.1-0.4c0-0.2,0-0.4-0.1-0.6l-0.3-0.5L29,87.9l-0.3-0.5
		c-0.1-0.2-0.1-0.4-0.1-0.6v-0.2l5.8-21.1c0.1-0.4-0.1-0.8-0.5-0.9L13.1,58c-0.4-0.1-0.8,0.1-1,0.5L7.9,70.2l0.2,0.2l-0.2-0.1
		c0,0.1,0,0.2,0,0.2c0,0,0,0,0,0.1l3.5,20.8v0.1l0.1,0.3v0.1l0.1,0.3l5.8,22.7l0.1,0.2l0.3,1c0,0.1,0.1,0.2,0.1,0.3l16.4,19.8
		l0.2,0.2c0.1,0.1,0.1,0.2,0.1,0.2c0,0.1,0,0.1,0,0.2c0,0,0,0.1,0,0.1c0,0,0,0.1,0,0.1l-0.6,3.8c-0.1,0.4,0.2,0.8,0.6,0.9
		c0,0,0,0,0,0l13.7,1.9c0.1,0,0.3,0.1,0.4,0.1l0.6,0.4l1-5.6c0-0.1,0.1-0.3,0.2-0.4l4.7-5.6C55.5,132.3,55.5,132,55.4,131.7
		L55.4,131.7z"/>
	<path id="NV" d="M67.3,71.9l-30.9-6.8c-0.4-0.1-0.8,0.2-0.9,0.6l-5.7,20.8c0,0.2,0,0.4,0.1,0.6l0,0l22.6,34.5
		c0.2,0.4,0.7,0.5,1.1,0.2c0.2-0.1,0.3-0.3,0.3-0.5l1-4.6c0-0.1,0.1-0.3,0.2-0.4c0.2-0.2,0.5-0.3,0.8-0.2l1.9,0.6
		c0.4,0.1,0.8-0.1,1-0.5c0,0,0,0,0-0.1L68,72.9c0,0,0-0.1,0-0.1C68,72.4,67.7,72,67.3,71.9z"/>
	<path id="AZ" d="M90.8,117.4c-0.1-0.3-0.3-0.5-0.6-0.5l-28.3-5.1c-0.4-0.1-0.8,0.2-0.9,0.6l-1.1,5.4l-0.1,0.6
		c-0.3,0.1-0.6,0.1-0.9,0l-1.9-0.6c-0.4-0.1-0.8,0.1-1,0.5c0,0,0,0.1,0,0.1l-1.7,7.8c0,0.2,0,0.3,0.1,0.5c0,0,2.4,5.1,2.5,5.2
		c0.1,0.2,0.1,0.4,0,0.6l-5.1,6.2c-0.1,0.1-0.1,0.2-0.1,0.3c0,0,0,0.1,0,0.1l0,0l-0.9,5.3c-0.1,0.3,0.1,0.6,0.3,0.8L72,158.3
		c0.1,0,0.2,0.1,0.2,0.1l0,0l11.4,1.9c0.4,0,0.8-0.2,0.9-0.6l6.2-42C90.8,117.6,90.8,117.5,90.8,117.4z"/>
	<path id="UT" d="M95.1,85.2c-0.1,0-0.2-0.1-0.2-0.1l-10.3-1.4c-0.3,0-0.6-0.3-0.7-0.6c0-0.1,0-0.2,0-0.2l1-6.1
		c0.1-0.4-0.2-0.8-0.6-0.9L70,72.6c-0.3-0.1-0.5,0-0.7,0.2c-0.1,0.1-0.2,0.2-0.2,0.4l-2.6,12.2l-5.1,24.3c-0.1,0.4,0.2,0.8,0.6,0.9
		l28,5.1h0.2c0.4,0.1,0.8-0.2,0.9-0.6c0,0,0,0,0,0l4.3-29C95.5,85.7,95.4,85.4,95.1,85.2z"/>
	<path id="MT" d="M131.1,25.8c-0.1-0.3-0.3-0.5-0.6-0.5c-10.7-1.3-22.9-3-36.2-5.2h-0.1c-4-0.7-8-1.4-12.1-2.2v-0.1v0.1l-1-0.2
		c-3.2-0.6-6.5-1.3-9.8-1.9c-0.4-0.1-0.8,0.2-0.9,0.6l-1.6,7c0,0,0,0,0,0.1c0,0.2,0,0.3,0.1,0.5l5.9,11.8v0.1c0.1,0.2,0.1,0.4,0,0.6
		l-1.9,6.1c-0.1,0.4,0.1,0.8,0.5,1c0,0,0.1,0,0.1,0l2.3,0.5c0.3,0.1,0.5,0.3,0.6,0.5l2.8,8.6c0.1,0.3,0.3,0.4,0.6,0.5l8.1,1.7
		c0.4,0.1,0.8-0.2,0.9-0.6c0,0,0,0,0,0l0.4-2.5c0.1-0.4,0.5-0.7,0.9-0.6h0.1l37.5,5h0.1c0.4,0,0.8-0.3,0.8-0.7l2.8-29.6
		C131.1,26.1,131.1,25.9,131.1,25.8z"/>
	<path id="WY" d="M127.9,58.1c-0.1-0.2-0.3-0.3-0.5-0.3L91,52.9c-0.4,0-0.8,0.2-0.9,0.6l-4.8,28.1c-0.1,0.4,0.2,0.8,0.7,0.9
		c0,0,0,0,0,0l38.5,5.4c0.1,0,0.3,0,0.4-0.1c0.3-0.1,0.4-0.3,0.5-0.6l2.7-28.5C128.1,58.4,128,58.2,127.9,58.1z"/>
	<path id="CO" d="M136.6,90.8c-0.1-0.3-0.3-0.4-0.6-0.5l-10.9-1.1l0,0l-27.4-3.8c-0.4,0-0.8,0.2-0.9,0.7l-4.3,29.1
		c0,0.4,0.3,0.8,0.7,0.9l35.9,3.5l5,0.4c0.4,0,0.8-0.3,0.8-0.7l1.8-28.1C136.7,91.1,136.7,90.9,136.6,90.8z"/>
	<path id="NM" d="M128,120.9c-0.1-0.1-0.3-0.2-0.4-0.2l-34.6-3.4c-0.1,0-0.2,0-0.3,0c-0.3,0.1-0.5,0.3-0.5,0.6l-4.2,28l-0.1,0.7
		l-2,13.4c-0.1,0.4,0.2,0.8,0.6,0.9l2.7,0.4c0.4,0.1,0.8-0.2,0.9-0.6l0.4-2.3c0.1-0.4,0.5-0.7,0.9-0.6l8.8,1.1
		c0.4,0.1,0.8-0.2,0.9-0.7c0,0,0,0,0,0l0.1-1.4c0.1-0.4,0.4-0.7,0.8-0.7l21.8,2.3c0.4,0,0.8-0.3,0.9-0.7l3.6-36.2
		C128.2,121.3,128.1,121.1,128,120.9z"/>
	<path id="ID" d="M87.6,56.5l-8.9-1.8c-0.1,0-0.2-0.1-0.3-0.1h-0.1l0,0c-0.1-0.1-0.2-0.2-0.2-0.3l-2.8-8.7c-0.1-0.3-0.3-0.5-0.6-0.5
		l-3-0.6c-0.2-0.1-0.5-0.2-0.5-0.5l0,0l0,0c-0.1-0.2-0.1-0.3,0-0.5l2.2-7c0-0.1,0-0.1,0-0.2h-0.1l0,0h0.1c0-0.1,0-0.3-0.1-0.4
		l-5.9-12c-0.1-0.2-0.1-0.3-0.1-0.5L69,16c0.1-0.4-0.2-0.8-0.6-0.9c0,0,0,0,0,0l-2.6-0.6c-0.4-0.1-0.8,0.2-0.9,0.6c0,0,0,0,0,0
		l-4.9,22c0,0.2,0,0.4,0.1,0.6l1.9,3.2c0.2,0.3,0.1,0.6-0.1,0.9l-5.8,7.6c-0.1,0.1-0.1,0.2-0.1,0.2c0,0,0,0.1,0,0.1
		c0,0.3,0,0.5,0.2,0.7l0.6,0.6c0.2,0.2,0.3,0.5,0.2,0.7c0,0,0,0,0,0.1l-4.2,14.9c0,0.2,0,0.4,0,0.5c0,0,0,0.1,0,0.1
		c0.1,0.2,0.3,0.3,0.5,0.4l31,6.8c0.1,0,0.2,0,0.4,0c0.3-0.1,0.5-0.3,0.6-0.6l2.8-16.4C88.2,57,88,56.6,87.6,56.5z"/>
	<path id="TX" d="M188.2,170l-3.8-7.7c-0.1-0.1-0.1-0.2-0.1-0.4l0.3-10.8c0-0.3-0.2-0.6-0.5-0.7l-6.6-2.8l-0.2-0.1l-30.2-5.2
		c-0.3-0.2-0.5-0.4-0.6-0.8l0.5-13.9c0-0.4-0.3-0.8-0.8-0.8l-16.6-0.5c0,0-0.1,0-0.1,0c-0.3,0.1-0.6,0.3-0.6,0.7l-3.2,32.2
		c0,0.4-0.4,0.7-0.8,0.7H125l-21.8-2.3c-0.3,0-0.5,0.1-0.7,0.3c-0.1,0.1-0.2,0.3-0.2,0.4l-0.1,1.2c0,0.2,0.1,0.4,0.2,0.6l9.8,10.4
		c0.1,0.1,0.2,0.3,0.2,0.4c0,0,0,0,0,0.1l0.4,5.1c0,0.2,0.1,0.4,0.3,0.5l8.8,7.5c0.3,0.3,0.8,0.2,1.1-0.1c0,0,0-0.1,0.1-0.1l3.8-5.7
		c0.1-0.2,0.3-0.3,0.6-0.3h0.2l7,0.8c0.2,0,0.4,0.2,0.6,0.4l15.3,26c0.1,0.2,0.2,0.3,0.4,0.3l12.4,4.4c0.4,0.1,0.8-0.1,1-0.5
		c0-0.1,0-0.2,0-0.3l-1.2-8.1c0-0.2,0-0.4,0.1-0.5l7.3-11c0.2-0.2,0.4-0.4,0.7-0.3l4.4,0.2c0.2,0,0.4-0.1,0.6-0.2l9.9-8.7
		c0.1-0.1,0.2-0.1,0.4-0.2l2-9.6C188.3,170.3,188.3,170.1,188.2,170z"/>
	<path id="ND" d="M167.7,29.2c0-0.1-0.1-0.3-0.2-0.4c-0.1-0.2-0.3-0.3-0.6-0.3c-8.1-0.4-19.6-1.3-33.7-2.9c-0.1,0-0.1,0-0.2,0
		c-0.4,0-0.6,0.3-0.7,0.7l-2.1,22c0,0.4,0.3,0.8,0.7,0.8l38.1,1.9c0.4,0,0.8-0.3,0.8-0.7c0,0,0-0.1,0-0.1L167.7,29.2z"/>
	<path id="SD" d="M170.4,72.2v-0.3l-0.1-6.7l-0.1-12.1c0-0.3-0.2-0.6-0.6-0.7c-0.1,0-0.1,0-0.2,0l-38.6-1.9c-0.1,0-0.1,0-0.2,0
		c-0.3,0.1-0.6,0.3-0.6,0.7l-1.9,20.1c0,0.4,0.3,0.8,0.7,0.8c0,0,0,0,0,0L159,74h0.1c0.1,0,0.3,0,0.4,0.1l4.4,2.7
		c0.1,0.1,0.3,0.1,0.4,0.1h6.1c0.4,0,0.8-0.3,0.8-0.8c0-0.1,0-0.1,0-0.2L170.4,72.2z"/>
	<path id="KS" d="M180.8,106.9C180.8,106.9,180.8,106.9,180.8,106.9c0-0.2,0-0.3-0.1-0.3l-3.7-6.9h-0.1l-38.5-1.8
		c-0.4,0-0.8,0.3-0.8,0.7l-1.3,20.7c0,0.1,0,0.3,0.1,0.4c0.1,0.2,0.4,0.4,0.6,0.4l32.9,1.3l10.4,0.4c0.1,0,0.3,0,0.4-0.1
		c0.2-0.1,0.4-0.4,0.4-0.7L180.8,106.9z"/>
	<path class="st5" d="M147.7,125.5L147.7,125.5l0.3,0.1C147.9,125.6,147.8,125.5,147.7,125.5z"/>
	<path id="OK" d="M181.1,123.9c0-0.4-0.3-0.7-0.7-0.8h-0.3l-30.6-1.2l-13.5-0.5l0,0l-5.7-0.4c-0.4,0-0.8,0.3-0.8,0.7l-0.2,2.5
		c0,0.4,0.3,0.8,0.7,0.8c0,0,0,0,0.1,0l17.6,0.5h0.1c0.1,0,0.2,0,0.3,0.1c0.3,0.1,0.4,0.4,0.4,0.7l-0.5,14.1c0,0.4,0.3,0.7,0.6,0.8
		l29.4,5.1l0.2,0.1l2.4,1c0.4,0.2,0.8,0,1-0.4c0-0.1,0.1-0.2,0.1-0.3L181.1,123.9z"/>
	<path id="MN" d="M193.9,46.1l2.3-1.1c0.1,0,0.1-0.1,0.2-0.2c0.1-0.1,0.2-0.2,0.2-0.3c0.1-0.2,0.1-0.3,0.3-0.4l9.1-7.8
		c0.3-0.3,0.4-0.8,0.1-1.1c0,0-0.1-0.1-0.1-0.1c-0.1-0.1-0.2-0.1-0.3-0.2L181,29h-0.2c-0.6,0-4.4,0-10.9-0.3c-0.3,0-0.6,0.1-0.7,0.4
		c-0.1,0.1-0.1,0.3-0.1,0.5l2.4,22.5c0,0,0,0,0,0.1l0.2,17.8c0,0.3,0.2,0.6,0.5,0.7c0.1,0,0.2,0,0.3,0l18.4-0.2l8.5-0.1
		c0.4,0,0.8-0.4,0.8-0.8c0,0,0,0,0-0.1l-0.1-1.5c0-0.2-0.2-0.5-0.4-0.6l-2.3-1.5l-6.1-3.9c-0.2-0.1-0.4-0.4-0.4-0.7l0.5-9
		c0-0.3,0.2-0.5,0.4-0.6l1.6-0.9c0.3-0.1,0.4-0.4,0.4-0.7l-0.2-3.4C193.5,46.5,193.6,46.2,193.9,46.1L193.9,46.1z"/>
	<path id="IA" d="M207,82.3c0-0.1-0.1-0.1-0.1-0.2l-2.6-2.6c-0.1-0.1-0.1-0.1-0.1-0.2l-3.4-7.1c-0.1-0.3-0.4-0.4-0.7-0.4l-8.7,0.1
		l-18.6,0.1c-0.4,0-0.8,0.4-0.8,0.8c0,0,0,0.1,0,0.1l3.5,20.3c0.1,0.4,0.4,0.6,0.8,0.6l20.9-0.4c0.1,0,0.3,0,0.4,0.1l2.2,1.2
		c0.3,0.2,0.8,0.1,1-0.2l6.1-8.2c0.1-0.1,0.1-0.3,0.1-0.4l0.1-3.1C207.1,82.5,207,82.4,207,82.3z"/>
	<path id="MO" d="M214.4,121.4c0-0.1-0.1-0.2-0.1-0.2l-6.6-8.4c-0.1-0.2-0.2-0.3-0.2-0.5l0.3-4.2c0-0.2-0.1-0.4-0.2-0.6l-7.5-6.9
		l0,0c-0.1-0.1-0.1-0.2-0.1-0.3l-0.1-3.7c0-0.3-0.2-0.5-0.4-0.7l-2.3-1.2c-0.1-0.1-0.2-0.1-0.4-0.1h-0.1L177,94.9
		c-0.4,0-0.8,0.4-0.7,0.8c0,0.1,0,0.2,0.1,0.3l5.6,10.2v0.2l0.4,19c0,0.4,0.4,0.8,0.8,0.8l25-0.7c0.5,0.1,1,0.3,1,0.6v2.8
		c0,0.4,0.3,0.8,0.8,0.8c0,0,0,0,0,0h1.4c0.3,0,0.6-0.2,0.7-0.5l1.6-3.7c0,0,0-0.1,0-0.1V125l0.7-3.3
		C214.4,121.6,214.4,121.5,214.4,121.4z"/>
	<path id="LA" d="M217.1,177.1l-5.2,0.2h-0.1c-0.4,0-0.7-0.3-0.8-0.7l-0.1-1.1c-0.1-0.4,0.3-0.8,0.7-0.9c0,0,0,0,0.1,0l2.2-0.1
		c0.4,0,0.8-0.4,0.7-0.8c0-0.2-0.1-0.3-0.2-0.5l-0.5-0.5c-0.2-0.2-0.2-0.5-0.2-0.7l0.3-1c0.1-0.4-0.1-0.8-0.5-1c-0.1,0-0.2,0-0.3,0
		l-10.6,0.4h-0.1c-0.4,0-0.7-0.4-0.7-0.8c0,0,0,0,0,0c0-0.1,0-0.2,0-0.2l2.9-7.4c0-0.1,0-0.2,0-0.4l-0.6-6.3c0-0.3-0.2-0.5-0.4-0.6
		c-0.1-0.1-0.2-0.1-0.3-0.1l-16.9,0.3c-0.1,0-0.2,0-0.4,0.1c-0.2,0.1-0.4,0.4-0.4,0.6l-0.2,5.9c0,0.1,0,0.2,0.1,0.4l3.8,7.8
		c0.1,0.2,0.1,0.3,0.1,0.5l-1.9,8.9c-0.1,0.4,0.2,0.8,0.6,0.9c0,0,0.1,0,0.1,0l12.4,0.1h0.1c0.1,0,0.3,0,0.4,0.1l5.1,3.1
		c0.1,0.1,0.3,0.1,0.4,0.1l8.4-0.3c0.3,0,0.6-0.2,0.7-0.5l1.8-4.6c0.1-0.4-0.1-0.8-0.5-1C217.2,177.1,217.2,177.1,217.1,177.1z"/>
	<path id="MS" d="M210.9,132.2c0.2-0.4,0-0.8-0.4-1c-0.1,0-0.2-0.1-0.3-0.1h-1.5c-0.4,0-0.8-0.3-0.8-0.8c0,0,0,0,0,0v-2.7
		c0-0.4-0.4-0.8-0.8-0.8l-5.2,0.1l-18.7,0.5c-0.1,0-0.3,0-0.4,0.1c-0.2,0.1-0.4,0.4-0.4,0.7l0.4,19.5c0,0.3,0.2,0.6,0.5,0.7l2.2,1
		c0.2,0.1,0.4,0.3,0.4,0.6c0,0,0,0.1,0,0.1l-0.1,2.6c0,0.4,0.3,0.8,0.7,0.8c0,0,0,0,0,0l16.5-0.3c0.2,0,0.3-0.1,0.4-0.1
		c0.2-0.2,0.4-0.4,0.3-0.7l-0.4-3.7l0.1-0.1L210.9,132.2z"/>
	<path class="st5" d="M237.9,45.7c0-0.3-0.2-0.5-0.5-0.7l-4.4-1.8h-0.1c-0.1,0-0.3,0-0.4,0l-6.9,2.1h-0.1l-4.2,0.7
		c-0.1,0-0.3,0-0.4,0l-6-2.5c-0.3-0.1-0.5-0.4-0.5-0.7v-1.2c0-0.4-0.3-0.8-0.8-0.8c-0.1,0-0.3,0-0.4,0.1l-7.1,4.2
		c-0.3,0.2-0.5,0.6-0.3,1l0.6,1.2c0.1,0.2,0.3,0.3,0.5,0.4l6.5,1.5l1.3,0.3l2.3,0.5c0.2,0,0.3,0.1,0.4,0.2l3.5,4.1
		c0.3,0.3,0.8,0.4,1.1,0.1c0.1-0.1,0.2-0.2,0.2-0.3l0.9-2c0.1-0.2,0.2-0.3,0.4-0.4l8.4-3.7c0.1-0.1,0.2-0.1,0.4-0.1l4.9,0.2
		c0.4,0,0.8-0.3,0.8-0.7c0,0,0-0.1,0-0.1L237.9,45.7z"/>
	<path id="WI" d="M222.3,59.3l-0.9-2c-0.1-0.2-0.1-0.3-0.1-0.5l-4.4-5.2c-0.1-0.1-0.2-0.2-0.3-0.2l-0.1-0.1l-9.7-2.3l0,0l-0.3-0.1
		c-0.3-0.1-0.6-0.2-0.8-0.4l-1.2-2.1c-0.1-0.2-0.4-0.4-0.6-0.4l-6.1-0.4c-0.1,0-0.3,0-0.4,0.1l-2.2,1.1c-0.3,0.1-0.4,0.4-0.4,0.7
		l0.2,3.3c0,0.3-0.1,0.6-0.4,0.7l-1.7,0.9c-0.2,0.2-0.4,0.4-0.4,0.6l-0.4,7.6c0,0.3,0.2,0.5,0.4,0.7l8.4,5.3
		c0.2,0.1,0.3,0.3,0.4,0.6l0.3,3.4c0,0.1,0,0.2,0.1,0.3l3.4,7.1c0.1,0.3,0.4,0.5,0.7,0.4h0.2l14.4-1.4c0.4,0,0.7-0.3,0.7-0.7
		l1.3-16.8C222.4,59.6,222.3,59.5,222.3,59.3z M205.8,66.9L205.8,66.9z"/>
	<path id="IL" d="M222.7,84.8c0,0,0-0.1,0-0.1l0.2-1.9c0-0.1,0-0.2,0-0.3l0,0l-1.6-3.9c-0.1-0.3-0.4-0.5-0.8-0.5h-0.5l-12.4,1.2
		c-0.4,0-0.7,0.4-0.7,0.8c0,0.2,0.1,0.4,0.2,0.5l0.9,0.9c0.2,0.2,0.2,0.4,0.2,0.6l-0.1,4c0,0.2-0.1,0.3-0.1,0.4l-6.8,9.2
		c-0.1,0.1-0.2,0.3-0.1,0.5l0.1,3.5c0,0.2,0.1,0.4,0.2,0.5l7.6,7c0.1,0.2,0.2,0.4,0.2,0.6l-0.3,4.3c0,0.2,0,0.4,0.2,0.5l3.2,4
		l2.6,3.3c0.3,0.3,0.7,0.4,1.1,0.1c0,0,0,0,0,0l1.9-1.7l3.8-3.5c0.1-0.1,0.2-0.3,0.2-0.4l2-11.1c0-0.1,0-0.1,0-0.2L222.7,84.8z"/>
	<path class="st5" d="M247.5,80.7l0.1-0.4v0.1C247.5,80.5,247.5,80.6,247.5,80.7z"/>
	<path id="MI" d="M249.9,66c0-0.1-0.1-0.3-0.2-0.3l-2.5-2.3c-0.3-0.3-0.8-0.3-1.1,0c0,0-0.1,0.1-0.1,0.2l-1.4,2.5
		c-0.2,0.3-0.6,0.5-0.9,0.3l-0.8-0.3c-0.1,0-0.2-0.1-0.2-0.2c-0.3-0.3-0.3-0.7-0.1-1l2.7-4.3c0.1-0.2,0.1-0.4,0.1-0.6l-1.4-5.5
		c-0.1-0.2-0.2-0.4-0.5-0.5l-6.5-2.4c-0.3-0.1-0.6,0-0.8,0.2l-7.4,7.4c-0.1,0.1-0.2,0.3-0.2,0.5l-0.4,9.6c0,0.1,0.1,0.2,0.1,0.4
		l1.5,3.2c0.1,0.2,0.1,0.3,0.1,0.5l-1.9,8c-0.1,0.4,0.1,0.8,0.5,0.9l0,0l0.4,0.1c0.1,0,0.2,0,0.3,0l18.6-1.8l0,0c0-0.1,0-0.2,0-0.3
		v-0.1l2.1-6.5v-0.2l0.3-7.3C249.9,66.2,249.9,66.1,249.9,66z"/>
	<path id="IN" d="M238.7,83.2c0-0.1-0.1-0.3-0.2-0.4c-0.2-0.2-0.4-0.3-0.7-0.3l-9,0.8c-0.1,0-0.2,0-0.3,0l-1.6-0.6h-0.1l-2.9,0.5
		h-0.2l-0.1,1.4c0,0,0,0.1,0,0.1l1.3,18.4c0,0.1,0,0.1,0,0.2l0,0l-1.8,9.9c-0.1,0.4,0.2,0.8,0.6,0.9c0.1,0,0.2,0,0.3,0l10.2-2.2
		c0.2-0.1,0.4-0.2,0.5-0.3l5.9-8.9c0.1-0.1,0.1-0.3,0.1-0.5l0,0L238.7,83.2z"/>
	<path id="OH" d="M265.1,90.5L263,78.4c-0.1-0.4-0.5-0.7-0.9-0.6c-0.1,0-0.2,0.1-0.3,0.2l-4.6,3.9c-0.1,0.1-0.3,0.2-0.5,0.2
		l-8.3-0.4h-0.1l-7.9,0.8c-0.4,0-0.7,0.4-0.7,0.8l2,18.8c0,0.3,0.3,0.6,0.6,0.7l12.7,3.3c0.3,0.1,0.6,0,0.8-0.2l6.4-7.4
		c0.1-0.1,0.2-0.2,0.2-0.4l0.5-2.6c0-0.1,0-0.2,0.1-0.2l2.3-4C265.1,90.9,265.1,90.7,265.1,90.5L265.1,90.5z"/>
	<path id="KY" d="M258.6,113.2l-3.5-5.7l0,0c-0.1-0.1-0.2-0.3-0.4-0.3l-12.6-3.3c-0.3-0.1-0.7,0-0.8,0.3l-5.8,8.7
		c-0.1,0.2-0.3,0.3-0.5,0.3l-12.2,2.6c-0.1,0-0.3,0.1-0.4,0.2l-6.3,5.8c-0.1,0.1-0.2,0.2-0.2,0.4l-0.4,1.9c-0.1,0.3,0.1,0.6,0.3,0.8
		c0.1,0.1,0.3,0.1,0.4,0.1l6.7-0.4h0.1l13.7-2.2l16.5-2.7c0.2,0,0.3-0.1,0.5-0.3l4.7-5.5C258.7,113.8,258.8,113.5,258.6,113.2z"/>
	<path id="TN" d="M262,120.6c0-0.4-0.4-0.7-0.8-0.7c0,0,0,0-0.1,0h-0.3l-13.4,2.2l-24.2,3.9h-0.1l-7.8,0.4l0,0
		c-0.3,0-0.5,0.2-0.7,0.5l-4.1,9.3c-0.2,0.4,0,0.8,0.4,1c0.1,0,0.2,0.1,0.4,0.1h0.1l10.3-0.5l16.2-1.3l9.2-1
		c0.4-0.1,0.7-0.4,0.7-0.7l0.1-2c0-0.3,0.1-0.5,0.4-0.6l1.1-0.7l12.3-7.7l0.1-0.1c0.2-0.2,0.4-0.4,0.4-0.7L262,120.6z"/>
	<path id="MS_1_" d="M223,168.7l-0.8-9.1c0,0,0-0.1,0-0.1l0.3-6.4l0.6-15.2l-1.3,0.1l-11.8,0.6c-0.3,0-0.5,0.2-0.7,0.5l-4.3,9.8l0,0
		c0,0.1-0.1,0.2-0.1,0.4l1.2,12.6c0,0.1,0,0.2,0,0.4l-2.3,5.9c-0.2,0.4,0,0.8,0.4,1c0.1,0,0.2,0.1,0.3,0.1l2.2-0.1l8.1-0.3
		c0.4,0,0.8,0.3,0.8,0.7c0,0.1,0,0.2,0,0.3l-0.6,2c-0.1,0.2,0,0.5,0.2,0.7l0,0l1.4,1.7c0.2,0.2,0.4,0.3,0.6,0.3l5.2-0.3
		c0.4,0,0.8-0.4,0.7-0.8c0,0,0,0,0,0L223,168.7z"/>
	<path id="AL" d="M230.1,171.4l-1.3-2c-0.2-0.4-0.1-0.8,0.2-1.1c0.1-0.1,0.2-0.1,0.4-0.1l16.3-1.6l-0.5-0.8l-0.4-10.6
		c0-0.1,0-0.1,0-0.2l-5.6-18.4l-1,0.1l-12.9,1.1c-0.4,0-0.7,0.4-0.7,0.7l-0.9,21c0,0,0,0.1,0,0.1l0.7,8.9l0.4,4.8
		c0,0.4,0.4,0.7,0.8,0.7l4.1-0.2c0.3,0,0.5-0.2,0.6-0.4c0.1-0.1,0.1-0.3,0.1-0.4v-1.2C230.3,171.6,230.2,171.5,230.1,171.4z"/>
	<path id="FL" d="M284.5,193.4c0-0.1,0-0.2-0.1-0.4L275,175l-4-7.7c-0.1-0.3-0.4-0.4-0.7-0.4H268c-0.3,0-0.5,0.1-0.6,0.3l-0.8,1.2
		c-0.2,0.2-0.4,0.3-0.6,0.3l-17.4,1c-0.3,0-0.5-0.1-0.7-0.3l-1-1.4c-0.2-0.2-0.4-0.3-0.7-0.3l-14.5,1.4c-0.4,0-0.7,0.4-0.7,0.8
		c0,0.1,0.1,0.2,0.1,0.4l0.4,0.6c0.1,0.1,0.1,0.3,0.1,0.4l0.1,1.5c0,0.4,0.4,0.8,0.8,0.7c0,0,0,0,0,0l6-0.3c0.1,0,0.3,0,0.4,0.1
		l6.8,3.5c0.2,0.1,0.5,0.1,0.7,0l5.9-3.3c0.2-0.2,0.6-0.2,0.8,0l11,7.4c0.1,0.1,0.2,0.2,0.3,0.3l8.8,20.8c0,0.1,0.1,0.2,0.2,0.3
		l5.9,5.6c0.2,0.2,0.5,0.3,0.8,0.2l4.1-1.5c0.3-0.1,0.5-0.4,0.5-0.7L284.5,193.4z"/>
	<path id="GA" d="M273.3,155.7l-2.3-0.6c-0.1,0-0.3-0.1-0.4-0.2l0,0l-6.1-6.5l-10.6-11.3c-0.2-0.2-0.2-0.4-0.2-0.7l0.1-0.5
		c0.1-0.4-0.2-0.8-0.6-0.9c-0.1,0-0.2,0-0.3,0l-11.6,1.3c-0.3,0-0.6,0.3-0.7,0.6c0,0.1,0,0.2,0,0.4l5.3,17.5c0,0.1,0,0.1,0,0.2
		l0.4,10.1c0,0.2,0.1,0.3,0.1,0.4l1.9,2.7c0.1,0.2,0.4,0.3,0.6,0.3l0,0l16.1-0.9c0.2,0,0.5-0.1,0.6-0.3l0.8-1.3
		c0.1-0.2,0.4-0.3,0.6-0.3h3c0.3,0,0.6-0.2,0.7-0.5l0.1-0.2l2.7-8.2C273.9,156.3,273.7,155.9,273.3,155.7z"/>
	<path id="SC" d="M285.7,139.1l-7.8-6.1l0,0c-0.2-0.1-0.4-0.2-0.6-0.1l-6.1,1.1c-0.3,0.1-0.6-0.1-0.7-0.3l-1.2-1.4
		c-0.2-0.2-0.4-0.3-0.6-0.3l-8.1,0.4c-0.1,0-0.2,0-0.3,0.1l-4.1,2.1l-0.7,0.1l-0.3,1.3c-0.1,0.2,0,0.5,0.2,0.7l15.1,16.1l0.9,1
		c0.1,0.1,0.2,0.2,0.4,0.2l2.2,0.6c0.4,0.1,0.8-0.1,0.9-0.5l0.3-0.9l0.1-0.2l2.6-3.1l8-9.5C286.1,140,286,139.5,285.7,139.1
		L285.7,139.1z"/>
	<path id="NC" d="M298.6,114.8c0-0.2-0.1-0.5-0.3-0.6l-0.1-0.1c-0.1-0.1-0.3-0.1-0.4-0.1l-22.1,3.5l-11.6,1.8l0,0
		c-0.4,0.1-0.7,0.4-0.6,0.8l0.2,2.1c0,0.3-0.1,0.6-0.4,0.7l-13.7,8.6c-0.2,0.1-0.3,0.4-0.4,0.6v0.9c0,0.4,0.3,0.8,0.7,0.8
		c0,0,0.1,0,0.1,0l5.7-0.6c0.1,0,0.2,0,0.3-0.1l3.9-2.1c0.1-0.1,0.2-0.1,0.3-0.1h-0.3l0,0h0.3l4.2-0.2l4.8-0.2
		c0.2,0,0.5,0.1,0.6,0.3l1.1,1.4c0.2,0.2,0.5,0.3,0.7,0.3l5.9-1.1c0.2,0,0.4,0,0.6,0.1l9,7l0.1-0.1l0.1-0.1l11.9-11.1l0,0
		c0.2-0.2,0.2-0.4,0.2-0.6L298.6,114.8z"/>
	<path id="VA" d="M297.3,111.7l-2.4-3.1c-0.1-0.1-0.1-0.2-0.1-0.3l-1.2-4.6c-0.1-0.3-0.3-0.5-0.5-0.6l-4.7-1.2
		c-0.4-0.1-0.6-0.4-0.6-0.8l0.2-2c0-0.3-0.1-0.6-0.4-0.7l-3.4-2.2c-0.3-0.2-0.7-0.1-1,0.1l-7.1,8.1c-0.2,0.2-0.6,0.3-0.9,0.2
		l-0.9-0.4c-0.4-0.1-0.8,0.1-1,0.5c0,0,0,0,0,0l-2.4,7.6c-0.1,0.3-0.3,0.5-0.6,0.5l-10.1,1.2c-0.2,0-0.4,0.1-0.5,0.3l-3.1,3.6
		c-0.3,0.3-0.3,0.8,0.1,1.1c0.2,0.2,0.4,0.2,0.6,0.2l13.1-2.1l24.8-4l1.8-0.3c0.4-0.1,0.7-0.5,0.5-0.9
		C297.3,111.8,297.3,111.7,297.3,111.7z"/>
	<path id="WV" d="M283.3,92.7c-1.1,0.5-7.9,4.8-8.6,5.3c-0.3,0.2-0.7,0.1-0.7-0.1s-0.3-3.4-0.3-3.4s-0.2-0.4-0.4-0.3s-6,1.1-6,1.1
		c-0.2,0-0.7-0.1-0.8-0.5l-0.3-1.6c-0.1-0.7-0.8-0.8-1.1-0.4l-1.4,2.7c0,0.1-0.1,0.2-0.1,0.3l-0.4,2.6c0,0.1-0.1,0.3-0.2,0.4
		l-6.4,7.5c-0.2,0.3-0.2,0.6-0.1,0.9l3.3,5.4c0.2,0.2,0.5,0.4,0.8,0.4l8.6-1c0.3,0,0.5-0.2,0.6-0.5v-0.1l2.6-8.1
		c0.1-0.1,0.1-0.3,0.3-0.3c0.1-0.1,0.1-0.1,0.2-0.1c0.2-0.1,0.4-0.1,0.5,0l1.4,0.6c0.3,0.1,0.7,0,0.9-0.2l7.3-8.1
		c0.1-0.1,0.3-0.2,0.4-0.2c0.1,0,0.5,0.3,0.8,0.5c0.1,0.1,0.2,0,0.2-0.1l-0.6-2.2C283.7,92.7,283.6,92.6,283.3,92.7z"/>
	<path id="PA" d="M298.8,85.2c0-0.1-0.1-0.3-0.2-0.4l-2.5-2.6c-0.2-0.2-0.3-0.5-0.2-0.7l1.3-5.3c0.1-0.3,0-0.6-0.2-0.7l-3.2-3.1
		c-0.1-0.1-0.2-0.1-0.3-0.2h-0.1c-0.1,0-0.2,0-0.3,0l-24.4,4.7c-0.4,0.1-0.8-0.2-0.9-0.6l-0.4-1.7c-0.1-0.4-0.5-0.7-0.9-0.6
		c-0.1,0-0.2,0.1-0.3,0.2l-1.8,1.5c-0.2,0.2-0.3,0.5-0.3,0.7l0.2,1l2.7,15.7c0.1,0.4,0.5,0.7,0.9,0.6c0,0,0,0,0,0l3-0.5l22.3-3.8
		l0.4-0.1c0.2,0,0.4-0.2,0.5-0.3l0.8-1.1c0.2-0.2,0.4-0.3,0.6-0.3l1.9-0.1c0.2,0,0.5-0.1,0.6-0.4l0.9-1.4
		C298.7,85.6,298.8,85.4,298.8,85.2z"/>
	<path id="DE" d="M298.9,102.5l-1.3,0.3c-0.4,0.1-0.6,0.5-0.6,0.8l0.3,2.3c0,0.4,0.4,0.7,0.8,0.7c0.3,0,0.6-0.2,0.7-0.5l0.2-0.5
		l0.9-2.2c0.2-0.4,0-0.8-0.4-1C299.3,102.5,299.1,102.5,298.9,102.5z"/>
	<path id="MD" d="M300.5,96.5l-2-2.9c-0.2-0.3-0.2-0.8,0-1.1c0.2-0.2,0.2-0.5,0.1-0.8l-1-2.5c-0.1-0.3-0.4-0.5-0.8-0.5H296
		c-0.2,0-0.4,0.1-0.6,0.3l-0.3,0.5c-0.2,0.2-0.2,0.5-0.1,0.8l1.1,2.8l1.8,4.4c0.1,0.3,0.5,0.5,0.9,0.5l1.2-0.2
		c0.4-0.1,0.7-0.5,0.6-0.9C300.6,96.7,300.5,96.6,300.5,96.5z"/>
	<path id="NJ" d="M305,84.4L305,84.4c0-0.2,0-0.4-0.1-0.6l-1.8-2.6c-0.2-0.3-0.2-0.6,0-0.9l0.1-0.1c0.2-0.3,0.2-0.6,0-0.8l-0.7-1.5
		c-0.1-0.2-0.2-0.3-0.4-0.3l-2.8-0.9c-0.4-0.1-0.8,0.1-1,0.5c0,0,0,0,0,0.1l-1,3.9c-0.1,0.3,0,0.5,0.2,0.7l2.7,2.8
		c0,0,0.1,0.1,0.1,0.2c0.1,0.2,0.1,0.5,0,0.8l-1.5,2.4c-0.1,0.2-0.1,0.4-0.1,0.6c0,0,0,0,0,0.1l1.5,3.6c0.1,0.2,0.2,0.3,0.4,0.4
		l0.5,0.2c0.4,0.2,0.8,0,1-0.4c0,0,0,0,0,0L305,84.4C305,84.4,305,84.3,305,84.4L305,84.4z"/>
	<path id="NY" d="M305.3,76.5l-0.9-1.3c-0.1-0.1-0.1-0.2-0.1-0.3v-0.2l-0.9-4.8l-0.2-1.1c0,0,0-0.1,0-0.1v-5.5c0-0.1,0-0.1,0-0.2
		l0,0l-2.7-10.4l-1.5-5.9c-0.1-0.2-0.3-0.4-0.5-0.5c-0.1,0-0.3,0-0.4,0l-6.8,1.5c-0.2,0.1-0.4,0.2-0.5,0.4l-5,8.4
		c-0.1,0.2-0.1,0.4-0.1,0.6l0,0l0.7,2.6c0.1,0.4-0.1,0.8-0.5,0.9l-13.7,4.6c-0.1,0-0.2,0.1-0.3,0.2c-0.2,0.2-0.3,0.5-0.2,0.7
		l0.5,1.8l0.1,0.5c0.1,0.3,0,0.6-0.2,0.8l-3.6,3c-0.2,0.2-0.3,0.5-0.2,0.8l0.5,1.8c0.1,0.4,0.5,0.7,0.9,0.6l5-1l16-3.1l2.8-0.5
		c0.2,0,0.5,0,0.7,0.2l4.1,3.9c0.1,0.1,0.2,0.1,0.3,0.2h0.1l4.3,1.4c0.2,0.1,0.3,0.2,0.4,0.3l0,0l0.4,0.8c0.2,0.4,0.7,0.5,1,0.3
		c0.1-0.1,0.2-0.1,0.3-0.2l0.2-0.3C305.5,77.1,305.5,76.8,305.3,76.5z"/>
	<path id="CT" d="M313.6,72.1l-0.8-4.1c-0.1-0.4-0.5-0.7-0.9-0.6c0,0,0,0,0,0l-6.6,1.7c-0.4,0.1-0.6,0.5-0.6,0.9l0.9,4.4
		c0,0.1,0.1,0.2,0.1,0.3l0.8,1.1l0-0.1c0.1-0.1,0.2-0.3,0.4-0.3l6.3-2.5C313.5,72.8,313.7,72.5,313.6,72.1L313.6,72.1z"/>
	<path id="RI" d="M317.8,68.7c0-0.1-0.1-0.3-0.2-0.4l-1.6-1.6c-0.2-0.2-0.5-0.3-0.7-0.2l-0.7,0.2c-0.4,0.1-0.6,0.5-0.6,0.9l0.5,2.4
		l0.3,1.3c0.1,0.4,0.5,0.7,0.9,0.6c0,0,0.1,0,0.1,0l1.2-0.5c0.3-0.1,0.5-0.4,0.5-0.7v-1c0-0.2,0.1-0.3,0.1-0.5
		C317.7,69.1,317.8,68.9,317.8,68.7z"/>
	<path class="st5" d="M318,62.9c0,0.1,0,0.2,0.1,0.4L318,62.9z"/>
	<path id="MA" d="M324.6,65.3l-1.1-0.7l0,0c-0.1-0.1-0.2-0.1-0.3-0.1l-4.6-0.7c-0.4-0.1-0.7-0.4-0.6-0.8l0,0l0.2-2.7
		c0-0.1,0-0.3-0.1-0.4l-0.1-0.4l-2.9,1.4l0,0h-0.1l-9.9,2.4c-0.3,0.1-0.6,0.4-0.6,0.8v3.4c0,0.3,0.2,0.6,0.5,0.7c0.1,0,0.3,0,0.4,0
		l10.1-2.5c0.3,0,0.5,0,0.7,0.2l3,3l-0.3,0.3l0.8,0.5c0.3,0.2,0.6,0.2,0.9,0l4-3c0.4-0.2,0.5-0.7,0.3-1.1
		C324.8,65.4,324.7,65.3,324.6,65.3z"/>
	<path id="VT" d="M307.5,50.2l1.6-3.1c0.1-0.2,0.1-0.5,0-0.8l-1.2-1.8c-0.2-0.3-0.5-0.4-0.8-0.3l-6.4,1.4c-0.3,0.1-0.5,0.3-0.5,0.5
		c0,0.1,0,0.3,0,0.4l1.5,5.9l2.4,9.2c0.1,0.4,0.5,0.6,0.9,0.6l2.4-0.6c0.3-0.1,0.6-0.4,0.6-0.7c0,0,0-0.1,0-0.1l-0.6-10.3
		c0,0,0,0,0-0.1C307.4,50.4,307.4,50.3,307.5,50.2z"/>
	<path id="NH" d="M317.2,57.4c0-0.2,0-0.3,0-0.5l-2-1.8c-0.1-0.1-0.2-0.2-0.2-0.3l-0.1-0.2l-1.6-5.1l-0.1-0.3l-2.3-7.3
		c-0.1-0.4-0.5-0.6-1-0.5c0,0,0,0,0,0l-0.4,0.1c-0.3,0.1-0.5,0.4-0.5,0.7l-0.1,0.8c0,0.2-0.1,0.3-0.2,0.5l1.8,2.7v0.1
		c0.1,0.2,0.1,0.5,0,0.8l-1.8,3.5c-0.1,0.1-0.1,0.3-0.1,0.4l0.5,9.4c0,0.4,0.4,0.8,0.9,0.7c0,0,0.1,0,0.1,0l4.5-1.1l0.1,0l1.4-0.7
		l1.5-0.7L317.2,57.4z"/>
	<path id="ME" d="M333.8,37c-1.8-1.1-6-3.8-6-4.3s-1.4-6.6-2.1-9.8l-0.3-1.2c-0.1-0.4-0.4-0.6-0.8-0.6l-3,0.2
		c-0.2,0-0.4,0.1-0.6,0.3l-1,1.3c-0.1,0.2-0.3,0.3-0.6,0.3l-3.7,0.2c-0.4,0-0.6,0.3-0.7,0.6l-2.7,15.9c0,0.1-0.1,0.1-0.1,0.2
		c0,0.1-0.1,0.1-0.1,0.2c-0.2,0.2-0.3,0.5-0.2,0.8L316,54c0,0.1,0.1,0.3,0.2,0.3l1,0.9c0.3,0.3,0.8,0.2,1.1-0.1c0,0,0,0,0,0l6.1-8.1
		c0.1-0.1,0.1-0.2,0.1-0.3l0.5-2.5l0.1-0.3l0,0c0-0.1,0.1-0.1,0.1-0.2l0.1-0.1c0.2-0.2,0.4-0.3,0.7-0.3l2.7,0.3
		c0.2,0,0.4-0.1,0.6-0.2c0,0,0.1,0,0.1-0.1l4.6-5.2C334.2,37.9,334.2,37.4,333.8,37C333.8,37.1,333.8,37.1,333.8,37L333.8,37z"/>
	<path class="st5" d="M300.3,99.2l-2.3,0.5c-0.1,0-0.2,0-0.3,0l0,0c-0.3,0-0.5-0.2-0.6-0.5l-1.7-4.1l-1.6-3.9
		c-0.1-0.3-0.5-0.5-0.8-0.5l-7.9,1.4c-0.1,0-0.2,0.2-0.2,0.3c0,0,0,0,0,0l1,3.7l2.9,1.9c0.2,0.2,0.4,0.4,0.4,0.7l-0.2,1.6
		c0,0.4,0.2,0.7,0.6,0.8l2.1,0.5c0.4,0.1,0.8-0.1,0.9-0.5c0-0.1,0-0.3,0-0.4l-1-3.8c-0.1-0.4,0.1-0.8,0.5-1c0,0,0.1,0,0.1,0l1.6-0.4
		c0.4-0.1,0.8,0.1,0.9,0.5l1.6,4.9l0.1,0.3c0.1,0.4,0.5,0.6,0.9,0.5l3.2-0.8c0.2-0.1,0.4-0.2,0.5-0.5l0.1-0.3L300.3,99.2z"/>
	<path class="st5" d="M275,95.6l-0.1-1.1c0-0.4,0.2-0.7,0.6-0.8l3.7-0.7c0.8-0.2,1,0.6,0.5,1.1c0,0-2.6,1.5-3.2,1.8
		S275.1,96.3,275,95.6z"/>
</g>
<g id="Layer_2">
	<polygon class="st0" points="15,6.4 8.7,6.7 12.4,1.1 10.4,0 7.5,5.9 4.6,0 2.6,1.1 6.3,6.7 0,6.4 0,8.6 6.2,8.2 2.7,13.9 4.6,15 
		7.5,9.1 10.4,15 12.3,13.9 8.8,8.2 15,8.6 	"/>
	<circle class="st0" cx="800" cy="86.9" r="0.9"/>
	<circle class="st0" cx="173.9" cy="186.9" r="0.9"/>
	<circle class="st0" cx="219.9" cy="79.9" r="0.9"/>
	<circle class="st0" cx="307.9" cy="71.9" r="0.9"/>
	<circle class="st0" cx="25.9" cy="23.9" r="0.9"/>
	<circle class="st0" cx="35.9" cy="135.9" r="0.9"/>
	<circle class="st0" cx="121.9" cy="109.9" r="0.9"/>
</g>
<polygon class="st0" points="174.8,153.8 173.2,153.9 174.2,152.5 173.6,152.2 172.9,153.7 172.2,152.2 171.6,152.5 172.6,153.9 
	171,153.8 171,154.4 172.6,154.3 171.7,155.8 172.2,156 172.9,154.5 173.6,156 174.1,155.8 173.2,154.3 174.8,154.4 "/>
<polygon class="st6" points="188.8,191.8 187.2,191.9 188.2,190.5 187.6,190.2 186.9,191.7 186.2,190.2 185.6,190.5 186.6,191.9 
	185,191.8 185,192.4 186.6,192.3 185.7,193.8 186.2,194 186.9,192.5 187.6,194 188.1,193.8 187.2,192.3 188.8,192.4 "/>
<text transform="matrix(1 0 0 1 190.48 194.7999)" class="st6 st7 st8">Centennial Office</text>
</svg>
