<?xml version="1.0" encoding="utf-8"?>
<!-- Generator: Adobe Illustrator 19.2.0, SVG Export Plug-In . SVG Version: 6.00 Build 0)  -->
<!DOCTYPE svg PUBLIC "-//W3C//DTD SVG 1.1//EN" "http://www.w3.org/Graphics/SVG/1.1/DTD/svg11.dtd">
<svg version="1.1" id="Layer_1" xmlns="http://www.w3.org/2000/svg" xmlns:xlink="http://www.w3.org/1999/xlink" x="0px" y="0px"
	 viewBox="0 0 1133.5 856.9" style="enable-background:new 0 0 1133.5 856.9;" xml:space="preserve">
<style type="text/css">
	.st0{clip-path:url(#SVGID_2_);}
	.st1{fill:#221F1F;}
</style>
<title>Centennial Background Pattern</title>
<desc>This is a repeating pattern of the Centennial Real Estate logo mark "C"</desc>
<g>
	<defs>
		<rect id="SVGID_1_" width="1133.5" height="856.9"/>
	</defs>
	<clipPath id="SVGID_2_">
		<use xlink:href="#SVGID_1_"  style="overflow:visible;"/>
	</clipPath>
	<g class="st0">
		<polygon class="st1" points="777,384.2 810.5,363.2 875,404.1 905.7,384.5 810.3,324.2 714.9,384.5 810.3,444.8 841.5,425.1 		"/>
		<polygon class="st1" points="785.5,460.6 664,383.6 811,291.4 931.8,367.9 967.2,345.4 810.3,246.2 591.5,384.5 748.7,483.9 		"/>
		<polygon class="st1" points="531.6,539.5 565.1,518.5 629.6,559.4 660.3,539.8 564.9,479.5 469.4,539.8 564.9,600.2 596,580.4
			"/>
		<polygon class="st1" points="540.1,615.9 418.6,538.9 565.6,446.7 686.3,523.2 721.8,500.7 564.9,401.5 346,539.8 503.2,639.2
			"/>
		<polygon class="st1" points="1027,190 993.5,211 929,170.2 898.3,189.7 993.7,250.1 1089.1,189.7 993.7,129.4 962.5,149.2 		"/>
		<polygon class="st1" points="1018.5,113.7 1140,190.7 993,282.8 872.3,206.4 836.8,228.9 993.7,328.1 1212.5,189.7 1055.3,90.3
			"/>
		<polygon class="st1" points="1272.2,34.3 1238.7,55.4 1174.2,14.5 1143.5,34.1 1238.9,94.4 1334.3,34.1 1238.9,-26.3 1207.7,-6.5
					"/>
		<polygon class="st1" points="1263.7,-42 1385.2,35 1238.2,127.2 1117.5,50.7 1082,73.2 1238.9,172.4 1457.7,34.1 1300.5,-65.3
			"/>
		<polygon class="st1" points="46.1,812.4 12.6,833.4 -51.9,792.6 -82.6,812.1 12.8,872.5 108.2,812.1 12.8,751.8 -18.4,771.6 		"/>
		<polygon class="st1" points="37.6,736.1 159.1,813 12.1,905.2 -108.6,828.8 -144.1,851.3 12.8,950.5 231.6,812.1 74.4,712.7 		"/>
		<polygon class="st1" points="291.2,656.8 257.7,677.8 193.2,637 162.5,656.5 257.9,716.9 353.3,656.5 257.9,596.2 226.7,616 		"/>
		<polygon class="st1" points="282.7,580.5 404.2,657.5 257.1,749.6 136.4,673.2 101,695.7 257.9,794.9 476.7,656.6 319.5,557.2
			"/>
		<polygon class="st1" points="593.2,268.1 626.7,247.1 691.2,287.9 721.9,268.4 626.5,208 531.1,268.4 626.5,328.7 657.7,308.9
			"/>
		<polygon class="st1" points="601.7,344.4 480.2,267.5 627.2,175.3 747.9,251.7 783.4,229.2 626.5,130 407.6,268.3 564.9,367.8
			"/>
		<polygon class="st1" points="1328.7,-198.8 1362.2,-219.8 1426.7,-179 1457.4,-198.5 1362,-258.8 1266.6,-198.5 1362,-138.2
			1393.2,-157.9 		"/>
		<polygon class="st1" points="1337.2,-122.4 1215.7,-199.4 1362.7,-291.6 1483.4,-215.1 1518.9,-237.6 1362,-336.8 1143.2,-198.5
			1300.4,-99.1 		"/>
		<polygon class="st1" points="348.7,423.9 382.2,402.9 446.7,443.7 477.4,424.2 382,363.9 286.6,424.2 382,484.5 413.2,464.8 		"/>
		<polygon class="st1" points="357.2,500.2 235.7,423.3 382.7,331.1 503.4,407.6 538.9,385.1 382,285.8 163.2,424.2 320.4,523.6
			"/>
		<polygon class="st1" points="843.6,74 810.1,95 745.6,54.2 714.9,73.7 810.3,134.1 905.8,73.7 810.3,13.4 779.1,33.2 		"/>
		<polygon class="st1" points="835.1,-2.3 956.6,74.7 809.6,166.8 688.9,90.4 653.4,112.9 810.3,212.1 1029.2,73.7 871.9,-25.7
			"/>
		<polygon class="st1" points="1088.9,-81.6 1055.4,-60.5 990.9,-101.4 960.2,-81.8 1055.6,-21.5 1151,-81.8 1055.6,-142.2
			1024.4,-122.4 		"/>
		<polygon class="st1" points="1080.4,-157.9 1201.9,-80.9 1054.8,11.2 934.1,-65.2 898.6,-42.7 1055.6,56.5 1274.4,-81.8
			1117.2,-181.2 		"/>
		<polygon class="st1" points="-137.1,696.2 -170.6,717.2 -235.1,676.3 -265.8,695.9 -170.4,756.2 -74.9,695.9 -170.4,635.6
			-201.6,655.3 		"/>
		<polygon class="st1" points="-145.6,619.8 -24.1,696.8 -171.1,789 -291.8,712.5 -327.3,735 -170.4,834.2 48.5,695.9 -108.8,596.5
					"/>
		<polygon class="st1" points="108.6,540.8 75.1,561.8 10.6,521 -20.1,540.5 75.3,600.9 170.7,540.5 75.3,480.2 44.1,500 		"/>
		<polygon class="st1" points="100.1,464.5 221.6,541.5 74.6,633.6 -46.1,557.2 -81.6,579.7 75.3,678.9 294.1,540.6 136.9,441.2
			"/>
		<polygon class="st1" points="345.5,-427.9 379,-448.9 443.5,-408 474.2,-427.6 378.8,-487.9 283.4,-427.6 378.8,-367.3 410,-387
					"/>
		<polygon class="st1" points="354,-351.5 232.5,-428.5 379.6,-520.7 500.3,-444.2 535.8,-466.7 378.8,-565.9 160,-427.6
			317.2,-328.2 		"/>
		<polygon class="st1" points="100.1,-272.6 133.6,-293.6 198.1,-252.8 228.8,-272.3 133.4,-332.6 37.9,-272.3 133.4,-212
			164.6,-231.7 		"/>
		<polygon class="st1" points="108.6,-196.2 -12.9,-273.2 134.1,-365.4 254.8,-288.9 290.3,-311.4 133.4,-410.6 -85.5,-272.3
			71.8,-172.9 		"/>
		<polygon class="st1" points="595.5,-622.1 562,-601.1 497.5,-641.9 466.8,-622.4 562.2,-562 657.6,-622.4 562.2,-682.7
			531,-662.9 		"/>
		<polygon class="st1" points="587,-698.4 708.5,-621.5 561.5,-529.3 440.8,-605.7 405.3,-583.2 562.2,-484 781,-622.4
			623.8,-721.8 		"/>
		<polygon class="st1" points="840.7,-777.8 807.2,-756.8 742.7,-797.6 712,-778 807.4,-717.7 902.8,-778 807.4,-838.4
			776.2,-818.6 		"/>
		<polygon class="st1" points="832.2,-854.1 953.7,-777.1 806.7,-685 686,-761.4 650.5,-738.9 807.4,-639.7 1026.2,-778 869,-877.4
					"/>
		<polygon class="st1" points="-385.4,0.3 -418.9,21.3 -483.4,-19.5 -514.1,0 -418.7,60.3 -323.3,0 -418.7,-60.3 -449.9,-40.6 		"/>
		<polygon class="st1" points="-393.9,-76 -272.4,0.9 -419.4,93.1 -540.1,16.7 -575.6,39.1 -418.7,138.4 -199.9,0 -357.1,-99.4
			"/>
		<polygon class="st1" points="-140.3,-155.3 -173.8,-134.3 -238.3,-175.1 -269,-155.6 -173.6,-95.2 -78.2,-155.6 -173.6,-215.9
			-204.8,-196.1 		"/>
		<polygon class="st1" points="-148.8,-231.6 -27.3,-154.7 -174.3,-62.5 -295.1,-138.9 -330.5,-116.4 -173.6,-17.2 45.2,-155.6
			-112,-255 		"/>
		<polygon class="st1" points="161.7,-544 195.2,-565.1 259.7,-524.2 290.4,-543.8 195,-604.1 99.6,-543.8 195,-483.4 226.2,-503.2
					"/>
		<polygon class="st1" points="170.2,-467.7 48.7,-544.7 195.7,-636.8 316.4,-560.4 351.9,-582.9 195,-682.1 -23.8,-543.8
			133.4,-444.4 		"/>
		<polygon class="st1" points="897.2,-1010.9 930.7,-1031.9 995.2,-991.1 1025.9,-1010.6 930.5,-1070.9 835.1,-1010.6 930.5,-950.3
			961.7,-970 		"/>
		<polygon class="st1" points="905.7,-934.6 784.2,-1011.5 931.2,-1103.7 1051.9,-1027.3 1087.4,-1049.8 930.5,-1149 711.7,-1010.6
			868.9,-911.2 		"/>
		<polygon class="st1" points="-82.8,-388.2 -49.3,-409.2 15.2,-368.4 45.9,-387.9 -49.5,-448.2 -144.9,-387.9 -49.5,-327.6
			-18.3,-347.3 		"/>
		<polygon class="st1" points="-74.3,-311.9 -195.8,-388.8 -48.8,-481 71.9,-404.6 107.4,-427.1 -49.5,-526.3 -268.3,-387.9
			-111.1,-288.5 		"/>
		<polygon class="st1" points="412.1,-738.1 378.6,-717.1 314.1,-757.9 283.4,-738.4 378.8,-678 474.3,-738.4 378.8,-798.7
			347.6,-778.9 		"/>
		<polygon class="st1" points="403.6,-814.4 525.1,-737.5 378.1,-645.3 257.4,-721.7 221.9,-699.2 378.8,-600 597.7,-738.4
			440.5,-837.8 		"/>
		<polygon class="st1" points="657.4,-893.7 623.9,-872.7 559.4,-913.5 528.7,-894 624.1,-833.6 719.5,-894 624.1,-954.3
			592.9,-934.5 		"/>
		<polygon class="st1" points="648.9,-970 770.4,-893 623.4,-800.9 502.6,-877.3 467.2,-854.8 624.1,-755.6 842.9,-894
			685.7,-993.4 		"/>
		<polygon class="st1" points="-568.6,-116 -602.1,-94.9 -666.6,-135.8 -697.3,-116.2 -601.9,-55.9 -506.4,-116.2 -601.9,-176.6
			-633.1,-156.8 		"/>
		<polygon class="st1" points="-577.1,-192.3 -455.6,-115.3 -602.6,-23.2 -723.3,-99.6 -758.8,-77.1 -601.9,22.1 -383,-116.2
			-540.2,-215.6 		"/>
		<polygon class="st1" points="-322.9,-271.3 -356.4,-250.3 -420.9,-291.1 -451.6,-271.6 -356.2,-211.2 -260.8,-271.6
			-356.2,-331.9 -387.4,-312.1 		"/>
		<polygon class="st1" points="-331.4,-347.6 -209.9,-270.7 -356.9,-178.5 -477.6,-254.9 -513.1,-232.4 -356.2,-133.2
			-137.4,-271.6 -294.6,-371 		"/>
		<polygon class="st1" points="442.8,95.5 438,56.2 502.5,15.3 498,-20.8 402.7,39.8 416.5,151.8 511.8,91.3 507.2,54.7 		"/>
		<polygon class="st1" points="515.4,120.4 393.9,197.4 373.4,25.1 494,-51.4 488.8,-93.1 332.1,6.5 363.8,263.4 520.8,163.7 		"/>
		<polygon class="st1" points="627.1,-21.6 622.4,-60.9 686.9,-101.8 682.3,-137.9 587,-77.3 600.9,34.7 696.1,-25.8 691.6,-62.5
			"/>
		<polygon class="st1" points="699.8,3.3 578.3,80.3 557.7,-92 678.4,-168.5 673.2,-210.2 516.5,-110.6 548.2,146.3 705.2,46.6
			"/>
		<polygon class="st1" points="-108.2,445 -112.9,405.7 -48.4,364.8 -53,328.8 -148.3,389.3 -134.4,501.3 -39.1,440.8 -43.7,404.2
					"/>
		<polygon class="st1" points="-35.5,469.9 -157,546.9 -177.6,374.6 -56.9,298.1 -62.1,256.4 -218.8,356 -187.1,612.9 -30.1,513.2
					"/>
		<polygon class="st1" points="226,191.2 230.7,230.5 166.3,271.4 170.9,307.5 266.1,246.9 252.2,134.9 157,195.5 161.5,232.1 		"/>
		<polygon class="st1" points="153.3,166.3 274.7,89.2 295.4,261.5 174.8,338.1 180,379.8 336.7,280.2 304.8,23.2 147.9,123.1 		"/>
		<polygon class="st1" points="42.8,307.6 47.5,346.9 -16.9,387.8 -12.3,423.9 82.9,363.3 69.1,251.3 -26.2,311.9 -21.6,348.5 		"/>
		<polygon class="st1" points="-29.9,282.8 91.6,205.7 112.2,377.9 -8.3,454.5 -3.1,496.2 153.5,396.6 121.7,139.7 -35.3,239.5
			"/>
		<polygon class="st1" points="810.8,-138.6 806.1,-177.9 870.6,-218.8 866,-254.9 770.7,-194.3 784.5,-82.3 879.8,-142.8
			875.3,-179.5 		"/>
		<polygon class="st1" points="883.4,-113.7 762,-36.7 741.4,-209 862,-285.5 856.9,-327.2 700.1,-227.7 731.8,29.3 888.8,-70.4
			"/>
		<polygon class="st1" points="1144.9,-392.5 1149.7,-353.2 1085.2,-312.2 1089.8,-276.2 1185.1,-336.8 1171.2,-448.8
			1075.9,-388.2 1080.5,-351.5 		"/>
		<polygon class="st1" points="1072.3,-417.3 1193.7,-494.4 1214.4,-322.1 1093.8,-245.5 1099,-203.8 1255.6,-303.5 1223.8,-560.4
			1066.9,-460.6 		"/>
		<polygon class="st1" points="1328.7,-509.1 1333.4,-469.8 1269,-428.9 1273.6,-392.8 1368.8,-453.4 1354.9,-565.4 1259.7,-504.9
			1264.2,-468.2 		"/>
		<polygon class="st1" points="1256,-534 1377.4,-611.1 1398.1,-438.8 1277.5,-362.2 1282.7,-320.5 1439.4,-420.1 1407.5,-677.1
			1250.6,-577.2 		"/>
		<polygon class="st1" points="961.8,-276 966.5,-236.8 902,-195.8 906.6,-159.7 1001.9,-220.3 988,-332.4 892.8,-271.8
			897.3,-235.1 		"/>
		<polygon class="st1" points="889.1,-300.9 1010.5,-378 1031.2,-205.7 910.6,-129.1 915.8,-87.4 1072.5,-187.1 1040.6,-444
			883.7,-344.2 		"/>
		<polygon class="st1" points="40.1,40.9 35.4,1.6 99.9,-39.3 95.3,-75.4 0,-14.9 13.8,97.2 109.1,36.6 104.6,0 		"/>
		<polygon class="st1" points="112.8,65.7 -8.7,142.8 -29.3,-29.5 91.4,-106.1 86.2,-147.8 -70.5,-48.2 -38.9,208.8 118.1,109 		"/>
		<polygon class="st1" points="224.5,-76.3 219.8,-115.6 284.2,-156.4 279.7,-192.5 184.4,-132 198.2,-20 293.5,-80.5 288.9,-117.2
					"/>
		<polygon class="st1" points="297.1,-51.4 175.7,25.6 155.1,-146.7 275.7,-223.2 270.5,-264.9 113.8,-165.3 145.5,91.6 302.5,-8.1
					"/>
		<polygon class="st1" points="-510.8,390.4 -515.5,351.1 -451,310.2 -455.6,274.1 -550.9,334.6 -537.1,446.7 -441.8,386.1
			-446.3,349.5 		"/>
		<polygon class="st1" points="-438.2,415.2 -559.6,492.3 -580.2,320 -459.6,243.4 -464.8,201.8 -621.5,301.3 -589.8,558.2
			-432.8,458.5 		"/>
		<polygon class="st1" points="-176.7,136.5 -171.9,175.8 -236.4,216.7 -231.8,252.8 -136.5,192.2 -150.4,80.2 -245.7,140.8
			-241.1,177.4 		"/>
		<polygon class="st1" points="-249.3,111.7 -127.9,34.6 -107.2,206.8 -227.8,283.4 -222.6,325.1 -66,225.5 -97.8,-31.4
			-254.8,68.4 		"/>
		<polygon class="st1" points="-359.8,252.9 -355.1,292.2 -419.6,333.1 -415,369.2 -319.7,308.6 -333.6,196.6 -428.9,257.2
			-424.3,293.8 		"/>
		<polygon class="st1" points="-432.5,228.1 -311.1,151 -290.4,323.3 -411,399.9 -405.8,441.6 -249.1,341.9 -281,85 -437.9,184.8
			"/>
		<polygon class="st1" points="408.1,-193.3 403.4,-232.6 467.9,-273.5 463.3,-309.6 368,-249 381.9,-137 477.1,-197.5
			472.6,-234.2 		"/>
		<polygon class="st1" points="480.8,-168.4 359.3,-91.4 338.7,-263.7 459.4,-340.2 454.2,-381.9 297.5,-282.3 329.2,-25.4
			486.2,-125.1 		"/>
		<polygon class="st1" points="742.3,-447.1 747,-407.8 682.6,-366.9 687.1,-330.8 782.4,-391.4 768.5,-503.5 673.3,-442.9
			677.8,-406.2 		"/>
		<polygon class="st1" points="669.6,-472 791,-549.1 811.7,-376.8 691.1,-300.2 696.3,-258.5 853,-358.2 821.1,-615.1
			664.2,-515.2 		"/>
		<polygon class="st1" points="926,-563.8 930.8,-524.5 866.3,-483.6 870.9,-447.5 966.1,-508.1 952.3,-620.1 857,-559.5
			861.6,-522.9 		"/>
		<polygon class="st1" points="853.4,-588.6 974.8,-665.7 995.5,-493.5 874.9,-416.9 880.1,-375.2 1036.7,-474.8 1004.9,-731.8
			847.9,-631.9 		"/>
		<polygon class="st1" points="559.1,-330.7 563.8,-291.4 499.4,-250.5 504,-214.4 599.2,-275 585.4,-387 490.1,-326.4
			494.7,-289.8 		"/>
		<polygon class="st1" points="486.4,-355.6 607.9,-432.7 628.5,-260.4 508,-183.8 513.2,-142.1 669.8,-241.7 638,-498.7
			481,-398.8 		"/>
		<polygon class="st1" points="1059.8,790.5 1055.1,751.2 1119.5,710.3 1114.9,674.2 1019.7,734.8 1033.5,846.8 1128.8,786.3
			1124.2,749.7 		"/>
		<polygon class="st1" points="1132.4,815.4 1010.9,892.4 990.4,720.1 1111,643.6 1105.8,601.9 949.1,701.5 980.8,958.4
			1137.8,858.7 		"/>
		<polygon class="st1" points="1244.1,673.4 1239.4,634.1 1303.9,593.2 1299.3,557.1 1204,617.7 1217.9,729.7 1313.1,669.2
			1308.6,632.5 		"/>
		<polygon class="st1" points="1316.8,698.3 1195.3,775.3 1174.7,603 1295.4,526.5 1290.2,484.8 1133.5,584.4 1165.2,841.3
			1322.2,741.6 		"/>
		<polygon class="st1" points="508.8,1140 504.1,1100.7 568.6,1059.9 564,1023.8 468.7,1084.3 482.6,1196.3 577.9,1135.8
			573.3,1099.2 		"/>
		<polygon class="st1" points="581.5,1164.9 460,1241.9 439.4,1069.6 560.1,993.1 554.9,951.4 398.2,1051 429.9,1307.9
			586.9,1208.2 		"/>
		<polygon class="st1" points="843,886.2 847.7,925.5 783.3,966.4 787.9,1002.5 883.1,941.9 869.2,829.9 774,890.5 778.5,927.1
			"/>
		<polygon class="st1" points="770.3,861.3 891.7,784.2 912.4,956.5 791.8,1033.1 797,1074.8 953.7,975.2 921.8,718.2 764.9,818.1
					"/>
		<polygon class="st1" points="659.8,1002.6 664.5,1041.9 600.1,1082.8 604.7,1118.9 699.9,1058.3 686,946.3 590.8,1006.9
			595.4,1043.5 		"/>
		<polygon class="st1" points="587.1,977.8 708.6,900.7 729.3,1072.9 608.6,1149.5 613.9,1191.2 770.5,1091.6 738.7,834.7
			581.7,934.5 		"/>
		<polygon class="st1" points="1427.8,556.4 1423.1,517.1 1487.6,476.2 1483,440.1 1387.7,500.7 1401.5,612.7 1496.8,552.2
			1492.3,515.5 		"/>
		<polygon class="st1" points="1500.4,581.3 1379,658.3 1358.4,486 1479.1,409.5 1473.8,367.8 1317.1,467.3 1348.8,724.3
			1505.8,624.6 		"/>
		<polygon class="st1" points="1761.9,302.5 1766.7,341.8 1702.2,382.8 1706.8,418.8 1802.1,358.2 1788.2,246.2 1692.9,306.8
			1697.5,343.5 		"/>
		<polygon class="st1" points="1689.3,277.7 1810.7,200.6 1831.4,372.9 1710.8,449.5 1716,491.2 1872.6,391.5 1840.8,134.6
			1683.8,234.4 		"/>
		<polygon class="st1" points="1945.7,185.9 1950.4,225.2 1886,266.1 1890.6,302.2 1985.8,241.6 1971.9,129.6 1876.7,190.1
			1881.2,226.8 		"/>
		<polygon class="st1" points="1873,161 1994.4,83.9 2015.1,256.2 1894.5,332.8 1899.7,374.5 2056.4,274.8 2024.5,17.9
			1867.6,117.8 		"/>
		<polygon class="st1" points="1578.8,419 1583.5,458.2 1519.1,499.2 1523.6,535.3 1618.9,474.7 1605,362.6 1509.8,423.2
			1514.3,459.9 		"/>
		<polygon class="st1" points="1506.1,394.1 1627.5,317 1648.2,489.3 1527.6,565.9 1532.8,607.6 1689.5,507.9 1657.6,251
			1500.7,350.8 		"/>
		<polygon class="st1" points="657.1,735.9 652.4,696.6 716.9,655.7 712.3,619.6 617,680.1 630.8,792.2 726.1,731.6 721.6,695 		"/>
		<polygon class="st1" points="729.8,760.7 608.3,837.8 587.7,665.5 708.4,588.9 703.2,547.2 546.5,646.8 578.1,903.8 735.1,804
			"/>
		<polygon class="st1" points="841.5,618.7 836.8,579.4 901.2,538.6 896.7,502.5 801.4,563 815.2,675 910.5,614.5 905.9,577.8 		"/>
		<polygon class="st1" points="914.1,643.6 792.7,720.6 772.1,548.3 892.7,471.8 887.5,430.1 730.8,529.7 762.5,786.6 919.5,686.9
					"/>
		<polygon class="st1" points="106.2,1085.4 101.5,1046.1 166,1005.2 161.4,969.1 66.1,1029.6 79.9,1141.7 175.2,1081.1
			170.7,1044.5 		"/>
		<polygon class="st1" points="178.8,1110.2 57.4,1187.3 36.8,1015 157.4,938.4 152.2,896.8 -4.5,996.3 27.2,1253.2 184.2,1153.5
			"/>
		<polygon class="st1" points="440.3,831.5 445,870.8 380.6,911.7 385.2,947.8 480.5,887.2 466.6,775.2 371.3,835.8 375.9,872.4
			"/>
		<polygon class="st1" points="367.6,806.7 489.1,729.6 509.8,901.9 389.2,978.4 394.4,1020.1 551,920.5 519.2,663.6 362.2,763.4
			"/>
		<polygon class="st1" points="257.2,947.9 261.9,987.2 197.4,1028.1 202,1064.2 297.3,1003.6 283.4,891.6 188.1,952.2 192.7,988.8
					"/>
		<polygon class="st1" points="184.5,923.1 305.9,846 326.6,1018.3 206,1094.9 211.2,1136.6 367.9,1036.9 336,780 179.1,879.8 		"/>
		<polygon class="st1" points="1025.1,501.7 1020.4,462.4 1084.9,421.5 1080.3,385.4 985,446 998.9,558 1094.1,497.5 1089.6,460.8
					"/>
		<polygon class="st1" points="1097.8,526.6 976.3,603.6 955.7,431.3 1076.4,354.8 1071.2,313.1 914.5,412.7 946.2,669.6
			1103.2,569.9 		"/>
		<polygon class="st1" points="1359.3,247.9 1364,287.2 1299.6,328.1 1304.1,364.2 1399.4,303.6 1385.5,191.6 1290.3,252.1
			1294.8,288.8 		"/>
		<polygon class="st1" points="1286.6,223 1408,145.9 1428.7,318.2 1308.1,394.8 1313.3,436.5 1470,336.8 1438.1,79.9 1281.2,179.8
					"/>
		<polygon class="st1" points="1543,131.2 1547.8,170.5 1483.3,211.4 1487.9,247.5 1583.1,186.9 1569.3,74.9 1474,135.5
			1478.6,172.1 		"/>
		<polygon class="st1" points="1470.4,106.3 1591.8,29.3 1612.5,201.5 1491.9,278.1 1497.1,319.8 1653.7,220.2 1621.9,-36.8
			1464.9,63.1 		"/>
		<polygon class="st1" points="1176.1,364.3 1180.8,403.6 1116.4,444.5 1121,480.6 1216.2,420 1202.4,308 1107.1,368.6
			1111.7,405.2 		"/>
		<polygon class="st1" points="1103.4,339.4 1224.9,262.3 1245.6,434.6 1124.9,511.2 1130.2,552.9 1286.8,453.3 1255,196.3
			1098,296.2 		"/>
	</g>
</g>
</svg>
