<svg id="Layer_1" preserveAspectRatio="xMinYMid" data-name="Layer 1" xmlns="http://www.w3.org/2000/svg" viewBox="0 0 1680 1680" width="1680" height="1680"><defs><style>.cls-1{fill:#58595b;}.cls-2{opacity:0.1;}.cls-3{fill:none;}.cls-4{fill:#221f1f;}</style></defs><title>BGPattern_Footer</title><rect class="cls-1" width="1680" height="1680"/><g class="cls-2"><polygon class="cls-3" points="0 1547.6 0 1590.46 34.01 1569.14 0 1547.6"/><polygon class="cls-3" points="1656.84 1673.64 1680 1658.95 1680 1557.54 1668.44 1463.84 1680 1456.5 1680 1412.28 1629.44 1444.34 1656.84 1673.64"/><path class="cls-3" d="M1574.55,1419.51l105.45-67v-44.75l-109.87,69.89-6.95-55.48L1680,1248v-44.25l-122.08,77.66-6.12-48,85.77-54.47-6.28-52.29-85.77,54.46-6.08-48.77,126.77-80.64L1680,1163V1001.22l-145.43,92.34-7.21-57.59L1680,938.88V849.25l-174-110,47.22-29.94L1680,789.6V745.42l-92.12-58.24,40.84-26L1680,693.64V637.39l-6.65-4.21L1680,629V584.82L1470.88,717,1262,585l47.22-29.94,160.64,101.73,195.66-122.66L1503.85,431.7l49-31.07L1680,481V436.17l-92.56-58.52L1680,319.13V274.27l-151.36,96.29-6.95-55.48L1680,214.54V194.81L1656.6,0h-27.36L1493.08,86.46l-7.21-57.59L1531.26,0h-86.7l1.23,9.91L1237.31,142.53l-6.95-55.48L1367.43,0h-69.59L1225.1,46.28,1219.2,0h-38.43l20.47,165.17L992.77,297.8l-6.95-55.48,160.51-101.94L1129.47,0h-37.14l15,120.9L980.56,201.54l-6.12-48L1060.2,99l-6.28-52.29-85.77,54.46-6.08-48.77L1044.52,0H978.78L957.21,13.7,955.49,0H917.8l39.68,320.11L749,452.73l-6.95-55.48L902.56,295.31,875,66,713.44,168.63,706.23,111,880.8,0H746.35l32.72,20.68L731.84,50.62,651.9,0H582.1L697.2,72.77l-40.84,26L570.53,44.42l-44.62,28,85.83,54.37-41.52,26.29-127-80.29L558.33,0H489.67L375.53,71.55,537.24,174l-49,31.07L279,72.76,394.08,0H262l30.59,19.38-49,31.07L163.77,0h-71L209,73.47l-47.22,29.94L1.15,1.68,0,2.4v43l.17-.11,127,80.28-40.84,26L.48,97.21l-.48.3v55.63l41.69,26.41L.17,205.85,0,205.74v43.55l243.55-154,208.85,132-47.22,29.94L244.53,155.56,48.87,278.22l161.7,102.42-49,31.07L0,309.57V355l126.24,79.82L0,514.6V560L180.73,445.2l6.91,55.48L27.07,602.52l27.39,229.3,161.65-102.5,7.17,57.59L14.34,919.64,0,803.34v310.94l1.66,13.1L0,1128.44v56.27l7.91-5L14,1228.46l-14,8.87v41.8l18.81-11.92L26,1324.8,0,1341.3v45l4.65-2.95,160.64,101.73L361,1362.42,199.25,1260l49-31.07L457.5,1361.21,166.27,1545.32,0,1440.2v45.19l130.55,82.55L0,1650.47V1680H59.51l-17.93-11.36,41.52-26.29L142.65,1680h65.9l-92.47-58.57,49-31.07L306.87,1680H378.1L200.42,1567.67l47.22-29.94,160.64,101.73,195.66-122.66-161.7-102.42,49-31.07,209.23,132.29L440.42,1680H513l.24-.16,0,.16h37.66l-2.78-22.23L757,1524.91,776.23,1680h38.94L793.3,1502.62l208.56-132.49,6.91,55.48L848.2,1527.45,866.42,1680h37.18L887.2,1547,1014,1466.39l6.09,48-85.8,54.42,6.25,52.3,85.8-54.41,6.05,48.77L930.87,1680h65.77l40.61-25.75,3.21,25.75h39.32l-41.1-333.25,208.56-132.49,6.91,55.48-160.57,101.84,27.39,229.3,161.65-102.5,7.17,57.59-195.25,124h68.92l129.42-82.33,10.2,82.33h39l-12.9-104.61,208.56-132.49,6.91,55.48-160.57,101.84,9.53,79.78h36.9l-7.43-60.29,126.81-80.56,6.09,48-85.8,54.42,4.59,38.4h23.58l63.88-40.51,5,40.51h39.42ZM536.25,1515.58l-127,80.28-127-80.28,40.84-26L409,1543.92l44.62-28-85.83-54.37,41.52-26.29Zm1143.5-621.23-291.22,184.11-208.85-132,47.22-29.94,160.64,101.73,195.66-122.66-161.7-102.42,49-31.07Zm-249.4,415.19,85.8-54.41,6.05,48.77-126.82,80.56L1377,1235.35l126.81-80.56,6.09,48-85.8,54.42ZM1347,840.35l41.52-26.29,127,80.29-127,80.28-127-80.28,40.84-26,85.84,54.36,44.62-28ZM1435.71,740,1144.49,924.08,935.64,792l47.22-29.94L1143.5,863.84l195.66-122.66-161.7-102.42,49-31.07ZM941.33,1053l-41.52,26.29L772.82,999l127-80.28,127,80.28L986,1025l-85.84-54.36-44.62,28ZM900.79,875.09,705.13,997.76l161.7,102.42-49,31.07L608.59,999,899.81,814.85l208.85,132-47.22,29.94ZM1103,686l41.52-26.29,127,80.29-127,80.28L1017.5,740l40.84-26,85.84,54.36,44.62-28Zm163.57-304.76,85.77-54.47L1346,274.45l-85.77,54.46-6.08-48.77,126.77-80.64,18.48,149.1-126.76,80.64Zm331.32,151.7-127,80.28-127-80.28,40.84-26,85.84,54.36,44.62-28-85.83-54.37,41.52-26.29Zm26.84-488.34,18.48,149.1-126.76,80.64-6.12-48,85.77-54.47-6.28-52.29L1504,174l-6.08-48.77ZM1451,50.94l42.38,341.92L1284.88,525.49,1277.93,470l160.51-101.94L1410.9,138.79l-161.59,102.6-7.21-57.59ZM1224.64,350.65l-85.8,54.42,6.25,52.3,85.8-54.41,6.05,48.77-126.82,80.56-18.39-149.11,126.81-80.56Zm-18.24-144.3,6.91,55.48L1052.74,363.68,1080.13,593l161.65-102.5,7.17,57.59L1040,680.8,997.84,338.85Zm-226.18,300-85.8,54.42,6.25,52.3,85.8-54.41,6.05,48.77L865.7,688,847.32,538.91l126.81-80.56ZM962,362.08l6.91,55.48L808.32,519.41l27.39,229.3,161.65-102.5,7.17,57.59L795.59,836.53,753.42,494.58ZM747.15,763.33,620.33,843.89,601.94,694.78l126.81-80.56,6.09,48L649,716.67l6.25,52.3,85.8-54.41Zm97.92-636.59,18.48,149.1L736.79,356.48l-6.12-48L816.44,254l-6.28-52.29-85.77,54.46-6.08-48.77ZM716.6,518l6.91,55.48L562.94,675.28l27.39,229.3L752,802.08l7.17,57.59L550.21,992.4,508,650.45ZM431.68,760.58,270.1,863.19l-7.21-57.59L471.75,672.74l42.38,341.92L305.66,1147.29l-6.95-55.48L459.22,989.87ZM688.77,277.89,603,332.31l6.25,52.3L695,330.2,701.08,379,574.26,459.53,555.87,310.42l126.81-80.56ZM670.53,133.6l6.91,55.48L516.87,290.92l27.39,229.3,161.65-102.5,7.17,57.59L504.14,608,462,266.09Zm-226.18,300L358.55,488l6.25,52.3,85.8-54.41,6.05,48.77L329.83,615.25,311.44,466.14l126.81-80.56ZM84.46,771.13,66.07,622l126.81-80.56,6.09,48-85.8,54.42,6.25,52.3,85.8-54.41,6.05,48.77Zm32.1-491.69,127-80.28,127,80.28-40.84,26-85.84-54.36-44.62,28,85.83,54.37-41.52,26.29Zm101,142.38L426.1,289.32,433,344.8,272.44,446.64l27.39,229.3,161.65-102.5L468.66,631,259.72,763.77ZM31.19,1056.87,158,976.23l18.48,149.1L49.68,1206l-6.12-48,85.77-54.47L123,1051.17l-85.77,54.46ZM293.26,1361.2l-127,80.28-127-80.28,40.84-26L166,1389.55l44.62-28-85.83-54.37,41.52-26.29Zm-231.37-59-6.95-55.48L215.45,1144.8,187.92,915.52,26.33,1018.12l-7.21-57.59L228,827.67l42.38,341.92ZM275,901.94,401.73,821.3l18.48,149.1L293.45,1051l-6.12-48,85.77-54.47-6.28-52.29L281,950.7Zm8.24,304.42,291.22-184.11,208.85,132L736,1184.21,575.4,1082.48,379.74,1205.14l161.7,102.42-49,31.07Zm332.74,54-41.52,26.29-127-80.29,127-80.28,127,80.28-40.84,26L574.73,1178l-44.62,28Zm288,125.9-85.84-54.36-44.62,28,85.83,54.37-41.52,26.29-127-80.29,127-80.28,127,80.28Zm75.48-48.16L818.78,1236.36,623.12,1359l161.7,102.42-49,31.07L526.57,1360.23l291.22-184.11,208.85,132Zm251.19-158.51-85.84-54.36-44.62,28,85.83,54.37-41.52,26.29-127-80.29,127-80.28,127,80.28ZM1151,1540.18l-18.39-149.11,126.81-80.56,6.09,48-85.8,54.42,6.25,52.3,85.8-54.41,6.05,48.77Zm-5.52-510.49L949.78,1152.35l161.7,102.42-49,31.07L853.24,1153.56l291.22-184.11,208.85,132-47.22,29.94ZM1325.27,1533,1283.1,1191l208.56-132.49,6.91,55.48L1338,1215.85l27.39,229.3L1527,1342.65l7.17,57.59Z"/><polygon class="cls-3" points="0 417.18 0 454.61 29.7 435.99 0 417.18"/><polygon class="cls-3" points="611.04 1680 676.72 1680 686.99 1673.47 687.79 1680 725.02 1680 716.94 1612.76 611.04 1680"/><polygon class="cls-4" points="1144.46 1073.29 1017.47 1153.57 1144.46 1233.86 1185.98 1207.56 1100.15 1153.2 1144.77 1125.22 1230.61 1179.58 1271.45 1153.57 1144.46 1073.29"/><polygon class="cls-4" points="1353.31 1101.48 1144.46 969.45 853.24 1153.56 1062.47 1285.85 1111.48 1254.78 949.78 1152.36 1145.44 1029.69 1306.09 1131.42 1353.31 1101.48"/><polygon class="cls-4" points="690.81 1360.24 817.79 1440.53 859.31 1414.23 773.48 1359.87 818.11 1331.89 903.94 1386.25 944.78 1360.24 817.79 1279.95 690.81 1360.24"/><polygon class="cls-4" points="526.57 1360.23 735.8 1492.52 784.82 1461.45 623.12 1359.02 818.78 1236.36 979.42 1338.09 1026.64 1308.15 817.79 1176.12 526.57 1360.23"/><polygon class="cls-4" points="1302.38 868.33 1261.54 894.34 1388.53 974.63 1515.52 894.34 1388.53 814.05 1347.01 840.35 1432.84 894.71 1388.22 922.69 1302.38 868.33"/><polygon class="cls-4" points="1583.21 895.56 1387.55 1018.22 1226.9 916.49 1179.68 946.43 1388.53 1078.46 1679.75 894.35 1470.52 762.06 1421.51 793.13 1583.21 895.56"/><polygon class="cls-4" points="1680 637.39 1680 628.96 1673.35 633.18 1680 637.39"/><polygon class="cls-4" points="1587.88 687.17 1680 745.42 1680 693.64 1628.71 661.16 1587.88 687.17"/><polygon class="cls-4" points="1506.02 739.26 1680 849.25 1680 789.6 1553.24 709.32 1506.02 739.26"/><polygon class="cls-4" points="41.58 1668.64 59.51 1680 142.65 1680 83.1 1642.35 41.58 1668.64"/><polygon class="cls-4" points="116.07 1621.43 208.54 1680 306.87 1680 165.09 1590.36 116.07 1621.43"/><polygon class="cls-4" points="367.75 1461.59 453.57 1515.95 408.95 1543.92 323.11 1489.57 282.28 1515.58 409.26 1595.86 536.25 1515.58 409.26 1435.29 367.75 1461.59"/><polygon class="cls-4" points="491.26 1383.3 442.24 1414.37 603.94 1516.8 408.28 1639.46 247.64 1537.73 200.42 1567.67 378.1 1680 440.43 1680 700.49 1515.59 491.26 1383.3"/><polygon class="cls-4" points="985.96 1024.98 1026.79 998.97 899.81 918.69 772.82 998.97 899.81 1079.26 941.33 1052.96 855.5 998.6 900.12 970.63 985.96 1024.98"/><polygon class="cls-4" points="1108.65 946.88 899.81 814.85 608.59 998.96 817.81 1131.25 866.83 1100.18 705.13 997.75 900.79 875.09 1061.43 976.82 1108.65 946.88"/><polygon class="cls-4" points="1680 436.17 1680 319.13 1587.44 377.65 1680 436.17"/><polygon class="cls-4" points="660.57 1232.37 701.4 1206.36 574.42 1126.08 447.43 1206.36 574.42 1286.65 615.93 1260.35 530.11 1205.99 574.73 1178.02 660.57 1232.37"/><polygon class="cls-4" points="379.74 1205.14 575.4 1082.48 736.04 1184.21 783.26 1154.27 574.42 1022.24 283.19 1206.35 492.42 1338.64 541.44 1307.57 379.74 1205.14"/><polygon class="cls-4" points="1058.34 713.95 1017.5 739.97 1144.49 820.25 1271.47 739.97 1144.49 659.67 1102.97 685.97 1188.8 740.33 1144.17 768.31 1058.34 713.95"/><polygon class="cls-4" points="1177.46 638.75 1339.17 741.18 1143.5 863.84 982.86 762.11 935.64 792.05 1144.49 924.08 1435.71 739.97 1226.48 607.68 1177.46 638.75"/><polygon class="cls-4" points="1429.36 478.91 1515.19 533.28 1470.56 561.25 1384.73 506.89 1343.89 532.91 1470.88 613.19 1597.86 532.91 1470.88 452.62 1429.36 478.91"/><polygon class="cls-4" points="1503.85 431.7 1665.56 534.12 1469.89 656.78 1309.25 555.06 1262.03 584.99 1470.88 717.03 1680 584.82 1680 481.01 1552.87 400.63 1503.85 431.7"/><polygon class="cls-4" points="0 1485.39 0 1547.6 34.01 1569.14 0 1590.46 0 1650.47 130.55 1567.93 0 1485.39"/><polygon class="cls-4" points="124.76 1307.21 210.59 1361.57 165.96 1389.55 80.13 1335.19 39.29 1361.2 166.27 1441.49 293.26 1361.2 166.27 1280.91 124.76 1307.21"/><polygon class="cls-4" points="457.5 1361.21 248.27 1228.92 199.25 1259.99 360.95 1362.42 165.29 1485.08 4.65 1383.35 0 1386.3 0 1440.2 166.27 1545.32 457.5 1361.21"/><polygon class="cls-4" points="570.21 153.06 611.73 126.76 525.9 72.4 570.52 44.42 656.36 98.78 697.2 72.77 582.1 0 558.33 0 443.23 72.77 570.21 153.06"/><polygon class="cls-4" points="779.06 20.68 746.35 0 651.9 0 731.84 50.62 779.06 20.68"/><polygon class="cls-4" points="488.22 205.05 537.24 173.98 375.53 71.55 489.67 0 394.08 0 278.99 72.76 488.22 205.05"/><polygon class="cls-4" points="285.06 333.43 199.24 279.07 243.86 251.09 329.7 305.45 370.53 279.44 243.55 199.15 116.56 279.44 243.55 359.73 285.06 333.43"/><polygon class="cls-4" points="210.57 380.65 48.87 278.22 244.53 155.56 405.17 257.29 452.39 227.35 243.55 95.32 0 249.29 0 309.57 161.55 411.72 210.57 380.65"/><polygon class="cls-4" points="0 354.97 0 417.18 29.7 435.99 0 454.61 0 514.6 126.24 434.79 0 354.97"/><polygon class="cls-4" points="292.58 19.38 261.99 0 163.77 0 243.57 50.45 292.58 19.38"/><polygon class="cls-4" points="41.69 179.55 0 153.15 0 205.74 0.17 205.85 41.69 179.55"/><polygon class="cls-4" points="86.32 151.57 127.16 125.56 0.17 45.27 0 45.38 0 97.52 0.48 97.21 86.32 151.57"/><polygon class="cls-4" points="161.79 103.41 209.02 73.47 92.8 0 0 0 0 2.4 1.15 1.68 161.79 103.41"/><polygon class="cls-4" points="655.29 768.97 649.04 716.67 734.84 662.25 728.75 614.22 601.94 694.78 620.33 843.89 747.15 763.33 741.09 714.56 655.29 768.97"/><polygon class="cls-4" points="550.21 992.4 759.16 859.67 751.99 802.08 590.34 904.58 562.94 675.28 723.51 573.44 716.6 517.96 508.04 650.45 550.21 992.4"/><polygon class="cls-4" points="865.7 688.01 992.52 607.45 986.47 558.68 900.66 613.09 894.42 560.8 980.22 506.38 974.13 458.34 847.32 538.91 865.7 688.01"/><polygon class="cls-4" points="1004.53 703.8 997.36 646.21 835.71 748.71 808.32 519.41 968.88 417.57 961.97 362.08 753.42 494.58 795.59 836.53 1004.53 703.8"/><polygon class="cls-4" points="7.91 1179.69 0 1184.7 0 1237.33 13.96 1228.46 7.91 1179.69"/><polygon class="cls-4" points="0 1114.29 0 1128.43 1.66 1127.38 0 1114.29"/><polygon class="cls-4" points="18.81 1267.21 0 1279.13 0 1341.3 25.98 1324.8 18.81 1267.21"/><polygon class="cls-4" points="373.09 948.53 287.33 1003 293.45 1051.03 420.21 970.39 401.73 821.3 274.96 901.93 281.04 950.7 366.81 896.24 373.09 948.53"/><polygon class="cls-4" points="305.66 1147.29 514.13 1014.66 471.75 672.74 262.89 805.6 270.1 863.19 431.68 760.59 459.22 989.87 298.71 1091.81 305.66 1147.29"/><polygon class="cls-4" points="129.33 1103.46 43.56 1157.93 49.68 1205.97 176.44 1125.33 157.96 976.23 31.19 1056.87 37.28 1105.63 123.05 1051.17 129.33 1103.46"/><polygon class="cls-4" points="19.12 960.53 26.33 1018.12 187.92 915.52 215.46 1144.8 54.95 1246.74 61.89 1302.22 270.37 1169.6 227.99 827.67 19.12 960.53"/><polygon class="cls-4" points="1110.13 532.29 1236.95 451.73 1230.89 402.96 1145.09 457.37 1138.84 405.07 1224.64 350.65 1218.55 302.62 1091.74 383.18 1110.13 532.29"/><polygon class="cls-4" points="1248.96 548.07 1241.79 490.48 1080.13 592.98 1052.74 363.68 1213.31 261.84 1206.4 206.36 997.84 338.85 1040.01 680.8 1248.96 548.07"/><polygon class="cls-4" points="1589.79 119.51 1596.07 171.81 1510.31 226.28 1516.43 274.31 1643.19 193.67 1624.71 44.57 1497.94 125.21 1504.02 173.97 1589.79 119.51"/><polygon class="cls-4" points="1493.08 86.46 1629.24 0 1531.26 0 1485.87 28.87 1493.08 86.46"/><polygon class="cls-4" points="1680 0 1656.6 0 1680 194.81 1680 0"/><polygon class="cls-4" points="1528.64 370.56 1680 274.27 1680 214.54 1521.7 315.08 1528.64 370.56"/><polygon class="cls-4" points="1380.94 199.5 1254.17 280.14 1260.26 328.9 1346.03 274.44 1352.31 326.74 1266.54 381.21 1272.66 429.24 1399.42 348.6 1380.94 199.5"/><polygon class="cls-4" points="1410.9 138.79 1438.44 368.07 1277.93 470.01 1284.88 525.49 1493.35 392.87 1450.97 50.95 1242.1 183.8 1249.31 241.39 1410.9 138.79"/><polygon class="cls-4" points="119.42 696.2 113.17 643.91 198.97 589.49 192.88 541.46 66.07 622.02 84.46 771.13 211.28 690.57 205.22 641.8 119.42 696.2"/><polygon class="cls-4" points="223.29 786.91 216.12 729.32 54.47 831.82 27.07 602.52 187.64 500.68 180.73 445.19 0 560.01 0 803.34 14.34 919.64 223.29 786.91"/><polygon class="cls-4" points="329.83 615.25 456.65 534.69 450.6 485.92 364.79 540.33 358.55 488.03 444.35 433.62 438.25 385.58 311.44 466.14 329.83 615.25"/><polygon class="cls-4" points="468.66 631.03 461.49 573.44 299.84 675.95 272.44 446.64 433.01 344.8 426.1 289.32 217.55 421.81 259.72 763.76 468.66 631.03"/><polygon class="cls-4" points="574.26 459.53 701.08 378.97 695.02 330.2 609.22 384.61 602.97 332.31 688.77 277.89 682.68 229.86 555.87 310.42 574.26 459.53"/><polygon class="cls-4" points="713.09 475.31 705.92 417.72 544.26 520.22 516.87 290.92 677.44 189.08 670.53 133.6 461.97 266.09 504.14 608.04 713.09 475.31"/><polygon class="cls-4" points="968.15 101.21 1053.92 46.75 1060.2 99.04 974.44 153.51 980.56 201.54 1107.32 120.9 1092.33 0 1044.52 0 962.07 52.45 968.15 101.21"/><polygon class="cls-4" points="978.78 0 955.49 0 957.21 13.7 978.78 0"/><polygon class="cls-4" points="985.83 242.32 992.77 297.8 1201.24 165.17 1180.77 0 1129.47 0 1146.33 140.38 985.83 242.32"/><polygon class="cls-4" points="1297.85 0 1219.2 0 1225.1 46.28 1297.85 0"/><polygon class="cls-4" points="1237.31 142.53 1445.79 9.91 1444.56 0 1367.43 0 1230.37 87.06 1237.31 142.53"/><polygon class="cls-4" points="810.16 201.68 816.44 253.97 730.67 308.45 736.79 356.48 863.55 275.84 845.07 126.74 718.3 207.38 724.39 256.14 810.16 201.68"/><polygon class="cls-4" points="713.44 168.63 875.03 66.03 902.57 295.31 742.06 397.25 749 452.73 957.48 320.11 917.8 0 880.8 0 706.23 111.04 713.44 168.63"/><polygon class="cls-4" points="1498.34 1680 1567.25 1680 1562.22 1639.49 1498.34 1680"/><polygon class="cls-4" points="1555.97 1587.19 1549.88 1539.15 1423.07 1619.71 1430.51 1680 1474.76 1680 1470.17 1641.61 1555.97 1587.19"/><polygon class="cls-4" points="1544.64 1498.37 1537.73 1442.89 1329.17 1575.39 1342.07 1680 1393.6 1680 1384.07 1600.21 1544.64 1498.37"/><polygon class="cls-4" points="1680 1557.54 1680 1456.5 1668.44 1463.84 1680 1557.54"/><polygon class="cls-4" points="1606.67 1680 1680 1680 1680 1658.95 1656.84 1673.64 1629.44 1444.34 1680 1412.28 1680 1352.52 1574.55 1419.51 1606.67 1680"/><polygon class="cls-4" points="1163.46 1680 1303.09 1680 1292.88 1597.67 1163.46 1680"/><polygon class="cls-4" points="1026.35 1566.73 940.55 1621.14 934.3 1568.84 1020.1 1514.43 1014.01 1466.39 887.2 1546.95 903.61 1680 930.87 1680 1032.4 1615.5 1026.35 1566.73"/><polygon class="cls-4" points="996.64 1680 1040.45 1680 1037.25 1654.25 996.64 1680"/><polygon class="cls-4" points="1008.77 1425.61 1001.86 1370.13 793.3 1502.62 815.17 1680 866.42 1680 848.2 1527.45 1008.77 1425.61"/><polygon class="cls-4" points="1185.92 1465.26 1179.67 1412.97 1265.47 1358.55 1259.38 1310.52 1132.57 1391.08 1150.96 1540.18 1277.78 1459.63 1271.73 1410.86 1185.92 1465.26"/><polygon class="cls-4" points="1282.62 1498.38 1120.97 1600.88 1093.57 1371.58 1254.14 1269.74 1247.23 1214.26 1038.67 1346.75 1079.77 1680 1094.54 1680 1289.79 1555.97 1282.62 1498.38"/><polygon class="cls-4" points="676.72 1680 687.79 1680 686.99 1673.47 676.72 1680"/><polygon class="cls-4" points="548.14 1657.77 550.93 1680 611.04 1680 716.94 1612.76 725.02 1680 776.23 1680 757.01 1524.91 548.14 1657.77"/><polygon class="cls-4" points="513 1680 513.26 1680 513.25 1679.85 513 1680"/><polygon class="cls-4" points="1503.81 1154.79 1377 1235.35 1395.39 1384.46 1522.2 1303.9 1516.15 1255.13 1430.35 1309.54 1424.1 1257.24 1509.9 1202.83 1503.81 1154.79"/><polygon class="cls-4" points="1365.39 1445.15 1338 1215.85 1498.57 1114.01 1491.66 1058.53 1283.1 1191.03 1325.27 1532.97 1534.22 1400.24 1527.04 1342.65 1365.39 1445.15"/><polygon class="cls-4" points="1539.43 1132.31 1545.52 1181.08 1631.29 1126.62 1637.57 1178.91 1551.8 1233.38 1557.92 1281.41 1680 1203.75 1680 1163.01 1666.2 1051.67 1539.43 1132.31"/><polygon class="cls-4" points="1570.13 1377.66 1680 1307.77 1680 1248 1563.19 1322.19 1570.13 1377.66"/><polygon class="cls-4" points="1534.57 1093.56 1680 1001.22 1680 938.88 1527.36 1035.98 1534.57 1093.56"/></g></svg>
