<svg id="Layer_1" data-name="Layer 1" xmlns="http://www.w3.org/2000/svg" viewBox="0 0 603.09 111.75"><defs><style>.cls-1{fill:#003e7e;}.cls-2{fill:#b8b8b9;}.cls-3{fill:#fff;}.cls-4{fill:#cdceda;}</style></defs><title>Centennial Real Estate Company Logo</title><desc>This will take you to the home page</desc><path class="cls-1" d="M226.93,100.71c-8.79.22-13.07-5.07-13.07-11.95V21c0-6.76,3.49-12.05,12.73-12.17,8.11,0,12.51,4.84,12.51,11.49V32.87h-8V20.14a4.84,4.84,0,0,0-4.73-5.07,5,5,0,0,0-4.62,5.29V89.89c0,2.48,1.7,4.4,5,4.28a4.07,4.07,0,0,0,4.39-4.39v-15h8.12V88.43c0,6.76-3.95,12.06-12.29,12.28" transform="translate(0 -3)"/><path class="cls-1" d="M275.38,46.06c0-1.91-.45-4.17-2.93-4.17s-3,1.91-3,3.83v17.8h6Zm-2.59,54c-8.34.23-10.6-5.86-10.6-12.05V48.2c0-6.76,2.37-11.83,10.82-11.83,7.44,0,9.69,5.07,9.69,10.59V69.28h-13.3V89.11c0,2.36.68,5.29,3.16,5.18,2.7-.11,3.16-2.25,3.16-4.28V79.19h7.21v10.6c0,5.52-3,10.14-10.14,10.25" transform="translate(0 -3)"/><path class="cls-1" d="M320.12,99.25V49.55c0-4.16-.11-8-3.49-8-3.95-.11-3.49,4.51-3.49,7.78V99.25h-7.33V37.16h6.43l.34,2.93a8.05,8.05,0,0,1,7-3.72c7,0,7.89,6.12,7.89,13.52V99.25Z" transform="translate(0 -3)"/><path class="cls-1" d="M446.84,99.25V49.55c0-4.16-.11-8-3.49-8-3.95-.11-3.49,4.51-3.49,7.78V99.25h-7.33V37.16h6.42l.34,2.93a8.05,8.05,0,0,1,7-3.72c7,0,7.89,6.12,7.89,13.52V99.25Z" transform="translate(0 -3)"/><path class="cls-1" d="M490.81,99.25V49.55c0-4.16-.11-8-3.49-8-3.95-.11-3.5,4.51-3.5,7.78V99.25H476.5V37.16h6.43l.34,2.93a8.05,8.05,0,0,1,7-3.72c7,0,7.89,6.12,7.89,13.52V99.25Z" transform="translate(0 -3)"/><path class="cls-1" d="M355.72,97.22c-1.24-1.58-1.58-3.61-1.58-6V43h-3.49V37.16h3.49l0-7.64,7.46-2.84V37.16h4.62V43h-4.62V90.91a3.62,3.62,0,0,0,1,2.93,6.13,6.13,0,0,0,3.72.33v4.74c-5.3,1.35-9,.45-10.59-1.69" transform="translate(0 -3)"/><path class="cls-1" d="M402.14,46.06c0-1.91-.57-4.17-2.93-4.17s-3,1.91-3,3.83v17.8h6Zm-2.6,54c-8.34.23-10.59-5.86-10.59-12.05V48.2c0-6.76,2.36-11.83,10.82-11.83,7.44,0,9.69,5.07,9.69,10.59V69.28h-13.3V89.11c0,2.36.68,5.29,3.16,5.18,2.7-.11,3.16-2.25,3.16-4.28V79.19h7.21v10.6c0,5.52-3,10.14-10.14,10.25" transform="translate(0 -3)"/><path class="cls-1" d="M520.56,37.16h7.33v62h-7.33Zm0-15.46h7.33v7.1h-7.33Z" transform="translate(0 -3)"/><path class="cls-1" d="M564.73,66.57a5.91,5.91,0,0,0-5.64,2.25c-.67,1.13-1.13,4.06-1.13,6.77V90.91c0,1.69.34,3.72,3.15,3.27s3.61-2.47,3.61-4.85Zm.56,32.57-.22-2.26c-.23.23-4.06,3-7.44,3-6.09.11-6.88-4.06-6.88-8.22V75.36c0-4.62.79-8.57,3.84-11.5,3.27-3.5,10.37-3.38,10.48-3.16V45c0-1.8-.68-3.61-2.93-3.61s-3.38,1.69-3.38,4.28v7.55h-7v-7c0-5.75,4.05-10,10.94-10s9.69,4.05,9.69,9.35V99.14Z" transform="translate(0 -3)"/><rect class="cls-1" x="595.76" y="6.89" width="7.33" height="89.25"/><polygon class="cls-2" points="70.41 55.26 87.74 44.36 141.53 78.37 176.75 55.88 88.38 0 0 55.88 88.38 111.75 124.2 89.27 70.41 55.26"/><polygon class="cls-3" points="71.19 55.73 88.5 44.88 121.79 65.97 137.63 55.88 88.38 24.74 39.13 55.88 88.38 87.01 104.48 76.82 71.19 55.73"/><polygon class="cls-4" points="121.78 65.94 88.5 44.84 88.5 36.47 121.78 57.57 121.78 65.94"/><polygon class="cls-1" points="71.19 47.34 88.5 36.49 121.79 57.57 137.63 47.49 88.38 16.35 39.13 47.49 88.38 78.62 104.48 68.43 71.19 47.34"/><polygon class="cls-3" points="88.4 86.99 104.48 76.81 104.48 68.44 88.4 78.63 88.4 86.99"/><polygon class="cls-4" points="88.4 86.99 39.14 55.85 39.14 47.48 88.4 78.63 88.4 86.99"/><polygon class="cls-3" points="121.77 65.95 137.64 55.85 137.64 47.48 121.77 57.58 121.77 65.95"/></svg>
