<svg id="Layer_1" data-name="Layer 1" xmlns="http://www.w3.org/2000/svg" viewBox="0 0 213.1 127.92"><defs><style>.cls-1{fill:#003e7e;}.cls-2{fill:#c9cacc;}.cls-3{fill:#fff;}.cls-4{fill:#adb6d4;}</style></defs><title>Centennial Logo</title><path class="cls-1" d="M7.16,128c-4.82.12-7.16-2.78-7.16-6.54V84.38c0-3.7,1.91-6.6,7-6.66,4.44,0,6.85,2.65,6.85,6.29v6.84H9.44v-7a2.64,2.64,0,0,0-2.59-2.77A2.75,2.75,0,0,0,4.32,84v38.06A2.33,2.33,0,0,0,7,124.42,2.23,2.23,0,0,0,9.44,122v-8.2h4.44v7.46c0,3.7-2.16,6.6-6.72,6.73" transform="translate(0 -0.08)"/><path class="cls-1" d="M33.68,98.07c0-1-.24-2.28-1.6-2.28s-1.67,1-1.67,2.1v9.75h3.27V98.07m-1.42,29.55c-4.56.13-5.8-3.2-5.8-6.59V99.25c0-3.71,1.3-6.48,5.93-6.48,4.07,0,5.3,2.77,5.3,5.8v12.21H30.41v10.86c0,1.29.37,2.9,1.73,2.84s1.73-1.24,1.73-2.34v-5.93h3.94V122c0,3-1.66,5.55-5.55,5.61" transform="translate(0 -0.08)"/><path class="cls-1" d="M58.17,127.19V100c0-2.28-.06-4.38-1.91-4.38-2.16-.07-1.91,2.46-1.91,4.25v27.33h-4v-34h3.52L54,94.8a4.42,4.42,0,0,1,3.82-2c3.83,0,4.33,3.35,4.33,7.4v27h-4" transform="translate(0 -0.08)"/><path class="cls-1" d="M127.55,127.19V100c0-2.28-.06-4.38-1.91-4.38-2.16-.07-1.91,2.46-1.91,4.25v27.33h-4v-34h3.51l.19,1.6a4.41,4.41,0,0,1,3.82-2c3.83,0,4.32,3.35,4.32,7.4v27h-4" transform="translate(0 -0.08)"/><path class="cls-1" d="M151.63,127.19V100c0-2.28-.06-4.38-1.91-4.38-2.17-.07-1.92,2.46-1.92,4.25v27.33h-4v-34h3.52l.18,1.6a4.43,4.43,0,0,1,3.83-2c3.82,0,4.32,3.35,4.32,7.4v27h-4" transform="translate(0 -0.08)"/><path class="cls-1" d="M77.67,126.08a5.08,5.08,0,0,1-.87-3.27V96.41H74.89V93.2H76.8V89l4.08-1.56V93.2h2.54v3.21H80.87v26.22a2,2,0,0,0,.56,1.6,3.39,3.39,0,0,0,2,.19V127c-2.9.74-4.94.25-5.8-.93" transform="translate(0 -0.08)"/><path class="cls-1" d="M103.08,98.07c0-1-.31-2.28-1.61-2.28s-1.66,1-1.66,2.1v9.75h3.27V98.07m-1.42,29.55c-4.57.13-5.8-3.2-5.8-6.59V99.25c0-3.71,1.29-6.48,5.92-6.48,4.07,0,5.31,2.77,5.31,5.8v12.21H99.81v10.86c0,1.29.37,2.9,1.73,2.84s1.72-1.24,1.72-2.34v-5.93h3.95V122c0,3-1.66,5.55-5.55,5.61" transform="translate(0 -0.08)"/><path class="cls-1" d="M167.91,93.2h4v33.93h-4Zm0-8.46h4v3.88h-4Z" transform="translate(0 -0.08)"/><path class="cls-1" d="M192.1,109.3a3.25,3.25,0,0,0-3.09,1.23,9.21,9.21,0,0,0-.61,3.71v8.39c0,.92.18,2,1.72,1.79s2-1.36,2-2.66V109.3m.3,17.83-.12-1.23a8,8,0,0,1-4.07,1.66c-3.33.06-3.76-2.22-3.76-4.5v-8.94c0-2.54.43-4.7,2.09-6.3,1.8-1.91,5.68-1.85,5.74-1.73V97.52c0-1-.37-2-1.6-2s-1.85.93-1.85,2.35V102H185V98.2c0-3.15,2.22-5.49,6-5.49s5.3,2.22,5.3,5.12v29.3Z" transform="translate(0 -0.08)"/><rect class="cls-1" x="209.09" y="78.19" width="4.01" height="48.86"/><polyline class="cls-2" points="94.97 35.6 106.14 28.58 140.79 50.49 163.49 36 106.55 0 49.61 36 106.55 72 129.63 57.51 94.97 35.6"/><polyline class="cls-3" points="95.48 35.91 106.63 28.92 128.08 42.5 138.28 36 106.55 15.94 74.82 36 106.55 56.06 116.92 49.49 95.48 35.91"/><polyline class="cls-4" points="128.07 42.48 106.63 28.89 106.63 23.5 128.07 37.09 128.07 42.48"/><polyline class="cls-1" points="95.48 30.5 106.63 23.51 128.08 37.09 138.28 30.59 106.55 10.53 74.82 30.59 106.55 50.66 116.92 44.09 95.48 30.5"/><polyline class="cls-3" points="106.56 56.05 116.92 49.48 116.92 44.09 106.56 50.66 106.56 56.05"/><polyline class="cls-4" points="106.56 56.05 74.83 35.99 74.83 30.59 106.56 50.66 106.56 56.05"/><polyline class="cls-3" points="128.06 42.49 138.29 35.98 138.29 30.59 128.06 37.1 128.06 42.49"/></svg>