<?xml version="1.0" encoding="utf-8"?>
<!-- Generator: Adobe Illustrator 21.1.0, SVG Export Plug-In . SVG Version: 6.00 Build 0)  -->
<svg version="1.1" id="Layer_1" xmlns="http://www.w3.org/2000/svg" xmlns:xlink="http://www.w3.org/1999/xlink" x="0px" y="0px"
	 viewBox="0 0 161.887 110.723" enable-background="new 0 0 161.887 110.723" xml:space="preserve">
   <title>Chico Mall logo</title>
<g>
	<path fill="#646569" d="M153.436,110.695v-7.108h-1.623v3.63l-4.166-3.764l-0.219,0.038v7.098h1.622v-3.658l4.224,3.792
		L153.436,110.695z M143.448,107.094c0,1.252-0.745,2.17-1.854,2.17c-1.109,0-1.854-0.918-1.854-2.17c0-1.261,0.745-2.17,1.854-2.17
		C142.703,104.924,143.448,105.833,143.448,107.094 M145.186,107.094c0-2.064-1.393-3.621-3.553-3.621
		c-2.17,0-3.621,1.556-3.621,3.621c0,2.055,1.384,3.611,3.553,3.611C143.725,110.704,145.186,109.149,145.186,107.094
		 M135.769,103.588h-1.623v7.002h1.623V103.588z M132.227,105.078v-1.49H126.4v1.49h2.102v5.512h1.623v-5.512H132.227z
		 M124.777,110.055l-0.488-1.375c-0.525,0.325-1.175,0.517-1.749,0.517c-1.309,0-2.121-0.803-2.121-2.103s0.812-2.103,2.121-2.103
		c0.573,0,1.156,0.182,1.672,0.469l0.498-1.375c-0.631-0.372-1.376-0.611-2.188-0.611c-2.283,0-3.83,1.538-3.83,3.621
		c0,2.074,1.547,3.611,3.83,3.611C123.325,110.704,124.165,110.457,124.777,110.055 M116.679,110.59v-1.48h-2.808v-1.367h2.56
		v-1.412h-2.56v-1.253h2.808v-1.49h-4.432v7.002H116.679z M110.393,110.59v-1.48h-2.808v-5.522h-1.623v7.002H110.393z
		 M104.106,110.59v-1.48h-2.808v-5.522h-1.623v7.002H104.106z M95.696,107.094c0,1.252-0.745,2.17-1.854,2.17
		s-1.854-0.918-1.854-2.17c0-1.261,0.745-2.17,1.854-2.17S95.696,105.833,95.696,107.094 M97.433,107.094
		c0-2.064-1.394-3.621-3.554-3.621c-2.169,0-3.62,1.556-3.62,3.621c0,2.055,1.384,3.611,3.553,3.611
		C95.972,110.704,97.433,109.149,97.433,107.094 M88.657,110.055l-0.487-1.375c-0.525,0.325-1.175,0.517-1.749,0.517
		c-1.309,0-2.121-0.803-2.121-2.103s0.812-2.103,2.121-2.103c0.573,0,1.156,0.182,1.672,0.469l0.497-1.375
		c-0.63-0.372-1.375-0.611-2.187-0.611c-2.284,0-3.831,1.538-3.831,3.621c0,2.074,1.547,3.611,3.831,3.611
		C87.205,110.704,88.046,110.457,88.657,110.055 M78.387,110.59v-1.48h-2.809v-5.522h-1.623v7.002H78.387z M69.503,108.078h-1.385
		l0.698-1.681L69.503,108.078z M72.236,110.59l-3.296-7.059h-0.22l-3.296,7.059h1.653l0.525-1.271h2.417l0.525,1.271H72.236z
		 M63.688,103.588h-1.623v7.002h1.623V103.588z M59.512,110.695v-7.108h-1.623v3.63l-4.166-3.764l-0.219,0.038v7.098h1.623v-3.658
		l4.223,3.792L59.512,110.695z M50.973,110.695v-7.108H49.35v3.63l-4.166-3.764l-0.22,0.038v7.098h1.623v-3.658l4.224,3.792
		L50.973,110.695z M42.548,110.59v-1.48H39.74v-1.367H42.3v-1.412H39.74v-1.253h2.808v-1.49h-4.432v7.002H42.548z M36.223,105.078
		v-1.49h-5.826v1.49h2.102v5.512h1.622v-5.512H36.223z M28.498,110.695v-7.108h-1.623v3.63l-4.166-3.764l-0.219,0.038v7.098h1.623
		v-3.658l4.223,3.792L28.498,110.695z M20.074,110.59v-1.48h-2.809v-1.367h2.561v-1.412h-2.561v-1.253h2.809v-1.49h-4.433v7.002
		H20.074z M13.617,110.055l-0.488-1.375c-0.525,0.325-1.174,0.517-1.748,0.517c-1.31,0-2.122-0.803-2.122-2.103
		s0.812-2.103,2.122-2.103c0.573,0,1.155,0.182,1.672,0.469l0.497-1.375c-0.631-0.372-1.376-0.611-2.188-0.611
		c-2.283,0-3.83,1.538-3.83,3.621c0,2.074,1.547,3.611,3.83,3.611C12.165,110.704,13.006,110.457,13.617,110.055"/>
</g>
<line fill="none" stroke="#7A9C49" stroke-width="0.75" stroke-linecap="round" stroke-miterlimit="10" x1="19.651" y1="52.541" x2="141.317" y2="52.541"/>
<g>
	<polygon fill="#7A9C49" points="79.8,8.74 77.882,43.089 83.201,42.984 80.82,8.147 	"/>
	<polygon fill="#7A9C49" points="87.289,27.582 82.045,35.313 81.956,30.674 87.235,26.652 	"/>
	<polygon fill="#7A9C49" points="85.899,20.527 81.583,26.919 81.081,23.468 85.185,20.288 	"/>
	<polygon fill="#7A9C49" points="74.63,20.368 79.295,26.919 79.728,23.468 75.503,20.288 	"/>
	<polygon fill="#7A9C49" points="83.74,12.686 80.979,17.035 80.774,14.061 83.598,11.559 	"/>
	<g>
		<path fill="#7A9C49" d="M93.389,11.662c-10.755,2.372-8.21,8.092-8.21,8.092s0.798-0.497,3.182-2.351
			c2.008-1.561,4.207-4.756,4.207-4.756s-0.62,2.256-2.497,4.173c-1.603,1.638-3.74,3.289-3.74,3.289
			c1.196,0.325,1.762,1.141,4.158-0.293c0.646-0.387,1.777-1.364,2.324-3.305C93.512,14.022,93.389,11.662,93.389,11.662"/>
		<path fill="#7A9C49" d="M90.177,6.396c-1.703,7.724-5.811,5.896-5.811,5.896s0.356-0.573,1.688-2.285
			c1.121-1.443,3.415-3.021,3.415-3.021s-1.62,0.445-2.997,1.793c-1.176,1.151-2.362,2.686-2.362,2.686
			c-0.233-0.86-0.819-1.266,0.211-2.987c0.278-0.463,0.98-1.276,2.373-1.668C88.482,6.307,90.177,6.396,90.177,6.396"/>
		<path fill="#7A9C49" d="M80.274,0c-4.553,6.468-0.433,8.267-0.433,8.267s0.182-0.649,0.549-2.788
			c0.308-1.801-0.074-4.559-0.074-4.559s0.764,1.497,0.698,3.423c-0.056,1.645-0.39,3.555-0.39,3.555
			c0.792-0.407,1.487-0.248,2.063-2.169c0.155-0.518,0.281-1.584-0.369-2.878C81.483,1.191,80.274,0,80.274,0"/>
	</g>
	<polygon fill="#7A9C49" points="76.895,12.686 79.656,17.035 79.861,14.061 77.038,11.559 	"/>
	<g>
		<path fill="#7A9C49" d="M70.458,6.396c1.703,7.724,5.811,5.896,5.811,5.896s-0.356-0.573-1.687-2.285
			c-1.122-1.443-3.416-3.021-3.416-3.021s1.62,0.445,2.998,1.793c1.176,1.151,2.361,2.686,2.361,2.686
			c0.233-0.86,0.819-1.266-0.211-2.987c-0.278-0.463-0.979-1.276-2.373-1.668C72.153,6.307,70.458,6.396,70.458,6.396"/>
		<path fill="#7A9C49" d="M94.169,21.678c-2.389,7.54-6.317,5.351-6.317,5.351s0.407-0.538,1.886-2.124
			c1.247-1.336,3.673-2.703,3.673-2.703s-1.653,0.298-3.146,1.518c-1.274,1.041-2.592,2.463-2.592,2.463
			c-0.156-0.876-0.703-1.334,0.477-2.955c0.318-0.437,1.09-1.184,2.514-1.45C92.489,21.438,94.169,21.678,94.169,21.678"/>
	</g>
	<polygon fill="#7A9C49" points="73.679,27.582 78.923,35.313 79.012,30.674 73.733,26.652 	"/>
	<g>
		<path fill="#7A9C49" d="M66.799,21.678c2.389,7.54,6.317,5.351,6.317,5.351s-0.407-0.538-1.886-2.124
			c-1.247-1.336-3.673-2.703-3.673-2.703s1.654,0.298,3.146,1.518c1.274,1.041,2.593,2.463,2.593,2.463
			c0.155-0.876,0.702-1.334-0.478-2.955c-0.318-0.437-1.09-1.184-2.514-1.45C68.479,21.438,66.799,21.678,66.799,21.678"/>
		<path fill="#7A9C49" d="M67.466,11.345c10.755,2.372,8.21,8.092,8.21,8.092s-0.798-0.497-3.182-2.351
			c-2.009-1.561-4.207-4.756-4.207-4.756s0.62,2.256,2.497,4.173c1.603,1.638,3.74,3.289,3.74,3.289
			c-1.196,0.325-1.762,1.141-4.158-0.293c-0.646-0.387-1.777-1.364-2.324-3.305C67.343,13.704,67.466,11.345,67.466,11.345"/>
	</g>
</g>
<g>
	<path fill="#7A9C49" d="M4.817,79.462c0,4.303,1.729,6.546,4.854,6.546c2.391,0,4.082-1.691,4.486-4.818l4.781,0.699
		c-0.735,5.112-4.303,8.422-9.451,8.422C3.751,90.311,0,86.045,0,80.051v-6.104c0-5.994,3.751-10.26,9.488-10.26
		c5.148,0,8.715,3.31,9.451,8.421l-4.781,0.699c-0.404-3.126-2.096-4.817-4.486-4.817c-3.125,0-4.854,2.243-4.854,6.546V79.462z"/>
	<path fill="#7A9C49" d="M37.805,89.87h-4.523V79.205c0-2.794-0.919-4.266-3.31-4.266c-1.397,0-2.795,0.919-3.42,2.354V89.87h-4.523
		V63.686h4.523v9.855c0.919-1.434,2.684-2.5,4.891-2.5c4.045,0,6.362,2.868,6.362,7.502V89.87z"/>
	<path fill="#7A9C49" d="M41.777,63.686H46.3v4.449h-4.523V63.686z M41.777,71.482H46.3V89.87h-4.523V71.482z"/>
	<path fill="#7A9C49" d="M49.831,78.764c0-4.192,3.31-7.723,8.017-7.723c4.082,0,7.023,2.721,7.759,6.178l-4.56,0.662
		c-0.368-2.022-1.655-2.942-3.199-2.942c-1.913,0-3.494,1.361-3.494,4.376v2.722c0,3.016,1.581,4.376,3.494,4.376
		c1.544,0,2.832-0.919,3.199-2.941l4.56,0.662c-0.736,3.456-3.678,6.178-7.759,6.178c-4.707,0-8.017-3.53-8.017-7.723V78.764z"/>
	<path fill="#7A9C49" d="M68.145,78.58c0-4.192,3.2-7.539,8.017-7.539c4.817,0,8.016,3.346,8.016,7.539v4.192
		c0,4.192-3.199,7.539-8.016,7.539c-4.817,0-8.017-3.347-8.017-7.539V78.58z M72.668,82.294c0,2.979,1.618,4.118,3.494,4.118
		s3.493-1.14,3.493-4.118v-3.237c0-2.979-1.618-4.119-3.493-4.119s-3.494,1.14-3.494,4.119V82.294z"/>
	<path fill="#7A9C49" d="M102.604,74.02v15.85h-4.78V64.127h4.045l7.612,14.011l7.611-14.011h4.046V89.87h-4.781V74.02l-5.038,9.304
		h-3.677L102.604,74.02z"/>
	<path fill="#7A9C49" d="M124.449,84.538c0-2.979,2.207-5.664,7.98-5.664h3.125v-0.515c0-2.317-1.177-3.42-3.089-3.42
		c-1.508,0-2.721,0.735-3.31,2.096l-4.118-1.066c1.287-2.942,4.008-4.928,7.648-4.928c4.707,0,7.392,2.979,7.392,7.097V89.87h-4.523
		v-1.912c-1.029,1.471-2.721,2.354-4.964,2.354c-3.678,0-6.142-2.243-6.142-5.296V84.538z M135.555,84.464v-2.06h-3.897
		c-1.618,0-2.685,0.735-2.685,1.985v0.221c0,1.066,0.772,1.912,2.611,1.912C133.275,86.523,134.894,85.714,135.555,84.464z"/>
	<path fill="#7A9C49" d="M148.464,83.582c0,1.581,0.662,2.39,2.097,2.39h0.956v3.898h-1.471c-4.156,0-6.104-1.875-6.104-5.847
		V63.686h4.522V83.582z"/>
	<path fill="#7A9C49" d="M158.834,83.582c0,1.581,0.662,2.39,2.097,2.39h0.956v3.898h-1.471c-4.156,0-6.104-1.875-6.104-5.847
		V63.686h4.522V83.582z"/>
</g>
</svg>
