<?xml version="1.0" encoding="utf-8"?>
<!-- Generator: Adobe Illustrator 21.0.2, SVG Export Plug-In . SVG Version: 6.00 Build 0)  -->
<svg version="1.1" id="Layer_1" xmlns="http://www.w3.org/2000/svg" xmlns:xlink="http://www.w3.org/1999/xlink" x="0px" y="0px"
	 viewBox="0 0 153.8 110.9" style="enable-background:new 0 0 153.8 110.9;" xml:space="preserve">
<style type="text/css">
	.st0{fill:#FFFFFF;}
	.st1{fill:none;stroke:#FFFFFF;stroke-width:0.938;stroke-linecap:round;stroke-miterlimit:10;}
</style>
<g>
	<path class="st0" d="M4.5,73.8v5.3c0,4.9,2.3,7.8,5.9,7.8c3.1,0,5.2-2,5.9-5.6l2.8,0.5c-0.7,4.7-3.9,7.7-8.6,7.7
		c-5.3,0-8.7-4-8.7-9.9v-6.1c0-5.8,3.4-9.9,8.7-9.9c4.7,0,8,3,8.6,7.8l-2.8,0.5c-0.6-3.7-2.8-5.7-5.9-5.7
		C6.8,66.1,4.5,68.9,4.5,73.8z"/>
	<path class="st0" d="M34,89V78.6c0-3.7-1.1-5.5-4.1-5.5c-2,0-3.8,1.2-4.8,3.2V89h-2.7V63.5h2.7v9.9c1.1-1.6,3-2.7,5.5-2.7
		c3.9,0,6.1,2.8,6.1,7.4V89H34z"/>
	<path class="st0" d="M40.9,63.5h2.7v3.3h-2.7V63.5z M40.9,71.1h2.7V89h-2.7V71.1z"/>
	<path class="st0" d="M47.3,78.2c0-4.1,3-7.5,7.4-7.5c3.8,0,6.3,2.4,7.1,5.6l-2.7,0.5c-0.5-2.4-2.2-3.7-4.4-3.7
		c-2.7,0-4.7,2.1-4.7,5.6v2.7c0,3.5,2,5.6,4.7,5.6c2.2,0,3.9-1.3,4.4-3.7l2.7,0.5c-0.8,3.2-3.3,5.6-7.1,5.6c-4.4,0-7.4-3.4-7.4-7.5
		V78.2z"/>
	<path class="st0" d="M64.6,78.2c0-4.1,3-7.5,7.4-7.5s7.4,3.4,7.4,7.5v3.7c0,4.1-3,7.5-7.4,7.5s-7.4-3.4-7.4-7.5V78.2z M76.7,78.7
		c0-3.5-2-5.6-4.7-5.6s-4.7,2.1-4.7,5.6v2.7c0,3.5,2,5.6,4.7,5.6s4.7-2.1,4.7-5.6V78.7z"/>
	<path class="st0" d="M102.7,82.1l-6.8-12.3V89H93V64h2.5l8.3,15l8.3-15h2.5v25h-2.8V69.8L105,82.1H102.7z"/>
	<path class="st0" d="M121.4,75.7l-2.6-0.7c1.3-2.6,3.8-4.4,7-4.4c4.2,0,6.7,2.8,6.7,6.8V89h-2.7v-2.2c-1.1,1.6-3,2.6-5.6,2.6
		c-3.7,0-6-2.1-6-5V84c0-2.7,1.9-5.3,7.4-5.3h4.3v-0.9c0-3.2-1.6-4.8-4.1-4.8C123.8,73.1,122.3,74.1,121.4,75.7z M129.9,84.1v-3.2
		h-5.1c-2.5,0-3.9,1.4-3.9,3.1v0.2c0,1.6,1.3,2.8,3.8,2.8C126.9,87,128.7,86,129.9,84.1z"/>
	<path class="st0" d="M142.4,89h-0.7c-3.5,0-5.1-1.8-5.1-5.1V63.5h2.7v20c0,1.9,0.8,3,2.5,3h0.6V89z"/>
	<path class="st0" d="M151.1,89h-0.7c-3.5,0-5.1-1.8-5.1-5.1V63.5h2.7v20c0,1.9,0.8,3,2.5,3h0.6V89z"/>
</g>
<g>
	<path class="st0" d="M10.8,109.5c-2.3,0-3.8-1.6-3.8-3.7c0-2.1,1.6-3.7,3.8-3.7c0.9,0,1.7,0.3,2.3,0.7l-0.4,1
		c-0.6-0.3-1.3-0.5-1.9-0.5c-1.6,0-2.5,1-2.5,2.5c0,1.5,1,2.5,2.5,2.5c0.6,0,1.4-0.2,1.9-0.6l0.4,1
		C12.5,109.2,11.7,109.5,10.8,109.5z"/>
	<path class="st0" d="M14.8,109.4v-7.1h4.3v1.1H16v1.9h2.8v1.1H16v2h3.1v1.1H14.8z"/>
	<path class="st0" d="M26.9,109.6l-4.5-4.7v4.6h-1.2v-7.2l0.2,0l4.4,4.6v-4.5H27v7.2L26.9,109.6z"/>
	<path class="st0" d="M32.1,103.4v6h-1.2v-6h-2.3v-1.1h5.7v1.1H32.1z"/>
	<path class="st0" d="M35.9,109.4v-7.1h4.3v1.1h-3.1v1.9h2.8v1.1h-2.8v2h3.1v1.1H35.9z"/>
	<path class="st0" d="M47.9,109.6l-4.5-4.7v4.6h-1.2v-7.2l0.2,0l4.4,4.6v-4.5h1.2v7.2L47.9,109.6z"/>
	<path class="st0" d="M56,109.6l-4.5-4.7v4.6h-1.2v-7.2l0.2,0l4.4,4.6v-4.5h1.2v7.2L56,109.6z"/>
	<path class="st0" d="M58.4,109.4v-7.1h1.2v7.1H58.4z"/>
	<path class="st0" d="M66.5,109.4l-0.7-1.6H63l-0.7,1.6h-1.3l3.3-7.2h0.2l3.3,7.2H66.5z M64.4,104.4l-1,2.4h2L64.4,104.4z"/>
	<path class="st0" d="M69.3,109.4v-7.1h1.2v6h3.1v1.1H69.3z"/>
	<path class="st0" d="M81.3,109.5c-2.3,0-3.8-1.6-3.8-3.7c0-2.1,1.6-3.7,3.8-3.7c0.9,0,1.7,0.3,2.3,0.7l-0.4,1
		c-0.6-0.3-1.3-0.5-1.9-0.5c-1.6,0-2.5,1-2.5,2.5c0,1.5,1,2.5,2.5,2.5c0.6,0,1.4-0.2,1.9-0.6l0.4,1
		C83.1,109.2,82.2,109.5,81.3,109.5z"/>
	<path class="st0" d="M88.4,109.5c-2.1,0-3.6-1.6-3.6-3.7c0-2.1,1.6-3.7,3.6-3.7s3.6,1.6,3.6,3.7C92.1,108,90.5,109.5,88.4,109.5z
		 M88.5,103.3c-1.4,0-2.3,1.1-2.3,2.6c0,1.5,0.9,2.6,2.3,2.6c1.4,0,2.3-1.1,2.3-2.6C90.8,104.4,89.8,103.3,88.5,103.3z"/>
	<path class="st0" d="M94,109.4v-7.1h1.2v6h3.1v1.1H94z"/>
	<path class="st0" d="M99.9,109.4v-7.1h1.2v6h3.1v1.1H99.9z"/>
	<path class="st0" d="M105.8,109.4v-7.1h4.3v1.1H107v1.9h2.8v1.1H107v2h3.1v1.1H105.8z"/>
	<path class="st0" d="M115.6,109.5c-2.3,0-3.8-1.6-3.8-3.7c0-2.1,1.6-3.7,3.8-3.7c0.9,0,1.7,0.3,2.3,0.7l-0.4,1
		c-0.6-0.3-1.3-0.5-1.9-0.5c-1.6,0-2.5,1-2.5,2.5c0,1.5,1,2.5,2.5,2.5c0.6,0,1.4-0.2,1.9-0.6l0.4,1
		C117.3,109.2,116.5,109.5,115.6,109.5z"/>
	<path class="st0" d="M122.7,103.4v6h-1.2v-6h-2.3v-1.1h5.7v1.1H122.7z"/>
	<path class="st0" d="M126.6,109.4v-7.1h1.2v7.1H126.6z"/>
	<path class="st0" d="M133.3,109.5c-2.1,0-3.6-1.6-3.6-3.7c0-2.1,1.6-3.7,3.6-3.7s3.6,1.6,3.6,3.7
		C136.9,108,135.4,109.5,133.3,109.5z M133.3,103.3c-1.4,0-2.3,1.1-2.3,2.6c0,1.5,0.9,2.6,2.3,2.6c1.4,0,2.3-1.1,2.3-2.6
		C135.6,104.4,134.7,103.3,133.3,103.3z"/>
	<path class="st0" d="M144.5,109.6l-4.5-4.7v4.6h-1.2v-7.2l0.2,0l4.4,4.6v-4.5h1.2v7.2L144.5,109.6z"/>
</g>
<line class="st1" x1="16.7" y1="52.8" x2="135.2" y2="52.8"/>
<g>
	<polygon class="st0" points="73.4,43.5 78.6,43.4 76.3,9.8 75.3,10.4 	"/>
	<polygon class="st0" points="82.5,28.6 77.4,36 77.4,31.5 82.5,27.7 	"/>
	<polygon class="st0" points="81.2,21.8 77,27.9 76.5,24.6 80.5,21.5 	"/>
	<polygon class="st0" points="70.3,21.6 74.8,27.9 75.2,24.6 71.1,21.5 	"/>
	<polygon class="st0" points="79.1,14.2 76.4,18.4 76.2,15.5 78.9,13.1 	"/>
	<g>
		<path class="st0" d="M88.4,13.2C78,15.5,80.5,21,80.5,21s0.8-0.5,3.1-2.3c1.9-1.5,4.1-4.6,4.1-4.6s-0.6,2.2-2.4,4
			c-1.5,1.6-3.6,3.2-3.6,3.2c1.2,0.3,1.7,1.1,4-0.3c0.6-0.4,1.7-1.3,2.2-3.2C88.5,15.5,88.4,13.2,88.4,13.2"/>
		<path class="st0" d="M85.3,8.1c-1.6,7.5-5.6,5.7-5.6,5.7s0.3-0.6,1.6-2.2c1.1-1.4,3.3-2.9,3.3-2.9s-1.6,0.4-2.9,1.7
			c-1.1,1.1-2.3,2.6-2.3,2.6c-0.2-0.8-0.8-1.2,0.2-2.9c0.3-0.4,0.9-1.2,2.3-1.6C83.7,8,85.3,8.1,85.3,8.1"/>
		<path class="st0" d="M75.7,1.9c-4.4,6.2-0.4,8-0.4,8s0.2-0.6,0.5-2.7c0.3-1.7-0.1-4.4-0.1-4.4s0.7,1.4,0.7,3.3
			c-0.1,1.6-0.4,3.4-0.4,3.4c0.8-0.4,1.4-0.2,2-2.1c0.1-0.5,0.3-1.5-0.4-2.8C76.9,3.1,75.7,1.9,75.7,1.9"/>
	</g>
	<polygon class="st0" points="72.5,14.2 75.1,18.4 75.3,15.5 72.6,13.1 	"/>
	<g>
		<path class="st0" d="M66.3,8.1c1.6,7.5,5.6,5.7,5.6,5.7s-0.3-0.6-1.6-2.2c-1.1-1.4-3.3-2.9-3.3-2.9s1.6,0.4,2.9,1.7
			c1.1,1.1,2.3,2.6,2.3,2.6c0.2-0.8,0.8-1.2-0.2-2.9c-0.3-0.4-0.9-1.2-2.3-1.6C67.9,8,66.3,8.1,66.3,8.1"/>
		<path class="st0" d="M89.1,22.9c-2.3,7.3-6.1,5.2-6.1,5.2s0.4-0.5,1.8-2c1.2-1.3,3.5-2.6,3.5-2.6s-1.6,0.3-3,1.5
			c-1.2,1-2.5,2.4-2.5,2.4c-0.2-0.8-0.7-1.3,0.5-2.9c0.3-0.4,1.1-1.1,2.4-1.4C87.5,22.6,89.1,22.9,89.1,22.9"/>
	</g>
	<polygon class="st0" points="69.4,28.6 74.4,36 74.5,31.5 69.4,27.7 	"/>
	<g>
		<path class="st0" d="M62.7,22.9c2.3,7.3,6.1,5.2,6.1,5.2s-0.4-0.5-1.8-2c-1.2-1.3-3.5-2.6-3.5-2.6s1.6,0.3,3,1.5
			c1.2,1,2.5,2.4,2.5,2.4c0.1-0.8,0.7-1.3-0.5-2.9c-0.3-0.4-1.1-1.1-2.4-1.4C64.4,22.6,62.7,22.9,62.7,22.9"/>
		<path class="st0" d="M63.4,12.9c10.4,2.3,7.9,7.8,7.9,7.8s-0.8-0.5-3.1-2.3c-1.9-1.5-4.1-4.6-4.1-4.6s0.6,2.2,2.4,4
			c1.5,1.6,3.6,3.2,3.6,3.2c-1.2,0.3-1.7,1.1-4-0.3c-0.6-0.4-1.7-1.3-2.2-3.2C63.3,15.2,63.4,12.9,63.4,12.9"/>
	</g>
</g>
</svg>
