<svg id="Layer_1" data-name="Layer 1" xmlns="http://www.w3.org/2000/svg" viewBox="0 0 169.16 169.47" width="100" height="100"><defs><style>.cls-1{fill:#006db5;}</style></defs><title>Growth Icon</title>
<desc>Four blue circles</desc><g id="Ellipse_2_copy_9" data-name="Ellipse 2 copy 9"><path class="cls-1" d="M41.33,105.5A23.52,23.52,0,1,1,17.8,129,23.55,23.55,0,0,1,41.33,105.5m0-17.25A40.77,40.77,0,1,0,82.11,129,40.77,40.77,0,0,0,41.33,88.25Z" transform="translate(-0.55 -0.31)"/></g><g id="Ellipse_2_copy_9-2" data-name="Ellipse 2 copy 9"><path class="cls-1" d="M128.91,105.5A23.52,23.52,0,1,1,105.36,129a23.56,23.56,0,0,1,23.55-23.52m0-17.25A40.77,40.77,0,1,0,169.7,129a40.78,40.78,0,0,0-40.8-40.77Z" transform="translate(-0.55 -0.31)"/></g><g id="Ellipse_2_copy_11" data-name="Ellipse 2 copy 11"><path class="cls-1" d="M41.33,17.56A23.52,23.52,0,1,1,17.8,41.08,23.55,23.55,0,0,1,41.33,17.56m0-17.25A40.77,40.77,0,1,0,82.11,41.08,40.77,40.77,0,0,0,41.33.31Z" transform="translate(-0.55 -0.31)"/></g><g id="Ellipse_2_copy_11-2" data-name="Ellipse 2 copy 11"><path class="cls-1" d="M128.91,17.56a23.52,23.52,0,1,1-23.55,23.52,23.56,23.56,0,0,1,23.55-23.52m0-17.25a40.77,40.77,0,1,0,40.8,40.77A40.78,40.78,0,0,0,128.91.31Z" transform="translate(-0.55 -0.31)"/></g></svg>
