<svg id="Layer_2" data-name="Layer 2" xmlns="http://www.w3.org/2000/svg" viewBox="0 0 169.16 81.6" width="100" height="100"><defs><style>.cls-1{fill:#006eb3;}</style></defs><title>Investors Icon</title>
<desc>Two blue circles</desc><g id="Ellipse_2_copy_3" data-name="Ellipse 2 copy 3"><path class="cls-1" d="M41.54,105.43A23.55,23.55,0,1,1,17.8,129a23.67,23.67,0,0,1,23.74-23.55m0-17.25a40.8,40.8,0,1,0,41,40.8,40.89,40.89,0,0,0-41-40.8Z" transform="translate(-0.55 -88.18)"/></g><g id="Ellipse_2_copy_3-2" data-name="Ellipse 2 copy 3"><path class="cls-1" d="M128.71,105.43A23.55,23.55,0,1,1,105,129a23.67,23.67,0,0,1,23.74-23.55m0-17.25a40.8,40.8,0,1,0,41,40.8,40.89,40.89,0,0,0-41-40.8Z" transform="translate(-0.55 -88.18)"/></g></svg>
