<?xml version="1.0" encoding="utf-8"?>
<!-- Generator: Adobe Illustrator 21.1.0, SVG Export Plug-In . SVG Version: 6.00 Build 0)  -->
<svg version="1.1" id="Layer_1" xmlns="http://www.w3.org/2000/svg" xmlns:xlink="http://www.w3.org/1999/xlink" x="0px" y="0px"
	 viewBox="0 0 178.075 107.133" enable-background="new 0 0 178.075 107.133" xml:space="preserve">
   <title>Pueblo Mall logo</title>
<line fill="none" stroke="#98663D" stroke-width="0.767" stroke-linecap="round" stroke-miterlimit="10" x1="27.795" y1="50.746" x2="148.34" y2="50.746"/>
<g>
	<path fill="#985F35" d="M175.251,61.675h-3.599v19.763c0,3.529,1.87,5.364,5.682,5.364h0.741v-3.247h-0.706
		c-1.412,0-2.118-0.917-2.118-2.47V61.675z M165.236,61.675h-3.599v19.763c0,3.529,1.87,5.364,5.681,5.364h0.742v-3.247h-0.706
		c-1.412,0-2.118-0.917-2.118-2.47V61.675z M149.056,83.979c-2.117,0-3.035-0.953-3.035-2.118v-0.176
		c0-1.412,1.271-2.365,2.859-2.365h4.517v2.435C152.656,83.096,150.962,83.979,149.056,83.979 M142.422,82.214
		c0,2.788,2.258,5.011,5.999,5.011c2.259,0,3.953-0.882,4.976-2.258v1.835h3.6V75.438c0-3.952-2.577-6.705-6.847-6.705
		c-3.317,0-5.858,1.8-7.199,4.553l3.564,0.988c0.706-1.412,1.836-2.294,3.494-2.294c2.082,0,3.388,1.376,3.388,3.988v0.459h-3.423
		c-5.576,0-7.552,2.576-7.552,5.258V82.214z M125.776,80.309h3.176l5.54-10.199v16.692h3.812V62.099h-3.282l-7.658,14.045
		l-7.658-14.045h-3.282v24.703h3.811V70.11L125.776,80.309z M90.345,76.744c0-3.211,1.835-4.764,3.917-4.764
		s3.917,1.553,3.917,4.764v2.471c0,3.211-1.835,4.764-3.917,4.764s-3.917-1.553-3.917-4.764V76.744z M86.746,79.92
		c0,3.882,3.14,7.305,7.516,7.305c4.376,0,7.517-3.423,7.517-7.305v-3.882c0-3.881-3.141-7.305-7.517-7.305
		c-4.376,0-7.516,3.424-7.516,7.305V79.92z M81.029,61.675h-3.6v19.763c0,3.529,1.871,5.364,5.682,5.364h0.741v-3.247h-0.706
		c-1.411,0-2.117-0.917-2.117-2.47V61.675z M65.537,71.98c2.929,0,3.988,1.835,3.988,4.764v2.471c0,2.929-1.059,4.764-3.988,4.764
		c-1.553,0-2.717-0.812-3.459-2.224v-7.552C62.82,72.792,63.984,71.98,65.537,71.98 M73.124,76.038c0-3.952-2.117-7.305-6.387-7.305
		c-2.047,0-3.812,0.953-4.659,2.259v-9.317h-3.599v25.127h3.599v-1.835c0.847,1.306,2.612,2.258,4.659,2.258
		c4.27,0,6.387-3.352,6.387-7.305V76.038z M46.872,71.98c2.012,0,3.776,1.447,3.918,4.447h-7.835
		C43.061,73.427,44.861,71.98,46.872,71.98 M54.389,79.32v-3.282c0-3.881-3.141-7.305-7.517-7.305s-7.516,3.424-7.516,7.305v3.882
		c0,3.847,2.964,7.305,7.622,7.305c3.635,0,6.105-1.976,7.058-4.94l-3.67-0.6c-0.494,1.553-1.729,2.294-3.388,2.294
		c-2.294,0-3.988-1.518-4.023-4.659H54.389z M20.497,79.92c0,4.482,2.117,7.305,6.07,7.305c2.223,0,4.128-1.129,5.011-2.611v2.188
		h3.599V69.157h-3.599v12.246c-0.671,1.588-2.329,2.576-3.812,2.576c-2.823,0-3.67-1.694-3.67-4.764V69.157h-3.599V79.92z
		 M3.812,73.78v-8.258h4.482c2.646,0,4.587,1.376,4.587,4.129c0,2.717-1.941,4.129-4.587,4.129H3.812z M8.823,77.203
		c3.811,0,7.87-2.4,7.87-7.552c0-5.117-4.059-7.552-7.87-7.552H0v24.703h3.812v-9.599H8.823z"/>
	<path fill="#646569" d="M161.428,107.105v-7.142h-1.631v3.648l-4.186-3.782l-0.22,0.038v7.132h1.63v-3.676l4.244,3.81
		L161.428,107.105z M151.392,103.486c0,1.258-0.749,2.18-1.863,2.18s-1.863-0.922-1.863-2.18c0-1.267,0.749-2.18,1.863-2.18
		S151.392,102.219,151.392,103.486 M153.138,103.486c0-2.074-1.4-3.638-3.57-3.638c-2.18,0-3.638,1.564-3.638,3.638
		c0,2.065,1.391,3.628,3.57,3.628C151.67,107.114,153.138,105.551,153.138,103.486 M143.676,99.963h-1.631v7.036h1.631V99.963z
		 M140.117,101.46v-1.497h-5.855v1.497h2.112v5.539h1.631v-5.539H140.117z M132.631,106.462l-0.49-1.382
		c-0.528,0.327-1.181,0.519-1.757,0.519c-1.315,0-2.131-0.807-2.131-2.113s0.816-2.113,2.131-2.113c0.576,0,1.162,0.183,1.68,0.471
		l0.5-1.382c-0.634-0.374-1.383-0.614-2.199-0.614c-2.294,0-3.848,1.545-3.848,3.638c0,2.084,1.554,3.628,3.848,3.628
		C131.172,107.114,132.016,106.865,132.631,106.462 M124.494,106.999v-1.487h-2.822v-1.374h2.572v-1.419h-2.572v-1.259h2.822v-1.497
		h-4.453v7.036H124.494z M118.177,106.999v-1.487h-2.822v-5.549h-1.631v7.036H118.177z M111.86,106.999v-1.487h-2.822v-5.549h-1.631
		v7.036H111.86z M103.409,103.486c0,1.258-0.749,2.18-1.863,2.18s-1.863-0.922-1.863-2.18c0-1.267,0.749-2.18,1.863-2.18
		S103.409,102.219,103.409,103.486 M105.155,103.486c0-2.074-1.401-3.638-3.571-3.638c-2.179,0-3.637,1.564-3.637,3.638
		c0,2.065,1.391,3.628,3.57,3.628C103.687,107.114,105.155,105.551,105.155,103.486 M96.336,106.462l-0.489-1.382
		c-0.528,0.327-1.181,0.519-1.757,0.519c-1.315,0-2.131-0.807-2.131-2.113s0.816-2.113,2.131-2.113c0.576,0,1.162,0.183,1.68,0.471
		l0.499-1.382c-0.633-0.374-1.382-0.614-2.198-0.614c-2.295,0-3.849,1.545-3.849,3.638c0,2.084,1.554,3.628,3.849,3.628
		C94.877,107.114,95.722,106.865,96.336,106.462 M86.017,106.999v-1.487h-2.823v-5.549h-1.631v7.036H86.017z M77.09,104.475h-1.392
		l0.701-1.689L77.09,104.475z M79.836,106.999l-3.312-7.093h-0.221l-3.312,7.093h1.661l0.528-1.277h2.429l0.528,1.277H79.836z
		 M71.247,99.963h-1.631v7.036h1.631V99.963z M67.051,107.105v-7.142H65.42v3.648l-4.186-3.782l-0.22,0.038v7.132h1.631v-3.676
		l4.243,3.81L67.051,107.105z M58.471,107.105v-7.142H56.84v3.648l-4.186-3.782l-0.221,0.038v7.132h1.631v-3.676l4.244,3.81
		L58.471,107.105z M50.005,106.999v-1.487h-2.822v-1.374h2.573v-1.419h-2.573v-1.259h2.822v-1.497h-4.453v7.036H50.005z
		 M43.649,101.46v-1.497h-5.854v1.497h2.112v5.539h1.63v-5.539H43.649z M35.887,107.105v-7.142h-1.631v3.648l-4.186-3.782
		l-0.22,0.038v7.132h1.631v-3.676l4.243,3.81L35.887,107.105z M27.422,106.999v-1.487h-2.823v-1.374h2.573v-1.419h-2.573v-1.259
		h2.823v-1.497h-4.454v7.036H27.422z M20.934,106.462l-0.49-1.382c-0.528,0.327-1.18,0.519-1.756,0.519
		c-1.316,0-2.132-0.807-2.132-2.113s0.816-2.113,2.132-2.113c0.576,0,1.161,0.183,1.68,0.471l0.499-1.382
		c-0.634-0.374-1.383-0.614-2.199-0.614c-2.294,0-3.848,1.545-3.848,3.638c0,2.084,1.554,3.628,3.848,3.628
		C19.475,107.114,20.32,106.865,20.934,106.462"/>
	<path fill="#985F35" d="M27.163,29.244c0.493-1.274,2.567-5.999,4.523-6.984c1.544-0.778,7.831-6.245,7.831-6.245
		s6.873-0.809,8.932-0.809c2.059,0,4.108,1.166,4.108,1.166v2.146l0.889,1.727l3.224-2.856l0.348-3.914l3.088-1.43l4.118-0.715
		l3.088,2.54l0.752,6.022c0,0,3.625,0.052,8.248-0.841c1.103,0,6.099-0.533,6.786-1.963c0.686-1.431,5.613-2.112,6.61-2.397
		c2.942-0.84,7.743-2.004,7.743-2.004l4.52,2.97l3.775-1.43l-0.397-2.38l7.603-1.553l10.638,1.073l4.804,5.721l14.756,3.575
		l5.834,8.581H27.163z"/>
</g>
<rect x="27.486" y="31.204" fill="#985F35" width="26.72" height="0.678"/>
<rect x="130.049" y="30.797" fill="#985F35" width="18.2" height="0.678"/>
<rect x="133.923" y="32.143" fill="#985F35" width="14.327" height="0.678"/>
<rect x="130.049" y="37.749" fill="#985F35" width="18.2" height="0.678"/>
<rect x="103.852" y="31.137" fill="#985F35" width="18.201" height="0.678"/>
<rect x="84.025" y="31.137" fill="#985F35" width="18.202" height="0.678"/>
<rect x="81.701" y="34.699" fill="#985F35" width="21.531" height="0.678"/>
<rect x="43.519" y="34.699" fill="#985F35" width="17.195" height="0.678"/>
<rect x="54.672" y="38.572" fill="#985F35" width="32.762" height="0.678"/>
<rect x="94.732" y="39.268" fill="#985F35" width="53.517" height="0.678"/>
<rect x="94.79" y="42.909" fill="#985F35" width="45.774" height="0.678"/>
<rect x="74.964" y="41.05" fill="#985F35" width="33.846" height="0.678"/>
<rect x="103.93" y="36.635" fill="#985F35" width="12.469" height="0.679"/>
<rect x="27.486" y="36.016" fill="#985F35" width="12.47" height="0.678"/>
<rect x="68.613" y="36.868" fill="#985F35" width="11.695" height="0.678"/>
<rect x="44.526" y="37.332" fill="#985F35" width="8.907" height="0.678"/>
<rect x="55.523" y="36.403" fill="#985F35" width="8.907" height="0.678"/>
<rect x="62.725" y="34.699" fill="#985F35" width="7.436" height="0.678"/>
<rect x="140.816" y="34.699" fill="#985F35" width="7.434" height="0.678"/>
<rect x="27.486" y="34.622" fill="#985F35" width="7.436" height="0.678"/>
<rect x="59.396" y="42.444" fill="#985F35" width="12.857" height="0.678"/>
<rect x="76.126" y="32.84" fill="#985F35" width="15.877" height="0.678"/>
<rect x="50.722" y="32.84" fill="#985F35" width="13.708" height="0.678"/>
<rect x="27.486" y="32.995" fill="#985F35" width="9.681" height="0.678"/>
<rect x="93.01" y="32.84" fill="#985F35" width="16.032" height="0.678"/>
<rect x="118.878" y="32.84" fill="#985F35" width="11.928" height="0.678"/>
<rect x="27.486" y="40.043" fill="#985F35" width="25.481" height="0.678"/>
<rect x="113.456" y="34.699" fill="#985F35" width="21.531" height="0.678"/>
<rect x="63.578" y="31.137" fill="#985F35" width="18.201" height="0.678"/>
<g>
	<path fill="#985F35" d="M69.595,10.467l6.531,3.094c0.003,0.231,0.019,0.459,0.045,0.686l-6.303,3.41l7.278-0.592
		c0.178,0.291,0.384,0.564,0.603,0.827c0.555-0.067,1.156-0.162,1.745-0.281c-1.286-1.315-1.898-3.232-1.438-5.153
		c0.712-2.974,3.7-4.807,6.674-4.095c2.556,0.612,4.258,2.908,4.237,5.429c0.249-0.051,0.467-0.098,0.597-0.135
		c0.232-0.066,0.479-0.135,0.731-0.205c-0.004-0.222-0.012-0.445-0.038-0.664l6.171-3.338l-7.105,0.578
		c-0.132-0.222-0.274-0.438-0.43-0.644l3.704-6.025l-5.926,4.096c-0.205-0.114-0.416-0.218-0.634-0.312L86.234,0l-3.099,6.543
		c-0.229,0-0.456,0.011-0.681,0.033l-3.41-6.303l0.585,7.194c-0.204,0.116-0.402,0.241-0.594,0.376l-6.081-3.739l4.088,5.915
		c-0.12,0.208-0.228,0.423-0.327,0.645L69.595,10.467z"/>
	<path fill="#985F35" d="M82.321,20.434l-0.494-0.107c0.341,0.07,0.681,0.116,1.019,0.136
		C82.671,20.456,82.497,20.455,82.321,20.434 M96.701,16.64L91.55,14.2c-0.6,0.161-1.179,0.319-1.697,0.467
		c-0.202,0.058-0.56,0.132-1.008,0.224c-0.01,0.049-0.008,0.097-0.02,0.146c-0.712,2.974-3.7,4.808-6.674,4.096
		c-0.581-0.14-1.102-0.387-1.585-0.682c-0.636,0.158-1.289,0.276-1.893,0.363c0.799,0.664,1.753,1.17,2.83,1.443l-0.441-0.096
		c-0.275-0.086-0.542-0.189-0.799-0.307l-0.201,7.253l3.137-6.623c-0.036,0-0.073-0.006-0.109-0.007
		c0.239,0.007,0.478,0.001,0.713-0.016l3.449,6.373l-0.587-7.212c0.204-0.11,0.402-0.23,0.594-0.359l6.083,3.74l-4.045-5.853
		c0.138-0.226,0.264-0.461,0.377-0.705L96.701,16.64z"/>
</g>
</svg>
