<?xml version="1.0" encoding="utf-8"?>
<!-- Generator: Adobe Illustrator 21.0.2, SVG Export Plug-In . SVG Version: 6.00 Build 0)  -->
<svg version="1.1" id="Layer_1" xmlns="http://www.w3.org/2000/svg" xmlns:xlink="http://www.w3.org/1999/xlink" x="0px" y="0px"
	 viewBox="0 0 172.8 142.5" style="enable-background:new 0 0 172.8 142.5;" xml:space="preserve">
<style type="text/css">
	.st0{fill:#FFFFFF;}
</style>
<g>
	<path class="st0" d="M146.8,52.6H26.2c-0.2,0-0.4-0.2-0.4-0.4s0.2-0.4,0.4-0.4h120.5c0.2,0,0.4,0.2,0.4,0.4S147,52.6,146.8,52.6z"
		/>
</g>
<g>
	<path class="st0" d="M25.6,30.7c0.5-1.3,2.6-6,4.5-7c1.5-0.8,7.8-6.2,7.8-6.2s6.9-0.8,8.9-0.8c2.1,0,4.1,1.2,4.1,1.2V20l0.9,1.7
		l3.2-2.9l0.3-3.9l3.1-1.4l4.1-0.7l3.1,2.5l0.8,6c0,0,3.6,0.1,8.2-0.8c1.1,0,6.1-0.5,6.8-2c0.7-1.4,5.6-2.1,6.6-2.4
		c2.9-0.8,7.7-2,7.7-2l4.5,3l3.8-1.4l-0.4-2.4l7.6-1.6l10.6,1.1l4.8,5.7l14.8,3.6l5.8,8.6H25.6z"/>
</g>
<rect x="25.9" y="32.7" class="st0" width="26.7" height="0.7"/>
<rect x="128.5" y="32.3" class="st0" width="18.2" height="0.7"/>
<rect x="132.3" y="33.6" class="st0" width="14.3" height="0.7"/>
<rect x="128.5" y="39.2" class="st0" width="18.2" height="0.7"/>
<rect x="102.3" y="32.6" class="st0" width="18.2" height="0.7"/>
<rect x="82.4" y="32.6" class="st0" width="18.2" height="0.7"/>
<rect x="80.1" y="36.2" class="st0" width="21.5" height="0.7"/>
<rect x="41.9" y="36.2" class="st0" width="17.2" height="0.7"/>
<rect x="53.1" y="40" class="st0" width="32.8" height="0.7"/>
<rect x="93.2" y="40.7" class="st0" width="53.5" height="0.7"/>
<rect x="93.2" y="44.4" class="st0" width="45.8" height="0.7"/>
<rect x="73.4" y="42.5" class="st0" width="33.8" height="0.7"/>
<rect x="102.4" y="38.1" class="st0" width="12.5" height="0.7"/>
<rect x="25.9" y="37.5" class="st0" width="12.5" height="0.7"/>
<rect x="67" y="38.3" class="st0" width="11.7" height="0.7"/>
<rect x="42.9" y="38.8" class="st0" width="8.9" height="0.7"/>
<rect x="53.9" y="37.9" class="st0" width="8.9" height="0.7"/>
<rect x="61.1" y="36.2" class="st0" width="7.4" height="0.7"/>
<rect x="139.2" y="36.2" class="st0" width="7.4" height="0.7"/>
<rect x="25.9" y="36.1" class="st0" width="7.4" height="0.7"/>
<rect x="57.8" y="43.9" class="st0" width="12.9" height="0.7"/>
<rect x="74.5" y="34.3" class="st0" width="15.9" height="0.7"/>
<rect x="49.1" y="34.3" class="st0" width="13.7" height="0.7"/>
<rect x="25.9" y="34.5" class="st0" width="9.7" height="0.7"/>
<rect x="91.4" y="34.3" class="st0" width="16" height="0.7"/>
<rect x="117.3" y="34.3" class="st0" width="11.9" height="0.7"/>
<rect x="25.9" y="41.5" class="st0" width="25.5" height="0.7"/>
<rect x="111.9" y="36.2" class="st0" width="21.5" height="0.7"/>
<rect x="62" y="32.6" class="st0" width="18.2" height="0.7"/>
<g>
	<path class="st0" d="M68,11.9l6.5,3.1c0,0.2,0,0.5,0,0.7l-6.3,3.4l7.3-0.6c0.2,0.3,0.4,0.6,0.6,0.8c0.6-0.1,1.2-0.2,1.7-0.3
		c-1.3-1.3-1.9-3.2-1.4-5.2c0.7-3,3.7-4.8,6.7-4.1c2.6,0.6,4.3,2.9,4.2,5.4c0.2-0.1,0.5-0.1,0.6-0.1c0.2-0.1,0.5-0.1,0.7-0.2
		c0-0.2,0-0.4,0-0.7l6.2-3.3l-7.1,0.6c-0.1-0.2-0.3-0.4-0.4-0.6l3.7-6l-5.9,4.1c-0.2-0.1-0.4-0.2-0.6-0.3l0.2-7.1L81.6,8
		c-0.2,0-0.5,0-0.7,0l-3.4-6.3l0.6,7.2c-0.2,0.1-0.4,0.2-0.6,0.4l-6.1-3.7l4.1,5.9c-0.1,0.2-0.2,0.4-0.3,0.6L68,11.9z"/>
	<path class="st0" d="M116,118.3h-0.6c-1.7,0-2.4-1.1-2.4-3V95.5h-2.6v20c0,3.3,1.6,5.1,5,5.1h0.7V118.3z M107.3,118.3h-0.6
		c-1.7,0-2.4-1.1-2.4-3V95.5h-2.6v20c0,3.3,1.6,5.1,5,5.1h0.7V118.3z M90.7,104.9c2.5,0,4.1,1.5,4.1,4.7v0.9h-4.2
		c-5.4,0-7.3,2.5-7.3,5.2v0.5c0,2.8,2.3,4.9,6,4.9c2.6,0,4.5-1,5.6-2.6v2.2h2.6v-11.3c0-4-2.5-6.7-6.6-6.7c-3.2,0-5.6,1.7-7,4.3
		l2.6,0.7C87.4,106,88.8,104.9,90.7,104.9 M89.6,118.7c-2.4,0-3.7-1.2-3.7-2.8v-0.2c0-1.7,1.4-3.1,3.9-3.1h5v3.2
		C93.7,117.7,91.9,118.7,89.6,118.7 M70.2,113.9l6.7-12.2v19h2.8V95.9h-2.5L69,110.8l-8.2-14.9h-2.5v24.7h2.8v-19l6.7,12.2H70.2z"/>
	<path class="st0" d="M132.1,80.2c0,3.5-2,5.5-4.7,5.5c-2.6,0-4.7-2-4.7-5.5v-2.7c0-3.5,2-5.5,4.7-5.5c2.6,0,4.7,2,4.7,5.5V80.2z
		 M120.1,80.7c0,4.1,2.9,7.4,7.3,7.4s7.3-3.4,7.3-7.4V77c0-4.1-2.9-7.4-7.3-7.4s-7.3,3.4-7.3,7.4V80.7z M118,85.3h-0.6
		c-1.7,0-2.4-1.1-2.4-3V62.5h-2.6v20c0,3.3,1.6,5.1,5,5.1h0.7V85.3z M105.8,80.2c0,3.6-1.4,5.5-4.5,5.5c-2,0-3.5-1.2-4.3-2.9v-8
		c0.8-1.7,2.3-2.9,4.3-2.9c3.1,0,4.5,1.9,4.5,5.5V80.2z M108.5,77c0-4.3-2.3-7.4-6.4-7.4c-2.3,0-4.1,1-5,2.4v-9.4h-2.6v25.1H97v-1.9
		c1,1.4,2.7,2.4,5,2.4c4.2,0,6.4-3.1,6.4-7.4V77z M78.9,77.5c0-3.5,2-5.5,4.7-5.5c2.6,0,4.7,2,4.7,5.5v0.2h-9.3V77.5z M83.6,88.1
		c3.6,0,6-2,7-4.9l-2.7-0.4c-0.6,1.9-2.2,3-4.2,3c-2.6,0-4.7-2-4.7-5.5v-0.4h12V77c0-4.1-2.9-7.4-7.3-7.4c-4.4,0-7.3,3.4-7.3,7.4
		v3.7C76.3,84.7,79.2,88.1,83.6,88.1 M58.5,70v10.8c0,4.5,2.1,7.3,6,7.3c2.4,0,4.3-1.1,5.4-2.7v2.3h2.6V70H70v12.5
		c-0.9,2-2.8,3.2-4.7,3.2c-3,0-4.1-1.8-4.1-5.5V70H58.5z M52.4,70.3c0,3.2-2.3,4.8-5.3,4.8h-5.4v-9.7h5.4
		C50.1,65.4,52.4,67,52.4,70.3 M47.5,77.6c3.8,0,7.7-2.3,7.7-7.3c0-5-3.8-7.3-7.7-7.3h-8.6v24.7h2.8v-10H47.5z"/>
	<path class="st0" d="M155.2,140.9v-7.1H154v4.4l-4.3-4.6l-0.2,0v7.1h1.2v-4.5l4.4,4.6L155.2,140.9z M146.2,137.3
		c0,1.5-0.9,2.6-2.3,2.6c-1.3,0-2.3-1.1-2.3-2.6c0-1.5,0.9-2.6,2.3-2.6C145.3,134.8,146.2,135.9,146.2,137.3 M147.5,137.3
		c0-2.1-1.5-3.6-3.5-3.6c-2,0-3.6,1.5-3.6,3.6c0,2.1,1.5,3.6,3.5,3.6C145.9,141,147.5,139.4,147.5,137.3 M138.3,133.8h-1.2v7h1.2
		V133.8z M135.4,134.9v-1.1h-5.7v1.1h2.2v5.9h1.2v-5.9H135.4z M128.4,140.3l-0.4-1c-0.6,0.3-1.3,0.6-1.9,0.6c-1.5,0-2.5-1-2.5-2.5
		c0-1.5,0.9-2.5,2.5-2.5c0.6,0,1.3,0.2,1.9,0.5l0.4-1c-0.6-0.4-1.4-0.6-2.3-0.6c-2.2,0-3.8,1.6-3.8,3.6c0,2.1,1.6,3.6,3.8,3.6
		C126.9,141,127.8,140.7,128.4,140.3 M120.6,140.8v-1.1h-3.1v-2h2.8v-1.1h-2.8v-1.8h3.1v-1.1h-4.3v7H120.6z M114.7,140.8v-1.1h-3.1
		v-5.9h-1.2v7H114.7z M108.7,140.8v-1.1h-3.1v-5.9h-1.2v7H108.7z M101.1,137.3c0,1.5-0.9,2.6-2.3,2.6c-1.3,0-2.3-1.1-2.3-2.6
		c0-1.5,0.9-2.6,2.3-2.6C100.2,134.8,101.1,135.9,101.1,137.3 M102.4,137.3c0-2.1-1.5-3.6-3.5-3.6c-2,0-3.6,1.5-3.6,3.6
		c0,2.1,1.5,3.6,3.5,3.6C100.9,141,102.4,139.4,102.4,137.3 M94,140.3l-0.4-1c-0.6,0.3-1.3,0.6-1.9,0.6c-1.5,0-2.5-1-2.5-2.5
		c0-1.5,0.9-2.5,2.5-2.5c0.6,0,1.3,0.2,1.9,0.5l0.4-1c-0.6-0.4-1.4-0.6-2.3-0.6c-2.2,0-3.8,1.6-3.8,3.6c0,2.1,1.6,3.6,3.8,3.6
		C92.6,141,93.4,140.7,94,140.3 M84,140.8v-1.1H81v-5.9h-1.2v7H84z M75.9,138.3h-2l1-2.4L75.9,138.3z M78.2,140.8l-3.2-7.1h-0.2
		l-3.2,7.1h1.2l0.7-1.6h2.8l0.7,1.6H78.2z M70,133.8h-1.2v7H70V133.8z M66.5,140.9v-7.1h-1.2v4.4l-4.3-4.6l-0.2,0v7.1h1.2v-4.5
		l4.4,4.6L66.5,140.9z M58.4,140.9v-7.1h-1.2v4.4l-4.3-4.6l-0.2,0v7.1h1.2v-4.5l4.4,4.6L58.4,140.9z M50.6,140.8v-1.1h-3.1v-2h2.8
		v-1.1h-2.8v-1.8h3.1v-1.1h-4.3v7H50.6z M44.6,134.9v-1.1h-5.7v1.1h2.2v5.9h1.2v-5.9H44.6z M37.2,140.9v-7.1H36v4.4l-4.3-4.6l-0.2,0
		v7.1h1.2v-4.5l4.4,4.6L37.2,140.9z M29.4,140.8v-1.1h-3.1v-2h2.8v-1.1h-2.8v-1.8h3.1v-1.1h-4.3v7H29.4z M23.3,140.3l-0.4-1
		c-0.6,0.3-1.3,0.6-1.9,0.6c-1.5,0-2.5-1-2.5-2.5c0-1.5,0.9-2.5,2.5-2.5c0.6,0,1.3,0.2,1.9,0.5l0.4-1c-0.6-0.4-1.4-0.6-2.3-0.6
		c-2.2,0-3.8,1.6-3.8,3.6c0,2.1,1.6,3.6,3.8,3.6C21.9,141,22.7,140.7,23.3,140.3"/>
</g>
</svg>
